<svg width="24" height="24" viewBox="0 0 24 24" fill="none" xmlns="http://www.w3.org/2000/svg">
<path fill-rule="evenodd" clip-rule="evenodd" d="M4.09863 14.3115C7.9147 12.9486 12.0853 12.9486 15.9014 14.3115C17.0099 14.7076 17.75 15.7574 17.75 16.9346V18.25C17.75 19.8938 16.2942 21.1562 14.667 20.9238L13.7119 20.7881C11.2498 20.4364 8.75022 20.4364 6.28809 20.7881L5.33301 20.9238C3.70576 21.1562 2.25 19.8938 2.25 18.25V16.9346C2.25004 15.7574 2.9901 14.7076 4.09863 14.3115ZM15.3965 15.7236C11.9068 14.4774 8.09322 14.4774 4.60352 15.7236C4.09181 15.9064 3.75004 16.3912 3.75 16.9346V18.25C3.75 18.981 4.39744 19.5428 5.12109 19.4395L6.0752 19.3027C8.67828 18.9309 11.3217 18.9309 13.9248 19.3027L14.8789 19.4395C15.6026 19.5428 16.25 18.981 16.25 18.25V16.9346C16.25 16.3912 15.9082 15.9064 15.3965 15.7236Z" fill="black"/>
<path d="M19 8.25C19.4142 8.25 19.75 8.58579 19.75 9V10.25H21C21.4142 10.25 21.75 10.5858 21.75 11C21.75 11.4142 21.4142 11.75 21 11.75H19.75V13C19.75 13.4142 19.4142 13.75 19 13.75C18.5858 13.75 18.25 13.4142 18.25 13V11.75H17C16.5858 11.75 16.25 11.4142 16.25 11C16.25 10.5858 16.5858 10.25 17 10.25H18.25V9C18.25 8.58579 18.5858 8.25 19 8.25Z" fill="black"/>
<path d="M10 2.25C12.6234 2.25 14.75 4.37665 14.75 7C14.75 9.62335 12.6234 11.75 10 11.75C7.37665 11.75 5.25 9.62335 5.25 7C5.25 6.58579 5.58579 6.25 6 6.25C6.41421 6.25 6.75 6.58579 6.75 7C6.75 8.79493 8.20507 10.25 10 10.25C11.7949 10.25 13.25 8.79493 13.25 7C13.25 5.20507 11.7949 3.75 10 3.75C9.58579 3.75 9.25 3.41421 9.25 3C9.25 2.58579 9.58579 2.25 10 2.25Z" fill="black"/>
</svg>
