<svg width="24" height="24" viewBox="0 0 24 24" fill="none" xmlns="http://www.w3.org/2000/svg">
<path d="M12 1C12.4142 1 12.75 1.33579 12.75 1.75V3.03125C17.7843 3.4143 21.75 7.61763 21.75 12.75C21.75 15.9766 20.1818 18.8347 17.7676 20.6094L18.6709 22.415C18.8558 22.7853 18.706 23.2356 18.3359 23.4209C17.9656 23.6061 17.5145 23.4562 17.3291 23.0859L16.4893 21.4062C15.7633 21.7835 14.9844 22.0731 14.166 22.2588C13.7622 22.3504 13.3604 22.0971 13.2686 21.6934C13.1769 21.2895 13.4301 20.8876 13.834 20.7959C17.5078 19.9623 20.25 16.6753 20.25 12.75C20.25 8.19365 16.5563 4.5 12 4.5C7.44367 4.50003 3.75 8.19367 3.75 12.75C3.75 16.6753 6.49217 19.9622 10.166 20.7959C10.5699 20.8876 10.8231 21.2895 10.7314 21.6934C10.6396 22.0971 10.2378 22.3504 9.83398 22.2588C9.01526 22.073 8.2359 21.7837 7.50977 21.4062L6.6709 23.0859C6.48553 23.4561 6.03441 23.6061 5.66406 23.4209C5.29403 23.2356 5.14425 22.7853 5.3291 22.415L6.23145 20.6094C3.81763 18.8347 2.25 15.9763 2.25 12.75C2.25 7.61767 6.21579 3.41435 11.25 3.03125V1.75C11.25 1.3358 11.5858 1.00003 12 1Z" fill="black"/>
<path d="M12 8C12.4142 8 12.75 8.33579 12.75 8.75V12.3486L15.416 14.126C15.7607 14.3557 15.8538 14.8214 15.624 15.166C15.3943 15.5106 14.9286 15.6038 14.584 15.374L11.8066 13.5225C11.4589 13.2906 11.25 12.9003 11.25 12.4824V8.75C11.25 8.3358 11.5858 8.00003 12 8Z" fill="black"/>
<path d="M6.5498 1.15039C6.88106 0.901947 7.35102 0.968725 7.59961 1.2998C7.84807 1.63108 7.78132 2.10103 7.4502 2.34961L3.4502 5.34961C3.11892 5.59807 2.64898 5.53132 2.40039 5.2002C2.15195 4.86894 2.21873 4.39899 2.5498 4.15039L6.5498 1.15039Z" fill="black"/>
<path d="M16.4004 1.2998C16.649 0.968684 17.1189 0.901935 17.4502 1.15039L21.4502 4.15039C21.7813 4.39897 21.8481 4.86892 21.5996 5.2002C21.351 5.53128 20.8811 5.59805 20.5498 5.34961L16.5498 2.34961C16.2187 2.10101 16.1519 1.63106 16.4004 1.2998Z" fill="black"/>
</svg>
