<svg width="24" height="24" viewBox="0 0 24 24" fill="none" xmlns="http://www.w3.org/2000/svg">
<path d="M12 2.25C14.6234 2.25 16.75 4.37665 16.75 7V7.30859C19.017 7.66816 20.75 9.63183 20.75 12V17C20.75 19.6234 18.6234 21.75 16 21.75H8C5.37665 21.75 3.25 19.6234 3.25 17V16.75C3.25 16.3358 3.58579 16 4 16C4.41421 16 4.75 16.3358 4.75 16.75V17C4.75 18.7949 6.20507 20.25 8 20.25H16C17.7949 20.25 19.25 18.7949 19.25 17V12C19.25 10.4633 18.1832 9.17655 16.75 8.83789V10C16.75 10.4142 16.4142 10.75 16 10.75C15.5858 10.75 15.25 10.4142 15.25 10V7C15.25 5.20507 13.7949 3.75 12 3.75C10.2051 3.75 8.75 5.20507 8.75 7V7.25H12.5C12.9142 7.25 13.25 7.58579 13.25 8C13.25 8.41421 12.9142 8.75 12.5 8.75H8.75V10C8.75 10.4142 8.41421 10.75 8 10.75C7.58579 10.75 7.25 10.4142 7.25 10V8.83789C5.81675 9.17655 4.75 10.4633 4.75 12V13.25C4.75 13.6642 4.41421 14 4 14C3.58579 14 3.25 13.6642 3.25 13.25V12C3.25 9.63183 4.98299 7.66816 7.25 7.30859V7C7.25 4.37665 9.37665 2.25 12 2.25Z" fill="black"/>
</svg>
