<svg width="24" height="24" viewBox="0 0 24 24" fill="none" xmlns="http://www.w3.org/2000/svg">
<path d="M11.9995 1.25C14.6229 1.25 16.7495 3.37665 16.7495 6V6.41699C18.5529 6.90845 19.9481 8.43898 20.2056 10.3701L21.1392 17.3721C21.5188 20.2195 19.3037 22.7498 16.4312 22.75H7.56789C4.69557 22.7495 2.48029 20.2193 2.85988 17.3721L3.00637 16.2754C3.06134 15.8652 3.43891 15.5774 3.84914 15.6318C4.25945 15.6868 4.54742 16.0642 4.4927 16.4746L4.34719 17.5703C4.08749 19.5183 5.60275 21.2495 7.56789 21.25H16.4312C18.3966 21.2498 19.9116 19.5185 19.6519 17.5703L18.7183 10.5684C18.5614 9.3926 17.7874 8.43658 16.7495 8.00293V9C16.7495 9.41421 16.4137 9.75 15.9995 9.75C15.5855 9.74975 15.2495 9.41406 15.2495 9V6C15.2495 4.20507 13.7945 2.75 11.9995 2.75C10.2048 2.75025 8.74953 4.20523 8.74953 6V6.25H11.9995C12.4137 6.25 12.7495 6.58579 12.7495 7C12.7495 7.41421 12.4137 7.75 11.9995 7.75H8.74953V9C8.74953 9.41421 8.41374 9.75 7.99953 9.75C7.58553 9.74975 7.24953 9.41406 7.24953 9V8.00293C6.21145 8.43719 5.43665 9.39428 5.2798 10.5703L4.9927 12.7246C4.93768 13.1349 4.56031 13.4229 4.14992 13.3682C3.73988 13.313 3.4517 12.9356 3.50637 12.5254L3.79348 10.3721C4.05105 8.44079 5.44637 6.90934 7.24953 6.41699V6C7.24953 3.3768 9.37639 1.25025 11.9995 1.25Z" fill="black"/>
<path d="M14.9702 12.4697C15.2631 12.1771 15.738 12.1769 16.0308 12.4697C16.3233 12.7626 16.3233 13.2374 16.0308 13.5303L12.0308 17.5303C11.7379 17.8232 11.2622 17.8232 10.9693 17.5303L8.97023 15.5303C8.67734 15.2374 8.67734 14.7626 8.97023 14.4697C9.26315 14.1771 9.73797 14.1769 10.0308 14.4697L11.4995 15.9395L14.9702 12.4697Z" fill="black"/>
</svg>
