<svg width="24" height="24" viewBox="0 0 24 24" fill="none" xmlns="http://www.w3.org/2000/svg">
<path fill-rule="evenodd" clip-rule="evenodd" d="M1.61605 9.21802C3.15265 3.48333 9.04737 0.0799717 14.7821 1.61646C20.5168 3.15309 23.9202 9.04772 22.3836 14.7825C20.8469 20.5171 14.9523 23.9206 9.21761 22.384C7.40251 21.8977 5.81897 20.9723 4.55257 19.7542C4.34827 19.5576 4.15208 19.353 3.96468 19.1419C3.69008 18.832 3.71844 18.3581 4.02816 18.0833C4.33795 17.8088 4.81196 17.8372 5.08675 18.1467C5.24801 18.3285 5.4169 18.5041 5.59261 18.6731C6.681 19.72 8.04214 20.5157 9.60628 20.9348C10.1541 21.0816 10.7039 21.173 11.2498 21.218V12.7503H8.72249C8.6173 14.2199 8.20607 15.6079 7.54964 16.8508C7.35611 17.2168 6.90211 17.3567 6.53597 17.1633C6.16981 16.9699 6.02925 16.5159 6.22249 16.1497C6.76799 15.1168 7.11649 13.968 7.21859 12.7503H2.77816C2.8189 13.2515 2.90038 13.7451 3.02034 14.2268C3.07804 14.4585 3.14538 14.6876 3.22054 14.9133C3.35123 15.3062 3.13764 15.7306 2.74495 15.8616C2.35219 15.9921 1.92768 15.7806 1.79671 15.3879C1.70935 15.1256 1.63236 14.8585 1.56527 14.5891C1.1393 12.8785 1.12816 11.0391 1.61605 9.21802ZM12.7498 21.22C14.6688 21.0639 16.4756 20.3085 17.9285 19.0969C16.4174 17.3795 15.4465 15.1759 15.2791 12.7503H12.7498V21.22ZM16.783 12.7503C16.945 14.7676 17.7525 16.6006 19.0018 18.0452C19.8867 17.0217 20.5607 15.7884 20.9344 14.3938C21.0812 13.8459 21.1735 13.2962 21.2186 12.7503H16.783ZM12.7498 11.2503H15.2772C15.3692 9.91808 15.7029 8.65145 16.2371 7.49537C16.4109 7.11938 16.8563 6.95539 17.2323 7.12916C17.6081 7.30295 17.772 7.74838 17.5985 8.12427C17.1534 9.0874 16.873 10.1409 16.784 11.2503H21.2205C20.9125 7.46338 18.2745 4.10445 14.3944 3.0647C13.8462 2.91784 13.296 2.82558 12.7498 2.78052V11.2503ZM11.2498 2.77955C9.30097 2.93817 7.46598 3.71327 6.00179 4.95826C7.54824 6.6505 8.5468 8.83698 8.71956 11.2503H11.2498V2.77955ZM4.94027 6.01978C4.08332 7.03005 3.43092 8.24117 3.06527 9.60572C2.91832 10.1541 2.82525 10.7042 2.78011 11.2503H7.21566C7.04838 9.25342 6.22004 7.44075 4.94027 6.01978Z" fill="black"/>
</svg>
