<svg width="24" height="24" viewBox="0 0 24 24" fill="none" xmlns="http://www.w3.org/2000/svg">
<path d="M13.375 20.4189C13.6043 20.0741 14.0701 19.9799 14.415 20.209C14.7598 20.4382 14.854 20.9041 14.625 21.249C14.0246 22.1521 12.9951 22.75 11.8262 22.75C10.6572 22.75 9.62781 22.1521 9.02734 21.249C8.79824 20.9041 8.89247 20.4383 9.2373 20.209C9.58218 19.98 10.0471 20.0742 10.2764 20.4189C10.6106 20.9217 11.1804 21.25 11.8262 21.25C12.4718 21.25 13.0407 20.9214 13.375 20.4189Z" fill="black"/>
<path d="M11.8262 1.25C15.6021 1.25005 18.6631 4.31101 18.6631 8.08691V10.1797C18.6631 10.567 18.7874 10.9627 19.0088 11.4062C19.2401 11.8697 19.5212 12.2848 19.8301 12.8027C20.1936 13.4124 20.4023 14.1255 20.4023 14.8848C20.4023 16.8444 18.9981 18.5521 17.0225 18.8262C15.4397 19.0456 13.4269 19.2715 11.8262 19.2715C10.2255 19.2715 8.21266 19.0456 6.62988 18.8262C4.65412 18.5522 3.25 16.8444 3.25 14.8848C3.25007 14.1255 3.45871 13.4124 3.82227 12.8027C4.1311 12.2849 4.41225 11.8696 4.64355 11.4062C4.86488 10.9628 4.98921 10.567 4.98926 10.1797V8.08691C4.98926 7.15472 5.17641 6.2639 5.51562 5.45215C5.67544 5.07038 6.11414 4.89041 6.49609 5.0498C6.87828 5.20951 7.05912 5.64907 6.89941 6.03125C6.63547 6.66297 6.48926 7.35689 6.48926 8.08691V10.1797C6.48921 10.8923 6.25917 11.5275 5.98535 12.0762C5.72126 12.6052 5.36505 13.1442 5.11035 13.5713C4.88152 13.955 4.75007 14.4034 4.75 14.8848C4.75 16.1309 5.6363 17.1745 6.83594 17.3408C8.40652 17.5586 10.3342 17.7715 11.8262 17.7715C13.3181 17.7715 15.2458 17.5586 16.8164 17.3408C18.016 17.1744 18.9023 16.1309 18.9023 14.8848C18.9023 14.4035 18.7708 13.955 18.542 13.5713C18.2873 13.1442 17.9311 12.6052 17.667 12.0762C17.3932 11.5275 17.1631 10.8923 17.1631 10.1797V8.08691C17.1631 5.13944 14.7736 2.75005 11.8262 2.75C10.7422 2.75 9.73549 3.07206 8.89453 3.62598C8.54862 3.85383 8.08332 3.75802 7.85547 3.41211C7.62807 3.06635 7.72383 2.60185 8.06934 2.37402C9.14773 1.66369 10.44 1.25 11.8262 1.25Z" fill="black"/>
</svg>
