<svg width="24" height="24" viewBox="0 0 24 24" fill="none" xmlns="http://www.w3.org/2000/svg">
<path d="M15 2C17.6234 2 19.75 4.12665 19.75 6.75V19.918C19.75 21.3025 18.2183 22.1392 17.0537 21.3906L12.6758 18.5762C12.2641 18.3116 11.7359 18.3116 11.3242 18.5762L6.94629 21.3906C5.78166 22.1392 4.25 21.3025 4.25 19.918V15C4.25 14.5858 4.58579 14.25 5 14.25C5.41421 14.25 5.75 14.5858 5.75 15V19.918C5.75 20.1156 5.96844 20.2354 6.13477 20.1289L10.5127 17.3145C11.4186 16.7321 12.5814 16.7321 13.4873 17.3145L17.8652 20.1289C18.0316 20.2354 18.25 20.1156 18.25 19.918V6.75C18.25 4.95507 16.7949 3.5 15 3.5H9C7.20507 3.5 5.75 4.95507 5.75 6.75V10.5C5.75 10.9142 5.41421 11.25 5 11.25C4.58579 11.25 4.25 10.9142 4.25 10.5V6.75C4.25 4.12665 6.37665 2 9 2H15Z" fill="black"/>
<path d="M15 7.5C15.4142 7.5 15.75 7.83579 15.75 8.25C15.75 8.66421 15.4142 9 15 9H9C8.58579 9 8.25 8.66421 8.25 8.25C8.25 7.83579 8.58579 7.5 9 7.5H15Z" fill="black"/>
</svg>
