<svg width="24" height="24" viewBox="0 0 24 24" fill="none" xmlns="http://www.w3.org/2000/svg">
<path fill-rule="evenodd" clip-rule="evenodd" d="M10.9424 1.37846C11.6192 1.0965 12.3808 1.0965 13.0576 1.37846L22.2881 5.22514C22.5675 5.34163 22.75 5.61481 22.75 5.91753V16.9175C22.7497 17.6237 22.3247 18.2611 21.6729 18.5328L12.2881 22.4429C12.1038 22.5196 11.8962 22.5196 11.7119 22.4429L2.32715 18.5328C1.67525 18.2611 1.25031 17.6237 1.25 16.9175V13.2505C1.25 12.8363 1.58579 12.5005 2 12.5005C2.41421 12.5005 2.75 12.8363 2.75 13.2505V16.9175C2.75031 17.0181 2.81137 17.1093 2.9043 17.148L11.25 20.6255V10.5826L2.75 7.04155V10.2505C2.74976 10.6645 2.41407 11.0005 2 11.0005C1.58593 11.0005 1.25024 10.6645 1.25 10.2505V5.91753C1.25 5.61481 1.43252 5.34163 1.71191 5.22514L10.9424 1.37846ZM12.75 10.5826V20.6255L21.0957 17.148C21.1886 17.1093 21.2497 17.0181 21.25 16.9175V7.04155L12.75 10.5826ZM12.4805 2.76323C12.173 2.63519 11.827 2.63519 11.5195 2.76323L3.94922 5.91655L6.99805 7.18706L13.208 4.5601C13.5895 4.39878 14.029 4.5771 14.1904 4.95854C14.3515 5.33991 14.1733 5.77964 13.792 5.94096L8.93652 7.99467L12 9.27104L20.0498 5.91655L12.4805 2.76323Z" fill="black"/>
</svg>
