<svg width="24" height="24" viewBox="0 0 24 24" fill="none" xmlns="http://www.w3.org/2000/svg">
<path d="M17 1C20.1756 1 22.75 3.5744 22.75 6.75V9.75C22.75 10.1642 22.4142 10.5 22 10.5C21.5858 10.5 21.25 10.1642 21.25 9.75V6.75C21.25 4.40283 19.3472 2.5 17 2.5H15.75V8.75C15.75 8.99106 15.634 9.21743 15.4385 9.3584C15.2429 9.49935 14.9914 9.53815 14.7627 9.46191L12 8.54102L9.2373 9.46191C8.84435 9.5929 8.41907 9.38026 8.28809 8.9873C8.15716 8.59437 8.36977 8.16906 8.7627 8.03809L11.7627 7.03809C11.9166 6.98678 12.0834 6.98678 12.2373 7.03809L14.25 7.70898V2.5H9.75V5.25C9.75 5.66421 9.41421 6 9 6C8.58579 6 8.25 5.66421 8.25 5.25V2.5H7C4.65282 2.5 2.75005 4.40283 2.75 6.75V16.75C2.75 19.0972 4.65279 21 7 21H17C19.3472 21 21.25 19.0972 21.25 16.75V13.25C21.25 12.8358 21.5858 12.5 22 12.5C22.4142 12.5 22.75 12.8358 22.75 13.25V16.75C22.75 19.9256 20.1756 22.5 17 22.5H7C3.82436 22.5 1.25 19.9256 1.25 16.75V6.75C1.25005 3.5744 3.82439 1 7 1H17Z" fill="black"/>
<path d="M14 16C14.4142 16 14.75 16.3358 14.75 16.75C14.75 17.1642 14.4142 17.5 14 17.5H10C9.58579 17.5 9.25 17.1642 9.25 16.75C9.25005 16.3358 9.58582 16 10 16H14Z" fill="black"/>
</svg>
