<svg width="24" height="24" viewBox="0 0 24 24" fill="none" xmlns="http://www.w3.org/2000/svg">
<path d="M17 1.25C20.1756 1.25 22.75 3.82436 22.75 7V17C22.75 20.1756 20.1756 22.75 17 22.75H7C3.82436 22.75 1.25 20.1756 1.25 17V14C1.25 13.5858 1.58579 13.25 2 13.25C2.41421 13.25 2.75 13.5858 2.75 14V17C2.75 19.3472 4.65279 21.25 7 21.25H17C19.3472 21.25 21.25 19.3472 21.25 17V7C21.25 4.65279 19.3472 2.75 17 2.75H7C4.90877 2.75 3.17171 4.26063 2.81738 6.25H18C18.4142 6.25 18.75 6.58579 18.75 7C18.75 7.41421 18.4142 7.75 18 7.75H2.75V10C2.75 10.4142 2.41421 10.75 2 10.75C1.58579 10.75 1.25 10.4142 1.25 10V7C1.25 3.82434 3.82439 1.25 7 1.25H17Z" fill="black"/>
</svg>
