<svg width="24" height="24" viewBox="0 0 24 24" fill="none" xmlns="http://www.w3.org/2000/svg">
<path d="M16.5 1C16.9142 1 17.25 1.33579 17.25 1.75V2.6377C19.8244 3.20854 21.75 5.50375 21.75 8.25V16.25C21.75 19.4256 19.1756 22 16 22H8C4.82436 22 2.25 19.4256 2.25 16.25V8.25C2.25 6.75859 2.81879 5.39829 3.75 4.37695C4.0291 4.07089 4.5035 4.04903 4.80957 4.32812C5.11563 4.60723 5.13749 5.08163 4.8584 5.3877C4.16927 6.14355 3.75 7.14694 3.75 8.25V16.25C3.75 18.5972 5.65279 20.5 8 20.5H16C18.3472 20.5 20.25 18.5972 20.25 16.25V9H6C5.58579 9 5.25 8.66421 5.25 8.25C5.25 7.83579 5.58579 7.5 6 7.5H20.1826C19.902 5.92443 18.7546 4.64883 17.25 4.18652V4.75C17.25 5.16421 16.9142 5.5 16.5 5.5C16.0858 5.5 15.75 5.16421 15.75 4.75V4H8.25V4.75C8.25 5.16421 7.91421 5.5 7.5 5.5C7.08579 5.5 6.75 5.16421 6.75 4.75V1.75C6.75 1.33579 7.08579 1 7.5 1C7.91421 1 8.25 1.33579 8.25 1.75V2.5H15.75V1.75C15.75 1.33579 16.0858 1 16.5 1Z" fill="black"/>
<path d="M7.5 15.5C7.9142 15.5 8.24999 15.8358 8.25 16.25C8.25 16.6642 7.91421 17 7.5 17H6.5C6.08579 17 5.75 16.6642 5.75 16.25C5.75001 15.8358 6.0858 15.5 6.5 15.5H7.5Z" fill="black"/>
<path d="M12.5 15.5C12.9142 15.5 13.25 15.8358 13.25 16.25C13.25 16.6642 12.9142 17 12.5 17H11.5C11.0858 17 10.75 16.6642 10.75 16.25C10.75 15.8358 11.0858 15.5 11.5 15.5H12.5Z" fill="black"/>
<path d="M17.5 15.5C17.9142 15.5 18.25 15.8358 18.25 16.25C18.25 16.6642 17.9142 17 17.5 17H16.5C16.0858 17 15.75 16.6642 15.75 16.25C15.75 15.8358 16.0858 15.5 16.5 15.5H17.5Z" fill="black"/>
<path d="M7.5 11.5C7.9142 11.5 8.24999 11.8358 8.25 12.25C8.25 12.6642 7.91421 13 7.5 13H6.5C6.08579 13 5.75 12.6642 5.75 12.25C5.75001 11.8358 6.0858 11.5 6.5 11.5H7.5Z" fill="black"/>
<path d="M12.5 11.5C12.9142 11.5 13.25 11.8358 13.25 12.25C13.25 12.6642 12.9142 13 12.5 13H11.5C11.0858 13 10.75 12.6642 10.75 12.25C10.75 11.8358 11.0858 11.5 11.5 11.5H12.5Z" fill="black"/>
<path d="M17.5 11.5C17.9142 11.5 18.25 11.8358 18.25 12.25C18.25 12.6642 17.9142 13 17.5 13H16.5C16.0858 13 15.75 12.6642 15.75 12.25C15.75 11.8358 16.0858 11.5 16.5 11.5H17.5Z" fill="black"/>
</svg>
