<svg width="24" height="24" viewBox="0 0 24 24" fill="none" xmlns="http://www.w3.org/2000/svg">
<path d="M4.53851 4.12104C5.56115 3.09857 7.1296 2.99023 8.30511 3.72455C8.65598 3.94409 8.76261 4.40663 8.54339 4.75776C8.32403 5.10891 7.86143 5.21609 7.51019 4.99701C6.88677 4.60757 6.09513 4.68568 5.59905 5.18158L4.31292 6.46869C3.66633 7.1153 3.50134 8.45544 4.2221 10.4199C4.91911 12.3192 6.36405 14.5355 8.41448 16.5859C10.4649 18.6362 12.6812 20.0813 14.5805 20.7783C16.5447 21.4989 17.8851 21.334 18.5317 20.6874L19.8188 19.4013C20.398 18.8218 20.4063 17.8328 19.766 17.1923L17.7729 15.1992C17.1325 14.5591 16.1444 14.5675 15.5649 15.1464L15.2885 15.4238C14.5376 16.1746 13.327 16.2458 12.4867 15.5527C11.9505 15.1102 11.4138 14.6301 10.892 14.1083C10.3702 13.5866 9.8902 13.0498 9.44769 12.5136C8.75434 11.6734 8.82571 10.4629 9.57659 9.71186L9.85394 9.43549C10.3113 8.97771 10.4126 8.27011 10.1196 7.67182C9.93755 7.30001 10.0917 6.85121 10.4633 6.66889C10.8352 6.48691 11.285 6.6399 11.4672 7.01166C12.0222 8.14462 11.8568 9.55331 10.9145 10.496L10.6381 10.7724C10.4299 10.9806 10.407 11.3187 10.6049 11.5585C11.022 12.0639 11.4696 12.5648 11.9526 13.0478C12.4356 13.5308 12.9364 13.9784 13.4418 14.3955C13.6817 14.5931 14.0198 14.5704 14.228 14.3622L14.5043 14.0859C15.7015 12.8893 17.6406 12.9448 18.8344 14.1386L20.8276 16.1318C22.0211 17.3258 22.0761 19.2649 20.8793 20.4619L19.5932 21.749C18.2856 23.0566 16.1453 22.95 14.0639 22.1865C11.9176 21.3989 9.52167 19.816 7.35296 17.6474C5.18426 15.4787 3.60152 13.0828 2.8139 10.9365C2.05018 8.85497 1.94368 6.71489 3.2514 5.40717L4.53851 4.12104Z" fill="black"/>
<path d="M20.4692 3.46967C20.7621 3.17678 21.2378 3.17678 21.5307 3.46967C21.8233 3.76252 21.8233 4.2374 21.5307 4.53022L19.56 6.49994L21.5307 8.46967C21.8233 8.76252 21.8233 9.2374 21.5307 9.53022C21.2378 9.82311 20.7621 9.82311 20.4692 9.53022L18.4994 7.56049L16.5297 9.53022C16.2368 9.82278 15.762 9.823 15.4692 9.53022C15.1766 9.23741 15.1767 8.76252 15.4692 8.46967L17.4389 6.49994L15.4692 4.53022C15.1766 4.2374 15.1766 3.7625 15.4692 3.46967C15.762 3.17686 16.2368 3.17704 16.5297 3.46967L18.4994 5.43842L20.4692 3.46967Z" fill="black"/>
</svg>
