<svg width="24" height="24" viewBox="0 0 24 24" fill="none" xmlns="http://www.w3.org/2000/svg">
<path d="M4.53851 3.12121C5.56114 2.09861 7.12955 1.99037 8.30511 2.72472C8.65592 2.94433 8.7627 3.40683 8.54339 3.75793C8.32404 4.10899 7.8614 4.21614 7.51019 3.99719C6.88671 3.60771 6.09512 3.68572 5.59905 4.18176L4.31292 5.46887C3.66633 6.11547 3.50134 7.45561 4.2221 9.42004C4.91914 11.3193 6.36415 13.5357 8.41448 15.5861C10.4649 17.6363 12.6813 19.0815 14.5805 19.7784C16.5447 20.499 17.8851 20.3342 18.5317 19.6876L19.8188 18.4015C20.3981 17.8221 20.4062 16.8331 19.766 16.1925L17.7729 14.1993C17.1324 13.5592 16.1443 13.5676 15.5649 14.1466L15.2885 14.4239C14.5376 15.1747 13.3269 15.2458 12.4867 14.5528C11.9506 14.1104 11.4138 13.6302 10.892 13.1085C10.3703 12.5868 9.89017 12.05 9.44769 11.5138C8.75434 10.6736 8.82571 9.46305 9.57659 8.71203L9.85394 8.43566C10.3113 7.97794 10.4125 7.27029 10.1196 6.67199C9.93755 6.30019 10.0917 5.85138 10.4633 5.66906C10.8352 5.487 11.285 5.64003 11.4672 6.01183C12.0221 7.14481 11.8568 8.55354 10.9145 9.49621L10.6381 9.77258C10.4299 9.98081 10.407 10.3189 10.6049 10.5587C11.0219 11.064 11.4696 11.565 11.9526 12.048C12.4355 12.5309 12.9365 12.9786 13.4418 13.3956C13.6816 13.5932 14.0199 13.5705 14.228 13.3624L14.5043 13.0861C15.7015 11.8893 17.6405 11.9449 18.8344 13.1388L20.8276 15.132C22.021 16.326 22.0762 18.2651 20.8793 19.462L19.5932 20.7491C18.2856 22.0567 16.1452 21.9502 14.0639 21.1866C11.9176 20.3991 9.52163 18.8161 7.35296 16.6476C5.18434 14.479 3.60156 12.0829 2.8139 9.93664C2.05018 7.85515 1.94368 5.71506 3.2514 4.40734L4.53851 3.12121Z" fill="black"/>
</svg>
