<svg width="24" height="24" viewBox="0 0 24 24" fill="none" xmlns="http://www.w3.org/2000/svg">
<path d="M4.53863 4.12132C5.56127 3.09897 7.12977 2.99055 8.30523 3.72484C8.65609 3.94433 8.7626 4.40692 8.54351 4.75804C8.32414 5.10921 7.86156 5.21642 7.51031 4.9973C6.88694 4.60789 6.09526 4.68608 5.59918 5.18187L4.31304 6.46898C3.66645 7.11558 3.50146 8.45572 4.22222 10.4201C4.91921 12.3195 6.36412 14.5357 8.41461 16.5862C10.4651 18.6366 12.6813 20.0816 14.5806 20.7785C16.5448 21.4991 17.8852 21.3343 18.5318 20.6877L19.8189 19.4016C20.3981 18.8221 20.4064 17.8331 19.7662 17.1926L17.773 15.1994C17.1327 14.5595 16.1445 14.5679 15.565 15.1467L15.2886 15.4241C14.5377 16.1749 13.3271 16.2461 12.4869 15.553C11.9506 15.1104 11.414 14.6304 10.8921 14.1086C10.3703 13.5868 9.89035 13.0502 9.44781 12.5139C8.75446 11.6737 8.82583 10.4632 9.57671 9.71214L9.85406 9.43577C10.3113 8.97795 10.4128 8.27037 10.1197 7.6721C9.93767 7.3003 10.0918 6.85149 10.4634 6.66917C10.8353 6.48729 11.2851 6.64022 11.4673 7.01195C12.0224 8.14487 11.8568 9.55355 10.9146 10.4963L10.6382 10.7727C10.43 10.9809 10.4071 11.319 10.605 11.5588C11.0221 12.0643 11.4697 12.5651 11.9527 13.0481C12.4357 13.5311 12.9365 13.9787 13.4419 14.3957C13.6818 14.5935 14.0199 14.5707 14.2281 14.3625L14.5044 14.0862C15.7016 12.8897 17.6407 12.9451 18.8345 14.1389L20.8277 16.1321C22.0212 17.326 22.0761 19.2651 20.8794 20.4621L19.5933 21.7493C18.2857 23.0569 16.1454 22.9503 14.064 22.1868C11.9177 21.3992 9.52181 19.8164 7.35308 17.6477C5.18432 15.4789 3.60163 13.0831 2.81402 10.9368C2.05031 8.85526 1.94381 6.71518 3.25152 5.40745L4.53863 4.12132Z" fill="black"/>
<path d="M14.3121 6.76683C14.4775 6.3872 14.9197 6.21383 15.2994 6.37913C15.9414 6.65894 16.5426 7.0609 17.066 7.58421C17.6208 8.13903 18.0389 8.7815 18.3199 9.46702C18.4768 9.85001 18.2944 10.2872 17.9117 10.4446C17.5285 10.6016 17.0904 10.4185 16.9332 10.0354C16.7262 9.53063 16.4171 9.05643 16.0054 8.64476C15.617 8.25642 15.1733 7.96015 14.7007 7.75413C14.321 7.58865 14.1466 7.14653 14.3121 6.76683Z" fill="black"/>
<path d="M14.2945 3.40843C14.4355 3.01933 14.8653 2.81788 15.2544 2.95824C16.6902 3.47838 18.0378 4.31483 19.1871 5.46409C20.365 6.64214 21.2141 8.02707 21.731 9.50316C21.8679 9.89404 21.6619 10.3223 21.2711 10.4592C20.8801 10.5961 20.4519 10.3902 20.315 9.99925C19.8709 8.73107 19.1419 7.54008 18.1265 6.52464C17.1359 5.53407 15.978 4.81621 14.7447 4.36937C14.3553 4.22832 14.1536 3.79779 14.2945 3.40843Z" fill="black"/>
</svg>
