<svg width="24" height="24" viewBox="0 0 24 24" fill="none" xmlns="http://www.w3.org/2000/svg">
<path d="M14.5043 13.0859C15.7015 11.8893 17.6406 11.9448 18.8344 13.1386L20.8276 15.1318C22.0211 16.3258 22.0761 18.2648 20.8793 19.4618L19.5932 20.749C18.5535 21.7887 16.9782 21.9276 15.3793 21.5761C13.7565 21.2192 11.9284 20.3265 10.1371 19.0302C9.80159 18.7873 9.72631 18.3179 9.96917 17.9824C10.212 17.6472 10.6806 17.5719 11.016 17.8144C12.6962 19.0303 14.337 19.8112 15.7016 20.1113C17.0901 20.4165 18.0226 20.1965 18.5317 19.6874L19.8188 18.4013C20.398 17.8218 20.4063 16.8328 19.766 16.1923L17.7729 14.1991C17.1325 13.5591 16.1444 13.5675 15.5649 14.1464L15.2885 14.4238C14.959 14.7532 14.5392 14.9522 14.103 15.0126C13.6927 15.0692 13.314 14.7822 13.2573 14.372C13.2006 13.9617 13.4876 13.583 13.8979 13.5263C14.0201 13.5093 14.1364 13.4538 14.228 13.3622L14.5043 13.0859Z" fill="black"/>
<path d="M4.53851 3.12102C5.4121 2.2476 6.68763 2.04068 7.76995 2.45696C8.15618 2.60582 8.34915 3.04028 8.20062 3.42669C8.05197 3.81316 7.6174 4.00577 7.23089 3.85735C6.66161 3.63851 6.02371 3.75708 5.59905 4.18157L4.31292 5.46868C3.66633 6.11528 3.50134 7.45543 4.2221 9.41985C4.91558 11.3096 6.34922 13.5129 8.38323 15.5546L10.8608 13.0771C10.351 12.5651 9.88144 12.0392 9.44769 11.5136C8.75434 10.6734 8.82571 9.46286 9.57659 8.71184L9.85394 8.43548C10.3043 7.98463 10.41 7.29187 10.1332 6.69915C9.95796 6.324 10.1196 5.87753 10.4946 5.70208C10.8698 5.52701 11.3164 5.68922 11.4916 6.06438C12.0164 7.18773 11.8423 8.56773 10.9145 9.49602L10.6381 9.77239C10.4299 9.98062 10.407 10.3187 10.6049 10.5585C11.0131 11.0531 11.4502 11.5432 11.9213 12.0165L19.4692 4.46966L19.5268 4.4179C19.8213 4.17788 20.2552 4.19538 20.5297 4.46966C20.8043 4.74421 20.8216 5.17898 20.5815 5.47356L20.5297 5.5302L5.53069 20.5302C5.2378 20.8231 4.76206 20.8231 4.46917 20.5302C4.17663 20.2374 4.17665 19.7625 4.46917 19.4697L7.32171 16.6161C5.16891 14.4556 3.59776 12.0726 2.8139 9.93645C2.05018 7.85496 1.94368 5.71488 3.2514 4.40716L4.53851 3.12102Z" fill="black"/>
</svg>
