<svg width="24" height="24" viewBox="0 0 24 24" fill="none" xmlns="http://www.w3.org/2000/svg">
<path d="M10.25 2C10.6642 2 11 2.33579 11 2.75C11 3.16421 10.6642 3.5 10.25 3.5H10.1836C9.226 3.50019 8.38432 4.13495 8.12109 5.05566L8.03906 5.3418C7.75855 6.32325 6.86159 7 5.84082 7C4.13387 7.00013 2.75013 8.38387 2.75 10.0908V15.25C2.75 17.5972 4.65279 19.5 7 19.5H17C19.3472 19.5 21.25 17.5972 21.25 15.25V10.0908C21.2499 8.38387 19.8661 7.00014 18.1592 7C17.1384 7 16.2415 6.32325 15.9609 5.3418L15.8789 5.05566C15.6157 4.13495 14.774 3.50019 13.8164 3.5H13.75C13.3358 3.5 13 3.16421 13 2.75C13 2.33579 13.3358 2 13.75 2H13.8164C15.4437 2.00019 16.8741 3.07888 17.3213 4.64355L17.4023 4.92969C17.4988 5.2673 17.8081 5.5 18.1592 5.5C20.6946 5.50014 22.7499 7.55544 22.75 10.0908V15.25C22.75 18.4256 20.1756 21 17 21H7C3.82436 21 1.25 18.4256 1.25 15.25V10.0908C1.25013 7.55544 3.30544 5.50013 5.84082 5.5C6.19195 5.5 6.50119 5.2673 6.59766 4.92969L6.67871 4.64355C7.12592 3.07889 8.55628 2.00019 10.1836 2H10.25Z" fill="black"/>
<path d="M12 8.5C14.0711 8.5 15.75 10.1789 15.75 12.25C15.75 14.3211 14.0711 16 12 16C11.4836 16 10.9897 15.8953 10.54 15.7051C10.1586 15.5437 9.98022 15.1032 10.1416 14.7217C10.3031 14.3405 10.7427 14.1621 11.124 14.3232C11.3922 14.4367 11.6879 14.5 12 14.5C13.2426 14.5 14.25 13.4926 14.25 12.25C14.25 11.0074 13.2426 10 12 10C10.7574 10 9.75 11.0074 9.75 12.25C9.75 12.6642 9.41421 13 9 13C8.58579 13 8.25 12.6642 8.25 12.25C8.25 10.1789 9.92893 8.5 12 8.5Z" fill="black"/>
</svg>
