<svg width="24" height="24" viewBox="0 0 24 24" fill="none" xmlns="http://www.w3.org/2000/svg">
<path fill-rule="evenodd" clip-rule="evenodd" d="M8.5 10.25C10.2949 10.25 11.75 11.7051 11.75 13.5V18.5C11.75 20.2949 10.2949 21.75 8.5 21.75H6.5C4.70507 21.75 3.25 20.2949 3.25 18.5V13.5C3.25 11.7051 4.70507 10.25 6.5 10.25H8.5ZM6.5 11.75C5.5335 11.75 4.75 12.5335 4.75 13.5V18.5C4.75 19.4665 5.5335 20.25 6.5 20.25H8.5C9.4665 20.25 10.25 19.4665 10.25 18.5V13.5C10.25 12.5335 9.4665 11.75 8.5 11.75H6.5Z" fill="black"/>
<path fill-rule="evenodd" clip-rule="evenodd" d="M19 16.25C20.5188 16.25 21.75 17.4812 21.75 19C21.75 20.5188 20.5188 21.75 19 21.75H16C14.4812 21.75 13.25 20.5188 13.25 19C13.25 17.4812 14.4812 16.25 16 16.25H19ZM16 17.75C15.3096 17.75 14.75 18.3096 14.75 19C14.75 19.6904 15.3096 20.25 16 20.25H19C19.6904 20.25 20.25 19.6904 20.25 19C20.25 18.3096 19.6904 17.75 19 17.75H16Z" fill="black"/>
<path d="M17.5 3.25C17.9142 3.25 18.25 3.58579 18.25 4C18.25 4.41421 17.9142 4.75 17.5 4.75H16.5C15.5335 4.75 14.75 5.5335 14.75 6.5V11.5C14.75 12.4665 15.5335 13.25 16.5 13.25H18.5C19.4666 13.25 20.25 12.4664 20.25 11.5V7C20.25 6.58579 20.5858 6.25 21 6.25C21.4142 6.25 21.75 6.58579 21.75 7V11.5C21.75 13.295 20.2949 14.75 18.5 14.75H16.5C14.7051 14.75 13.25 13.2949 13.25 11.5V6.5C13.25 4.70507 14.7051 3.25 16.5 3.25H17.5Z" fill="black"/>
<path fill-rule="evenodd" clip-rule="evenodd" d="M9 3.25C10.5188 3.25 11.75 4.48122 11.75 6C11.75 7.51878 10.5188 8.75 9 8.75H6C4.48122 8.75 3.25 7.51878 3.25 6C3.25 4.48122 4.48122 3.25 6 3.25H9ZM6 4.75C5.30964 4.75 4.75 5.30964 4.75 6C4.75 6.69036 5.30964 7.25 6 7.25H9C9.69036 7.25 10.25 6.69036 10.25 6C10.25 5.30964 9.69036 4.75 9 4.75H6Z" fill="black"/>
</svg>
