<svg width="24" height="24" viewBox="0 0 24 24" fill="none" xmlns="http://www.w3.org/2000/svg">
<path d="M10 1C10.4142 1 10.75 1.33579 10.75 1.75C10.75 2.16421 10.4142 2.5 10 2.5H7C4.65279 2.5 2.75 4.40279 2.75 6.75V16.75C2.75 19.0972 4.65279 21 7 21H17C19.3472 21 21.25 19.0972 21.25 16.75V6.75C21.25 4.40277 19.3472 2.5 17 2.5H14C13.5858 2.5 13.25 2.16421 13.25 1.75C13.25 1.33579 13.5858 1 14 1H17C20.1757 1 22.75 3.57439 22.75 6.75V16.75C22.75 19.9256 20.1756 22.5 17 22.5H7C3.82436 22.5 1.25 19.9256 1.25 16.75V6.75C1.25 3.57436 3.82436 1 7 1H10Z" fill="black"/>
<path d="M8 13C8.41421 13 8.75 13.3358 8.75 13.75V16.75C8.75 17.1642 8.41421 17.5 8 17.5C7.58579 17.5 7.25 17.1642 7.25 16.75V13.75C7.25 13.3358 7.58579 13 8 13Z" fill="black"/>
<path d="M12 6C12.4142 6 12.75 6.33579 12.75 6.75V16.75C12.75 17.1642 12.4142 17.5 12 17.5C11.5858 17.5 11.25 17.1642 11.25 16.75V6.75C11.25 6.33579 11.5858 6 12 6Z" fill="black"/>
<path d="M16 9C16.4142 9 16.75 9.33579 16.75 9.75V16.75C16.75 17.1642 16.4142 17.5 16 17.5C15.5858 17.5 15.25 17.1642 15.25 16.75V9.75C15.25 9.33579 15.5858 9 16 9Z" fill="black"/>
</svg>
