<svg width="24" height="24" viewBox="0 0 24 24" fill="none" xmlns="http://www.w3.org/2000/svg">
<path d="M17 1.25C20.1756 1.25 22.75 3.82436 22.75 7V17C22.75 20.1756 20.1756 22.75 17 22.75H7C3.82436 22.75 1.25 20.1756 1.25 17V14C1.25 13.5858 1.58579 13.25 2 13.25C2.41421 13.25 2.75 13.5858 2.75 14V17C2.75 19.3472 4.65279 21.25 7 21.25H17C19.3472 21.25 21.25 19.3472 21.25 17V7C21.25 4.65279 19.3472 2.75 17 2.75H7C4.65277 2.75 2.75 4.65281 2.75 7V10C2.75 10.4142 2.41421 10.75 2 10.75C1.58579 10.75 1.25 10.4142 1.25 10V7C1.25 3.82434 3.82439 1.25 7 1.25H17Z" fill="black"/>
<path d="M13.5908 9.34863C13.8837 9.05578 14.3585 9.05586 14.6514 9.34863C14.9443 9.64153 14.9443 10.1163 14.6514 10.4092L13.0605 12L14.6514 13.5908C14.9443 13.8837 14.9443 14.3595 14.6514 14.6523C14.3585 14.9448 13.8836 14.945 13.5908 14.6523L12 13.0605L10.4092 14.6523C10.1164 14.945 9.6415 14.9448 9.34863 14.6523C9.05574 14.3595 9.05574 13.8837 9.34863 13.5908L10.9385 12L9.34863 10.4092C9.05574 10.1163 9.05574 9.64153 9.34863 9.34863C9.64154 9.05586 10.1163 9.05578 10.4092 9.34863L12 10.9395L13.5908 9.34863Z" fill="black"/>
</svg>
