<svg width="24" height="24" viewBox="0 0 24 24" fill="none" xmlns="http://www.w3.org/2000/svg">
<path d="M12 13.25C12.4142 13.25 12.75 13.5858 12.75 14V19.1895L13.9697 17.9697C14.2626 17.6769 14.7374 17.6768 15.0303 17.9697C15.3232 18.2626 15.3231 18.7374 15.0303 19.0303L12.8838 21.1768C12.4261 21.6344 11.7019 21.6631 11.2109 21.2627L11.1162 21.1768L8.96973 19.0303C8.67684 18.7374 8.67684 18.2626 8.96973 17.9697C9.26262 17.6768 9.73738 17.6768 10.0303 17.9697L11.25 19.1895V14C11.25 13.5858 11.5858 13.25 12 13.25Z" fill="black"/>
<path d="M11.4443 5.25C13.9472 5.25 16.1351 6.5907 17.333 8.58984C20.2021 8.47651 22.7498 10.8219 22.75 13.7773C22.75 16.4712 20.6999 18.6855 18.0742 18.9463C17.6621 18.9872 17.2949 18.6866 17.2539 18.2744C17.213 17.8623 17.5137 17.4951 17.9258 17.4541C19.7919 17.2688 21.25 15.6926 21.25 13.7773C21.2497 11.5649 19.2033 9.80951 17.0264 10.1211C16.7062 10.1669 16.3874 10.0046 16.2393 9.70996C15.3574 7.95334 13.5405 6.75 11.4443 6.75C8.65095 6.75006 6.35537 8.88741 6.10547 11.6152C6.06935 12.0073 5.74065 12.3059 5.34863 12.3057C3.93653 12.3044 2.75012 13.4796 2.75 14.8887C2.75 16.3153 3.90642 17.4725 5.33301 17.4727H6C6.41421 17.4727 6.75 17.8084 6.75 18.2227C6.74977 18.6367 6.41407 18.9727 6 18.9727H5.33301C3.07799 18.9725 1.25 17.1437 1.25 14.8887C1.25011 12.8644 2.76558 11.173 4.69727 10.8584C5.28628 7.66701 8.08279 5.25005 11.4443 5.25Z" fill="black"/>
</svg>
