<svg width="24" height="24" viewBox="0 0 24 24" fill="none" xmlns="http://www.w3.org/2000/svg">
<path fill-rule="evenodd" clip-rule="evenodd" d="M11 1.25C11.4142 1.25 11.75 1.58579 11.75 2C11.75 2.41421 11.4142 2.75 11 2.75H8C7.30964 2.75 6.75 3.30964 6.75 4V5C6.75 5.13807 6.86193 5.25 7 5.25H17C17.1381 5.25 17.25 5.13807 17.25 5V4C17.25 3.30964 16.6904 2.75 16 2.75H15C14.5858 2.75 14.25 2.41421 14.25 2C14.25 1.58579 14.5858 1.25 15 1.25H16C17.5188 1.25 18.75 2.48122 18.75 4V5C18.75 5.11875 18.7374 5.23457 18.7148 5.34668C19.8867 5.66161 20.75 6.72874 20.75 8C20.75 9.27747 19.8778 10.3472 18.6973 10.6562L17.9766 19.3115C17.8145 21.2551 16.1896 22.75 14.2393 22.75H9.76074C7.81045 22.75 6.18546 21.2551 6.02344 19.3115L5.87793 17.5625C5.84354 17.1498 6.14984 16.7875 6.5625 16.7529C6.9752 16.7185 7.33755 17.0248 7.37207 17.4375L7.49707 18.9375L7.51855 19.1865C7.61573 20.3527 8.59054 21.25 9.76074 21.25H14.2393C15.4095 21.25 16.3843 20.3527 16.4814 19.1865L17.1855 10.75H6.81445L7.05957 13.6875C7.09396 14.1002 6.78766 14.4625 6.375 14.4971C5.9623 14.5315 5.59995 14.2252 5.56543 13.8125L5.30176 10.6562C4.12166 10.3469 3.25 9.27714 3.25 8C3.25 6.72907 4.11281 5.66192 5.28418 5.34668C5.26166 5.23463 5.25 5.11868 5.25 5V4C5.25 2.48122 6.48122 1.25 8 1.25H11ZM6 6.75C5.30964 6.75 4.75 7.30964 4.75 8C4.75 8.69036 5.30964 9.25 6 9.25H18C18.6904 9.25 19.25 8.69036 19.25 8C19.25 7.30964 18.6904 6.75 18 6.75H6Z" fill="black"/>
<path fill-rule="evenodd" clip-rule="evenodd" d="M12 13.25C13.5188 13.25 14.75 14.4812 14.75 16C14.75 17.5188 13.5188 18.75 12 18.75C10.4812 18.75 9.25 17.5188 9.25 16C9.25 14.4812 10.4812 13.25 12 13.25ZM12 14.75C11.3096 14.75 10.75 15.3096 10.75 16C10.75 16.6904 11.3096 17.25 12 17.25C12.6904 17.25 13.25 16.6904 13.25 16C13.25 15.3096 12.6904 14.75 12 14.75Z" fill="black"/>
</svg>
