<svg width="24" height="24" viewBox="0 0 24 24" fill="none" xmlns="http://www.w3.org/2000/svg">
<path fill-rule="evenodd" clip-rule="evenodd" d="M12 3C13.9957 3 15.8351 3.28813 17.2021 3.77637C17.8823 4.0193 18.4858 4.32597 18.9336 4.7041C19.378 5.07935 19.75 5.59845 19.75 6.25C19.75 6.90155 19.378 7.42065 18.9336 7.7959C18.4858 8.17403 17.8823 8.4807 17.2021 8.72363C15.8351 9.21187 13.9957 9.5 12 9.5C10.0043 9.5 8.16491 9.21187 6.79785 8.72363C6.42009 8.5887 6.06694 8.43244 5.75 8.25684V10.25C5.75 10.2888 5.77015 10.4274 6.03418 10.6504C6.29476 10.8703 6.71646 11.1021 7.30273 11.3115C8.46917 11.7281 10.1298 12 12 12C13.543 12 14.949 11.8153 16.0527 11.5137C17.1967 11.201 17.8819 10.7988 18.1455 10.4697C18.1726 10.4359 18.1931 10.406 18.208 10.3799C18.3567 10.1184 18.6386 9.98149 18.9199 10.0039C18.9462 10.0011 18.973 10 19 10C19.4142 10 19.75 10.3358 19.75 10.75V18.25C19.75 18.9015 19.378 19.4207 18.9336 19.7959C18.4858 20.174 17.8823 20.4807 17.2021 20.7236C15.8351 21.2119 13.9957 21.5 12 21.5C10.3968 21.5 8.89975 21.3142 7.66895 20.9912C6.47037 20.6767 5.41117 20.2027 4.80176 19.5439C4.52047 19.2399 4.53872 18.7657 4.84277 18.4844C5.14677 18.2032 5.62105 18.2215 5.90234 18.5254C6.21446 18.8628 6.92963 19.2471 8.0498 19.541C9.13805 19.8266 10.5049 20 12 20C13.8702 20 15.5308 19.7281 16.6973 19.3115C17.2835 19.1021 17.7052 18.8703 17.9658 18.6504C18.2299 18.4274 18.25 18.2888 18.25 18.25V16.2568C17.9331 16.4324 17.5799 16.5887 17.2021 16.7236C15.8351 17.2119 13.9957 17.5 12 17.5C10.0043 17.5 8.16491 17.2119 6.79785 16.7236C6.1177 16.4807 5.51423 16.174 5.06641 15.7959C4.62201 15.4207 4.25 14.9015 4.25 14.25V6.25C4.25 5.59845 4.62201 5.07935 5.06641 4.7041C5.51423 4.32597 6.1177 4.0193 6.79785 3.77637C8.16491 3.28813 10.0043 3 12 3ZM5.75 14.25C5.75 14.2888 5.77015 14.4274 6.03418 14.6504C6.29476 14.8703 6.71646 15.1021 7.30273 15.3115C8.46917 15.7281 10.1298 16 12 16C13.8702 16 15.5308 15.7281 16.6973 15.3115C17.2835 15.1021 17.7052 14.8703 17.9658 14.6504C18.2299 14.4274 18.25 14.2888 18.25 14.25V12.2578C17.7283 12.547 17.1073 12.7796 16.4473 12.96C15.1944 13.3023 13.6536 13.5 12 13.5C10.0043 13.5 8.16491 13.2119 6.79785 12.7236C6.42009 12.5887 6.06694 12.4324 5.75 12.2568V14.25ZM12 4.5C10.1298 4.5 8.46917 4.77193 7.30273 5.18848C6.71646 5.39786 6.29476 5.62967 6.03418 5.84961C5.77015 6.07255 5.75 6.2112 5.75 6.25C5.75 6.2888 5.77015 6.42745 6.03418 6.65039C6.29476 6.87033 6.71646 7.10214 7.30273 7.31152C8.46917 7.72807 10.1298 8 12 8C13.8702 8 15.5308 7.72807 16.6973 7.31152C17.2835 7.10214 17.7052 6.87033 17.9658 6.65039C18.2299 6.42745 18.25 6.2888 18.25 6.25C18.25 6.2112 18.2299 6.07255 17.9658 5.84961C17.7052 5.62967 17.2835 5.39786 16.6973 5.18848C15.5308 4.77193 13.8702 4.5 12 4.5Z" fill="black"/>
</svg>
