<svg width="24" height="24" viewBox="0 0 24 24" fill="none" xmlns="http://www.w3.org/2000/svg">
<path d="M7.77741 15.1613C8.07033 14.8687 8.54614 14.8685 8.83893 15.1613C9.13153 15.454 9.13111 15.9289 8.83893 16.2219L4.83796 20.2228C4.5451 20.5154 4.07022 20.5154 3.77741 20.2228C3.48453 19.9299 3.48451 19.4542 3.77741 19.1613L7.77741 15.1613Z" fill="black"/>
<path d="M9.46198 12.7883C10.4283 12.7885 11.212 13.5719 11.212 14.5383V18.1535C11.2119 18.5675 10.876 18.9033 10.462 18.9035C10.0478 18.9035 9.71209 18.5676 9.71198 18.1535V14.5383C9.71196 14.4003 9.59988 14.2885 9.46198 14.2883H5.84577C5.4318 14.288 5.09581 13.9523 5.09577 13.5383C5.09577 13.1242 5.43177 12.7885 5.84577 12.7883H9.46198Z" fill="black"/>
<path d="M13.5382 5.09686C13.9523 5.0969 14.2881 5.4327 14.2882 5.84686V9.4621C14.2882 9.60004 14.4002 9.71202 14.5382 9.7121H18.1544C18.5683 9.71247 18.9034 10.0481 18.9034 10.4621C18.9033 10.876 18.5682 11.2117 18.1544 11.2121H14.5382C13.5718 11.212 12.7882 10.4285 12.7882 9.4621V5.84686C12.7882 5.43275 13.1241 5.09698 13.5382 5.09686Z" fill="black"/>
<path d="M19.1622 3.77753C19.4551 3.48506 19.9299 3.48487 20.2227 3.77753C20.5156 4.07042 20.5156 4.54616 20.2227 4.83905L16.2227 8.83905C15.9298 9.13168 15.454 9.13185 15.1612 8.83905C14.8686 8.54634 14.8689 8.0714 15.1612 7.7785L19.1622 3.77753Z" fill="black"/>
</svg>
