<svg width="24" height="24" viewBox="0 0 24 24" fill="none" xmlns="http://www.w3.org/2000/svg">
<path d="M9 1C11.0711 1 12.75 2.67893 12.75 4.75V18.75C12.75 20.8211 11.0711 22.5 9 22.5H5C2.92893 22.5 1.25 20.8211 1.25 18.75V13.25C1.25 12.8358 1.58579 12.5 2 12.5C2.41421 12.5 2.75 12.8358 2.75 13.25V18.75C2.75 19.9926 3.75736 21 5 21H9C10.2426 21 11.25 19.9926 11.25 18.75V4.75C11.25 3.50736 10.2426 2.5 9 2.5H5C3.75736 2.5 2.75 3.50736 2.75 4.75V10.25C2.75 10.6642 2.41421 11 2 11C1.58579 11 1.25 10.6642 1.25 10.25V4.75C1.25 2.67893 2.92893 1 5 1H9Z" fill="black"/>
<path d="M21.5791 13.043C21.9696 12.905 22.398 13.1096 22.5361 13.5C22.6747 13.8919 22.75 14.313 22.75 14.75V18.75C22.75 20.7562 21.1746 22.3945 19.1934 22.4951L19 22.5H14C13.5858 22.5 13.25 22.1642 13.25 21.75C13.25 21.3358 13.5858 21 14 21H19C20.1648 21 21.1229 20.1148 21.2383 18.9805L21.25 18.75V14.75C21.25 14.4857 21.2046 14.2336 21.1221 14C20.9841 13.6095 21.1887 13.1811 21.5791 13.043Z" fill="black"/>
<path d="M7 16.75C7.55228 16.75 8 17.1977 8 17.75C8 18.3023 7.55228 18.75 7 18.75C6.44772 18.75 6 18.3023 6 17.75C6 17.1977 6.44772 16.75 7 16.75Z" fill="black"/>
<path d="M14.4746 2.30176C15.6404 2.09177 16.8906 2.43765 17.7939 3.34082L20.6221 6.16895C22.0865 7.63333 22.0863 10.0082 20.6221 11.4727L15.1377 16.957C14.8448 17.2497 14.37 17.2497 14.0771 16.957C13.7845 16.6642 13.7845 16.1893 14.0771 15.8965L19.5615 10.4111C20.4397 9.53242 20.44 8.10802 19.5615 7.22949L16.7334 4.40137C16.1921 3.86023 15.4432 3.65166 14.7402 3.77832C14.3327 3.85163 13.9426 3.58042 13.8691 3.17285C13.796 2.76541 14.0672 2.37519 14.4746 2.30176Z" fill="black"/>
</svg>
