<svg width="24" height="24" viewBox="0 0 24 24" fill="none" xmlns="http://www.w3.org/2000/svg">
<path d="M12 1.25C17.9371 1.25 22.75 6.06294 22.75 12C22.75 17.9371 17.9371 22.75 12 22.75C9.85699 22.75 7.85833 22.1221 6.18066 21.04C5.8326 20.8155 5.73253 20.351 5.95703 20.0029C6.18162 19.6551 6.64616 19.5549 6.99414 19.7793C8.43671 20.7096 10.154 21.25 12 21.25C17.1086 21.25 21.25 17.1086 21.25 12C21.25 6.89137 17.1086 2.75 12 2.75C6.89137 2.75 2.75 6.89137 2.75 12C2.75 13.9026 3.32403 15.6693 4.30762 17.1387C4.53761 17.4827 4.44536 17.9483 4.10156 18.1787C3.75735 18.4091 3.29096 18.3169 3.06055 17.9727C1.91691 16.2641 1.25 14.2088 1.25 12C1.25 6.06294 6.06294 1.25 12 1.25Z" fill="black"/>
<path d="M14.627 8.44922C15.0255 8.33807 15.439 8.57129 15.5508 8.96973C15.6621 9.36832 15.4288 9.78179 15.0303 9.89355L11.0176 11.0186L10.2539 13.7461L12.9824 12.9824L13.1777 12.2842C13.2895 11.8859 13.7031 11.6527 14.1016 11.7637C14.5001 11.8753 14.734 12.2889 14.623 12.6875L14.3135 13.793C14.2428 14.045 14.045 14.2428 13.793 14.3135L9.37305 15.5508C9.11252 15.6235 8.83302 15.5505 8.6416 15.3594C8.45016 15.1679 8.37644 14.8877 8.44922 14.627L9.68652 10.207C9.75723 9.95505 9.95502 9.75717 10.207 9.68652L14.627 8.44922Z" fill="black"/>
</svg>
