<svg width="24" height="24" viewBox="0 0 24 24" fill="none" xmlns="http://www.w3.org/2000/svg">
<path d="M16.8506 6.77539C17.0581 6.41702 17.5175 6.29459 17.876 6.50195C18.9948 7.14924 19.75 8.36113 19.75 9.75V17.75C19.75 19.8211 18.0711 21.5 16 21.5H12C10.6111 21.5 9.39924 20.7448 8.75195 19.626C8.54459 19.2675 8.66702 18.8081 9.02539 18.6006C9.38385 18.3932 9.84331 18.5157 10.0508 18.874C10.4409 19.5485 11.1681 20 12 20H16C17.2426 20 18.25 18.9926 18.25 17.75V9.75C18.25 8.91814 17.7985 8.19095 17.124 7.80078C16.7657 7.59331 16.6432 7.13385 16.8506 6.77539Z" fill="black"/>
<path d="M12 2C14.0711 2 15.75 3.67893 15.75 5.75V13.75C15.75 15.8211 14.0711 17.5 12 17.5H8C5.92893 17.5 4.25 15.8211 4.25 13.75V12.25C4.25 11.8358 4.58579 11.5 5 11.5C5.41421 11.5 5.75 11.8358 5.75 12.25V13.75C5.75 14.9926 6.75736 16 8 16H12C13.2426 16 14.25 14.9926 14.25 13.75V5.75C14.25 4.50736 13.2426 3.5 12 3.5H8C6.75736 3.5 5.75 4.50736 5.75 5.75V8.25C5.75 8.66421 5.41421 9 5 9C4.58579 9 4.25 8.66421 4.25 8.25V5.75C4.25 3.67893 5.92893 2 8 2H12Z" fill="black"/>
</svg>
