<svg width="24" height="24" viewBox="0 0 24 24" fill="none" xmlns="http://www.w3.org/2000/svg">
<path d="M7.5 3.25C7.91421 3.25 8.25 3.58579 8.25 4C8.25 4.41421 7.91421 4.75 7.5 4.75H6C4.20507 4.75 2.75 6.20507 2.75 8V9.00098C3.92333 9.49059 4.75 10.6472 4.75 12C4.75 13.3526 3.92314 14.5084 2.75 14.998V16C2.75 17.7949 4.20507 19.25 6 19.25H14.25V17C14.25 16.5858 14.5858 16.25 15 16.25C15.4142 16.25 15.75 16.5858 15.75 17V19.25H18C19.7949 19.25 21.25 17.7949 21.25 16V14.998C20.0769 14.5084 19.25 13.3526 19.25 12C19.25 10.6472 20.0767 9.49059 21.25 9.00098V8C21.25 6.20507 19.7949 4.75 18 4.75H15.75V7C15.75 7.41421 15.4142 7.75 15 7.75C14.5858 7.75 14.25 7.41421 14.25 7V4.75H11C10.5858 4.75 10.25 4.41421 10.25 4C10.25 3.58579 10.5858 3.25 11 3.25H18C20.6234 3.25 22.75 5.37665 22.75 8V9.22266C22.75 9.78801 22.356 10.1975 21.9297 10.3447C21.2424 10.5817 20.75 11.2345 20.75 12C20.75 12.7655 21.2424 13.4183 21.9297 13.6553C22.356 13.8025 22.75 14.212 22.75 14.7773V16C22.75 18.6234 20.6234 20.75 18 20.75H6C3.37665 20.75 1.25 18.6234 1.25 16V14.7773C1.25 14.212 1.644 13.8025 2.07031 13.6553L2.19727 13.6055C2.81753 13.3357 3.25 12.7176 3.25 12C3.25 11.2345 2.75755 10.5817 2.07031 10.3447C1.644 10.1975 1.25 9.78801 1.25 9.22266V8C1.25 5.37665 3.37665 3.25 6 3.25H7.5Z" fill="black"/>
<path d="M15 9.75C15.4142 9.75 15.75 10.0858 15.75 10.5V13.5C15.75 13.9142 15.4142 14.25 15 14.25C14.5858 14.25 14.25 13.9142 14.25 13.5V10.5C14.25 10.0858 14.5858 9.75 15 9.75Z" fill="black"/>
</svg>
