<svg width="24" height="24" viewBox="0 0 24 24" fill="none" xmlns="http://www.w3.org/2000/svg">
<path d="M7.5 3.25C7.91421 3.25 8.25 3.58579 8.25 4C8.25 4.41421 7.91421 4.75 7.5 4.75H6C4.20507 4.75 2.75 6.20507 2.75 8V9.00098C3.92333 9.49059 4.75 10.6472 4.75 12C4.75 13.3526 3.92314 14.5084 2.75 14.998V16C2.75 17.7949 4.20507 19.25 6 19.25H18C19.7949 19.25 21.25 17.7949 21.25 16V14.998C20.0769 14.5084 19.25 13.3526 19.25 12C19.25 10.6472 20.0767 9.49059 21.25 9.00098V8C21.25 6.20507 19.7949 4.75 18 4.75H11C10.5858 4.75 10.25 4.41421 10.25 4C10.25 3.58579 10.5858 3.25 11 3.25H18C20.6234 3.25 22.75 5.37665 22.75 8V9.22266C22.75 9.78801 22.356 10.1975 21.9297 10.3447C21.2424 10.5817 20.75 11.2345 20.75 12C20.75 12.7655 21.2424 13.4183 21.9297 13.6553C22.356 13.8025 22.75 14.212 22.75 14.7773V16C22.75 18.6234 20.6234 20.75 18 20.75H6C3.37665 20.75 1.25 18.6234 1.25 16V14.7773C1.25 14.212 1.644 13.8025 2.07031 13.6553L2.19727 13.6055C2.81753 13.3357 3.25 12.7176 3.25 12C3.25 11.2345 2.75755 10.5817 2.07031 10.3447C1.644 10.1975 1.25 9.78801 1.25 9.22266V8C1.25 5.37665 3.37665 3.25 6 3.25H7.5Z" fill="black"/>
<path fill-rule="evenodd" clip-rule="evenodd" d="M11.002 8.07617C11.4707 7.4555 12.3742 7.41708 12.8975 7.95996L12.9971 8.07617L13.9404 9.32617L15.4229 9.83887C16.2072 10.1099 16.5143 11.056 16.0391 11.7363L15.1416 13.0205L15.1123 14.6357C15.0973 15.4415 14.3149 16.0092 13.5439 15.7744L11.999 15.3037L10.5 15.7607C9.70636 16.002 8.90208 15.4174 8.88672 14.5879L8.85645 13.0205L7.95996 11.7363C7.485 11.0562 7.7922 10.11 8.57617 9.83887L10.0576 9.32617L11.002 8.07617ZM11.209 10.292C11.0594 10.4899 10.8536 10.6387 10.6191 10.7197L9.37891 11.1484L10.1309 12.2246C10.2728 12.428 10.3509 12.669 10.3555 12.917L10.3789 14.2295L11.6357 13.8467L11.8164 13.8066C11.9986 13.7797 12.1856 13.7927 12.3633 13.8467L13.3936 14.1602L13.6191 14.2285L13.6436 12.917L13.6602 12.7324C13.6908 12.5507 13.7618 12.377 13.8682 12.2246L14.6191 11.1484L13.3799 10.7197C13.1455 10.6386 12.9395 10.4899 12.79 10.292L11.999 9.24414L11.209 10.292Z" fill="black"/>
</svg>
