<svg width="24" height="24" viewBox="0 0 24 24" fill="none" xmlns="http://www.w3.org/2000/svg">
<path d="M11 3C11.4142 3 11.75 3.33579 11.75 3.75C11.75 4.16421 11.4142 4.5 11 4.5H7C4.73673 4.5 2.88723 6.26917 2.75781 8.5H18C18.4142 8.5 18.75 8.83579 18.75 9.25C18.75 9.66421 18.4142 10 18 10H2.75V14.75C2.75 17.0972 4.65279 19 7 19H17C19.3472 19 21.25 17.0972 21.25 14.75V8.75C21.25 6.40279 19.3472 4.5 17 4.5H16C15.5858 4.5 15.25 4.16421 15.25 3.75C15.25 3.33579 15.5858 3 16 3H17C20.1756 3 22.75 5.57436 22.75 8.75V14.75C22.75 17.9256 20.1756 20.5 17 20.5H7C3.82436 20.5 1.25 17.9256 1.25 14.75V8.75C1.25 5.57436 3.82436 3 7 3H11Z" fill="black"/>
<path d="M11 14.5C11.4142 14.5 11.75 14.8358 11.75 15.25C11.75 15.6642 11.4142 16 11 16H6C5.58579 16 5.25 15.6642 5.25 15.25C5.25 14.8358 5.58579 14.5 6 14.5H11Z" fill="black"/>
</svg>
