<svg width="24" height="24" viewBox="0 0 24 24" fill="none" xmlns="http://www.w3.org/2000/svg">
<path d="M11.0977 2.41448C11.693 2.29543 12.307 2.29543 12.9023 2.41448C14.2249 2.67909 15.3644 3.51197 16.0195 4.69085L22.2061 15.8256C22.5628 16.4677 22.7499 17.1907 22.75 17.9252C22.75 20.3133 20.8138 22.2494 18.4258 22.2494H5.57422C3.18619 22.2494 1.25 20.3133 1.25 17.9252C1.25013 17.1907 1.43722 16.4677 1.79395 15.8256L6.03223 8.19768C6.23349 7.83604 6.68987 7.70575 7.05176 7.90667C7.41361 8.10781 7.54364 8.56422 7.34277 8.9262L3.10547 16.5541C2.87253 16.9734 2.75013 17.4456 2.75 17.9252C2.75 19.4848 4.01462 20.7494 5.57422 20.7494H18.4258C19.9854 20.7494 21.25 19.4848 21.25 17.9252C21.2499 17.4456 21.1275 16.9734 20.8945 16.5541L14.709 5.41936C14.2675 4.62489 13.4987 4.06442 12.6074 3.88616C12.2064 3.80601 11.7936 3.80601 11.3926 3.88616C10.5013 4.06442 9.73252 4.62489 9.29102 5.41936L9.21777 5.5512C9.01657 5.91316 8.56027 6.04334 8.19824 5.84222C7.83642 5.64096 7.70613 5.18466 7.90723 4.82268L7.98047 4.69085C8.63565 3.51197 9.77514 2.67909 11.0977 2.41448Z" fill="black"/>
<path d="M12 15.2494C12.4141 15.2494 12.7498 15.5854 12.75 15.9994V16.4994C12.75 16.9137 12.4142 17.2494 12 17.2494C11.5858 17.2494 11.25 16.9137 11.25 16.4994V15.9994C11.2502 15.5854 11.5859 15.2494 12 15.2494Z" fill="black"/>
<path d="M12 8.24944C12.4141 8.24944 12.7498 8.58543 12.75 8.99944V12.9994C12.75 13.4137 12.4142 13.7494 12 13.7494C11.5858 13.7494 11.25 13.4137 11.25 12.9994V8.99944C11.2502 8.58543 11.5859 8.24944 12 8.24944Z" fill="black"/>
</svg>
