<svg width="24" height="24" viewBox="0 0 24 24" fill="none" xmlns="http://www.w3.org/2000/svg">
<path d="M3 14C3.41421 14 3.75 14.3358 3.75 14.75V17.75C3.75 19.5449 5.20507 21 7 21H12C12.4142 21 12.75 21.3358 12.75 21.75C12.75 22.1642 12.4142 22.5 12 22.5H7C4.37665 22.5 2.25 20.3734 2.25 17.75V14.75C2.25 14.3358 2.58579 14 3 14Z" fill="black"/>
<path d="M19 15C19.4142 15 19.75 15.3358 19.75 15.75V18H22C22.4142 18 22.75 18.3358 22.75 18.75C22.75 19.1642 22.4142 19.5 22 19.5H19.75V21.75C19.75 22.1642 19.4142 22.5 19 22.5C18.5858 22.5 18.25 22.1642 18.25 21.75V19.5H16C15.5858 19.5 15.25 19.1642 15.25 18.75C15.25 18.3358 15.5858 18 16 18H18.25V15.75C18.25 15.3358 18.5858 15 19 15Z" fill="black"/>
<path d="M13.0635 1C13.8795 1.00007 14.6533 1.36244 15.1758 1.98926L19.1123 6.71387C19.524 7.20796 19.7499 7.83048 19.75 8.47363V11.75C19.75 12.1642 19.4142 12.5 19 12.5C18.5858 12.5 18.25 12.1642 18.25 11.75V8.47363C18.2499 8.18138 18.1471 7.89835 17.96 7.67383L14.75 3.82129V5.75C14.75 6.0961 14.8893 6.40859 15.1172 6.63574C15.3441 6.8619 15.6553 7 16 7C16.4142 7 16.75 7.33579 16.75 7.75C16.75 8.16421 16.4142 8.5 16 8.5C15.2424 8.5 14.5552 8.19226 14.0586 7.69727C13.56 7.20021 13.25 6.51069 13.25 5.75V2.51562C13.1886 2.50632 13.1264 2.50001 13.0635 2.5H7C5.20507 2.5 3.75 3.95507 3.75 5.75V9.75C3.75 10.1642 3.41421 10.5 3 10.5C2.58579 10.5 2.25 10.1642 2.25 9.75V5.75C2.25 3.12665 4.37665 1 7 1H13.0635Z" fill="black"/>
</svg>
