<svg width="24" height="24" viewBox="0 0 24 24" fill="none" xmlns="http://www.w3.org/2000/svg">
<path d="M16 1C18.6234 1 20.75 3.12665 20.75 5.75V17.75C20.75 20.3734 18.6234 22.5 16 22.5H8C5.37665 22.5 3.25 20.3734 3.25 17.75V14.75C3.25 14.3358 3.58579 14 4 14C4.41421 14 4.75 14.3358 4.75 14.75V17.75C4.75 19.5449 6.20507 21 8 21H16C17.7949 21 19.25 19.5449 19.25 17.75V5.75C19.25 3.95507 17.7949 2.5 16 2.5H8C6.20507 2.5 4.75 3.95507 4.75 5.75V9.75C4.75 10.1642 4.41421 10.5 4 10.5C3.58579 10.5 3.25 10.1642 3.25 9.75V5.75C3.25 3.12665 5.37665 1 8 1H16Z" fill="black"/>
<path d="M12 16C12.4142 16 12.75 16.3358 12.75 16.75C12.75 17.1642 12.4142 17.5 12 17.5H8C7.58579 17.5 7.25 17.1642 7.25 16.75C7.25 16.3358 7.58579 16 8 16H12Z" fill="black"/>
<path d="M12 11C12.4142 11 12.75 11.3358 12.75 11.75C12.75 12.1642 12.4142 12.5 12 12.5H8C7.58579 12.5 7.25 12.1642 7.25 11.75C7.25 11.3358 7.58579 11 8 11H12Z" fill="black"/>
<path d="M16 11C16.4142 11 16.75 11.3358 16.75 11.75C16.75 12.1642 16.4142 12.5 16 12.5H15C14.5858 12.5 14.25 12.1642 14.25 11.75C14.25 11.3358 14.5858 11 15 11H16Z" fill="black"/>
<path d="M12 6C12.4142 6 12.75 6.33579 12.75 6.75C12.75 7.16421 12.4142 7.5 12 7.5H8C7.58579 7.5 7.25 7.16421 7.25 6.75C7.25 6.33579 7.58579 6 8 6H12Z" fill="black"/>
<path d="M16 6C16.4142 6 16.75 6.33579 16.75 6.75C16.75 7.16421 16.4142 7.5 16 7.5H15C14.5858 7.5 14.25 7.16421 14.25 6.75C14.25 6.33579 14.5858 6 15 6H16Z" fill="black"/>
</svg>
