<svg width="24" height="24" viewBox="0 0 24 24" fill="none" xmlns="http://www.w3.org/2000/svg">
<path d="M22.75 7C22.75 3.82436 20.1756 1.25 17 1.25L15 1.25C14.5858 1.25 14.25 1.58579 14.25 2C14.25 2.41421 14.5858 2.75 15 2.75H17C19.3472 2.75 21.25 4.65279 21.25 7V17C21.25 19.3472 19.3472 21.25 17 21.25H7C4.65279 21.25 2.75 19.3472 2.75 17L2.75 7C2.75 4.65279 4.65279 2.75 7 2.75H9C9.41421 2.75 9.75 2.41421 9.75 2C9.75 1.58579 9.41421 1.25 9 1.25L7 1.25C3.82436 1.25 1.25 3.82436 1.25 7L1.25 17C1.25 20.1756 3.82436 22.75 7 22.75H17C20.1756 22.75 22.75 20.1756 22.75 17V7Z" fill="black"/>
<path d="M15.5303 13.5303C15.8231 13.2374 15.8231 12.7626 15.5303 12.4697C15.2374 12.1768 14.7626 12.1768 14.4697 12.4697L12.75 14.1895V8C12.75 7.58579 12.4142 7.25 12 7.25C11.5858 7.25 11.25 7.58579 11.25 8V14.1895L9.53027 12.4697C9.23738 12.1768 8.76262 12.1768 8.46973 12.4697C8.17688 12.7626 8.17685 13.2374 8.46973 13.5303L10.7627 15.8232C11.4461 16.5065 12.5539 16.5065 13.2373 15.8232L15.5303 13.5303Z" fill="black"/>
</svg>
