<svg width="24" height="24" viewBox="0 0 24 24" fill="none" xmlns="http://www.w3.org/2000/svg">
<path d="M12.5693 15.4882C12.8388 15.1738 12.8026 14.7002 12.4882 14.4306L5.48823 8.4306C5.1738 8.16112 4.7002 8.19734 4.43062 8.51166C4.1611 8.82609 4.19735 9.29968 4.51167 9.56928L11.5117 15.5693C11.8261 15.8388 12.2997 15.8026 12.5693 15.4882Z" fill="black"/>
<path d="M19.4882 9.56928C19.8026 9.29968 19.8388 8.82609 19.5693 8.51166C19.2997 8.19735 18.8261 8.16111 18.5117 8.4306L14.1367 12.1806C13.8223 12.4502 13.7861 12.9238 14.0556 13.2382C14.3252 13.5526 14.7988 13.5888 15.1132 13.3193L19.4882 9.56928Z" fill="black"/>
</svg>
