<svg width="24" height="24" viewBox="0 0 24 24" fill="none" xmlns="http://www.w3.org/2000/svg">
<path d="M3.82243 5.05153C0.0655644 9.64848 0.746258 16.4204 5.34294 20.1775C9.93999 23.9345 16.7128 23.254 20.4699 18.657C21.4364 17.4743 22.1101 16.1451 22.4982 14.7605C22.6095 14.3619 22.3772 13.9475 21.9787 13.8357C21.58 13.724 21.1659 13.9577 21.0539 14.3562C20.7205 15.5455 20.1419 16.6883 19.3088 17.7078C16.0759 21.6634 10.2478 22.2492 6.29215 19.0164C2.33684 15.7836 1.75104 9.95629 4.98356 6.00075C8.21628 2.04561 14.0437 1.45897 17.9992 4.69118C19.6124 6.00963 20.665 7.75886 21.1271 9.63649C21.2262 10.0385 21.6322 10.2843 22.0343 10.1853C22.4363 10.0862 22.682 9.68013 22.5832 9.27809C22.0461 7.09577 20.8218 5.06114 18.9484 3.53004C14.3514 -0.22655 7.57943 0.454878 3.82243 5.05153Z" fill="black"/>
<path d="M8.42204 13.8289C8.42218 14.7951 9.20487 15.5786 10.1711 15.5789H13.4142C13.8283 15.5789 14.1641 15.243 14.1642 14.8289C14.1642 14.4147 13.8284 14.0789 13.4142 14.0789H10.9816L15.3586 9.70192C15.6515 9.40902 15.6515 8.93426 15.3586 8.64137C15.0657 8.34859 14.5909 8.34852 14.298 8.64137L9.92106 13.0193V10.5857C9.92092 10.1716 9.58518 9.83571 9.17106 9.83571C8.75716 9.83597 8.42218 10.1718 8.42204 10.5857V13.8289Z" fill="black"/>
</svg>
