<svg width="24" height="24" viewBox="0 0 24 24" fill="none" xmlns="http://www.w3.org/2000/svg">
<path d="M22.75 12C22.75 6.24833 18.2329 1.55138 12.5527 1.26367L12 1.25C10.4727 1.25 9.01789 1.56889 7.7002 2.14453C7.32063 2.31037 7.14666 2.75325 7.3125 3.13281C7.47838 3.512 7.92045 3.68498 8.2998 3.51953C9.43181 3.02494 10.6831 2.75 12 2.75L12.4756 2.76172C17.3632 3.00927 21.25 7.05088 21.25 12C21.25 17.1086 17.1086 21.25 12 21.25C6.89137 21.25 2.75001 17.1086 2.75 12C2.75 9.91636 3.43803 7.99528 4.59961 6.44922C4.84822 6.11808 4.78125 5.64818 4.4502 5.39941C4.11905 5.15078 3.64915 5.21774 3.40039 5.54883C2.05042 7.34571 1.25 9.58043 1.25 12C1.25001 17.9371 6.06295 22.75 12 22.75C17.937 22.75 22.75 17.937 22.75 12Z" fill="black"/>
<path d="M15.8496 11.2109C16.1314 10.9074 16.114 10.4323 15.8105 10.1504C15.5071 9.86859 15.0319 9.88603 14.75 10.1895L12.2334 12.9004C12.1345 13.0067 11.9651 13.0068 11.8662 12.9004L9.34961 10.1895C9.06774 9.88603 8.59256 9.86857 8.28906 10.1504C7.98583 10.4323 7.96824 10.9075 8.25 11.2109L10.7676 13.9209C11.4599 14.6664 12.6397 14.6663 13.332 13.9209L15.8496 11.2109Z" fill="black"/>
</svg>
