<svg width="24" height="24" viewBox="0 0 24 24" fill="none" xmlns="http://www.w3.org/2000/svg">
<path d="M16.5302 16.5303C16.823 16.2374 16.823 15.7626 16.5302 15.4697C16.2373 15.177 15.7625 15.177 15.4696 15.4697L12.1766 18.7627C12.079 18.8602 11.9207 18.8602 11.8231 18.7627L8.53015 15.4697C8.23727 15.177 7.76246 15.177 7.4696 15.4697C7.17675 15.7626 7.17684 16.2374 7.4696 16.5303L10.7626 19.8232C11.446 20.5066 12.5538 20.5066 13.2372 19.8232L16.5302 16.5303Z" fill="black"/>
<path d="M12.7499 5C12.7498 4.58588 12.414 4.25 11.9999 4.25C11.5858 4.25003 11.25 4.5859 11.2499 5L11.2499 16C11.2499 16.4142 11.5857 16.75 11.9999 16.75C12.4141 16.75 12.7499 16.4142 12.7499 16V5Z" fill="black"/>
</svg>
