<svg width="24" height="24" viewBox="0 0 24 24" fill="none" xmlns="http://www.w3.org/2000/svg">
<path d="M22.75 12C22.75 6.24831 18.2329 1.55135 12.5527 1.26367L12 1.25C10.4727 1.25 9.0179 1.56888 7.7002 2.14453C7.32063 2.31037 7.14666 2.75325 7.3125 3.13281C7.47837 3.51202 7.92044 3.68499 8.2998 3.51953C9.43182 3.02493 10.6831 2.75 12 2.75L12.4756 2.76172C17.3632 3.00925 21.25 7.05087 21.25 12C21.25 17.1086 17.1086 21.25 12 21.25C6.89137 21.25 2.75 17.1086 2.75 12C2.75 9.91636 3.43803 7.99528 4.59961 6.44922C4.84824 6.11807 4.78129 5.64817 4.4502 5.39941C4.11904 5.15078 3.64915 5.21773 3.40039 5.54883C2.05042 7.34571 1.25 9.58043 1.25 12C1.25 17.9371 6.06294 22.75 12 22.75C17.9371 22.75 22.75 17.9371 22.75 12Z" fill="black"/>
<path d="M15.5303 13.5303C15.8232 13.2374 15.8232 12.7626 15.5303 12.4697C15.2374 12.1768 14.7626 12.1768 14.4697 12.4697L12.75 14.1895V8C12.75 7.58579 12.4142 7.25 12 7.25C11.5858 7.25 11.25 7.58579 11.25 8V14.1895L9.53027 12.4697C9.23738 12.1768 8.76262 12.1768 8.46973 12.4697C8.17683 12.7626 8.17683 13.2374 8.46973 13.5303L10.7627 15.8232C11.4461 16.5066 12.5539 16.5066 13.2373 15.8232L15.5303 13.5303Z" fill="black"/>
</svg>
