<svg width="24" height="24" viewBox="0 0 24 24" fill="none" xmlns="http://www.w3.org/2000/svg">
<path d="M17.8037 10.8968C17.3895 10.8968 17.0537 11.2326 17.0537 11.6468V16.3031C17.0536 16.441 16.9416 16.5529 16.8037 16.5531H12.1465C11.7323 16.5531 11.3966 16.889 11.3965 17.3031C11.3965 17.7173 11.7323 18.0531 12.1465 18.0531H16.8037C17.488 18.0529 18.0776 17.6588 18.3652 17.0863C18.4803 16.9545 18.5537 16.7848 18.5537 16.596V11.6468C18.5537 11.2327 18.2177 10.897 17.8037 10.8968Z" fill="black"/>
<path d="M7.72655 6.16636C7.43364 5.87364 6.95884 5.87352 6.666 6.16636C6.37339 6.45921 6.37336 6.93407 6.666 7.22691L14.666 15.2269C14.9588 15.5197 15.4336 15.5196 15.7266 15.2269C16.0194 14.934 16.0194 14.4593 15.7266 14.1664L7.72655 6.16636Z" fill="black"/>
</svg>
