<svg width="24" height="24" viewBox="0 0 24 24" fill="none" xmlns="http://www.w3.org/2000/svg">
<path d="M6.19629 10.8968C6.6105 10.8968 6.94629 11.2326 6.94629 11.6468V16.3031C6.94635 16.441 7.05843 16.5529 7.19629 16.5531H11.8535C12.2676 16.5531 12.6034 16.889 12.6035 17.3031C12.6035 17.7173 12.2677 18.0531 11.8535 18.0531H6.90332C6.71519 18.053 6.54566 17.9811 6.41406 17.8666C5.84106 17.5791 5.44633 16.9878 5.44629 16.3031V11.6468C5.44629 11.2327 5.78226 10.897 6.19629 10.8968Z" fill="black"/>
<path d="M16.2734 6.16636C16.5663 5.87364 17.0412 5.87352 17.334 6.16636C17.6266 6.45921 17.6266 6.93407 17.334 7.22691L9.33398 15.2269C9.04117 15.5197 8.56635 15.5196 8.27344 15.2269C7.98054 14.934 7.98054 14.4593 8.27344 14.1664L16.2734 6.16636Z" fill="black"/>
</svg>
