<svg width="24" height="24" viewBox="0 0 24 24" fill="none" xmlns="http://www.w3.org/2000/svg">
<path d="M18.6575 3.53059C23.2543 7.28767 23.9349 14.0596 20.178 18.6566C16.4211 23.2536 9.64914 23.9349 5.05206 20.1781C3.17865 18.6469 1.9543 16.6124 1.41729 14.43C1.31866 14.028 1.56424 13.6218 1.96612 13.5228C2.36814 13.4239 2.77413 13.6697 2.87335 14.0716C3.33538 15.9493 4.38806 17.6984 6.00128 19.0169C9.9569 22.2493 15.7842 21.6628 19.0169 17.7073C22.2495 13.7518 21.6638 7.92449 17.7083 4.69172C13.7527 1.45916 7.92444 2.04477 4.69171 6.00032C3.85846 7.0199 3.27998 8.16253 2.94659 9.35188C2.83481 9.75073 2.42063 9.98417 2.02179 9.87239C1.62329 9.76043 1.39065 9.34621 1.50226 8.94758C1.89037 7.56286 2.56399 6.23381 3.53058 5.0511C7.28757 0.454197 14.0605 -0.226182 18.6575 3.53059Z" fill="black"/>
<path d="M15.5784 13.8284C15.5784 14.7949 14.7948 15.5784 13.8284 15.5784H10.5862C10.172 15.5784 9.83624 15.2427 9.83624 14.8284C9.8363 14.4143 10.1721 14.0784 10.5862 14.0784H13.0179L8.64093 9.70247C8.34803 9.40957 8.34803 8.93384 8.64093 8.64094C8.93382 8.34806 9.40956 8.34805 9.70245 8.64094L14.0784 13.0179V10.5863C14.0784 10.1721 14.4143 9.8363 14.8284 9.83626C15.2426 9.83626 15.5784 10.172 15.5784 10.5863V13.8284Z" fill="black"/>
</svg>
