<svg width="24" height="24" viewBox="0 0 24 24" fill="none" xmlns="http://www.w3.org/2000/svg">
<path d="M12 3.24996C12.4142 3.24996 12.75 3.58575 12.75 3.99996C12.75 4.41415 12.4142 4.74996 12 4.74996H8C5.65279 4.74996 3.75 6.65275 3.75 8.99996V17C3.75003 19.3471 5.65281 21.25 8 21.25H16C18.3472 21.25 20.25 19.3471 20.25 17V13C20.25 12.5857 20.5858 12.25 21 12.25C21.4142 12.25 21.75 12.5857 21.75 13V17C21.75 20.1756 19.1756 22.75 16 22.75H8C4.82438 22.75 2.25003 20.1756 2.25 17V8.99996C2.25 5.82433 4.82436 3.24996 8 3.24996H12Z" fill="black"/>
<path d="M16.2158 2.88863C17.2889 1.81397 19.0296 1.81301 20.1035 2.88668L21.7637 4.54586C22.8284 5.61061 22.839 7.33469 21.7881 8.41305L14.3594 16.0351C13.6539 16.7589 12.6861 17.1669 11.6758 17.167H9.40332C8.34014 17.1668 7.49057 16.2808 7.53516 15.2177L7.63379 12.8828C7.67327 11.9441 8.06303 11.0533 8.72656 10.3886L10.333 8.78024C10.6257 8.48712 11.1007 8.48734 11.3936 8.78024C11.6862 9.07315 11.6862 9.54774 11.3936 9.84078L9.78711 11.4502C9.38942 11.8488 9.15559 12.3825 9.13184 12.9453L9.03418 15.2812C9.02553 15.4915 9.19299 15.6669 9.40332 15.667L11.6758 15.666C12.2819 15.666 12.8629 15.4224 13.2861 14.9882L18.5732 9.56246L17.1475 8.13668C16.8549 7.84377 16.8547 7.36892 17.1475 7.07613C17.4402 6.78335 17.9151 6.78357 18.208 7.07613L19.6201 8.48824L20.7148 7.36617C21.1925 6.876 21.1871 6.09136 20.7031 5.60738L19.0439 3.94821C18.5558 3.46019 17.7651 3.46084 17.2773 3.94918L13.8262 7.40524C13.5335 7.69825 13.0585 7.69809 12.7656 7.40524C12.473 7.11236 12.4731 6.63774 12.7656 6.34469L16.2158 2.88863Z" fill="black"/>
</svg>
