<svg width="24" height="24" viewBox="0 0 24 24" fill="none" xmlns="http://www.w3.org/2000/svg">
<path d="M13.5137 3.80591C14.5867 2.7315 16.3265 2.73058 17.4004 3.80395L19.8926 6.29614C20.9571 7.36091 20.9678 9.08406 19.917 10.1624L10.6846 19.636C9.9791 20.3598 9.0104 20.7679 8.00004 20.7678L5.07036 20.7688C3.88863 20.7685 2.9435 19.7825 2.99321 18.6008L3.11039 15.8303L3.11918 15.6145C3.1587 14.6756 3.54922 13.7842 4.21293 13.1194L6.2725 11.0579C6.56497 10.765 7.03916 10.7646 7.33207 11.0569C7.62494 11.3498 7.62565 11.8253 7.33305 12.1184L5.27348 14.1809C4.87555 14.5797 4.64094 15.1139 4.61723 15.677L4.60942 15.8938L4.49223 18.6643C4.47868 18.993 4.7416 19.2676 5.07036 19.2678H8.00102C8.60715 19.2678 9.18812 19.0224 9.61137 18.5881L16.1426 11.885L14.3555 10.0979L14.3038 10.0403C14.0638 9.74579 14.0812 9.31186 14.3555 9.03735C14.63 8.76286 15.0639 8.7456 15.3584 8.98559L15.4161 9.03735L17.1905 10.8108L18.8438 9.11548C19.3214 8.62539 19.3167 7.84166 18.8331 7.35767L16.3409 4.86548C15.8527 4.37773 15.0619 4.37823 14.5743 4.86645L10.2178 9.22876C9.92513 9.52173 9.45011 9.52258 9.15727 9.22974C8.86463 8.93687 8.86482 8.46127 9.15727 8.16821L13.5137 3.80591Z" fill="black"/>
<path d="M20.5147 19.1946C20.9285 19.1948 21.2635 19.5305 21.2637 19.9446C21.2637 20.3588 20.9286 20.6944 20.5147 20.6946H14.3926C13.9787 20.6944 13.6426 20.3589 13.6426 19.9446C13.6428 19.5305 13.9788 19.1947 14.3926 19.1946H20.5147Z" fill="black"/>
</svg>
