<svg width="24" height="24" viewBox="0 0 24 24" fill="none" xmlns="http://www.w3.org/2000/svg">
<path d="M4.30762 14.3271C4.72176 14.3271 5.0575 14.663 5.05762 15.0771V18.6924C5.05764 18.8304 5.16964 18.9423 5.30762 18.9424H8.92285C9.33698 18.9424 9.67276 19.2783 9.67285 19.6924C9.67285 20.1066 9.33703 20.4423 8.92285 20.4424H5.30762C4.34121 20.4423 3.55764 19.6588 3.55762 18.6924V15.0771C3.55773 14.6631 3.89351 14.3272 4.30762 14.3271Z" fill="black"/>
<path d="M9.93164 13.0088C10.2245 12.7159 10.6993 12.7159 10.9922 13.0088C11.2847 13.3017 11.285 13.7766 10.9922 14.0693L6.99121 18.0693C6.69827 18.3617 6.22339 18.3621 5.93066 18.0693C5.63799 17.7766 5.63829 17.3017 5.93066 17.0088L9.93164 13.0088Z" fill="black"/>
<path d="M17.0078 5.93066C17.3007 5.63804 17.7765 5.63785 18.0693 5.93066C18.362 6.22334 18.3615 6.69828 18.0693 6.99121L14.0684 10.9922C13.7755 11.2847 13.3006 11.2848 13.0078 10.9922C12.7149 10.6993 12.7149 10.2235 13.0078 9.93066L17.0078 5.93066Z" fill="black"/>
<path d="M18.6924 3.55762C19.6587 3.55777 20.4423 4.3413 20.4424 5.30762V8.92285C20.4423 9.33691 20.1064 9.67266 19.6924 9.67285C19.2782 9.67281 18.9424 9.33701 18.9424 8.92285V5.30762C18.9423 5.16972 18.8303 5.05777 18.6924 5.05762H15.0762C14.6622 5.05733 14.3262 4.72165 14.3262 4.30762C14.3262 3.89362 14.6622 3.55791 15.0762 3.55762H18.6924Z" fill="black"/>
</svg>
