<svg width="24" height="24" viewBox="0 0 24 24" fill="none" xmlns="http://www.w3.org/2000/svg">
<path d="M12.0004 8.25C14.0713 8.25023 15.7504 9.92907 15.7504 12C15.7504 14.0709 14.0713 15.7498 12.0004 15.75C9.92937 15.75 8.25043 14.0711 8.25043 12C8.25043 11.5858 8.58622 11.25 9.00043 11.25C9.41445 11.2502 9.75043 11.5859 9.75043 12C9.75043 13.2426 10.7578 14.25 12.0004 14.25C13.2429 14.2498 14.2504 13.2425 14.2504 12C14.2504 10.7575 13.2429 9.75023 12.0004 9.75C11.5862 9.75 11.2504 9.41421 11.2504 9C11.2504 8.58579 11.5862 8.25 12.0004 8.25Z" fill="black"/>
<path fill-rule="evenodd" clip-rule="evenodd" d="M12.0004 5.25C16.0813 5.25017 19.6316 7.51701 21.4575 10.8555C21.8474 11.5686 21.8474 12.4314 21.4575 13.1445C19.6316 16.483 16.0813 18.7498 12.0004 18.75C7.91946 18.75 4.36938 16.483 2.5434 13.1445C2.15334 12.4313 2.15333 11.5687 2.5434 10.8555C4.36939 7.517 7.91946 5.25 12.0004 5.25ZM12.0004 6.75C8.48843 6.75 5.43179 8.69917 3.85883 11.5752C3.71403 11.84 3.71403 12.16 3.85883 12.4248C5.43178 15.3008 8.48844 17.25 12.0004 17.25C15.5123 17.2498 18.5692 15.3008 20.142 12.4248C20.2867 12.1601 20.2867 11.8399 20.142 11.5752C18.5692 8.69918 15.5123 6.75017 12.0004 6.75Z" fill="black"/>
</svg>
