<svg width="24" height="24" viewBox="0 0 24 24" fill="none" xmlns="http://www.w3.org/2000/svg">
<path fill-rule="evenodd" clip-rule="evenodd" d="M15 1.25C17.2549 1.25018 19.0828 3.0781 19.083 5.33301C19.083 6.70965 18.4012 7.92614 17.3574 8.66602C18.4014 9.4056 19.0829 10.6232 19.083 12C19.0827 14.2548 17.2549 16.0838 15 16.084C14.0198 16.0839 13.1209 15.737 12.417 15.1611V18.667C12.4167 20.9219 10.588 22.751 8.33301 22.751C6.07816 22.7508 4.25026 20.9218 4.25 18.667C4.25011 17.2903 4.9317 16.0726 5.97559 15.333C4.93194 14.5932 4.25016 13.3764 4.25 12C4.25011 10.6233 4.9317 9.40562 5.97559 8.66602C4.93195 7.92613 4.25 6.70955 4.25 5.33301C4.25018 4.91895 4.5859 4.58301 5 4.58301C5.41411 4.58301 5.74982 4.91894 5.75 5.33301C5.75 6.75963 6.90642 7.91681 8.33301 7.91699H10.916V2.75H8.33301C7.91895 2.74982 7.58301 2.4141 7.58301 2C7.58301 1.5859 7.91895 1.25018 8.33301 1.25H15ZM8.33301 16.084C6.90653 16.0842 5.75018 17.2405 5.75 18.667C5.75026 20.0934 6.90658 21.2508 8.33301 21.251C9.75958 21.251 10.9167 20.0935 10.917 18.667V16.084H8.33301ZM8.33301 9.41699C6.90653 9.41717 5.75018 10.5735 5.75 12C5.75026 13.4264 6.90658 14.5838 8.33301 14.584H10.917V12.0342C10.9169 12.0228 10.916 12.0114 10.916 12C10.916 11.9884 10.9169 11.9764 10.917 11.9648V9.41699H8.33301ZM15 9.41699C13.5799 9.41717 12.4274 10.5628 12.417 11.9805V12.0186C12.4272 13.4364 13.5798 14.5838 15 14.584C16.4264 14.5838 17.5827 13.4264 17.583 12C17.5828 10.5735 16.4265 9.41717 15 9.41699ZM12.417 7.91699H15C16.4266 7.91682 17.583 6.75964 17.583 5.33301C17.5828 3.90653 16.4265 2.75018 15 2.75H12.417V7.91699Z" fill="black"/>
</svg>
