<svg width="24" height="24" viewBox="0 0 24 24" fill="none" xmlns="http://www.w3.org/2000/svg">
<path d="M20 1C21.5188 1 22.75 2.23122 22.75 3.75V4.56738C22.75 5.51723 22.3893 6.43159 21.7412 7.12598L16.0859 13.1855C15.8701 13.4169 15.7501 13.7216 15.75 14.0381V18.1318C15.75 18.7947 15.3751 19.4008 14.7822 19.6973L14.335 19.9209C13.9646 20.1058 13.5143 19.9553 13.3291 19.585C13.1442 19.2146 13.2947 18.7643 13.665 18.5791L14.1113 18.3555C14.196 18.3131 14.25 18.2265 14.25 18.1318V14.0381C14.2501 13.3417 14.5142 12.6712 14.9893 12.1621L20.6445 6.10254C21.0334 5.68591 21.25 5.13729 21.25 4.56738V3.75C21.25 3.05964 20.6904 2.5 20 2.5H4C3.30964 2.5 2.75 3.05964 2.75 3.75V4.56738C2.75 5.13729 2.96661 5.68591 3.35547 6.10254L9.01074 12.1621C9.48581 12.6712 9.74994 13.3417 9.75 14.0381V20.1318C9.75 20.3176 9.94518 20.4382 10.1113 20.3555L10.4658 20.1787C10.8363 19.9935 11.2874 20.1432 11.4727 20.5137C11.6579 20.8842 11.5072 21.3353 11.1367 21.5205L10.7822 21.6973C9.61872 22.2787 8.25 21.4326 8.25 20.1318V14.0381C8.24994 13.7216 8.12993 13.4169 7.91406 13.1855L2.25879 7.12598C1.61069 6.43159 1.25 5.51723 1.25 4.56738V3.75C1.25 2.23122 2.48122 1 4 1H20Z" fill="black"/>
</svg>
