<svg width="24" height="24" viewBox="0 0 24 24" fill="none" xmlns="http://www.w3.org/2000/svg">
<path d="M13.3262 2.38563C13.8414 2.16598 14.4049 2.51083 14.4912 3.03407L14.502 3.1493L14.5127 3.37001C14.5906 4.45791 15.0112 5.32764 15.6113 6.17274C15.851 6.51044 15.7722 6.97886 15.4346 7.21864C15.0969 7.45838 14.6285 7.37848 14.3887 7.04091C13.839 6.2669 13.3726 5.40505 13.1465 4.37196C12.1952 5.28078 11.6438 6.53468 11.335 7.78993C10.9474 9.36568 10.972 10.8191 10.9912 11.2567C11.0158 11.8186 10.433 12.3604 9.79395 12.0595C9.32615 11.8391 8.3041 11.1799 7.91016 9.66298C6.58759 10.7804 5.75 12.4447 5.75 14.2499C5.75007 17.5381 8.52232 20.2499 12 20.2499C15.4777 20.2499 18.2499 17.5381 18.25 14.2499C18.25 12.3398 17.5515 11.0239 16.6426 9.82606C16.3924 9.49614 16.4573 9.02564 16.7871 8.77528C17.117 8.52497 17.5874 8.58913 17.8379 8.91884C18.8653 10.2728 19.75 11.9016 19.75 14.2499L19.7402 14.6376C19.5314 18.6222 16.1215 21.7499 12 21.7499C7.74577 21.7499 4.25007 18.4175 4.25 14.2499C4.25 11.5356 5.7476 9.10013 7.96973 7.78309C8.5311 7.45049 9.15008 7.83958 9.24121 8.38075L9.25195 8.4911L9.27148 8.77919C9.31164 9.1674 9.40604 9.48099 9.52344 9.73426C9.57194 9.06876 9.6723 8.26752 9.87793 7.43153C10.3115 5.66921 11.2365 3.62442 13.2168 2.4413L13.3262 2.38563Z" fill="black"/>
</svg>
