<svg width="24" height="24" viewBox="0 0 24 24" fill="none" xmlns="http://www.w3.org/2000/svg">
<path d="M10.5 1.25C11.7426 1.25 12.75 2.25736 12.75 3.5V14C12.75 14.1381 12.8619 14.25 13 14.25H18.0361C18.2405 14.25 18.3585 14.0178 18.2383 13.8525L16.249 11.1172C15.5479 10.153 15.5479 8.84703 16.249 7.88281L18.2383 5.14746C18.3585 4.98222 18.2405 4.75 18.0361 4.75H16C15.5858 4.75 15.25 4.41421 15.25 4C15.25 3.58579 15.5858 3.25 16 3.25H18.0361C19.4664 3.25 20.2924 4.8726 19.4512 6.0293L17.4619 8.76465C17.1431 9.20296 17.1431 9.79704 17.4619 10.2354L19.4512 12.9707C20.2924 14.1274 19.4664 15.75 18.0361 15.75H13C12.0335 15.75 11.25 14.9665 11.25 14V3.5C11.25 3.08579 10.9142 2.75 10.5 2.75H5.5C5.08579 2.75 4.75 3.08579 4.75 3.5V12.25H8C8.41421 12.25 8.75 12.5858 8.75 13C8.75 13.4142 8.41421 13.75 8 13.75H4.75V22C4.75 22.4142 4.41421 22.75 4 22.75C3.58579 22.75 3.25 22.4142 3.25 22V3.5C3.25 2.25736 4.25736 1.25 5.5 1.25H10.5Z" fill="black"/>
</svg>
