<svg width="24" height="24" viewBox="0 0 24 24" fill="none" xmlns="http://www.w3.org/2000/svg">
<path fill-rule="evenodd" clip-rule="evenodd" d="M8.95605 2C9.91 2 10.8165 2.36428 11.5029 3H16.5C19.316 3 21.6131 5.21713 21.7432 8.00098C22.3776 8.92547 22.75 10.044 22.75 11.25C22.75 11.6642 22.4142 12 22 12C21.5858 12 21.25 11.6642 21.25 11.25C21.25 8.90279 19.3472 7 17 7H14.5439C13.3329 7 12.1961 6.41517 11.4922 5.42969L10.7871 4.44238C10.3648 3.85109 9.68269 3.5 8.95605 3.5H7C4.65279 3.5 2.75 5.40279 2.75 7.75V15.75C2.75 18.0972 4.65279 20 7 20H17C19.3472 20 21.25 18.0972 21.25 15.75C21.25 15.3358 21.5858 15 22 15C22.4142 15 22.75 15.3358 22.75 15.75C22.75 18.9256 20.1756 21.5 17 21.5H7C3.82436 21.5 1.25 18.9256 1.25 15.75V7.75C1.25 4.57436 3.82436 2 7 2H8.95605ZM12.7129 4.55762C13.1352 5.14891 13.8173 5.5 14.5439 5.5H17C17.9277 5.5 18.8032 5.72116 19.5791 6.11133C18.9017 5.1379 17.7758 4.5 16.5 4.5H12.6719L12.7129 4.55762Z" fill="black"/>
<path d="M18 15.5C18.4142 15.5 18.75 15.8358 18.75 16.25C18.75 16.6642 18.4142 17 18 17H12C11.5858 17 11.25 16.6642 11.25 16.25C11.25 15.8358 11.5858 15.5 12 15.5H18Z" fill="black"/>
</svg>
