<svg width="24" height="24" viewBox="0 0 24 24" fill="none" xmlns="http://www.w3.org/2000/svg">
<path d="M9.90905 4.0687C10.9681 3.93567 11.7499 4.8131 11.7499 5.75034V11.2503C11.7499 11.6644 12.0858 12.0003 12.4999 12.0003H17.9999C18.9371 12.0003 19.8145 12.7821 19.6815 13.8412C19.5126 15.1851 19.0333 16.4771 18.2753 17.6117C17.3138 19.0505 15.9472 20.1721 14.3485 20.8343C12.7497 21.4965 10.9901 21.67 9.29283 21.3324C7.59554 20.9947 6.03605 20.1615 4.81237 18.9378C4.51964 18.6451 4.51998 18.1702 4.81237 17.8773C5.10526 17.5844 5.58002 17.5844 5.87291 17.8773C6.88682 18.8912 8.17948 19.5809 9.5858 19.8607C10.992 20.1403 12.4497 19.9972 13.7743 19.4486C15.0989 18.8999 16.2316 17.9707 17.0282 16.7787C17.6562 15.8387 18.0532 14.7681 18.1932 13.6546C18.1974 13.6214 18.1893 13.5933 18.161 13.5638C18.1286 13.5301 18.0722 13.5003 17.9999 13.5003H12.4999C11.2573 13.5003 10.2499 12.4929 10.2499 11.2503V5.75034C10.2499 5.67798 10.2201 5.62165 10.1864 5.5892C10.1569 5.56088 10.1288 5.5528 10.0956 5.55698C8.98214 5.69697 7.91146 6.09399 6.97155 6.72202C5.77947 7.51864 4.8503 8.6513 4.30162 9.97592C3.753 11.3005 3.60986 12.7582 3.88951 14.1644C3.95816 14.5095 4.05101 14.8482 4.16783 15.1771C4.30643 15.5673 4.1029 15.9964 3.71276 16.1351C3.3226 16.2736 2.89354 16.0701 2.75475 15.68C2.61365 15.2829 2.50073 14.8741 2.41783 14.4574C2.08024 12.7601 2.25367 11.0005 2.91588 9.4017C3.57812 7.80297 4.69974 6.43638 6.13854 5.47495C7.27307 4.71688 8.56508 4.2376 9.90905 4.0687Z" fill="black"/>
<path fill-rule="evenodd" clip-rule="evenodd" d="M15.1034 2.07944C15.7416 2.17125 16.3673 2.34235 16.9657 2.59018C17.906 2.97966 18.7607 3.55021 19.4803 4.26987C20.2 4.98952 20.7705 5.84425 21.16 6.78452C21.4079 7.38285 21.579 8.00865 21.6708 8.64682C21.8248 9.71827 20.9321 10.5003 19.9999 10.5003H14.9999C14.0335 10.5003 13.2499 9.71673 13.2499 8.75034V3.75034C13.2499 2.81814 14.0319 1.92539 15.1034 2.07944ZM14.8505 3.56674C14.8407 3.57007 14.8265 3.5767 14.8114 3.59116C14.7794 3.6218 14.7499 3.67773 14.7499 3.75034V8.75034C14.7499 8.8883 14.8619 9.00027 14.9999 9.00034H19.9999C20.0725 9.00034 20.1284 8.97076 20.159 8.93881C20.1735 8.9237 20.1801 8.90955 20.1835 8.89975C20.1863 8.89129 20.1891 8.87954 20.1864 8.86069C20.1124 8.34606 19.9741 7.84124 19.7743 7.35874C19.4602 6.60045 18.9992 5.91176 18.4188 5.33139C17.8384 4.75103 17.1498 4.29002 16.3915 3.97592C15.909 3.77609 15.4041 3.63784 14.8895 3.56381C14.8707 3.56115 14.8589 3.5639 14.8505 3.56674Z" fill="black"/>
</svg>
