<svg width="24" height="24" viewBox="0 0 24 24" fill="none" xmlns="http://www.w3.org/2000/svg">
<path fill-rule="evenodd" clip-rule="evenodd" d="M3.875 6.3584C4.10427 6.01357 4.57014 5.91935 4.91504 6.14844C5.25988 6.37772 5.35411 6.84357 5.125 7.18848C4.2565 8.49471 3.75 10.0622 3.75 11.75V12.3027C4.12532 12.1106 4.54942 12 5 12H6C7.51878 12 8.75 13.2312 8.75 14.75V18.75C8.75 20.2688 7.51878 21.5 6 21.5H5C3.48122 21.5 2.25 20.2688 2.25 18.75V11.75C2.25 9.75782 2.84814 7.90299 3.875 6.3584ZM5 13.5C4.30964 13.5 3.75 14.0596 3.75 14.75V18.75C3.75 19.4404 4.30964 20 5 20H6C6.69036 20 7.25 19.4404 7.25 18.75V14.75C7.25 14.0596 6.69036 13.5 6 13.5H5Z" fill="black"/>
<path fill-rule="evenodd" clip-rule="evenodd" d="M12 2C17.3848 2 21.75 6.36522 21.75 11.75V18.75C21.75 20.2688 20.5188 21.5 19 21.5H18C16.4812 21.5 15.25 20.2688 15.25 18.75V14.75C15.25 13.2312 16.4812 12 18 12H19C19.4506 12 19.8747 12.1106 20.25 12.3027V11.75C20.25 7.19365 16.5563 3.5 12 3.5C10.4962 3.5 9.08863 3.90208 7.87598 4.60352C7.51743 4.81092 7.05799 4.68765 6.85059 4.3291C6.64359 3.97071 6.76583 3.51208 7.12402 3.30469C8.55888 2.47467 10.2253 2 12 2ZM18 13.5C17.3096 13.5 16.75 14.0596 16.75 14.75V18.75C16.75 19.4404 17.3096 20 18 20H19C19.6904 20 20.25 19.4404 20.25 18.75V14.75C20.25 14.0596 19.6904 13.5 19 13.5H18Z" fill="black"/>
</svg>
