<svg width="24" height="24" viewBox="0 0 24 24" fill="none" xmlns="http://www.w3.org/2000/svg">
<path d="M15.6363 2.2888C16.0926 2.23773 16.554 2.23771 17.0103 2.2888C17.4217 2.33515 17.7185 2.70644 17.6724 3.1179C17.6261 3.52913 17.2546 3.82578 16.8433 3.78001C16.4979 3.74134 16.1486 3.74137 15.8033 3.78001C15.2204 3.84534 14.6459 4.02095 14.1099 4.30735C13.6595 4.54809 13.2339 4.86789 12.8531 5.26927C12.3896 5.75749 11.6116 5.75717 11.148 5.26927C9.22677 3.24452 6.12882 3.24461 4.20755 5.26927C2.26516 7.31635 2.26515 10.6509 4.20755 12.698L10.3687 19.1911C11.2559 20.1253 12.7453 20.1257 13.6324 19.1911L19.7935 12.698C21.7357 10.6511 21.7354 7.31639 19.7935 5.26927C19.5085 4.96879 19.5214 4.49379 19.8218 4.20872C20.1223 3.92394 20.5964 3.93677 20.8814 4.23704C23.3725 6.86294 23.3728 11.1045 20.8814 13.7302L14.7212 20.2234C13.2427 21.7816 10.7586 21.7813 9.27982 20.2234L3.11966 13.7302C0.628077 11.1044 0.628087 6.8629 3.11966 4.23704C5.55556 1.66999 9.47393 1.59159 12.0005 4.00169C12.4308 3.59135 12.9029 3.25135 13.4029 2.98411C14.1078 2.60741 14.8658 2.37513 15.6363 2.2888Z" fill="black"/>
</svg>
