<svg width="24" height="24" viewBox="0 0 24 24" fill="none" xmlns="http://www.w3.org/2000/svg">
<path d="M17 1.25C20.1756 1.25 22.75 3.82436 22.75 7V17C22.75 20.1756 20.1756 22.75 17 22.75H7C3.82436 22.75 1.25 20.1756 1.25 17V14C1.25 13.5858 1.58579 13.25 2 13.25C2.41421 13.25 2.75 13.5858 2.75 14V17C2.75 19.3472 4.65279 21.25 7 21.25H17C19.3472 21.25 21.25 19.3472 21.25 17V7C21.25 4.65279 19.3472 2.75 17 2.75H7C4.65277 2.75 2.75 4.65281 2.75 7V10C2.75 10.4142 2.41421 10.75 2 10.75C1.58579 10.75 1.25 10.4142 1.25 10V7C1.25 3.82434 3.82439 1.25 7 1.25H17Z" fill="black"/>
<path d="M8 12.25C8.25076 12.25 8.48492 12.3753 8.62402 12.584L9.95117 14.5742L10.3486 13.8779C10.5541 13.5183 11.0124 13.3932 11.3721 13.5986C11.7317 13.8041 11.8568 14.2624 11.6514 14.6221L10.6514 16.3721C10.5224 16.5978 10.2852 16.7411 10.0254 16.75C9.76577 16.7588 9.52008 16.6322 9.37598 16.416L7.59863 13.75H6C5.58579 13.75 5.25 13.4142 5.25 13C5.25 12.5858 5.58579 12.25 6 12.25H8Z" fill="black"/>
<path d="M14.0205 8.25C14.297 8.25767 14.5472 8.41764 14.6709 8.66504L16.4639 12.25H18C18.4142 12.25 18.75 12.5858 18.75 13C18.75 13.4142 18.4142 13.75 18 13.75H16C15.7159 13.75 15.4561 13.589 15.3291 13.335L13.9561 10.5889L13.4014 11.5596C13.1959 11.9192 12.7376 12.0443 12.3779 11.8389C12.0183 11.6334 11.8932 11.1751 12.0986 10.8154L13.3486 8.62793C13.4858 8.38787 13.7441 8.24244 14.0205 8.25Z" fill="black"/>
</svg>
