<svg width="24" height="24" viewBox="0 0 24 24" fill="none" xmlns="http://www.w3.org/2000/svg">
<path d="M5.00391 6.0667C5.32891 5.81034 5.80097 5.86596 6.05762 6.19072C6.31419 6.51575 6.25849 6.98773 5.93359 7.24443L4.48633 8.38701C3.70577 9.00324 3.25014 9.94331 3.25 10.9378V17.4993C3.25 19.2942 4.70507 20.7493 6.5 20.7493H8C8.13807 20.7493 8.25 20.6374 8.25 20.4993V17.4993C8.25026 15.9807 9.48137 14.7493 11 14.7493H12C12.4141 14.7493 12.7497 15.0853 12.75 15.4993C12.75 15.9135 12.4142 16.2493 12 16.2493H11C10.3098 16.2493 9.75026 16.8092 9.75 17.4993V20.4993C9.75 21.4658 8.9665 22.2493 8 22.2493H6.5C3.87665 22.2493 1.75 20.1227 1.75 17.4993V10.9378C1.75014 9.48424 2.41576 8.10997 3.55664 7.20928L5.00391 6.0667Z" fill="black"/>
<path d="M9.16016 2.78545C10.825 1.47126 13.175 1.47126 14.8398 2.78545L20.4434 7.20928C21.5842 8.10997 22.2499 9.48424 22.25 10.9378V17.4993C22.25 20.1227 20.1234 22.2493 17.5 22.2493H16C15.0335 22.2493 14.25 21.4658 14.25 20.4993V18.4993C14.2503 18.0853 14.5859 17.7493 15 17.7493C15.4141 17.7493 15.7497 18.0853 15.75 18.4993V20.4993C15.75 20.6374 15.8619 20.7493 16 20.7493H17.5C19.2949 20.7493 20.75 19.2942 20.75 17.4993V10.9378C20.7499 9.94331 20.2942 9.00324 19.5137 8.38701L13.9102 3.96318C12.7902 3.07919 11.2098 3.07919 10.0898 3.96318L9.49609 4.43193C9.17099 4.68857 8.69904 4.63301 8.44238 4.30791C8.18601 3.98281 8.2414 3.51078 8.56641 3.2542L9.16016 2.78545Z" fill="black"/>
</svg>
