<svg width="24" height="24" viewBox="0 0 24 24" fill="none" xmlns="http://www.w3.org/2000/svg">
<path d="M12 1.25C17.9371 1.25 22.75 6.06294 22.75 12C22.75 17.9371 17.9371 22.75 12 22.75C9.85699 22.75 7.85833 22.1221 6.18066 21.04C5.8326 20.8155 5.73253 20.351 5.95703 20.0029C6.18162 19.6551 6.64616 19.5549 6.99414 19.7793C8.43671 20.7096 10.154 21.25 12 21.25C17.1086 21.25 21.25 17.1086 21.25 12C21.25 6.89137 17.1086 2.75 12 2.75C6.89137 2.75 2.75 6.89137 2.75 12C2.75 13.9026 3.32403 15.6693 4.30762 17.1387C4.53761 17.4827 4.44536 17.9483 4.10156 18.1787C3.75735 18.4091 3.29096 18.3169 3.06055 17.9727C1.91691 16.2641 1.25 14.2088 1.25 12C1.25 6.06294 6.06294 1.25 12 1.25Z" fill="black"/>
<path d="M12.5 10.25C12.9142 10.25 13.25 10.5858 13.25 11V17C13.25 17.4142 12.9142 17.75 12.5 17.75C12.0858 17.75 11.75 17.4142 11.75 17V11.75H10.5C10.0858 11.75 9.75 11.4142 9.75 11C9.75 10.5858 10.0858 10.25 10.5 10.25H12.5Z" fill="black"/>
<path d="M12.5 6.25C12.9142 6.25 13.25 6.58579 13.25 7V8C13.25 8.41421 12.9142 8.75 12.5 8.75C12.0858 8.75 11.75 8.41421 11.75 8V7C11.75 6.58579 12.0858 6.25 12.5 6.25Z" fill="black"/>
</svg>
