<svg width="24" height="24" viewBox="0 0 24 24" fill="none" xmlns="http://www.w3.org/2000/svg">
<path d="M17 1C20.1756 1 22.75 3.57436 22.75 6.75V16.75C22.75 19.9256 20.1756 22.5 17 22.5H7C3.82436 22.5 1.25 19.9256 1.25 16.75V13.75C1.25 13.3358 1.58579 13 2 13C2.41421 13 2.75 13.3358 2.75 13.75V16.75C2.75 19.0972 4.65279 21 7 21H17C19.3472 21 21.25 19.0972 21.25 16.75V6.75C21.25 4.40279 19.3472 2.5 17 2.5H7C4.65277 2.5 2.75 4.40281 2.75 6.75V9.75C2.75 10.1642 2.41421 10.5 2 10.5C1.58579 10.5 1.25 10.1642 1.25 9.75V6.75C1.25 3.57434 3.82439 1 7 1H17Z" fill="black"/>
<path d="M12.5 10C12.9142 10 13.25 10.3358 13.25 10.75V16.75C13.25 17.1642 12.9142 17.5 12.5 17.5C12.0858 17.5 11.75 17.1642 11.75 16.75V11.5H10.5C10.0858 11.5 9.75 11.1642 9.75 10.75C9.75 10.3358 10.0858 10 10.5 10H12.5Z" fill="black"/>
<path d="M12.5 6C12.9142 6 13.25 6.33579 13.25 6.75V7.75C13.25 8.16421 12.9142 8.5 12.5 8.5C12.0858 8.5 11.75 8.16421 11.75 7.75V6.75C11.75 6.33579 12.0858 6 12.5 6Z" fill="black"/>
</svg>
