<svg width="24" height="24" viewBox="0 0 24 24" fill="none" xmlns="http://www.w3.org/2000/svg">
<path d="M17 1C20.1756 1 22.75 3.57436 22.75 6.75V10.25C22.75 10.6642 22.4142 11 22 11C21.5858 11 21.25 10.6642 21.25 10.25V6.75C21.25 4.40279 19.3472 2.5 17 2.5H7C4.65279 2.5 2.75 4.40279 2.75 6.75V16.75C2.75 19.0972 4.65279 21 7 21H17C19.3472 21 21.25 19.0972 21.25 16.75V13.25C21.25 12.8358 21.5858 12.5 22 12.5C22.4142 12.5 22.75 12.8358 22.75 13.25V16.75C22.75 19.9256 20.1756 22.5 17 22.5H7C3.82436 22.5 1.25 19.9256 1.25 16.75V6.75C1.25 3.57436 3.82436 1 7 1H17Z" fill="black"/>
<path fill-rule="evenodd" clip-rule="evenodd" d="M17.5 9.5C17.9142 9.5 18.25 9.83579 18.25 10.25V12.25C18.25 12.276 18.2487 12.3018 18.2461 12.3271C18.2101 12.6798 17.9298 12.9601 17.5771 12.9961L17.5 13H11.1436C10.8168 14.1539 9.7585 15 8.5 15C6.98122 15 5.75 13.7688 5.75 12.25C5.75 10.7312 6.98122 9.5 8.5 9.5C9.7585 9.5 10.8168 10.3461 11.1436 11.5H14.25V10.25C14.25 9.83579 14.5858 9.5 15 9.5C15.4142 9.5 15.75 9.83579 15.75 10.25V11.5H16.75V10.25C16.75 9.83579 17.0858 9.5 17.5 9.5ZM8.5 11C7.80964 11 7.25 11.5596 7.25 12.25C7.25 12.9404 7.80964 13.5 8.5 13.5C9.19036 13.5 9.75 12.9404 9.75 12.25C9.75 11.5596 9.19036 11 8.5 11Z" fill="black"/>
</svg>
