<svg width="24" height="24" viewBox="0 0 24 24" fill="none" xmlns="http://www.w3.org/2000/svg">
<path d="M20.1194 15.1607C20.4449 14.9048 20.916 14.9614 21.1721 15.2866C21.9367 16.2589 21.7507 17.8084 20.5364 18.4907L14.6204 21.814C12.9924 22.7286 11.0082 22.7285 9.38015 21.814L3.55105 18.5396C2.3007 17.8371 2.14371 16.2243 2.97586 15.2603C3.24657 14.9469 3.71999 14.9125 4.03347 15.1831C4.3466 15.4539 4.3812 15.9274 4.11062 16.2407C3.8535 16.5391 3.92127 17.0262 4.28543 17.231L10.1155 20.5064C11.2872 21.1645 12.7133 21.1646 13.885 20.5064L19.8011 17.1831C20.1551 16.9842 20.2305 16.5161 19.9934 16.2144C19.7374 15.8889 19.794 15.4168 20.1194 15.1607Z" fill="black"/>
<path d="M19.635 10.3101C19.8379 9.94896 20.2954 9.82106 20.6565 10.024C22.1143 10.8433 22.1145 12.9499 20.6565 13.7691L14.6204 17.1607C12.9924 18.0753 11.0082 18.0752 9.38015 17.1607L3.34402 13.7691C1.88597 12.9499 1.88602 10.8432 3.34402 10.024C3.70514 9.82106 4.16261 9.94896 4.3655 10.3101C4.56791 10.6711 4.43931 11.1288 4.0784 11.3316C3.64105 11.5776 3.641 12.2155 4.0784 12.4615L10.1155 15.8531C11.2872 16.5111 12.7134 16.5112 13.885 15.8531L19.9221 12.4615C20.3594 12.2155 20.3592 11.5777 19.9221 11.3316C19.5612 11.1288 19.4325 10.6711 19.635 10.3101Z" fill="black"/>
<path d="M9.38015 1.68704C11.0083 0.772289 12.9922 0.77229 14.6204 1.68704L16.1292 2.53469C16.49 2.73769 16.6181 3.19518 16.4153 3.55618C16.2123 3.91648 15.7556 4.04458 15.3948 3.84231L13.885 2.99465C12.7132 2.33634 11.2873 2.33633 10.1155 2.99465L4.0784 6.38626C3.64108 6.63229 3.64097 7.27021 4.0784 7.51614L10.1155 10.9077C11.2872 11.5658 12.7134 11.5659 13.885 10.9077L19.9221 7.51614C20.3595 7.27026 20.3592 6.6324 19.9221 6.38626L18.4124 5.53762C18.0518 5.3347 17.9239 4.87798 18.1262 4.51712C18.3291 4.15599 18.7866 4.02712 19.1477 4.23001L20.6565 5.07766C22.1143 5.89699 22.1145 8.00462 20.6565 8.82376L14.6204 12.2154C12.9924 13.13 11.0082 13.1299 9.38015 12.2154L3.34402 8.82376C1.88596 8.00457 1.886 5.89688 3.34402 5.07766L9.38015 1.68704Z" fill="black"/>
</svg>
