<svg width="24" height="24" viewBox="0 0 24 24" fill="none" xmlns="http://www.w3.org/2000/svg">
<path d="M17 1.25C20.1756 1.25 22.75 3.82436 22.75 7V9C22.75 9.41421 22.4142 9.75 22 9.75C21.5858 9.74998 21.25 9.4142 21.25 9V7C21.25 4.65279 19.3472 2.75 17 2.75H7C4.65281 2.75002 2.75 4.6528 2.75 7V17C2.75 19.3472 4.65281 21.25 7 21.25H17C19.3472 21.25 21.25 19.3472 21.25 17V15C21.25 14.5858 21.5858 14.25 22 14.25C22.4142 14.25 22.75 14.5858 22.75 15V17C22.75 20.1756 20.1756 22.75 17 22.75H7C3.82438 22.75 1.25 20.1756 1.25 17V7C1.25 3.82438 3.82438 1.25002 7 1.25H17Z" fill="black"/>
<path d="M12.4697 8.46973C12.7626 8.17685 13.2374 8.17685 13.5303 8.46973C13.8232 8.76262 13.8232 9.23738 13.5303 9.53027L11.2373 11.8232C11.1398 11.9208 11.1398 12.0791 11.2373 12.1768L13.5303 14.4697C13.8232 14.7626 13.8232 15.2374 13.5303 15.5303C13.2374 15.8232 12.7626 15.8232 12.4697 15.5303L10.1768 13.2373C9.49346 12.5539 9.49345 11.4461 10.1768 10.7627L12.4697 8.46973Z" fill="black"/>
</svg>
