<svg width="24" height="24" viewBox="0 0 24 24" fill="none" xmlns="http://www.w3.org/2000/svg">
<path d="M8.51179 12.5693C8.82624 12.8388 9.29982 12.8025 9.56941 12.4882L15.5694 5.4882C15.8389 5.17376 15.8027 4.70014 15.4884 4.43058C15.1739 4.16111 14.7003 4.19738 14.4307 4.51163L8.43074 11.5116C8.16123 11.8261 8.19747 12.2997 8.51179 12.5693Z" fill="black"/>
<path d="M14.4307 19.4882C14.7003 19.8025 15.1739 19.8388 15.4884 19.5693C15.8026 19.2996 15.8389 18.826 15.5694 18.5116L11.8194 14.1366C11.5498 13.8223 11.0762 13.7861 10.7618 14.0556C10.4475 14.3252 10.4113 14.7988 10.6807 15.1132L14.4307 19.4882Z" fill="black"/>
</svg>
