<svg width="24" height="24" viewBox="0 0 24 24" fill="none" xmlns="http://www.w3.org/2000/svg">
<path d="M12 22.75C13.5273 22.75 14.9821 22.4311 16.2998 21.8555C16.6794 21.6896 16.8533 21.2468 16.6875 20.8672C16.5216 20.488 16.0796 20.315 15.7002 20.4805C14.5682 20.9751 13.3169 21.25 12 21.25L11.5244 21.2383C6.63679 20.9908 2.75 16.9491 2.75 12C2.75 6.89137 6.89137 2.75 12 2.75C17.1086 2.75 21.25 6.89137 21.25 12C21.25 14.0836 20.562 16.0047 19.4004 17.5508C19.1518 17.8819 19.2187 18.3518 19.5498 18.6006C19.881 18.8492 20.3509 18.7823 20.5996 18.4512C21.9496 16.6543 22.75 14.4196 22.75 12C22.75 6.06294 17.9371 1.25 12 1.25C6.06294 1.25 1.25 6.06294 1.25 12C1.25 17.7517 5.76707 22.4486 11.4473 22.7363L12 22.75Z" fill="black"/>
<path d="M10.4697 15.5303C10.7626 15.8232 11.2374 15.8232 11.5303 15.5303C11.8232 15.2374 11.8232 14.7626 11.5303 14.4697L9.81055 12.75H16C16.4142 12.75 16.75 12.4142 16.75 12C16.75 11.5858 16.4142 11.25 16 11.25H9.81055L11.5303 9.53027C11.8232 9.23738 11.8232 8.76262 11.5303 8.46973C11.2374 8.17683 10.7626 8.17683 10.4697 8.46973L8.17676 10.7627C7.49344 11.4461 7.49344 12.5539 8.17676 13.2373L10.4697 15.5303Z" fill="black"/>
</svg>
