<svg width="24" height="24" viewBox="0 0 24 24" fill="none" xmlns="http://www.w3.org/2000/svg">
<path d="M7.46996 16.5301C7.76285 16.823 8.23762 16.823 8.53051 16.5301C8.8232 16.2372 8.82332 15.7624 8.53051 15.4696L5.23754 12.1766C5.14001 12.079 5.14001 11.9207 5.23754 11.8231L8.53051 8.53012C8.8232 8.23722 8.82332 7.76241 8.53051 7.46958C8.23767 7.17675 7.76287 7.17687 7.46996 7.46958L3.96996 10.9696C3.8368 11.1027 3.76817 11.2739 3.75609 11.4481C3.55418 12.0565 3.69285 12.753 4.17699 13.2372L7.46996 16.5301Z" fill="black"/>
<path d="M19.0002 12.7498C19.4143 12.7497 19.7502 12.414 19.7502 11.9998C19.7501 11.5858 19.4143 11.25 19.0002 11.2498H8.00023C7.58608 11.2498 7.25033 11.5857 7.25023 11.9998C7.25023 12.4141 7.58602 12.7498 8.00023 12.7498H19.0002Z" fill="black"/>
</svg>
