<svg width="24" height="24" viewBox="0 0 24 24" fill="none" xmlns="http://www.w3.org/2000/svg">
<path d="M12 22.75C13.5273 22.75 14.9821 22.4311 16.2998 21.8555C16.6794 21.6896 16.8533 21.2468 16.6875 20.8672C16.5216 20.488 16.0796 20.315 15.7002 20.4805C14.5682 20.9751 13.3169 21.25 12 21.25L11.5244 21.2383C6.63679 20.9908 2.75 16.9491 2.75 12C2.75 6.89137 6.89137 2.75 12 2.75C17.1086 2.75 21.25 6.89137 21.25 12C21.25 14.0836 20.562 16.0047 19.4004 17.5508C19.1518 17.8819 19.2187 18.3518 19.5498 18.6006C19.881 18.8492 20.3509 18.7823 20.5996 18.4512C21.9496 16.6543 22.75 14.4196 22.75 12C22.75 6.06294 17.9371 1.25 12 1.25C6.06294 1.25 1.25 6.06294 1.25 12C1.25 17.7517 5.76707 22.4486 11.4473 22.7363L12 22.75Z" fill="black"/>
<path d="M12.7891 15.8496C13.0926 16.1314 13.5677 16.114 13.8496 15.8105C14.1314 15.5071 14.114 15.0319 13.8105 14.75L11.0996 12.2334C10.9933 12.1345 10.9932 11.9651 11.0996 11.8662L13.8105 9.34961C14.114 9.06774 14.1314 8.59256 13.8496 8.28906C13.5677 7.98583 13.0925 7.96825 12.7891 8.25L10.0791 10.7676C9.33355 11.4599 9.33369 12.6397 10.0791 13.332L12.7891 15.8496Z" fill="black"/>
</svg>
