<svg width="24" height="24" viewBox="0 0 24 24" fill="none" xmlns="http://www.w3.org/2000/svg">
<path d="M12 1.75C16.8251 1.75 20.75 5.62314 20.75 10.417C20.7499 13.3982 19.0115 16.3405 17.1689 18.4824C16.2364 19.5664 15.2461 20.482 14.373 21.1328C13.9374 21.4576 13.5186 21.7256 13.1406 21.916C12.7862 22.0945 12.3812 22.25 12 22.25C11.6188 22.25 11.2138 22.0945 10.8594 21.916C10.4814 21.7256 10.0626 21.4576 9.62695 21.1328C8.75392 20.482 7.76357 19.5664 6.83105 18.4824C4.98855 16.3405 3.25013 13.3982 3.25 10.417C3.25 8.89334 3.64749 7.45904 4.3457 6.21387C4.54835 5.85274 5.00597 5.72421 5.36719 5.92676C5.7283 6.12941 5.85684 6.58703 5.6543 6.94824C5.07827 7.97559 4.75 9.15754 4.75 10.417C4.75013 12.8632 6.21155 15.4623 7.96875 17.5049C8.83617 18.5132 9.74653 19.3515 10.5234 19.9307C10.9124 20.2206 11.2561 20.4361 11.5342 20.5762C11.6729 20.6461 11.7859 20.6931 11.873 20.7207C11.9644 20.7497 12.0031 20.75 12 20.75C11.9969 20.75 12.0356 20.7497 12.127 20.7207C12.2141 20.6931 12.3271 20.6461 12.4658 20.5762C12.7439 20.4361 13.0876 20.2206 13.4766 19.9307C14.2535 19.3515 15.1638 18.5132 16.0312 17.5049C17.7885 15.4623 19.2499 12.8632 19.25 10.417C19.25 6.46634 16.0115 3.25 12 3.25C10.5627 3.25 9.22576 3.66289 8.10059 4.37402C7.75045 4.59534 7.28674 4.49076 7.06543 4.14062C6.84422 3.79054 6.94882 3.32777 7.29883 3.10645C8.65752 2.24764 10.2714 1.75 12 1.75Z" fill="black"/>
<path d="M12 6.25C14.0711 6.25 15.75 7.92894 15.75 10C15.75 10.3579 15.6999 10.7056 15.6055 11.0352C15.4912 11.4332 15.0758 11.6629 14.6777 11.5488C14.2796 11.4347 14.049 11.0193 14.1631 10.6211C14.2193 10.4247 14.25 10.2166 14.25 10C14.25 8.75736 13.2426 7.75 12 7.75C10.7574 7.75001 9.75001 8.75737 9.75 10C9.75 11.2426 10.7574 12.25 12 12.25C12.1736 12.25 12.342 12.23 12.5029 12.1934C12.9067 12.1015 13.3084 12.355 13.4004 12.7588C13.4922 13.1625 13.2397 13.5642 12.8359 13.6562C12.5664 13.7177 12.2865 13.75 12 13.75C9.92894 13.75 8.25 12.0711 8.25 10C8.25001 7.92895 9.92895 6.25001 12 6.25Z" fill="black"/>
</svg>
