<svg width="24" height="24" viewBox="0 0 24 24" fill="none" xmlns="http://www.w3.org/2000/svg">
<path d="M12 2.00391C12.5387 2.00391 13.0771 2.09185 13.5908 2.27441C14.5245 2.60629 15.331 3.22206 15.8975 4.03516C16.1341 4.37501 16.0507 4.84237 15.7109 5.0791C15.3712 5.31579 14.9038 5.23219 14.667 4.89258C14.2794 4.33619 13.7268 3.91456 13.0879 3.6875C12.4529 3.46194 11.7635 3.43871 11.1152 3.62207C11.1074 3.62428 11.0996 3.62664 11.0918 3.62891C10.6788 3.74909 10.2966 3.95029 9.96484 4.2168C9.93696 4.23923 9.91091 4.26378 9.88379 4.28711C9.83433 4.32961 9.7852 4.37247 9.73828 4.41797C9.71696 4.43865 9.69555 4.45921 9.6748 4.48047C9.62322 4.53332 9.57345 4.58805 9.52539 4.64453C9.04229 5.21178 8.75 5.94653 8.75 6.75V8H16C18.6234 8 20.75 10.1266 20.75 12.75V16.75C20.75 19.3734 18.6234 21.5 16 21.5H8C5.37665 21.5 3.25 19.3734 3.25 16.75V16.25C3.25 15.8358 3.58579 15.5 4 15.5C4.41421 15.5 4.75 15.8358 4.75 16.25V16.75C4.75 18.5449 6.20507 20 8 20H16C17.7949 20 19.25 18.5449 19.25 16.75V12.75C19.25 10.9551 17.7949 9.5 16 9.5H8C6.20507 9.5 4.75 10.9551 4.75 12.75V13.25C4.75 13.6642 4.41421 14 4 14C3.58579 14 3.25 13.6642 3.25 13.25V12.75C3.25 10.3818 4.98299 8.41816 7.25 8.05859V6.75C7.25 5.51063 7.72548 4.38288 8.50293 3.53711C8.52585 3.51216 8.54982 3.48829 8.57324 3.46387C8.62808 3.4067 8.6836 3.35027 8.74121 3.2959C8.7603 3.27788 8.77847 3.25889 8.79785 3.24121C8.87389 3.17178 8.95276 3.10545 9.0332 3.04102C9.05167 3.02625 9.07019 3.01156 9.08887 2.99707C9.26923 2.85696 9.4604 2.73052 9.66016 2.61719C9.66599 2.61388 9.67189 2.6107 9.67773 2.60742C9.781 2.54941 9.88628 2.49467 9.99414 2.44434C9.99731 2.44286 10.0007 2.4419 10.0039 2.44043C10.2227 2.33894 10.4503 2.25416 10.6855 2.18652L10.6895 2.18457H10.6924C10.917 2.12037 11.1479 2.07166 11.3848 2.04102C11.403 2.03863 11.4212 2.03635 11.4395 2.03418C11.5497 2.02121 11.661 2.01114 11.7734 2.00586C11.7835 2.00538 11.7936 2.0053 11.8037 2.00488C11.8688 2.00224 11.9342 2 12 2V2.00391Z" fill="black"/>
<path d="M12 13C12.4142 13 12.75 13.3358 12.75 13.75V15.75C12.75 16.1642 12.4142 16.5 12 16.5C11.5858 16.5 11.25 16.1642 11.25 15.75V13.75C11.25 13.3358 11.5858 13 12 13Z" fill="black"/>
</svg>
