<svg width="24" height="24" viewBox="0 0 24 24" fill="none" xmlns="http://www.w3.org/2000/svg">
<path fill-rule="evenodd" clip-rule="evenodd" d="M12 2C14.6234 2 16.75 4.12665 16.75 6.75V8.05859C19.017 8.41816 20.75 10.3818 20.75 12.75V16.75C20.75 19.3734 18.6234 21.5 16 21.5H8C5.37665 21.5 3.25 19.3734 3.25 16.75V16.25C3.25 15.8358 3.58579 15.5 4 15.5C4.41421 15.5 4.75 15.8358 4.75 16.25V16.75C4.75 18.5449 6.20507 20 8 20H16C17.7949 20 19.25 18.5449 19.25 16.75V12.75C19.25 10.9551 17.7949 9.5 16 9.5H8C6.20507 9.5 4.75 10.9551 4.75 12.75V13.25C4.75 13.6642 4.41421 14 4 14C3.58579 14 3.25 13.6642 3.25 13.25V12.75C3.25 10.3818 4.98299 8.41816 7.25 8.05859V6.75C7.25 4.12665 9.37665 2 12 2ZM12 3.5C10.2051 3.5 8.75 4.95507 8.75 6.75V8H15.25V6.75C15.25 4.95507 13.7949 3.5 12 3.5Z" fill="black"/>
<path d="M13.9697 12.7197C14.2626 12.4272 14.7375 12.4269 15.0303 12.7197C15.3231 13.0125 15.3228 13.4874 15.0303 13.7803L12.0303 16.7803C11.7374 17.0732 11.2626 17.0732 10.9697 16.7803L9.46973 15.2803C9.17699 14.9874 9.17689 14.5126 9.46973 14.2197C9.76257 13.9269 10.2374 13.927 10.5303 14.2197L11.5 15.1895L13.9697 12.7197Z" fill="black"/>
</svg>
