<svg width="24" height="24" viewBox="0 0 24 24" fill="none" xmlns="http://www.w3.org/2000/svg">
<path fill-rule="evenodd" clip-rule="evenodd" d="M12 2C14.6234 2 16.75 4.12665 16.75 6.75V8.05859C19.017 8.41816 20.75 10.3818 20.75 12.75V16.75C20.75 19.3734 18.6234 21.5 16 21.5H8C5.37665 21.5 3.25 19.3734 3.25 16.75V16.25C3.25 15.8358 3.58579 15.5 4 15.5C4.41421 15.5 4.75 15.8358 4.75 16.25V16.75C4.75 18.5449 6.20507 20 8 20H16C17.7949 20 19.25 18.5449 19.25 16.75V12.75C19.25 10.9551 17.7949 9.5 16 9.5H8C6.20507 9.5 4.75 10.9551 4.75 12.75V13.25C4.75 13.6642 4.41421 14 4 14C3.58579 14 3.25 13.6642 3.25 13.25V12.75C3.25 10.3818 4.98299 8.41816 7.25 8.05859V6.75C7.25 4.12665 9.37665 2 12 2ZM12 3.5C10.2051 3.5 8.75 4.95508 8.75 6.75V8H15.25V6.75C15.25 4.95507 13.7949 3.5 12 3.5Z" fill="black"/>
<path d="M13.5908 12.2197C13.8837 11.9269 14.3585 11.9269 14.6514 12.2197C14.9443 12.5126 14.9443 12.9874 14.6514 13.2803L13.1816 14.75L14.6514 16.2197C14.9443 16.5126 14.9443 16.9874 14.6514 17.2803C14.3585 17.5731 13.8837 17.5731 13.5908 17.2803L12.1211 15.8105L10.6514 17.2803C10.3585 17.5729 9.88361 17.5731 9.59082 17.2803C9.29813 16.9875 9.29826 16.5126 9.59082 16.2197L11.0605 14.75L9.59082 13.2803C9.29826 12.9874 9.29813 12.5125 9.59082 12.2197C9.88361 11.9269 10.3585 11.9271 10.6514 12.2197L12.1211 13.6895L13.5908 12.2197Z" fill="black"/>
</svg>
