<svg width="24" height="24" viewBox="0 0 24 24" fill="none" xmlns="http://www.w3.org/2000/svg">
<path d="M12 1.25C14.6234 1.25 16.75 3.37665 16.75 6V8C16.75 8.41421 16.4142 8.75 16 8.75C15.5858 8.75 15.25 8.41421 15.25 8V6C15.25 4.20507 13.7949 2.75 12 2.75H7C5.20507 2.75 3.75 4.20507 3.75 6V18C3.75 19.7949 5.20507 21.25 7 21.25H12C13.7949 21.25 15.25 19.7949 15.25 18V16C15.25 15.5858 15.5858 15.25 16 15.25C16.4142 15.25 16.75 15.5858 16.75 16V18C16.75 20.6234 14.6234 22.75 12 22.75H7C4.37665 22.75 2.25 20.6234 2.25 18V6C2.25 3.37665 4.37665 1.25 7 1.25H12Z" fill="black"/>
<path d="M18.4697 8.46973C18.7626 8.17683 19.2374 8.17683 19.5303 8.46973L21.8232 10.7627C22.5066 11.4461 22.5066 12.5539 21.8232 13.2373L19.5303 15.5303C19.2374 15.8232 18.7626 15.8232 18.4697 15.5303C18.1768 15.2374 18.1768 14.7626 18.4697 14.4697L20.1895 12.75H9C8.58579 12.75 8.25 12.4142 8.25 12C8.25 11.5858 8.58579 11.25 9 11.25H20.1895L18.4697 9.53027C18.1768 9.23738 18.1768 8.76262 18.4697 8.46973Z" fill="black"/>
</svg>
