<svg width="24" height="24" viewBox="0 0 24 24" fill="none" xmlns="http://www.w3.org/2000/svg">
<path d="M12 1.25C14.4196 1.25 16.6543 2.05042 18.4512 3.40039C18.7823 3.64915 18.8492 4.11904 18.6006 4.4502C18.3518 4.78128 17.8819 4.84824 17.5508 4.59961C16.0047 3.43803 14.0836 2.75 12 2.75C6.89138 2.75001 2.75 6.89137 2.75 12C2.75 13.523 3.11706 14.9584 3.76758 16.2236C3.98664 16.6497 4.04589 17.166 3.87402 17.6523L2.94629 20.2793C2.8204 20.6359 3.16389 20.9795 3.52051 20.8535L6.04297 19.9619C6.54875 19.7832 7.08593 19.8543 7.52148 20.0957C8.84762 20.8309 10.3739 21.25 12 21.25C17.1086 21.25 21.25 17.1086 21.25 12C21.25 10.314 20.7992 8.73572 20.0127 7.37598C19.8053 7.01744 19.9286 6.558 20.2871 6.35059C20.6455 6.14359 21.1041 6.26584 21.3115 6.62402C22.2266 8.20597 22.75 10.0432 22.75 12C22.75 17.9371 17.9371 22.75 12 22.75C10.1131 22.75 8.33789 22.2627 6.79492 21.4072C6.70066 21.355 6.60844 21.3529 6.54297 21.376L4.02051 22.2676C2.47492 22.8137 0.986088 21.3249 1.53223 19.7793L2.45996 17.1523C2.48224 17.0893 2.48096 17.0013 2.43359 16.9092C1.67659 15.4368 1.25 13.7671 1.25 12C1.25 6.06295 6.06295 1.25001 12 1.25Z" fill="black"/>
<path d="M7.0498 10.7998C7.74016 10.7998 8.2998 11.3594 8.2998 12.0498C8.2998 12.7402 7.74016 13.2998 7.0498 13.2998C6.35953 13.2997 5.7998 12.7401 5.7998 12.0498C5.7998 11.3595 6.35953 10.7999 7.0498 10.7998Z" fill="black"/>
<path d="M12.0498 10.7998C12.7402 10.7998 13.2998 11.3594 13.2998 12.0498C13.2998 12.7402 12.7402 13.2998 12.0498 13.2998C11.3595 13.2997 10.7998 12.7401 10.7998 12.0498C10.7998 11.3595 11.3595 10.7999 12.0498 10.7998Z" fill="black"/>
<path d="M17.0498 10.7998C17.7402 10.7998 18.2998 11.3594 18.2998 12.0498C18.2998 12.7402 17.7402 13.2998 17.0498 13.2998C16.3595 13.2997 15.7998 12.7401 15.7998 12.0498C15.7998 11.3595 16.3595 10.7999 17.0498 10.7998Z" fill="black"/>
</svg>
