<svg width="24" height="24" viewBox="0 0 24 24" fill="none" xmlns="http://www.w3.org/2000/svg">
<path d="M20 10.5C20.4142 10.5 20.75 10.8358 20.75 11.25C20.75 15.8298 17.2313 19.5853 12.75 19.9658V21.75C12.75 22.1642 12.4142 22.5 12 22.5C11.5858 22.5 11.25 22.1642 11.25 21.75V19.9658C6.7687 19.5853 3.25 15.8298 3.25 11.25C3.25 10.8358 3.58579 10.5 4 10.5C4.41421 10.5 4.75 10.8358 4.75 11.25C4.75 15.2541 7.99594 18.5 12 18.5C16.0041 18.5 19.25 15.2541 19.25 11.25C19.25 10.8358 19.5858 10.5 20 10.5Z" fill="black"/>
<path d="M12 1C12.6285 1 13.2302 1.12264 13.7812 1.3457C14.1652 1.50112 14.3507 1.93832 14.1953 2.32227C14.0399 2.7061 13.6026 2.89155 13.2188 2.73633C12.8434 2.5844 12.4324 2.5 12 2.5C10.2051 2.5 8.75 3.95507 8.75 5.75V10.75C8.75 12.5449 10.2051 14 12 14C13.7949 14 15.25 12.5449 15.25 10.75V5.75C15.25 5.26941 15.1457 4.81476 14.96 4.40625C14.7889 4.02928 14.9561 3.58446 15.333 3.41309C15.71 3.2419 16.1548 3.40918 16.3262 3.78613C16.5987 4.38561 16.75 5.05116 16.75 5.75V10.75C16.75 13.3734 14.6234 15.5 12 15.5C9.37665 15.5 7.25 13.3734 7.25 10.75V5.75C7.25 3.12665 9.37665 1 12 1Z" fill="black"/>
</svg>
