<svg width="24" height="24" viewBox="0 0 24 24" fill="none" xmlns="http://www.w3.org/2000/svg">
<path d="M12 1.25C17.9371 1.25 22.75 6.06294 22.75 12C22.75 17.9371 17.9371 22.75 12 22.75C9.85699 22.75 7.85833 22.1221 6.18066 21.04C5.8326 20.8155 5.73253 20.351 5.95703 20.0029C6.18162 19.6551 6.64616 19.5549 6.99414 19.7793C8.43671 20.7096 10.154 21.25 12 21.25C17.1086 21.25 21.25 17.1086 21.25 12C21.25 6.89137 17.1086 2.75 12 2.75C6.89137 2.75 2.75 6.89137 2.75 12C2.75 13.9026 3.32403 15.6693 4.30762 17.1387C4.53761 17.4827 4.44536 17.9483 4.10156 18.1787C3.75735 18.4091 3.29096 18.3169 3.06055 17.9727C1.91691 16.2641 1.25 14.2088 1.25 12C1.25 6.06294 6.06294 1.25 12 1.25Z" fill="black"/>
<path d="M7.0498 10.7998C7.74016 10.7998 8.2998 11.3594 8.2998 12.0498C8.2998 12.7402 7.74016 13.2998 7.0498 13.2998C6.35953 13.2997 5.7998 12.7401 5.7998 12.0498C5.7998 11.3595 6.35953 10.7999 7.0498 10.7998Z" fill="black"/>
<path d="M12.0498 10.7998C12.7402 10.7998 13.2998 11.3594 13.2998 12.0498C13.2998 12.7402 12.7402 13.2998 12.0498 13.2998C11.3595 13.2997 10.7998 12.7401 10.7998 12.0498C10.7998 11.3595 11.3595 10.7999 12.0498 10.7998Z" fill="black"/>
<path d="M17.0498 10.7998C17.7402 10.7998 18.2998 11.3594 18.2998 12.0498C18.2998 12.7402 17.7402 13.2998 17.0498 13.2998C16.3595 13.2997 15.7998 12.7401 15.7998 12.0498C15.7998 11.3595 16.3595 10.7999 17.0498 10.7998Z" fill="black"/>
</svg>
