<svg width="24" height="24" viewBox="0 0 24 24" fill="none" xmlns="http://www.w3.org/2000/svg">
<path d="M17 1.25C20.1756 1.25 22.75 3.82436 22.75 7V17C22.75 20.1756 20.1756 22.75 17 22.75H7C3.82436 22.75 1.25 20.1756 1.25 17V14C1.25 13.5858 1.58579 13.25 2 13.25C2.41421 13.25 2.75 13.5858 2.75 14V17C2.75 19.3472 4.65279 21.25 7 21.25H17C19.3472 21.25 21.25 19.3472 21.25 17V7C21.25 4.65279 19.3472 2.75 17 2.75H7C4.65277 2.75 2.75 4.65281 2.75 7V10C2.75 10.4142 2.41421 10.75 2 10.75C1.58579 10.75 1.25 10.4142 1.25 10V7C1.25 3.82434 3.82439 1.25 7 1.25H17Z" fill="black"/>
<path d="M7.0498 10.7998C7.74016 10.7998 8.2998 11.3594 8.2998 12.0498C8.2998 12.7402 7.74016 13.2998 7.0498 13.2998C6.35956 13.2997 5.7998 12.7401 5.7998 12.0498C5.7998 11.3595 6.35956 10.7999 7.0498 10.7998Z" fill="black"/>
<path d="M12.0498 10.7998C12.7402 10.7998 13.2998 11.3594 13.2998 12.0498C13.2998 12.7402 12.7402 13.2998 12.0498 13.2998C11.3596 13.2997 10.7998 12.7401 10.7998 12.0498C10.7998 11.3595 11.3596 10.7999 12.0498 10.7998Z" fill="black"/>
<path d="M17.0498 10.7998C17.7402 10.7998 18.2998 11.3594 18.2998 12.0498C18.2998 12.7402 17.7402 13.2998 17.0498 13.2998C16.3596 13.2997 15.7998 12.7401 15.7998 12.0498C15.7998 11.3595 16.3596 10.7999 17.0498 10.7998Z" fill="black"/>
</svg>
