<svg width="24" height="24" viewBox="0 0 24 24" fill="none" xmlns="http://www.w3.org/2000/svg">
<path fill-rule="evenodd" clip-rule="evenodd" d="M6.5 14.499C8.29477 14.499 9.74975 15.9543 9.75 17.749C9.75 19.5439 8.29493 20.999 6.5 20.999C4.70507 20.999 3.25 19.5439 3.25 17.749C3.25025 15.9543 4.70523 14.499 6.5 14.499ZM6.5 15.999C5.53366 15.999 4.75025 16.7827 4.75 17.749C4.75 18.7155 5.5335 19.499 6.5 19.499C7.4665 19.499 8.25 18.7155 8.25 17.749C8.24975 16.7827 7.46634 15.999 6.5 15.999Z" fill="black"/>
<path fill-rule="evenodd" clip-rule="evenodd" d="M20 1.99902C20.0543 1.99902 20.1072 2.00564 20.1582 2.0166C20.1861 2.02262 20.2125 2.03292 20.2393 2.04199C20.2578 2.04825 20.2771 2.05194 20.2949 2.05957C20.3279 2.07368 20.3582 2.09275 20.3887 2.11133C20.3989 2.11757 20.41 2.1222 20.4199 2.12891C20.4436 2.14489 20.4646 2.16404 20.4863 2.18262C20.5016 2.19573 20.5181 2.20739 20.5322 2.22168C20.5493 2.23889 20.5637 2.25847 20.5791 2.27734C20.5944 2.29602 20.6106 2.31387 20.624 2.33398C20.6367 2.35297 20.6453 2.37428 20.6562 2.39453C20.6685 2.41718 20.6824 2.43892 20.6924 2.46289C20.7123 2.51114 20.7286 2.56179 20.7383 2.61523C20.7453 2.65386 20.748 2.6924 20.749 2.73047C20.7492 2.73664 20.75 2.74281 20.75 2.74902V15.749C20.75 15.8033 20.7424 15.8562 20.7314 15.9072C20.7432 16.0196 20.75 16.1336 20.75 16.249C20.75 18.0439 19.2949 19.499 17.5 19.499C15.7051 19.499 14.25 18.0439 14.25 16.249C14.2503 14.4543 15.7052 12.999 17.5 12.999C18.1444 12.999 18.7448 13.1873 19.25 13.5107V3.64746L9.75 5.375V7.85059L17.1162 6.51172C17.5236 6.43792 17.9142 6.70788 17.9883 7.11523C18.0623 7.52257 17.792 7.91293 17.3848 7.9873L9.75 9.375V12.874C9.75 13.2882 9.41421 13.624 9 13.624C8.58579 13.624 8.25 13.2882 8.25 12.874V4.73242C8.25009 4.72818 8.25081 4.72396 8.25098 4.71973C8.25263 4.67741 8.25724 4.63594 8.26562 4.5957C8.27133 4.56853 8.28143 4.54276 8.29004 4.5166C8.31255 4.44793 8.34163 4.38255 8.38184 4.32422C8.38852 4.31451 8.39717 4.30626 8.4043 4.29688C8.45426 4.23121 8.51344 4.17309 8.58203 4.12695C8.60506 4.11147 8.63038 4.09985 8.65527 4.08691C8.67475 4.07676 8.69344 4.06509 8.71387 4.05664C8.75195 4.04096 8.79164 4.02797 8.83301 4.01855C8.84306 4.01627 8.85307 4.0136 8.86328 4.01172H8.86621L19.8457 2.01465C19.8502 2.01371 19.8549 2.01355 19.8594 2.0127L19.8662 2.01172L19.8711 2.01074C19.913 2.00348 19.956 1.99902 20 1.99902ZM17.5 14.499C16.5337 14.499 15.7503 15.2827 15.75 16.249C15.75 17.2155 16.5335 17.999 17.5 17.999C18.4665 17.999 19.25 17.2155 19.25 16.249C19.2497 15.2827 18.4663 14.499 17.5 14.499Z" fill="black"/>
</svg>
