<svg width="24" height="24" viewBox="0 0 24 24" fill="none" xmlns="http://www.w3.org/2000/svg">
<path d="M12 1.25C17.9371 1.25 22.75 6.06294 22.75 12C22.75 17.9371 17.9371 22.75 12 22.75C10.1209 22.75 8.35201 22.2669 6.81348 21.418C6.56514 21.2809 6.3227 21.1341 6.08691 20.9785C5.74138 20.7503 5.64597 20.2851 5.87402 19.9395C6.10219 19.5941 6.56748 19.4987 6.91309 19.7266C7.11598 19.8604 7.32451 19.9866 7.53809 20.1045C8.86036 20.8341 10.3807 21.25 12 21.25C17.1086 21.25 21.25 17.1086 21.25 12C21.25 6.89137 17.1086 2.75 12 2.75C6.89137 2.75 2.75 6.89137 2.75 12C2.75 13.6249 3.16807 15.1501 3.90234 16.4756C4.01807 16.6845 4.14237 16.8883 4.27344 17.0869C4.50143 17.4326 4.40526 17.8979 4.05957 18.126C3.71395 18.3538 3.24959 18.2585 3.02148 17.9131C2.8692 17.6823 2.72535 17.445 2.59082 17.2021C1.73647 15.6599 1.25 13.8856 1.25 12C1.25 6.06294 6.06294 1.25 12 1.25Z" fill="black"/>
<path fill-rule="evenodd" clip-rule="evenodd" d="M12 9.25C13.5188 9.25 14.75 10.4812 14.75 12C14.75 13.5188 13.5188 14.75 12 14.75C10.4812 14.75 9.25 13.5188 9.25 12C9.25 10.4812 10.4812 9.25 12 9.25ZM12 10.75C11.3096 10.75 10.75 11.3096 10.75 12C10.75 12.6904 11.3096 13.25 12 13.25C12.6904 13.25 13.25 12.6904 13.25 12C13.25 11.3096 12.6904 10.75 12 10.75Z" fill="black"/>
<path d="M9.06055 4.8291C9.44374 4.67203 9.88188 4.85517 10.0391 5.23828C10.1961 5.62143 10.0129 6.05957 9.62988 6.2168C8.47037 6.69208 7.47981 7.50488 6.78809 8.5498C6.55947 8.89518 6.09441 8.99028 5.74902 8.76172C5.40378 8.53319 5.30888 8.06801 5.53711 7.72266C6.39483 6.42688 7.62272 5.41849 9.06055 4.8291Z" fill="black"/>
</svg>
