<svg width="24" height="24" viewBox="0 0 24 24" fill="none" xmlns="http://www.w3.org/2000/svg">
<path d="M20 10.5C20.4142 10.5 20.75 10.8358 20.75 11.25C20.75 15.8298 17.2313 19.5853 12.75 19.9658V21.75C12.75 22.1642 12.4142 22.5 12 22.5C11.5858 22.5 11.25 22.1642 11.25 21.75V19.9668C10.4477 19.8987 9.67526 19.7237 8.94824 19.4531C8.56004 19.3086 8.36236 18.8765 8.50684 18.4883C8.65133 18.1001 9.0835 17.9024 9.47168 18.0469C10.2579 18.3395 11.1093 18.5 12 18.5C16.0041 18.5 19.25 15.2541 19.25 11.25C19.25 10.8358 19.5858 10.5 20 10.5Z" fill="black"/>
<path d="M12 1C12.6947 1 13.3547 1.1632 13.9482 1.4541C14.3201 1.63635 14.4741 2.08513 14.292 2.45703C14.1097 2.82898 13.66 2.98306 13.2881 2.80078C12.8921 2.60675 12.4572 2.5 12 2.5C10.2746 2.5 8.75 4.07262 8.75 6.17578V10.6016C8.75007 11.8468 9.296 12.9263 10.1035 13.585L15.25 8.43945V6.17578C15.25 5.5894 15.1284 5.03847 14.915 4.55078C14.749 4.17129 14.9223 3.72851 15.3018 3.5625C15.6812 3.39649 16.124 3.56974 16.29 3.94922C16.5861 4.6259 16.75 5.38181 16.75 6.17578V6.93945L19.4697 4.21973L19.5264 4.16797C19.8209 3.92781 20.2557 3.94518 20.5303 4.21973C20.8048 4.49428 20.8222 4.92905 20.582 5.22363L20.5303 5.28027L5.53027 20.2803C5.23738 20.5732 4.76262 20.5732 4.46973 20.2803C4.17683 19.9874 4.17683 19.5126 4.46973 19.2197L6.03809 17.6504C4.32512 16.0538 3.25 13.778 3.25 11.25C3.25 10.8358 3.58579 10.5 4 10.5C4.41421 10.5 4.75 10.8358 4.75 11.25C4.75 13.3632 5.65558 15.2628 7.09961 16.5889L9.04004 14.6484C7.93891 13.6916 7.25007 12.2246 7.25 10.6016V6.17578C7.25 3.3905 9.3071 1 12 1Z" fill="black"/>
<path d="M15.0049 12.0029C15.1473 11.6141 15.5779 11.4144 15.9668 11.5566C16.3557 11.6989 16.5562 12.1296 16.4141 12.5186C15.9284 13.846 14.9441 14.9232 13.6816 15.4434C13.2987 15.6011 12.86 15.419 12.7021 15.0361C12.5443 14.6532 12.7274 14.2144 13.1104 14.0566C13.9504 13.7104 14.6509 12.9705 15.0049 12.0029Z" fill="black"/>
</svg>
