<svg width="24" height="24" viewBox="0 0 24 24" fill="none" xmlns="http://www.w3.org/2000/svg">
<path d="M17 7.25C20.1756 7.25 22.75 9.82436 22.75 13V17C22.75 20.1756 20.1756 22.75 17 22.75H7C3.82436 22.75 1.25 20.1756 1.25 17V16.5C1.25 16.0858 1.58579 15.75 2 15.75C2.41421 15.75 2.75 16.0858 2.75 16.5V17C2.75 19.3472 4.65279 21.25 7 21.25H17C19.3472 21.25 21.25 19.3472 21.25 17V13C21.25 10.6528 19.3472 8.75 17 8.75H16C15.5858 8.75 15.25 8.41421 15.25 8C15.25 7.58579 15.5858 7.25 16 7.25H17Z" fill="black"/>
<path d="M8 12.25C8.41421 12.25 8.75 12.5858 8.75 13V14.25H10C10.4142 14.25 10.75 14.5858 10.75 15C10.75 15.4142 10.4142 15.75 10 15.75H8.75V17C8.75 17.4142 8.41421 17.75 8 17.75C7.58579 17.75 7.25 17.4142 7.25 17V15.75H6C5.58579 15.75 5.25 15.4142 5.25 15C5.25 14.5858 5.58579 14.25 6 14.25H7.25V13C7.25 12.5858 7.58579 12.25 8 12.25Z" fill="black"/>
<path d="M16 15.5C16.5523 15.5 17 15.9477 17 16.5C17 17.0523 16.5523 17.5 16 17.5C15.4477 17.5 15 17.0523 15 16.5C15 15.9477 15.4477 15.5 16 15.5Z" fill="black"/>
<path d="M18 12.5C18.5523 12.5 19 12.9477 19 13.5C19 14.0523 18.5523 14.5 18 14.5C17.4477 14.5 17 14.0523 17 13.5C17 12.9477 17.4477 12.5 18 12.5Z" fill="black"/>
<path d="M9 2.25C9.41421 2.25 9.75 2.58579 9.75 3V4C9.75 4.41421 10.0858 4.75 10.5 4.75C11.7426 4.75 12.75 5.75736 12.75 7L12.751 8.75H7C4.65279 8.75 2.75 10.6528 2.75 13V13.5C2.75 13.9142 2.41421 14.25 2 14.25C1.58579 14.25 1.25 13.9142 1.25 13.5V13C1.25 9.82436 3.82436 7.25 7 7.25H11.25V7C11.25 6.58579 10.9142 6.25 10.5 6.25C9.25736 6.25 8.25 5.24264 8.25 4V3C8.25 2.58579 8.58579 2.25 9 2.25Z" fill="black"/>
</svg>
