<svg width="24" height="24" viewBox="0 0 24 24" fill="none" xmlns="http://www.w3.org/2000/svg">
<path d="M7.47604 8.71302C7.77257 8.42395 8.2484 8.43023 8.53757 8.72669C8.82611 9.02321 8.82009 9.49821 8.5239 9.78723L5.88229 12.3634L5.71237 12.5333C4.24796 13.9977 4.24807 16.3716 5.71237 17.8361C7.17684 19.3005 9.55064 19.3005 11.0151 17.8361L17.7329 11.1193C18.0258 10.8264 18.5005 10.8264 18.7934 11.1193C19.0863 11.4122 19.0863 11.8869 18.7934 12.1798L12.0766 18.8976C10.0265 20.9477 6.7021 20.9475 4.65182 18.8976C2.60157 16.8473 2.60157 13.523 4.65182 11.4728L4.83542 11.2892L7.47604 8.71302Z" fill="black"/>
<path d="M12.7837 3.34094C14.2481 1.8766 16.622 1.87657 18.0864 3.34094C19.5508 4.80537 19.5508 7.1792 18.0864 8.64368L9.85397 16.8771C8.97538 17.7554 7.55095 17.7553 6.67233 16.8771C5.79365 15.9984 5.79365 14.5731 6.67233 13.6945L13.4907 6.8761C13.7836 6.58348 14.2584 6.58335 14.5512 6.8761C14.844 7.16891 14.8439 7.64373 14.5512 7.93665L7.73288 14.755C7.44004 15.0478 7.44015 15.5226 7.73288 15.8156C8.02577 16.1084 8.50053 16.1084 8.79343 15.8156L17.0258 7.58313C17.9044 6.70444 17.9045 5.28014 17.0258 4.40149C16.1472 3.5229 14.7229 3.52294 13.8442 4.40149L10.9272 7.31848C10.6344 7.61125 10.1596 7.61118 9.86667 7.31848C9.5738 7.02561 9.57384 6.55084 9.86667 6.25794L12.7837 3.34094Z" fill="black"/>
</svg>
