<svg width="24" height="24" viewBox="0 0 24 24" fill="none" xmlns="http://www.w3.org/2000/svg">
<path d="M12 1.25C17.9371 1.25 22.75 6.06294 22.75 12C22.75 17.9371 17.9371 22.75 12 22.75C10.1209 22.75 8.35201 22.2669 6.81348 21.418C6.56514 21.2809 6.3227 21.1341 6.08691 20.9785C5.74138 20.7503 5.64597 20.2851 5.87402 19.9395C6.10219 19.5941 6.56748 19.4987 6.91309 19.7266C7.11598 19.8604 7.32451 19.9866 7.53809 20.1045C8.86036 20.8341 10.3807 21.25 12 21.25C17.1086 21.25 21.25 17.1086 21.25 12C21.25 6.89137 17.1086 2.75 12 2.75C6.89137 2.75 2.75 6.89137 2.75 12C2.75 13.6249 3.16807 15.1501 3.90234 16.4756C4.01807 16.6845 4.14237 16.8883 4.27344 17.0869C4.50143 17.4326 4.40526 17.8979 4.05957 18.126C3.71395 18.3538 3.24959 18.2585 3.02148 17.9131C2.8692 17.6823 2.72535 17.445 2.59082 17.2021C1.73647 15.6599 1.25 13.8856 1.25 12C1.25 6.06294 6.06294 1.25 12 1.25Z" fill="black"/>
<path d="M10.2998 8.75C10.714 8.75 11.0498 9.08579 11.0498 9.5V14.5C11.0498 14.9142 10.714 15.25 10.2998 15.25C9.88568 15.2499 9.5498 14.9142 9.5498 14.5V9.5C9.5498 9.08585 9.88568 8.7501 10.2998 8.75Z" fill="black"/>
<path d="M13.7998 8.75C14.214 8.75 14.5498 9.08579 14.5498 9.5V14.5C14.5498 14.9142 14.214 15.25 13.7998 15.25C13.3857 15.2499 13.0498 14.9142 13.0498 14.5V9.5C13.0498 9.08585 13.3857 8.7501 13.7998 8.75Z" fill="black"/>
</svg>
