<svg width="24" height="24" viewBox="0 0 24 24" fill="none" xmlns="http://www.w3.org/2000/svg">
<path d="M12 1.25C17.9371 1.25 22.75 6.06294 22.75 12C22.75 17.9371 17.9371 22.75 12 22.75C10.1209 22.75 8.35201 22.2669 6.81348 21.418C6.56514 21.2809 6.3227 21.1341 6.08691 20.9785C5.74138 20.7503 5.64597 20.2851 5.87402 19.9395C6.10219 19.5941 6.56748 19.4987 6.91309 19.7266C7.11598 19.8604 7.32451 19.9866 7.53809 20.1045C8.86036 20.8341 10.3807 21.25 12 21.25C17.1086 21.25 21.25 17.1086 21.25 12C21.25 6.89137 17.1086 2.75 12 2.75C6.89137 2.75 2.75 6.89137 2.75 12C2.75 13.6249 3.16807 15.1501 3.90234 16.4756C4.01807 16.6845 4.14237 16.8883 4.27344 17.0869C4.50143 17.4326 4.40526 17.8979 4.05957 18.126C3.71395 18.3538 3.24959 18.2585 3.02148 17.9131C2.8692 17.6823 2.72535 17.445 2.59082 17.2021C1.73647 15.6599 1.25 13.8856 1.25 12C1.25 6.06294 6.06294 1.25 12 1.25Z" fill="black"/>
<path d="M9.25 9.94238C9.25031 8.50466 10.8188 7.61672 12.0518 8.35645L12.2607 8.48145C12.6158 8.6945 12.7314 9.1556 12.5186 9.51074C12.3055 9.86583 11.8444 9.98143 11.4893 9.76855L11.2803 9.64258C11.0471 9.50268 10.7503 9.67058 10.75 9.94238V13.9443C10.75 14.2237 11.0614 14.391 11.2939 14.2363L14.2109 12.291C14.4187 12.1525 14.4187 11.8475 14.2109 11.709L14.084 11.624C13.7393 11.3943 13.6462 10.9286 13.876 10.584C14.1057 10.2393 14.5714 10.1462 14.916 10.376L15.043 10.4609C16.1414 11.1932 16.1414 12.8068 15.043 13.5391L12.126 15.4844C10.8966 16.3036 9.25 15.4218 9.25 13.9443V9.94238Z" fill="black"/>
</svg>
