<svg width="24" height="24" viewBox="0 0 24 24" fill="none" xmlns="http://www.w3.org/2000/svg">
<path d="M12 2.5C12.4142 2.5 12.75 2.83579 12.75 3.25C12.75 3.66421 12.4142 4 12 4H5.75V19.2158C5.75017 19.4233 5.98805 19.5398 6.15234 19.4131L7.4834 18.3867C8.06931 17.9347 8.87657 17.9006 9.49902 18.3008L10.6553 19.0439C11.0037 19.2679 11.1048 19.7326 10.8809 20.0811C10.6568 20.4292 10.193 20.5295 9.84473 20.3057L8.6875 19.5625C8.59858 19.5053 8.48311 19.5096 8.39941 19.5742L7.06934 20.6016C5.9189 21.489 4.25017 20.6687 4.25 19.2158V4H3C2.58579 4 2.25 3.66421 2.25 3.25C2.25 2.83579 2.58579 2.5 3 2.5H12Z" fill="black"/>
<path d="M21 2.5C21.4142 2.5 21.75 2.83579 21.75 3.25C21.75 3.66421 21.4142 4 21 4H19.75V19.2158C19.7498 20.6687 18.0811 21.489 16.9307 20.6016L15.6006 19.5742C15.5169 19.5096 15.4014 19.5053 15.3125 19.5625L14.1553 20.3057C13.807 20.5295 13.3432 20.4292 13.1191 20.0811C12.8952 19.7326 12.9963 19.2679 13.3447 19.0439L14.501 18.3008C15.1234 17.9006 15.9307 17.9347 16.5166 18.3867L17.8477 19.4131C18.012 19.5398 18.2498 19.4233 18.25 19.2158V4H16.5C16.0858 4 15.75 3.66421 15.75 3.25C15.75 2.83579 16.0858 2.5 16.5 2.5H21Z" fill="black"/>
<path d="M12 12.5C12.4142 12.5 12.75 12.8358 12.75 13.25C12.75 13.6642 12.4142 14 12 14H9C8.58579 14 8.25 13.6642 8.25 13.25C8.25 12.8358 8.58579 12.5 9 12.5H12Z" fill="black"/>
<path d="M15.5 12.5C15.9142 12.5 16.25 12.8358 16.25 13.25C16.25 13.6642 15.9142 14 15.5 14H15C14.5858 14 14.25 13.6642 14.25 13.25C14.25 12.8358 14.5858 12.5 15 12.5H15.5Z" fill="black"/>
<path d="M12 8.5C12.4142 8.5 12.75 8.83579 12.75 9.25C12.75 9.66421 12.4142 10 12 10H9C8.58579 10 8.25 9.66421 8.25 9.25C8.25 8.83579 8.58579 8.5 9 8.5H12Z" fill="black"/>
<path d="M15.5 8.5C15.9142 8.5 16.25 8.83579 16.25 9.25C16.25 9.66421 15.9142 10 15.5 10H15C14.5858 10 14.25 9.66421 14.25 9.25C14.25 8.83579 14.5858 8.5 15 8.5H15.5Z" fill="black"/>
</svg>
