<svg width="24" height="24" viewBox="0 0 24 24" fill="none" xmlns="http://www.w3.org/2000/svg">
<path d="M12 1.25C10.4727 1.25 9.0179 1.56888 7.70019 2.14453C7.32063 2.31037 7.14666 2.75325 7.3125 3.13281C7.47837 3.51202 7.92044 3.68499 8.2998 3.51953C9.43182 3.02493 10.6831 2.75 12 2.75L12.4756 2.76172C17.3632 3.00925 21.25 7.05087 21.25 12C21.25 17.1086 17.1086 21.25 12 21.25C6.89137 21.25 2.75 17.1086 2.75 12C2.75 9.91636 3.43803 7.99528 4.59961 6.44922C4.84824 6.11807 4.78129 5.64817 4.45019 5.39941C4.11904 5.15078 3.64915 5.21773 3.40039 5.54883C2.05042 7.34572 1.25 9.58043 1.25 12C1.25 17.9371 6.06294 22.75 12 22.75C17.9371 22.75 22.75 17.9371 22.75 12C22.75 6.24831 18.2329 1.55135 12.5527 1.26367L12 1.25Z" fill="black"/>
<path d="M13.5303 8.46973C13.2374 8.17683 12.7626 8.17683 12.4697 8.46973C12.1768 8.76262 12.1768 9.23738 12.4697 9.53027L14.1895 11.25H8C7.58579 11.25 7.25 11.5858 7.25 12C7.25 12.4142 7.58579 12.75 8 12.75H14.1895L12.4697 14.4697C12.1768 14.7626 12.1768 15.2374 12.4697 15.5303C12.7626 15.8232 13.2374 15.8232 13.5303 15.5303L15.8232 13.2373C16.5066 12.5539 16.5066 11.4461 15.8232 10.7627L13.5303 8.46973Z" fill="black"/>
</svg>
