<svg width="24" height="24" viewBox="0 0 24 24" fill="none" xmlns="http://www.w3.org/2000/svg">
<path d="M13.2382 14.0556C12.9238 13.7861 12.4502 13.8223 12.1806 14.1367L8.43061 18.5117C8.16113 18.8261 8.19734 19.2997 8.51167 19.5693C8.8261 19.8388 9.29969 19.8026 9.56928 19.4882L13.3193 15.1132C13.5888 14.7988 13.5526 14.3252 13.2382 14.0556Z" fill="black"/>
<path d="M9.56928 4.51168C9.29969 4.19734 8.82611 4.16111 8.51167 4.43063C8.19736 4.70022 8.1611 5.17382 8.43061 5.48825L14.4306 12.4882C14.7002 12.8026 15.1738 12.8388 15.4882 12.5693C15.8026 12.2997 15.8388 11.8261 15.5693 11.5117L9.56928 4.51168Z" fill="black"/>
</svg>
