<svg width="24" height="24" viewBox="0 0 24 24" fill="none" xmlns="http://www.w3.org/2000/svg">
<path d="M7 1.25C3.82436 1.25 1.25 3.82436 1.25 7V9C1.25 9.41421 1.58579 9.75 2 9.75C2.41419 9.74997 2.75 9.4142 2.75 9V7C2.75 4.65279 4.65279 2.75 7 2.75H17C19.3472 2.75003 21.25 4.65281 21.25 7V17C21.25 19.3472 19.3472 21.25 17 21.25H7C4.65279 21.25 2.75 19.3472 2.75 17V15C2.75 14.5858 2.41419 14.25 2 14.25C1.58579 14.25 1.25 14.5858 1.25 15V17C1.25 20.1756 3.82436 22.75 7 22.75H17C20.1756 22.75 22.75 20.1756 22.75 17V7C22.75 3.82438 20.1756 1.25003 17 1.25H7Z" fill="black"/>
<path d="M11.5303 8.46973C11.2374 8.17697 10.7626 8.17697 10.4697 8.46973C10.1769 8.76259 10.1769 9.23737 10.4697 9.53027L12.7627 11.8232C12.8602 11.9208 12.8601 12.0791 12.7627 12.1768L10.4697 14.4697C10.1769 14.7626 10.1769 15.2374 10.4697 15.5303C10.7626 15.8232 11.2374 15.8232 11.5303 15.5303L13.8232 13.2373C14.5065 12.5539 14.5065 11.4461 13.8232 10.7627L11.5303 8.46973Z" fill="black"/>
</svg>
