<svg width="24" height="24" viewBox="0 0 24 24" fill="none" xmlns="http://www.w3.org/2000/svg">
<path d="M12 1.25C6.24831 1.25 1.55135 5.76707 1.26367 11.4473L1.25 12C1.25 13.5273 1.56888 14.9821 2.14453 16.2998C2.31037 16.6794 2.75325 16.8533 3.13281 16.6875C3.51202 16.5216 3.68498 16.0796 3.51953 15.7002C3.02493 14.5682 2.75 13.3169 2.75 12L2.76172 11.5244C3.00925 6.63679 7.05086 2.75 12 2.75C17.1086 2.75 21.25 6.89137 21.25 12C21.25 17.1086 17.1086 21.25 12 21.25C9.91636 21.25 7.99528 20.562 6.44922 19.4004C6.11807 19.1518 5.64817 19.2187 5.39941 19.5498C5.15078 19.881 5.21773 20.3509 5.54883 20.5996C7.34572 21.9496 9.58043 22.75 12 22.75C17.9371 22.75 22.75 17.9371 22.75 12C22.75 6.06294 17.9371 1.25 12 1.25Z" fill="black"/>
<path d="M11.2109 8.15039C10.9074 7.86857 10.4323 7.88603 10.1504 8.18945C9.86858 8.49295 9.88603 8.96814 10.1895 9.25L12.9004 11.7666C13.0067 11.8655 13.0068 12.0349 12.9004 12.1338L10.1895 14.6504C9.88603 14.9323 9.86857 15.4074 10.1504 15.7109C10.4323 16.0142 10.9075 16.0318 11.2109 15.75L13.9209 13.2324C14.6664 12.5401 14.6663 11.3603 13.9209 10.668L11.2109 8.15039Z" fill="black"/>
</svg>
