<svg width="24" height="24" viewBox="0 0 24 24" fill="none" xmlns="http://www.w3.org/2000/svg">
<path d="M16.53 7.46965C16.2371 7.17679 15.7624 7.17677 15.4695 7.46965C15.1768 7.76255 15.1767 8.23737 15.4695 8.5302L18.7625 11.8232C18.86 11.9208 18.86 12.0791 18.7625 12.1767L15.4695 15.4697C15.1768 15.7626 15.1767 16.2374 15.4695 16.5302C15.7623 16.823 16.2371 16.8229 16.53 16.5302L19.823 13.2372C20.5063 12.5538 20.5063 11.446 19.823 10.7626L16.53 7.46965Z" fill="black"/>
<path d="M4.99976 11.2499C4.58565 11.2501 4.24976 11.5858 4.24976 11.9999C4.24985 12.414 4.58571 12.7498 4.99976 12.7499L15.9998 12.7499C16.4139 12.7499 16.7497 12.4141 16.7498 11.9999C16.7498 11.5857 16.414 11.2499 15.9998 11.2499L4.99976 11.2499Z" fill="black"/>
</svg>
