<svg width="24" height="24" viewBox="0 0 24 24" fill="none" xmlns="http://www.w3.org/2000/svg">
<path d="M19.6713 1.63635C21.2851 1.42528 22.6156 2.75595 22.4047 4.36975C22.0962 6.72868 21.2492 10.7361 18.8539 13.319C18.0918 14.1407 17.1697 14.8983 16.223 15.5729L16.5004 17.5114C16.5782 18.0566 16.3946 18.6063 16.0053 18.9957L12.8236 22.1783C11.804 23.1978 10.058 22.6154 9.8539 21.1881C9.79561 20.7784 10.08 20.3982 10.4896 20.3395C10.8996 20.2809 11.2796 20.5663 11.3383 20.9762C11.3676 21.1799 11.6174 21.2632 11.7631 21.1178L14.9447 17.9352C15.0003 17.8796 15.0271 17.8011 15.016 17.7233L14.8402 16.4938C13.6499 17.2365 12.5214 17.828 11.7211 18.2203C10.6846 18.7284 9.47762 18.4785 8.68984 17.691L6.35097 15.3512C5.56352 14.5635 5.31278 13.3573 5.8207 12.3209C6.21309 11.5205 6.80436 10.3913 7.54726 9.2008L6.31777 9.026C6.24007 9.01503 6.16139 9.04087 6.10585 9.09631L2.92421 12.2789C2.77874 12.4246 2.86194 12.6746 3.06581 12.7037C3.47564 12.7625 3.76011 13.1425 3.70155 13.5524C3.64259 13.962 3.2627 14.2466 2.85292 14.1881C1.4257 13.9839 0.844257 12.238 1.86366 11.2184L5.0453 8.03577C5.43477 7.64639 5.98546 7.46376 6.53066 7.54162L8.46816 7.81799C9.1427 6.8714 9.90138 5.95017 10.723 5.18811C11.5616 4.41043 12.5437 3.80158 13.557 3.32287C13.9316 3.14596 14.3791 3.30577 14.556 3.6803C14.7327 4.05474 14.572 4.50149 14.1976 4.67834C13.2857 5.10917 12.4419 5.63912 11.7426 6.28772C9.70083 8.18136 8.01291 11.2564 7.16738 12.9811C6.95929 13.4058 7.0487 13.9276 7.41152 14.2906L9.75038 16.6305C10.1135 16.9934 10.6361 17.0819 11.0609 16.8737C11.4023 16.7063 11.7955 16.5036 12.223 16.274L9.13027 13.1813C8.83737 12.8884 8.83737 12.4136 9.13027 12.1207C9.42317 11.828 9.89796 11.8279 10.1908 12.1207L13.5785 15.5084C15.0287 14.6404 16.6082 13.5351 17.7543 12.2994C19.8066 10.0866 20.6135 6.49873 20.9174 4.17541C21.0006 3.53855 20.5034 3.04144 19.8666 3.12463C19.096 3.22541 18.1654 3.38397 17.184 3.63244C16.7827 3.7338 16.3747 3.49063 16.2728 3.08948C16.1713 2.68808 16.4145 2.28009 16.8158 2.17834C17.8663 1.91236 18.8561 1.74298 19.6713 1.63635Z" fill="black"/>
<path d="M7.51991 19.7037C7.81282 19.411 8.28859 19.4109 8.58144 19.7037C8.87386 19.9966 8.87406 20.4715 8.58144 20.7643L7.1664 22.1783C6.87348 22.4709 6.39863 22.4711 6.10585 22.1783C5.81313 21.8856 5.81331 21.4107 6.10585 21.1178L7.51991 19.7037Z" fill="black"/>
<path d="M5.39882 17.5817C5.69162 17.289 6.16649 17.2891 6.45937 17.5817C6.75222 17.8745 6.75213 18.3493 6.45937 18.6422L3.63124 21.4713C3.33839 21.764 2.86354 21.764 2.5707 21.4713C2.27786 21.1785 2.27798 20.7037 2.5707 20.4108L5.39882 17.5817Z" fill="black"/>
<path d="M3.27773 15.4606C3.5706 15.1678 4.04542 15.1678 4.33827 15.4606C4.63112 15.7534 4.63104 16.2282 4.33827 16.5211L2.92421 17.9352C2.63132 18.2281 2.15656 18.2281 1.86366 17.9352C1.57087 17.6423 1.5708 17.1675 1.86366 16.8746L3.27773 15.4606Z" fill="black"/>
<path fill-rule="evenodd" clip-rule="evenodd" d="M13.1771 6.97522C14.2511 5.9014 15.9929 5.90132 17.0668 6.97522C18.1405 8.04913 18.1405 9.79097 17.0668 10.8649C15.9929 11.9388 14.2511 11.9386 13.1771 10.8649C12.1032 9.79093 12.1032 8.04916 13.1771 6.97522ZM16.0053 8.03577C15.5171 7.54797 14.7257 7.54784 14.2377 8.03577C13.7496 8.52381 13.7499 9.31516 14.2377 9.80334C14.7258 10.2915 15.5171 10.2915 16.0053 9.80334C16.4933 9.31518 16.4934 8.52388 16.0053 8.03577Z" fill="black"/>
</svg>
