<svg width="24" height="24" viewBox="0 0 24 24" fill="none" xmlns="http://www.w3.org/2000/svg">
<path d="M18.3965 6.34635C18.5585 5.96513 18.9987 5.78691 19.3799 5.94889C19.7435 6.1034 20.2856 6.29894 20.7139 6.53678C21.1435 6.7754 21.6058 7.12804 21.8574 7.70475C21.9094 7.82387 21.9591 7.94476 22.0069 8.06608C22.3526 8.94523 22.01 9.83034 21.7637 10.4255C21.6212 10.7698 21.4975 11.0391 21.3955 11.3268C21.2973 11.604 21.25 11.8213 21.25 12.0007C21.2501 12.18 21.2973 12.3973 21.3955 12.6745C21.4975 12.9621 21.6212 13.2306 21.7637 13.5749C22.01 14.1701 22.3528 15.0559 22.0069 15.9352C21.9593 16.056 21.9092 16.176 21.8574 16.2946C21.4797 17.1601 20.6115 17.544 20.0166 17.7907C19.6726 17.9333 19.3955 18.0363 19.1201 18.1676C18.8549 18.2942 18.6679 18.414 18.541 18.5407C18.4142 18.6676 18.2936 18.8553 18.167 19.1208C18.0358 19.396 17.9327 19.6732 17.7901 20.0173C17.5434 20.6122 17.1603 21.4804 16.2949 21.8581C16.1761 21.9099 16.0556 21.9599 15.9346 22.0075C15.0553 22.3534 14.1694 22.0106 13.5742 21.7643C13.2299 21.6218 12.9615 21.4981 12.6738 21.3962C12.3965 21.2979 12.1794 21.2507 12 21.2507C11.8206 21.2507 11.6035 21.2979 11.3262 21.3962C11.0385 21.4981 10.7692 21.6218 10.4248 21.7643C9.82966 22.0106 8.94455 22.3533 8.06545 22.0075C7.9443 21.9598 7.82404 21.91 7.70509 21.8581C6.80432 21.4651 6.42041 20.5351 6.17189 19.9264C6.01553 19.5431 6.19979 19.1055 6.58302 18.9489C6.96644 18.7925 7.40402 18.9766 7.56056 19.36C7.84692 20.0613 8.0441 20.3693 8.3047 20.4831C8.40697 20.5277 8.51012 20.571 8.61427 20.612C8.86213 20.7095 9.20166 20.6476 9.85158 20.3786C10.1297 20.2635 10.4894 20.1011 10.8252 19.9821C11.1713 19.8595 11.574 19.7507 12 19.7507C12.4262 19.7507 12.8287 19.8594 13.1748 19.9821C13.5107 20.1011 13.8703 20.2635 14.1485 20.3786C14.7977 20.6473 15.137 20.7091 15.3848 20.612C15.4889 20.571 15.5931 20.5277 15.6953 20.4831C15.9395 20.3763 16.1361 20.0923 16.4053 19.443C16.5206 19.165 16.6602 18.7958 16.8135 18.4743C16.9715 18.1431 17.1785 17.7812 17.4795 17.4801C17.7807 17.1789 18.1432 16.9712 18.4746 16.8132C18.796 16.6599 19.1644 16.5202 19.4424 16.4049C20.0919 16.1356 20.3757 15.9392 20.4824 15.695C20.527 15.5929 20.5704 15.4893 20.6113 15.3854C20.7086 15.1376 20.6466 14.7984 20.3779 14.1491C20.2628 13.871 20.1005 13.5113 19.9815 13.1755C19.8588 12.8294 19.7501 12.4267 19.75 12.0007C19.75 11.5747 19.8589 11.1719 19.9815 10.8258C20.1004 10.4901 20.2628 10.1303 20.3779 9.85221C20.6469 9.20233 20.7088 8.86278 20.6113 8.61491C20.5704 8.51079 20.527 8.40757 20.4824 8.30534C20.4183 8.15836 20.2798 8.01186 19.9854 7.84831C19.648 7.66098 19.2851 7.53885 18.793 7.32975C18.412 7.16782 18.2349 6.72745 18.3965 6.34635Z" fill="black"/>
<path d="M13.5742 2.23698C14.1694 1.99063 15.0552 1.6478 15.9346 1.99381C16.0557 2.04147 16.176 2.09135 16.2949 2.14323C17.0837 2.48747 17.465 3.23155 17.709 3.79069C17.8745 4.17027 17.7008 4.61234 17.3213 4.77799C16.9419 4.94341 16.4998 4.77046 16.334 4.39128C16.0971 3.84836 15.9083 3.61139 15.6953 3.51823C15.593 3.4736 15.489 3.43032 15.3848 3.38932C15.1369 3.29199 14.7981 3.35386 14.1485 3.62272C13.8704 3.73782 13.5105 3.89925 13.1748 4.01823C12.8287 4.14086 12.4261 4.25062 12 4.25065C11.5739 4.25063 11.1713 4.14087 10.8252 4.01823C10.4894 3.89923 10.1297 3.73784 9.85158 3.62272C9.2015 3.35366 8.86216 3.29178 8.61427 3.38932C8.51024 3.43027 8.40687 3.47366 8.3047 3.51823C8.06053 3.62499 7.86403 3.90893 7.59474 4.55827C7.47948 4.83626 7.33978 5.20475 7.18654 5.52604C7.0285 5.85734 6.82069 6.21903 6.51955 6.52018C6.21833 6.82128 5.85671 7.02917 5.52541 7.18717C5.20399 7.34044 4.83559 7.48012 4.55763 7.59538C3.90805 7.86476 3.62421 8.06098 3.51759 8.30534C3.47301 8.40754 3.42964 8.51083 3.38869 8.61491C3.29133 8.86277 3.35314 9.20241 3.62209 9.85221C3.73721 10.1303 3.89862 10.4901 4.01759 10.8258C4.14022 11.172 4.25002 11.5746 4.25002 12.0007C4.24993 12.4267 4.14023 12.8294 4.01759 13.1755C3.89859 13.5112 3.73716 13.8711 3.62209 14.1491C3.35333 14.7985 3.29137 15.1376 3.38869 15.3854C3.42965 15.4895 3.473 15.5938 3.51759 15.696C3.57287 15.8221 3.68251 15.948 3.90138 16.0856C4.13063 16.2297 4.41718 16.3503 4.78029 16.4967C5.1644 16.6517 5.35021 17.0882 5.19533 17.4723C5.04034 17.8562 4.60374 18.0421 4.21974 17.8874C3.87665 17.749 3.4638 17.5823 3.10256 17.3551C2.73149 17.1218 2.35918 16.7916 2.14259 16.2956C2.09076 16.1768 2.0408 16.0562 1.99318 15.9352C1.64722 15.056 1.99001 14.1701 2.23634 13.5749C2.3788 13.2307 2.50259 12.962 2.60451 12.6745C2.70273 12.3973 2.74993 12.18 2.75002 12.0007C2.75002 11.8213 2.70268 11.604 2.60451 11.3268C2.50255 11.0391 2.37888 10.7698 2.23634 10.4255C1.99004 9.83034 1.64743 8.9453 1.99318 8.06608C2.04082 7.945 2.09074 7.82461 2.14259 7.70573C2.52012 6.84042 3.38756 6.45634 3.98244 6.20963C4.32658 6.06693 4.60451 5.964 4.8799 5.83268C5.14513 5.70617 5.33217 5.58635 5.459 5.45964C5.58581 5.33283 5.70643 5.1459 5.83302 4.88053C5.96436 4.60515 6.06631 4.32716 6.209 3.98307C6.45568 3.38825 6.83972 2.52089 7.70509 2.14323C7.824 2.09135 7.94434 2.04147 8.06545 1.99381C8.94477 1.64786 9.82963 1.99064 10.4248 2.23698C10.7693 2.37955 11.0384 2.50316 11.3262 2.60514C11.6034 2.70335 11.8207 2.75062 12 2.75065C12.1794 2.75062 12.3966 2.70337 12.6738 2.60514C12.9615 2.50322 13.23 2.37945 13.5742 2.23698Z" fill="black"/>
<path d="M13.6416 13.6423C13.9507 13.3331 14.4516 13.3331 14.7608 13.6423C15.0699 13.9514 15.0699 14.4523 14.7608 14.7614C14.4516 15.0702 13.9506 15.0704 13.6416 14.7614C13.3326 14.4524 13.3328 13.9514 13.6416 13.6423Z" fill="black"/>
<path d="M13.708 9.23112C14.0009 8.93823 14.4767 8.93823 14.7695 9.23112C15.062 9.52403 15.0623 9.9989 14.7695 10.2917L10.292 14.7692C9.99924 15.0619 9.52436 15.0617 9.23146 14.7692C8.93857 14.4763 8.93857 14.0006 9.23146 13.7077L13.708 9.23112Z" fill="black"/>
<path d="M9.23927 9.23893C9.5484 8.92999 10.0494 8.92987 10.3584 9.23893C10.6673 9.548 10.6673 10.049 10.3584 10.3581C10.0493 10.6671 9.5484 10.6671 9.23927 10.3581C8.93016 10.049 8.93016 9.54805 9.23927 9.23893Z" fill="black"/>
</svg>
