<svg width="24" height="24" viewBox="0 0 24 24" fill="none" xmlns="http://www.w3.org/2000/svg">
<path d="M14.7578 1.25C15.7522 1.25012 16.706 1.64548 17.4092 2.34863L21.6514 6.59082C22.3545 7.29397 22.7499 8.24779 22.75 9.24219V18C22.75 20.6234 20.6234 22.75 18 22.75H6C3.37665 22.75 1.25 20.6234 1.25 18V14C1.25 13.5858 1.58579 13.25 2 13.25C2.41421 13.25 2.75 13.5858 2.75 14V18C2.75 19.5366 3.81686 20.8224 5.25 21.1611V15C5.25 13.4812 6.48122 12.25 8 12.25H16C17.5188 12.25 18.75 13.4812 18.75 15V18C18.75 18.4142 18.4142 18.75 18 18.75C17.5858 18.75 17.25 18.4142 17.25 18V15C17.25 14.3096 16.6904 13.75 16 13.75H8C7.30964 13.75 6.75 14.3096 6.75 15V21.25H18C19.7949 21.25 21.25 19.7949 21.25 18V9.24219C21.2499 8.64561 21.0127 8.07322 20.5908 7.65137L16.75 3.81055V6C16.75 6.9665 15.9665 7.75 15 7.75H9C8.0335 7.75 7.25 6.9665 7.25 6V5.5C7.25 5.08579 7.58579 4.75 8 4.75C8.41421 4.75 8.75 5.08579 8.75 5.5V6C8.75 6.13807 8.86193 6.25 9 6.25H15C15.1381 6.25 15.25 6.13807 15.25 6V2.80664C15.0895 2.77059 14.9248 2.75003 14.7578 2.75H6C4.20507 2.75 2.75 4.20507 2.75 6V10C2.75 10.4142 2.41421 10.75 2 10.75C1.58579 10.75 1.25 10.4142 1.25 10V6C1.25 3.37665 3.37665 1.25 6 1.25H14.7578Z" fill="black"/>
</svg>
