<svg width="24" height="24" viewBox="0 0 24 24" fill="none" xmlns="http://www.w3.org/2000/svg">
<path fill-rule="evenodd" clip-rule="evenodd" d="M5.20215 16.3457C6.83263 16.3457 8.15417 17.6674 8.1543 19.2979C8.15405 20.9282 6.83255 22.25 5.20215 22.25C3.57186 22.2499 2.25025 20.9281 2.25 19.2979C2.25013 17.6675 3.57178 16.3458 5.20215 16.3457ZM5.20215 17.8457C4.40021 17.8458 3.75013 18.4959 3.75 19.2979C3.75025 20.0997 4.40028 20.7499 5.20215 20.75C6.00412 20.75 6.65405 20.0998 6.6543 19.2979C6.65417 18.4958 6.0042 17.8457 5.20215 17.8457Z" fill="black"/>
<path fill-rule="evenodd" clip-rule="evenodd" d="M19.2979 16.3457C20.9281 16.346 22.2499 17.6676 22.25 19.2979C22.2497 20.928 20.928 22.2497 19.2979 22.25C17.6676 22.2499 16.346 20.9281 16.3457 19.2979C16.3458 17.6675 17.6675 16.3458 19.2979 16.3457ZM19.2979 17.8457C18.4959 17.8458 17.8458 18.4959 17.8457 19.2979C17.846 20.0997 18.496 20.7499 19.2979 20.75C20.0996 20.7497 20.7497 20.0996 20.75 19.2979C20.7499 18.496 20.0997 17.846 19.2979 17.8457Z" fill="black"/>
<path d="M14 18.5479C14.4141 18.548 14.75 18.8837 14.75 19.2979C14.7497 19.7118 14.4139 20.0477 14 20.0479H10.5C10.086 20.0477 9.75025 19.7118 9.75 19.2979C9.75 18.8837 10.0859 18.548 10.5 18.5479H14Z" fill="black"/>
<path d="M5.20215 9.75C5.61636 9.75 5.95215 10.0858 5.95215 10.5V14C5.95215 14.4142 5.61636 14.75 5.20215 14.75C4.78804 14.7499 4.45215 14.4141 4.45215 14V10.5C4.45215 10.0859 4.78804 9.75012 5.20215 9.75Z" fill="black"/>
<path d="M19.2979 9.75C19.7119 9.75025 20.0479 10.0859 20.0479 10.5V14C20.0479 14.4141 19.7119 14.7497 19.2979 14.75C18.8837 14.7499 18.5479 14.4141 18.5479 14V10.5C18.5479 10.0859 18.8837 9.75012 19.2979 9.75Z" fill="black"/>
<path fill-rule="evenodd" clip-rule="evenodd" d="M5.20215 2.25C6.83263 2.25 8.15417 3.5717 8.1543 5.20215C8.1543 6.8327 6.8327 8.1543 5.20215 8.1543C3.5717 8.15417 2.25 6.83263 2.25 5.20215C2.25013 3.57178 3.57178 2.25013 5.20215 2.25ZM5.20215 3.75C4.4002 3.75013 3.75013 4.4002 3.75 5.20215C3.75 6.0042 4.40013 6.65417 5.20215 6.6543C6.00428 6.6543 6.6543 6.00428 6.6543 5.20215C6.65417 4.40013 6.0042 3.75 5.20215 3.75Z" fill="black"/>
<path fill-rule="evenodd" clip-rule="evenodd" d="M19.2979 2.25C20.9281 2.25025 22.2499 3.57186 22.25 5.20215C22.25 6.83255 20.9282 8.15405 19.2979 8.1543C17.6674 8.15417 16.3457 6.83263 16.3457 5.20215C16.3458 3.57178 17.6675 2.25013 19.2979 2.25ZM19.2979 3.75C18.4959 3.75013 17.8458 4.40021 17.8457 5.20215C17.8457 6.0042 18.4958 6.65417 19.2979 6.6543C20.0998 6.65405 20.75 6.00412 20.75 5.20215C20.7499 4.40028 20.0997 3.75025 19.2979 3.75Z" fill="black"/>
<path d="M14 4.45215C14.4141 4.45228 14.75 4.78802 14.75 5.20215C14.75 5.61628 14.4141 5.95202 14 5.95215H10.5C10.0859 5.95202 9.75 5.61629 9.75 5.20215C9.75 4.78801 10.0859 4.45227 10.5 4.45215H14Z" fill="black"/>
</svg>
