<svg width="24" height="24" viewBox="0 0 24 24" fill="none" xmlns="http://www.w3.org/2000/svg">
<path d="M8.63852 2.32532C10.6907 1.75014 12.882 1.94327 14.8016 2.86927C16.7212 3.79537 18.2372 5.39028 19.0643 7.35462C19.8913 9.31891 19.9728 11.518 19.2938 13.5382C19.1616 13.9305 18.736 14.1418 18.3436 14.0099C17.9513 13.8778 17.7402 13.4521 17.8719 13.0597C18.4344 11.3859 18.3666 9.56409 17.6815 7.93665C16.9962 6.30913 15.7407 4.98717 14.1502 4.21986C12.5597 3.45252 10.7433 3.293 9.04282 3.76966C7.34272 4.24635 5.87478 5.32678 4.91489 6.80872C3.9551 8.29086 3.56851 10.073 3.82895 11.8195C4.08956 13.566 4.97923 15.1585 6.32992 16.296C7.6806 17.4333 9.40059 18.0385 11.1659 17.9982C12.9312 17.9577 14.6215 17.2742 15.9188 16.0763C16.2231 15.7955 16.6974 15.8142 16.9784 16.1183C16.9934 16.1346 17.007 16.1518 17.0204 16.1691C17.0235 16.1721 17.0271 16.1748 17.0301 16.1779L22.0301 21.1779C22.3229 21.4708 22.323 21.9456 22.0301 22.2384C21.7372 22.531 21.2624 22.5311 20.9696 22.2384L16.3797 17.6486C14.9016 18.8013 13.0868 19.455 11.2 19.4982C9.06931 19.5468 6.99334 18.8154 5.36313 17.4425C3.73316 16.0697 2.66006 14.1489 2.34555 12.0411C2.03112 9.93321 2.49666 7.7822 3.65512 5.99329C4.81369 4.20442 6.58636 2.90062 8.63852 2.32532Z" fill="black"/>
</svg>
