<svg width="24" height="24" viewBox="0 0 24 24" fill="none" xmlns="http://www.w3.org/2000/svg">
<path d="M18.5166 4.5293C18.981 4.41996 19.618 4.46241 20.0771 4.91309L20.167 5.00879L20.4804 5.39258C21.1933 6.30632 21.7624 7.33917 22.1523 8.45605C22.4179 9.2177 22.0062 9.90416 21.5712 10.2627C21.0689 10.6766 20.75 11.3006 20.75 12C20.75 12.6994 21.0689 13.3234 21.5712 13.7373C22.0062 14.0958 22.4179 14.7823 22.1523 15.5439C21.7068 16.8201 21.0276 17.9867 20.167 18.9912C19.704 19.5314 19.0121 19.5865 18.5166 19.4697C17.9775 19.3426 17.3929 19.4136 16.8759 19.7119C16.3135 20.0366 15.9445 20.5665 15.8086 21.1543C15.6937 21.6503 15.3362 22.2468 14.6455 22.4219C13.7987 22.6362 12.9115 22.75 12 22.75C11.0886 22.75 10.2021 22.6361 9.35543 22.4219C8.66453 22.2469 8.30721 21.6504 8.19234 21.1543C8.15231 20.9812 8.0921 20.8126 8.01265 20.6533C7.8277 20.2827 7.97801 19.8315 8.34859 19.6465C8.71916 19.4617 9.16954 19.6129 9.35445 19.9834C9.48679 20.2486 9.58775 20.528 9.65425 20.8154C9.66986 20.8829 9.69624 20.9311 9.71675 20.9561C9.72232 20.9628 9.7269 20.9666 9.72945 20.9688C10.4551 21.1518 11.2157 21.25 12 21.25C12.7841 21.25 13.545 21.1518 14.2705 20.9688C14.273 20.9667 14.2782 20.9632 14.2841 20.9561C14.3046 20.931 14.3311 20.8827 14.3466 20.8154C14.5725 19.8396 15.1887 18.9542 16.1259 18.4131C16.9867 17.9163 17.9643 17.7986 18.8603 18.0098C18.9273 18.0255 18.9822 18.0239 19.0136 18.0166C19.024 18.0141 19.0295 18.0101 19.0322 18.0088C19.7696 17.1467 20.3513 16.1482 20.7334 15.0566C20.7327 15.0529 20.7314 15.0462 20.7275 15.0361C20.7133 14.9999 20.6778 14.9456 20.6171 14.8955C19.7838 14.2089 19.25 13.1663 19.25 12C19.25 10.8337 19.7838 9.79108 20.6171 9.10449C20.6778 9.05441 20.7133 9.00009 20.7275 8.96387C20.7318 8.95292 20.7328 8.9459 20.7334 8.94238C20.3511 7.85051 19.7691 6.85152 19.0312 5.98926C19.0282 5.98793 19.0225 5.98549 19.0136 5.9834C18.9822 5.97609 18.9274 5.9735 18.8603 5.98926C18.4805 6.07879 18.0858 6.10951 17.6914 6.07715C17.2786 6.0432 16.971 5.6813 17.0048 5.26855C17.0388 4.85575 17.4016 4.54808 17.8144 4.58203C18.0504 4.60136 18.2879 4.58321 18.5166 4.5293Z" fill="black"/>
<path d="M12 1.25C12.9116 1.25003 13.7986 1.36382 14.6455 1.57812C15.3362 1.75315 15.6937 2.34966 15.8086 2.8457C15.8534 3.0397 15.9233 3.22823 16.0175 3.4043C16.2126 3.76921 16.0755 4.22333 15.7109 4.41895C15.3459 4.61433 14.8909 4.47713 14.6953 4.1123C14.5383 3.81911 14.4212 3.50657 14.3466 3.18457C14.3311 3.11726 14.3046 3.06895 14.2841 3.04395C14.2778 3.03625 14.2729 3.03222 14.2705 3.03027C13.545 2.8473 12.784 2.75003 12 2.75C11.2158 2.75004 10.455 2.84723 9.72945 3.03027C9.72698 3.03226 9.72288 3.03653 9.71675 3.04395C9.69624 3.0689 9.66987 3.11714 9.65425 3.18457C9.42841 4.16021 8.81191 5.04586 7.87496 5.58691C7.01424 6.08374 6.03662 6.20041 5.14058 5.98926C5.0736 5.97346 5.01877 5.97613 4.98726 5.9834C4.97768 5.98563 4.97165 5.98786 4.96871 5.98926C4.2309 6.85151 3.64878 7.85056 3.26656 8.94238C3.26714 8.9459 3.26906 8.95278 3.27339 8.96387C3.28762 9.00015 3.32299 9.05441 3.38375 9.10449C4.21694 9.79108 4.74996 10.8338 4.74996 12C4.74996 13.1662 4.21694 14.2089 3.38375 14.8955C3.32299 14.9456 3.28762 14.9999 3.27339 15.0361C3.26942 15.0463 3.26723 15.0529 3.26656 15.0566C3.64854 16.1481 4.23038 17.1467 4.96773 18.0088C4.96462 18.0066 4.9676 18.012 4.98726 18.0166C5.01881 18.0238 5.07375 18.0255 5.14058 18.0098C5.5639 17.91 6.00591 17.8832 6.44527 17.9355C6.85638 17.9847 7.15046 18.3584 7.10152 18.7695C7.05248 19.1806 6.67865 19.4745 6.26754 19.4258C6.00479 19.3945 5.7393 19.4096 5.48433 19.4697C4.98887 19.5866 4.29699 19.5313 3.83394 18.9912C2.97323 17.9866 2.29411 16.8201 1.84859 15.5439C1.58282 14.7821 1.99454 14.0958 2.42964 13.7373C2.93183 13.3234 3.24996 12.6993 3.24996 12C3.24996 11.3007 2.93183 10.6766 2.42964 10.2627C1.99454 9.9042 1.58282 9.2179 1.84859 8.45605L2.02632 7.98242C2.46655 6.89052 3.08074 5.88784 3.83394 5.00879L3.92379 4.91309C4.38302 4.46247 5.01988 4.41986 5.48433 4.5293C6.02327 4.65629 6.60809 4.58636 7.12496 4.28809C7.68719 3.96338 8.05636 3.43339 8.19234 2.8457C8.30722 2.3496 8.66449 1.75306 9.35543 1.57812C10.2021 1.36392 11.0885 1.25004 12 1.25Z" fill="black"/>
<path fill-rule="evenodd" clip-rule="evenodd" d="M12 8.25C14.071 8.25 15.75 9.92893 15.75 12C15.75 14.0711 14.071 15.75 12 15.75C9.9289 15.75 8.24996 14.0711 8.24996 12C8.24996 9.92894 9.9289 8.25001 12 8.25ZM12 9.75C10.7573 9.75001 9.74996 10.7574 9.74996 12C9.74996 13.2426 10.7573 14.25 12 14.25C13.2426 14.25 14.25 13.2426 14.25 12C14.25 10.7574 13.2426 9.75 12 9.75Z" fill="black"/>
</svg>
