<svg width="24" height="24" viewBox="0 0 24 24" fill="none" xmlns="http://www.w3.org/2000/svg">
<path d="M11.1504 1.61408C11.6788 1.3207 12.3212 1.3207 12.8496 1.61408L14.3643 2.4549C14.7262 2.656 14.8562 3.11337 14.6553 3.47541C14.454 3.83724 13.9977 3.96752 13.6357 3.76642L12.1211 2.9256C12.0457 2.88385 11.9543 2.88385 11.8789 2.9256L4.87891 6.81427C4.79966 6.8583 4.75015 6.94239 4.75 7.03302V11.6717C4.75013 15.0308 6.57146 18.1262 9.50781 19.7576L11.8789 21.074C11.9544 21.1159 12.0456 21.1159 12.1211 21.074L14.4922 19.7576C17.4285 18.1262 19.2499 15.0308 19.25 11.6717V7.0213C19.2498 6.93221 19.2022 6.84909 19.125 6.80451L17.125 5.64923C16.7665 5.442 16.6435 4.98339 16.8506 4.62482C17.0578 4.26651 17.5165 4.14351 17.875 4.35041L19.875 5.50568C20.416 5.81828 20.7498 6.39648 20.75 7.0213V11.6717C20.7499 15.5755 18.6331 19.1722 15.2207 21.0682L12.8496 22.3856C12.3212 22.6791 11.6788 22.6791 11.1504 22.3856L8.7793 21.0682C5.36686 19.1722 3.25013 15.5755 3.25 11.6717V7.03302C3.25015 6.39764 3.59494 5.81133 4.15039 5.50275L11.1504 1.61408Z" fill="black"/>
</svg>
