<svg width="24" height="24" viewBox="0 0 24 24" fill="none" xmlns="http://www.w3.org/2000/svg">
<path d="M14.7819 5.62209C15.1368 5.40873 15.5977 5.52313 15.8112 5.87795L16.0017 6.19435C16.0645 6.29861 16.1672 6.37294 16.2858 6.40041L20.6882 7.41994C22.1198 7.75174 22.6846 9.48877 21.7214 10.5986L18.7585 14.0117C18.6789 14.1036 18.6397 14.2236 18.6501 14.3447L19.0407 18.8477C19.1678 20.3119 17.6909 21.3846 16.3376 20.8115L12.1755 19.0488C12.0635 19.0015 11.9369 19.0015 11.8249 19.0488L7.44404 20.9053C6.19029 21.4364 4.82143 20.4415 4.93916 19.085L4.97724 18.6485C5.01309 18.2358 5.3771 17.93 5.78974 17.9658C6.202 18.002 6.50714 18.366 6.47138 18.7783L6.4333 19.2149C6.41333 19.445 6.64638 19.6136 6.85908 19.5235L11.2399 17.668C11.726 17.4622 12.2754 17.4621 12.7614 17.668L16.9226 19.4307C17.2348 19.5627 17.5759 19.3154 17.5466 18.9776L17.156 14.4746C17.1104 13.9488 17.2797 13.427 17.6257 13.0283L20.5886 9.61525C20.8106 9.35921 20.6803 8.95862 20.3503 8.88185L15.947 7.86232C15.4327 7.74319 14.9888 7.42002 14.7165 6.96779L14.5261 6.65138C14.3125 6.2965 14.4271 5.83568 14.7819 5.62209Z" fill="black"/>
<path d="M10.3278 2.32423C11.0863 1.06423 12.9137 1.06532 13.6706 2.32619L14.1433 3.11427C14.3562 3.46935 14.2413 3.93041 13.8864 4.14357C13.5313 4.35657 13.0703 4.2408 12.8571 3.88576L12.3845 3.09865C12.2099 2.80764 11.7881 2.80701 11.613 3.09767L9.28486 6.96779C9.01265 7.42011 8.56769 7.74312 8.05342 7.86232L3.65009 8.88185C3.32005 8.95866 3.18966 9.35923 3.41181 9.61525L6.3747 13.0283C6.72065 13.427 6.89095 13.9488 6.84541 14.4746L6.73701 15.7178C6.70096 16.13 6.33775 16.4349 5.92549 16.3994C5.51292 16.3636 5.20722 16.0005 5.24287 15.5879L5.35029 14.3447C5.36067 14.2236 5.32153 14.1036 5.24189 14.0117L2.27998 10.5986C1.31647 9.48869 1.88029 7.75157 3.3122 7.41994L7.71552 6.40041C7.8338 6.37281 7.93601 6.29837 7.99873 6.19435L10.3278 2.32423Z" fill="black"/>
</svg>
