<svg width="24" height="24" viewBox="0 0 24 24" fill="none" xmlns="http://www.w3.org/2000/svg">
<path d="M12 1.25C17.937 1.25003 22.75 6.06296 22.75 12C22.75 17.937 17.937 22.75 12 22.75C6.06294 22.75 1.25 17.9371 1.25 12C1.25 9.85699 1.87793 7.85833 2.95996 6.18066C3.18448 5.83263 3.649 5.73254 3.99707 5.95703C4.34484 6.18163 4.4451 6.64618 4.2207 6.99414C3.29036 8.43671 2.75 10.154 2.75 12C2.75 17.1086 6.89137 21.25 12 21.25C17.1086 21.25 21.25 17.1086 21.25 12C21.25 9.71546 20.4204 7.62553 19.0479 6.01172L8.03027 17.0303C7.73738 17.3232 7.26262 17.3232 6.96973 17.0303C6.67694 16.7374 6.67687 16.2626 6.96973 15.9697L17.9873 4.95117C16.3736 3.57916 14.284 2.75001 12 2.75C10.0974 2.75 8.33072 3.32405 6.86133 4.30762C6.51728 4.5376 6.05169 4.44534 5.82129 4.10156C5.59088 3.75735 5.68313 3.29096 6.02734 3.06055C7.7359 1.91692 9.79124 1.25 12 1.25Z" fill="black"/>
</svg>
