<svg width="24" height="24" viewBox="0 0 24 24" fill="none" xmlns="http://www.w3.org/2000/svg">
<path d="M5.37679 14.949C5.20831 14.5706 4.76495 14.4007 4.38655 14.5691C4.00843 14.7376 3.83854 15.1801 4.00667 15.5584C4.66297 17.0325 5.71404 18.2967 7.04378 19.2107C8.37358 20.1247 9.93045 20.6536 11.5418 20.7381C13.1531 20.8225 14.7567 20.46 16.1746 19.6902C16.8467 19.3253 17.4653 18.8751 18.0155 18.3543C18.316 18.0697 18.329 17.5955 18.0448 17.2947C17.7602 16.9941 17.286 16.9803 16.9852 17.2644C16.5294 17.6959 16.0165 18.0686 15.4598 18.3709C14.2849 19.0088 12.956 19.3099 11.6209 19.24C10.2858 19.1701 8.99525 18.7326 7.89339 17.9754C6.79159 17.2181 5.9206 16.1704 5.37679 14.949Z" fill="black"/>
<path d="M20.7694 15.156C20.5518 14.2146 19.6123 13.6272 18.6707 13.8445L15.5116 14.574C15.1081 14.6672 14.8561 15.07 14.9491 15.4734C15.0422 15.877 15.4449 16.129 15.8485 16.0359L19.0086 15.3064C19.143 15.2757 19.2774 15.3596 19.3084 15.4939L20.0379 18.6531C20.1311 19.0567 20.5337 19.3088 20.9373 19.2156C21.3407 19.1223 21.5919 18.7196 21.4989 18.3162L20.7694 15.156Z" fill="black"/>
<path d="M3.96272 5.34647C3.86944 4.94308 3.46677 4.69189 3.06331 4.78495C2.65971 4.87813 2.40763 5.28077 2.50081 5.68436L3.2303 8.84354C3.44774 9.78512 4.38733 10.3723 5.32894 10.1551L8.48909 9.42557C8.89249 9.33225 9.14376 8.92964 9.05061 8.52616C8.95734 8.12269 8.55472 7.87148 8.1512 7.96464L4.99202 8.69413C4.85764 8.72509 4.72341 8.64093 4.69222 8.50663L3.96272 5.34647Z" fill="black"/>
<path d="M12.4578 3.26249C10.8465 3.17805 9.2431 3.54044 7.82503 4.31034C7.08826 4.71037 6.41661 5.21278 5.82796 5.79862C5.53452 6.0907 5.5332 6.56459 5.82503 6.85819C6.11722 7.15178 6.59198 7.15332 6.88558 6.86112C7.3733 6.37574 7.93043 5.96014 8.54085 5.6287C9.71581 4.99081 11.0446 4.69057 12.3797 4.76054C13.7148 4.83056 15.0045 5.26799 16.1063 6.02518C17.2082 6.78249 18.08 7.83011 18.6239 9.05155C18.7925 9.42951 19.2349 9.59964 19.6131 9.43143C19.9913 9.26305 20.161 8.82044 19.993 8.44218C19.3367 6.96817 18.2865 5.70284 16.9569 4.78886C15.627 3.87485 14.0693 3.34694 12.4578 3.26249Z" fill="black"/>
</svg>
