<svg width="24" height="24" viewBox="0 0 24 24" fill="none" xmlns="http://www.w3.org/2000/svg">
<path d="M14.5303 16.47C14.2374 16.1771 13.7626 16.1771 13.4697 16.47C13.177 16.7629 13.1769 17.2377 13.4697 17.5306L15.7627 19.8235C16.4461 20.5067 17.5539 20.5067 18.2373 19.8235L20.5303 17.5306C20.8231 17.2377 20.8231 16.7629 20.5303 16.47C20.2374 16.1771 19.7626 16.1771 19.4697 16.47L17.1768 18.763C17.0792 18.8603 16.9208 18.8604 16.8232 18.763L14.5303 16.47Z" fill="black"/>
<path d="M8 8.25028C7.58581 8.25032 7.25 8.58609 7.25 9.00028L7.25 18.0003C7.25011 18.4144 7.58588 18.7502 8 18.7503C8.41414 18.7503 8.74988 18.4144 8.75 18.0003L8.75 9.00028C8.75 8.58607 8.41421 8.25028 8 8.25028Z" fill="black"/>
<path d="M17 6.25028C16.5858 6.25032 16.25 6.58609 16.25 7.00028L16.25 16.0003C16.2501 16.4144 16.5859 16.7502 17 16.7503C17.4141 16.7503 17.7499 16.4144 17.75 16.0003L17.75 7.00028C17.75 6.58607 17.4142 6.25028 17 6.25028Z" fill="black"/>
<path d="M9.2373 5.17704C8.5539 4.49372 7.44609 4.49372 6.76269 5.17704L4.46972 7.47001C4.17697 7.76291 4.17688 8.23771 4.46972 8.53055C4.76258 8.82333 5.23739 8.82329 5.53027 8.53055L7.82324 6.23758C7.92085 6.14005 8.07914 6.14006 8.17675 6.23758L10.4697 8.53055C10.7626 8.82333 11.2374 8.82328 11.5303 8.53055C11.8231 8.23768 11.8231 7.76291 11.5303 7.47001L9.2373 5.17704Z" fill="black"/>
</svg>
