<svg width="24" height="24" viewBox="0 0 24 24" fill="none" xmlns="http://www.w3.org/2000/svg">
<path d="M16.47 9.4701C16.1771 9.76299 16.1771 10.2378 16.47 10.5306C16.7629 10.8234 17.2377 10.8235 17.5306 10.5306L19.8235 8.23768C20.5067 7.55431 20.5067 6.44644 19.8235 5.76307L17.5306 3.4701C17.2377 3.17725 16.7629 3.17732 16.47 3.4701C16.1771 3.76299 16.1771 4.23775 16.47 4.53065L18.763 6.82362C18.8604 6.9212 18.8604 7.07955 18.763 7.17713L16.47 9.4701Z" fill="black"/>
<path d="M8.25028 16.0004C8.25028 16.4146 8.58607 16.7504 9.00028 16.7504L18.0003 16.7504C18.4144 16.7502 18.7503 16.4145 18.7503 16.0004C18.7503 15.5862 18.4144 15.2505 18.0003 15.2504L9.00028 15.2504C8.58607 15.2504 8.25028 15.5862 8.25028 16.0004Z" fill="black"/>
<path d="M6.25028 7.00037C6.25028 7.41459 6.58607 7.75037 7.00028 7.75037L16.0003 7.75037C16.4144 7.75025 16.7503 7.41451 16.7503 7.00037C16.7503 6.58624 16.4144 6.2505 16.0003 6.25037L7.00028 6.25037C6.58607 6.25037 6.25028 6.58616 6.25028 7.00037Z" fill="black"/>
<path d="M5.17704 14.7631C4.49372 15.4465 4.49372 16.5543 5.17704 17.2377L7.47001 19.5306C7.76291 19.8234 8.2377 19.8235 8.53055 19.5306C8.82329 19.2378 8.82329 18.763 8.53055 18.4701L6.23759 16.1771C6.14006 16.0795 6.14006 15.9212 6.23759 15.8236L8.53055 13.5306C8.82329 13.2378 8.82329 12.763 8.53055 12.4701C8.2377 12.1772 7.76291 12.1773 7.47001 12.4701L5.17704 14.7631Z" fill="black"/>
</svg>
