<svg width="24" height="24" viewBox="0 0 24 24" fill="none" xmlns="http://www.w3.org/2000/svg">
<path d="M14 1C14.4142 1 14.75 1.33579 14.75 1.75C14.75 2.16421 14.4142 2.5 14 2.5H12.75V4.03125C14.753 4.18366 16.5852 4.94073 18.0674 6.12109L18.4697 5.71973C18.7626 5.42683 19.2374 5.42683 19.5303 5.71973C19.8232 6.01262 19.8232 6.48738 19.5303 6.78027L19.167 7.14258C20.7696 8.87999 21.75 11.2 21.75 13.75C21.75 19.1348 17.3848 23.5 12 23.5C10.0564 23.5 8.24333 22.9306 6.72168 21.9492C6.37371 21.7247 6.27357 21.2602 6.49805 20.9121C6.72258 20.5641 7.1871 20.464 7.53516 20.6885C8.82174 21.5182 10.3534 22 12 22C16.5563 22 20.25 18.3063 20.25 13.75C20.25 9.19365 16.5563 5.5 12 5.5C7.44365 5.5 3.75 9.19365 3.75 13.75C3.75 15.447 4.26145 17.0225 5.13867 18.333C5.36901 18.6772 5.2768 19.1427 4.93262 19.373C4.5884 19.6035 4.12299 19.5112 3.89258 19.167C2.85525 17.6173 2.25 15.7533 2.25 13.75C2.25 8.61765 6.21577 4.41432 11.25 4.03125V2.5H10C9.58579 2.5 9.25 2.16421 9.25 1.75C9.25 1.33579 9.58579 1 10 1H14Z" fill="black"/>
<path d="M14.4697 10.2197C14.7626 9.92683 15.2374 9.92683 15.5303 10.2197C15.8232 10.5126 15.8232 10.9874 15.5303 11.2803L12.5303 14.2803C12.2374 14.5732 11.7626 14.5732 11.4697 14.2803C11.1768 13.9874 11.1768 13.5126 11.4697 13.2197L14.4697 10.2197Z" fill="black"/>
</svg>
