<svg width="24" height="24" viewBox="0 0 24 24" fill="none" xmlns="http://www.w3.org/2000/svg">
<path d="M11.25 7C11.25 6.58579 11.5858 6.25 12 6.25C12.4142 6.25 12.75 6.58579 12.75 7V11.624L16.4502 14.4004C16.7813 14.649 16.8481 15.1189 16.5996 15.4502C16.351 15.7813 15.8811 15.8481 15.5498 15.5996L11.75 12.75C11.4352 12.5139 11.25 12.1434 11.25 11.75V7Z" fill="black"/>
<path d="M17 1C20.1756 1 22.75 3.57436 22.75 6.75V16.75C22.75 19.9256 20.1756 22.5 17 22.5H7C3.82436 22.5 1.25 19.9256 1.25 16.75V13.75C1.25 13.3358 1.58579 13 2 13C2.41421 13 2.75 13.3358 2.75 13.75V16.75C2.75 19.0972 4.65279 21 7 21H17C19.3472 21 21.25 19.0972 21.25 16.75V6.75C21.25 4.40279 19.3472 2.5 17 2.5H7C4.65277 2.5 2.75 4.40281 2.75 6.75V9.75C2.75 10.1642 2.41421 10.5 2 10.5C1.58579 10.5 1.25 10.1642 1.25 9.75V6.75C1.25 3.57434 3.82439 1 7 1H17Z" fill="black"/>
</svg>
