<svg width="24" height="24" viewBox="0 0 24 24" fill="none" xmlns="http://www.w3.org/2000/svg">
<path d="M8.5 6.25C8.91421 6.25 9.25 6.58579 9.25 7C9.25 7.41421 8.91421 7.75 8.5 7.75H8C5.65279 7.75 3.75 9.65279 3.75 12C3.75 14.3472 5.65279 16.25 8 16.25H16C18.3472 16.25 20.25 14.3472 20.25 12C20.25 9.65279 18.3472 7.75 16 7.75H12C11.5858 7.75 11.25 7.41421 11.25 7C11.25 6.58579 11.5858 6.25 12 6.25H16C19.1756 6.25 21.75 8.82436 21.75 12C21.75 15.1756 19.1756 17.75 16 17.75H8C4.82436 17.75 2.25 15.1756 2.25 12C2.25 8.82436 4.82436 6.25 8 6.25H8.5Z" fill="black"/>
<path fill-rule="evenodd" clip-rule="evenodd" d="M16 8.75C17.7949 8.75 19.25 10.2051 19.25 12C19.25 13.7949 17.7949 15.25 16 15.25C14.2051 15.25 12.75 13.7949 12.75 12C12.75 10.2051 14.2051 8.75 16 8.75ZM16 10.25C15.0335 10.25 14.25 11.0335 14.25 12C14.25 12.9665 15.0335 13.75 16 13.75C16.9665 13.75 17.75 12.9665 17.75 12C17.75 11.0335 16.9665 10.25 16 10.25Z" fill="black"/>
</svg>
