<svg width="24" height="24" viewBox="0 0 24 24" fill="none" xmlns="http://www.w3.org/2000/svg">
<path d="M12 6.25C12.4142 6.25 12.75 6.58579 12.75 7C12.75 7.41421 12.4142 7.75 12 7.75H8C5.65279 7.75 3.75 9.65279 3.75 12C3.75 14.3472 5.65279 16.25 8 16.25H16C18.3472 16.25 20.25 14.3472 20.25 12C20.25 9.65279 18.3472 7.75 16 7.75H15.5C15.0858 7.75 14.75 7.41421 14.75 7C14.75 6.58579 15.0858 6.25 15.5 6.25H16C19.1756 6.25 21.75 8.82436 21.75 12C21.75 15.1756 19.1756 17.75 16 17.75H8C4.82436 17.75 2.25 15.1756 2.25 12C2.25 8.82436 4.82436 6.25 8 6.25H12Z" fill="black"/>
<path fill-rule="evenodd" clip-rule="evenodd" d="M8 8.75C9.79493 8.75 11.25 10.2051 11.25 12C11.25 13.7949 9.79493 15.25 8 15.25C6.20507 15.25 4.75 13.7949 4.75 12C4.75 10.2051 6.20507 8.75 8 8.75ZM8 10.25C7.0335 10.25 6.25 11.0335 6.25 12C6.25 12.9665 7.0335 13.75 8 13.75C8.9665 13.75 9.75 12.9665 9.75 12C9.75 11.0335 8.9665 10.25 8 10.25Z" fill="black"/>
</svg>
