<svg width="24" height="24" viewBox="0 0 24 24" fill="none" xmlns="http://www.w3.org/2000/svg">
<path d="M17.7695 5.25684C19.6784 5.39398 20.7276 7.61423 19.5498 9.18457C19.031 9.87633 18.7501 10.7173 18.75 11.582V18C18.75 20.6234 16.6234 22.75 14 22.75H10C7.37666 22.75 5.25001 20.6233 5.25001 18V17C5.25001 16.5858 5.5858 16.25 6.00001 16.25C6.41422 16.25 6.75001 16.5858 6.75001 17V18C6.75001 19.7949 8.20509 21.25 10 21.25H14C15.7949 21.25 17.25 19.7949 17.25 18V11.582C17.2501 10.3928 17.6361 9.23559 18.3496 8.28418C18.7939 7.69167 18.4252 6.86235 17.7266 6.76074L17.582 6.75H6.41797C5.62789 6.75001 5.17646 7.65207 5.6504 8.28418C6.36396 9.2356 6.74995 10.3928 6.75001 11.582V13C6.75001 13.4142 6.41422 13.75 6.00001 13.75C5.5858 13.75 5.25001 13.4142 5.25001 13V11.582C5.24995 10.7173 4.96901 9.87633 4.4502 9.18457C3.23448 7.5636 4.39177 5.25001 6.41797 5.25H17.582L17.7695 5.25684Z" fill="black"/>
<path d="M10 10.25C10.4142 10.25 10.75 10.5858 10.75 11V17C10.75 17.4142 10.4142 17.75 10 17.75C9.5858 17.75 9.25001 17.4142 9.25001 17V11C9.25001 10.5858 9.5858 10.25 10 10.25Z" fill="black"/>
<path d="M14 10.25C14.4142 10.25 14.75 10.5858 14.75 11V17C14.75 17.4142 14.4142 17.75 14 17.75C13.5858 17.75 13.25 17.4142 13.25 17V11C13.25 10.5858 13.5858 10.25 14 10.25Z" fill="black"/>
<path d="M13.5586 2.25C14.0971 2.25002 14.6088 2.4069 15.041 2.68359C15.3897 2.90691 15.4917 3.37094 15.2686 3.71973C15.0452 4.06852 14.5812 4.17055 14.2324 3.94727C14.0357 3.8213 13.8037 3.75002 13.5586 3.75H10.4414C10.1964 3.75003 9.96427 3.82133 9.76758 3.94727C9.41878 4.17051 8.95479 4.06849 8.73145 3.71973C8.50834 3.37094 8.61027 2.9069 8.95899 2.68359C9.39124 2.40689 9.90294 2.25003 10.4414 2.25H13.5586Z" fill="black"/>
</svg>
