<svg width="24" height="24" viewBox="0 0 24 24" fill="none" xmlns="http://www.w3.org/2000/svg">
<path d="M16.5302 7.47028C16.8229 7.76318 16.823 8.23799 16.5302 8.53082C16.2374 8.82341 15.7625 8.82345 15.4697 8.53082L12.1767 5.23785C12.0791 5.14032 11.9208 5.14032 11.8232 5.23785L8.53022 8.53082C8.23737 8.82341 7.7625 8.82345 7.46967 8.53082C7.17686 8.23801 7.17702 7.76319 7.46967 7.47028L10.7626 4.17731C11.2466 3.6934 11.9425 3.55493 12.5507 3.75641C12.7253 3.76825 12.8968 3.83682 13.0302 3.97028L16.5302 7.47028Z" fill="black"/>
<path d="M12.7499 19.0005C12.7497 19.4146 12.414 19.7505 11.9999 19.7505C11.5859 19.7505 11.2502 19.4145 11.2499 19.0005L11.2499 8.00055C11.2499 7.58635 11.5858 7.25058 11.9999 7.25055C12.4142 7.25055 12.7499 7.58634 12.7499 8.00055V19.0005Z" fill="black"/>
</svg>
