<svg width="24" height="24" viewBox="0 0 24 24" fill="none" xmlns="http://www.w3.org/2000/svg">
<path d="M12.5693 8.51168C12.8388 8.82612 12.8026 9.29972 12.4882 9.5693L5.48823 15.5693C5.1738 15.8388 4.7002 15.8026 4.43062 15.4882C4.1611 15.1738 4.19735 14.7002 4.51167 14.4306L11.5117 8.43063C11.8261 8.16111 12.2997 8.19734 12.5693 8.51168Z" fill="black"/>
<path d="M19.4882 14.4306C19.8026 14.7002 19.8388 15.1738 19.5693 15.4882C19.2997 15.8026 18.8261 15.8388 18.5117 15.5693L14.1367 11.8193C13.8223 11.5497 13.7861 11.0761 14.0556 10.7617C14.3252 10.4473 14.7988 10.4111 15.1132 10.6806L19.4882 14.4306Z" fill="black"/>
</svg>
