<svg width="24" height="24" viewBox="0 0 24 24" fill="none" xmlns="http://www.w3.org/2000/svg">
<path d="M22.75 12C22.75 6.06294 17.9371 1.25 12 1.25C6.06297 1.25003 1.25 6.06296 1.25 12C1.25 17.7517 5.7671 22.4486 11.4473 22.7363L12 22.75C13.5273 22.75 14.9821 22.4311 16.2998 21.8555C16.6794 21.6896 16.8533 21.2468 16.6875 20.8672C16.5216 20.488 16.0796 20.315 15.7002 20.4805C14.5682 20.9751 13.3169 21.25 12 21.25L11.5244 21.2383C6.63682 20.9907 2.75 16.9491 2.75 12C2.75 6.89139 6.89139 2.75003 12 2.75C17.1086 2.75 21.25 6.89137 21.25 12C21.25 14.0836 20.562 16.0047 19.4004 17.5508C19.1518 17.8819 19.2188 18.3518 19.5498 18.6006C19.8809 18.8492 20.3508 18.7822 20.5996 18.4512C21.9496 16.6543 22.75 14.4196 22.75 12Z" fill="black"/>
<path d="M15.8105 13.8496C16.1139 13.5677 16.1314 13.0925 15.8496 12.7891L13.332 10.0791C12.6397 9.33383 11.4599 9.33368 10.7676 10.0791L8.25 12.7891C7.96828 13.0925 7.98593 13.5677 8.28906 13.8496C8.59256 14.1314 9.06774 14.114 9.34961 13.8105L11.8662 11.0996C11.965 10.9933 12.1345 10.9934 12.2334 11.0996L14.75 13.8105C15.0319 14.114 15.5071 14.1314 15.8105 13.8496Z" fill="black"/>
</svg>
