<svg width="24" height="24" viewBox="0 0 24 24" fill="none" xmlns="http://www.w3.org/2000/svg">
<path d="M5.34299 20.1777C0.746192 16.4206 0.0655814 9.64868 3.82248 5.05169C7.57947 0.454776 14.3514 -0.226574 18.9485 3.53021C20.822 5.06138 22.0462 7.09582 22.5832 9.27825C22.682 9.68034 22.4364 10.0865 22.0344 10.1855C21.6323 10.2844 21.2263 10.0387 21.1272 9.63665C20.6651 7.7589 19.6126 6.00987 17.9992 4.69134C14.0436 1.45894 8.21632 2.0455 4.98361 6.00091C1.75106 9.9565 2.33678 15.7838 6.29221 19.0165C10.2478 22.2493 16.076 21.6636 19.3088 17.7079C20.142 16.6884 20.7205 15.5457 21.0539 14.3564C21.1658 13.9576 21.5799 13.7241 21.9787 13.8359C22.3773 13.9477 22.6098 14.362 22.4983 14.7607C22.1102 16.1454 21.4365 17.4744 20.4699 18.6572C16.7129 23.2541 9.94005 23.9347 5.34299 20.1777Z" fill="black"/>
<path d="M8.42209 10.1708C8.4224 9.20476 9.20504 8.42208 10.1711 8.42181H13.4143C13.8285 8.42182 14.1643 8.7576 14.1643 9.17181C14.1641 9.58583 13.8283 9.92179 13.4143 9.92181H10.9826L15.3586 14.2978C15.6515 14.5907 15.6515 15.0654 15.3586 15.3583C15.0657 15.6512 14.591 15.6512 14.2981 15.3583L9.92111 10.9814V13.414C9.92111 13.828 9.58608 14.1637 9.17209 14.164C8.75788 14.164 8.42209 13.8282 8.42209 13.414V10.1708Z" fill="black"/>
</svg>
