<svg width="24" height="24" viewBox="0 0 24 24" fill="none" xmlns="http://www.w3.org/2000/svg">
<path d="M6.19629 13.1035C6.6105 13.1035 6.94629 12.7677 6.94629 12.3535V7.69727C6.94635 7.55937 7.05843 7.44748 7.19629 7.44727H11.8535C12.2676 7.44727 12.6034 7.11136 12.6035 6.69727C12.6035 6.28305 12.2677 5.94727 11.8535 5.94727H6.90332C6.71519 5.94738 6.54566 6.01926 6.41406 6.13379C5.84106 6.42125 5.44633 7.01254 5.44629 7.69727V12.3535C5.44629 12.7676 5.78226 13.1033 6.19629 13.1035Z" fill="black"/>
<path d="M16.2734 17.834C16.5663 18.1267 17.0412 18.1268 17.334 17.834C17.6266 17.5411 17.6266 17.0663 17.334 16.7734L9.33398 8.77344C9.04117 8.48062 8.56635 8.48077 8.27344 8.77344C7.98054 9.06633 7.98054 9.54109 8.27344 9.83398L16.2734 17.834Z" fill="black"/>
</svg>
