<svg width="24" height="24" viewBox="0 0 24 24" fill="none" xmlns="http://www.w3.org/2000/svg">
<path d="M17.8037 13.1035C17.3895 13.1035 17.0537 12.7677 17.0537 12.3535V7.69727C17.0536 7.55937 16.9416 7.44748 16.8037 7.44727H12.1465C11.7323 7.44727 11.3966 7.11136 11.3965 6.69727C11.3965 6.28305 11.7323 5.94727 12.1465 5.94727H16.8037C17.488 5.94742 18.0776 6.34159 18.3652 6.91406C18.4803 7.04588 18.5537 7.21559 18.5537 7.4043V12.3535C18.5537 12.7676 18.2177 13.1033 17.8037 13.1035Z" fill="black"/>
<path d="M7.72655 17.834C7.43364 18.1267 6.95884 18.1268 6.666 17.834C6.37339 17.5411 6.37336 17.0663 6.666 16.7734L14.666 8.77344C14.9588 8.48062 15.4336 8.48077 15.7266 8.77344C16.0194 9.06633 16.0194 9.54109 15.7266 9.83398L7.72655 17.834Z" fill="black"/>
</svg>
