<svg width="24" height="24" viewBox="0 0 24 24" fill="none" xmlns="http://www.w3.org/2000/svg">
<path d="M20.3245 18.802C24.081 14.205 23.3998 7.43293 18.8031 3.676C14.2062 -0.0808186 7.43421 0.599974 3.67708 5.19651C-0.0799315 9.79357 0.6006 16.5664 5.19759 20.3235C6.38029 21.29 7.70937 21.9637 9.09408 22.3518C9.4927 22.4632 9.90708 22.2308 10.0189 21.8323C10.1305 21.4336 9.89692 21.0193 9.49837 20.9074C8.30904 20.5741 7.16638 19.9955 6.14681 19.1623C2.19117 15.9295 1.60541 10.1014 4.83822 6.14573C8.07103 2.19056 13.8984 1.60466 17.8538 4.83714C21.8091 8.06978 22.3955 13.8972 19.1634 17.8528C17.845 19.466 16.0957 20.5186 14.2181 20.9807C13.8161 21.0798 13.5704 21.4858 13.6693 21.8879C13.7683 22.29 14.1744 22.5356 14.5765 22.4367C16.7588 21.8997 18.7935 20.6754 20.3245 18.802Z" fill="black"/>
<path d="M15.5785 10.1711C15.5784 9.20472 14.7949 8.42118 13.8285 8.42112H10.5853C10.1713 8.42136 9.83634 8.75712 9.83626 9.17112C9.83626 9.58519 10.1713 9.92088 10.5853 9.92112L13.0179 9.92112L8.64095 14.2981C8.34833 14.591 8.34817 15.0658 8.64095 15.3586C8.93376 15.6514 9.40858 15.6513 9.7015 15.3586L14.0785 10.9817V13.4143C14.0787 13.8283 14.4144 14.1643 14.8285 14.1643C15.2425 14.1642 15.5782 13.8283 15.5785 13.4143V10.1711Z" fill="black"/>
</svg>
