<svg width="24" height="24" viewBox="0 0 24 24" fill="none" xmlns="http://www.w3.org/2000/svg">
<path d="M7 1.25C3.82436 1.25 1.25 3.82436 1.25 7V17C1.25 20.1756 3.82436 22.75 7 22.75H9C9.41421 22.75 9.75 22.4142 9.75 22C9.75 21.5858 9.41421 21.25 9 21.25H7C4.65279 21.25 2.75 19.3472 2.75 17V7C2.75 4.65279 4.65279 2.75 7 2.75H17C19.3472 2.75 21.25 4.65279 21.25 7V17C21.25 19.3472 19.3472 21.25 17 21.25H15C14.5858 21.25 14.25 21.5858 14.25 22C14.25 22.4142 14.5858 22.75 15 22.75H17C20.1756 22.75 22.75 20.1756 22.75 17V7C22.75 3.82436 20.1756 1.25 17 1.25H7Z" fill="black"/>
<path d="M13.2373 10.1768C12.5539 9.49344 11.4461 9.49344 10.7627 10.1768L8.46973 12.4697C8.17683 12.7626 8.17683 13.2374 8.46973 13.5303C8.76262 13.8232 9.23738 13.8232 9.53027 13.5303L11.8232 11.2373C11.9209 11.1398 12.0791 11.1398 12.1768 11.2373L14.4697 13.5303C14.7626 13.8232 15.2374 13.8232 15.5303 13.5303C15.8232 13.2374 15.8232 12.7626 15.5303 12.4697L13.2373 10.1768Z" fill="black"/>
</svg>
