<svg width="24" height="24" viewBox="0 0 24 24" fill="none" xmlns="http://www.w3.org/2000/svg">
<path d="M7 1.25C3.82438 1.25001 1.25 3.82437 1.25 7V17C1.25 20.1756 3.82437 22.75 7 22.75H9C9.41421 22.75 9.75 22.4142 9.75 22C9.75 21.5858 9.41421 21.25 9 21.25H7C4.6528 21.25 2.75 19.3472 2.75 17V7C2.75 4.6528 4.6528 2.75001 7 2.75H17C19.3472 2.75 21.25 4.65279 21.25 7V17C21.25 19.3472 19.3472 21.25 17 21.25H15C14.5858 21.25 14.25 21.5858 14.25 22C14.25 22.4142 14.5858 22.75 15 22.75H17C20.1756 22.75 22.75 20.1756 22.75 17V7C22.75 3.82436 20.1756 1.25 17 1.25H7Z" fill="black"/>
<path d="M13.2373 8.17676C12.5539 7.49346 11.4461 7.49347 10.7627 8.17676L8.46973 10.4697C8.17684 10.7626 8.17684 11.2374 8.46973 11.5303C8.76262 11.8232 9.23738 11.8232 9.53027 11.5303L11.25 9.81055V16C11.25 16.4142 11.5858 16.75 12 16.75C12.4142 16.75 12.75 16.4142 12.75 16V9.81055L14.4697 11.5303C14.7626 11.8232 15.2374 11.8232 15.5303 11.5303C15.8231 11.2374 15.8232 10.7626 15.5303 10.4697L13.2373 8.17676Z" fill="black"/>
</svg>
