<svg width="22" height="22" viewBox="0 0 22 22" fill="none" xmlns="http://www.w3.org/2000/svg">
<path d="M10.75 0C16.6871 0 21.5 4.81294 21.5 10.75C21.5 16.6871 16.6871 21.5 10.75 21.5C8.87087 21.5 7.10201 21.0169 5.56348 20.168C5.31514 20.0309 5.0727 19.8841 4.83691 19.7285C4.49138 19.5003 4.39597 19.0351 4.62402 18.6895C4.85219 18.3441 5.31748 18.2487 5.66309 18.4766C5.86598 18.6104 6.07451 18.7366 6.28809 18.8545C7.61036 19.5841 9.13068 20 10.75 20C15.8586 20 20 15.8586 20 10.75C20 5.64137 15.8586 1.5 10.75 1.5C5.64137 1.5 1.5 5.64137 1.5 10.75C1.5 12.3749 1.91807 13.9001 2.65234 15.2256C2.76807 15.4345 2.89237 15.6383 3.02344 15.8369C3.25143 16.1826 3.15526 16.6479 2.80957 16.876C2.46395 17.1038 1.99959 17.0085 1.77148 16.6631C1.6192 16.4323 1.47535 16.195 1.34082 15.9521C0.486465 14.4099 0 12.6356 0 10.75C0 4.81294 4.81294 0 10.75 0Z" fill="black"/>
<path d="M10.75 6C11.1642 6 11.5 6.33579 11.5 6.75V10.3486L14.166 12.126C14.5107 12.3557 14.6038 12.8214 14.374 13.166C14.1443 13.5107 13.6786 13.6038 13.334 13.374L10.5566 11.5225C10.2089 11.2906 10 10.9004 10 10.4824V6.75C10 6.33579 10.3358 6 10.75 6Z" fill="black"/>
</svg>
