<svg width="24" height="24" viewBox="0 0 24 24" fill="none" xmlns="http://www.w3.org/2000/svg">
<path d="M12.5 5C14.8472 5 16.75 6.90279 16.75 9.25V13.25L20.5459 15.8467C20.8445 16.0509 21.2499 15.8373 21.25 15.4756V9.04199C21.2497 8.67915 20.8422 8.46616 20.5439 8.67285L19.4277 9.44629C19.0874 9.68229 18.6199 9.59808 18.3838 9.25781C18.1478 8.91749 18.232 8.44994 18.5723 8.21387L19.6885 7.44043C20.9815 6.54377 22.7497 7.46858 22.75 9.04199V15.4756C22.7499 17.0435 20.9934 17.9701 19.6992 17.085L16.75 15.0674V15.25C16.75 17.5972 14.8472 19.5 12.5 19.5H5.5C3.15279 19.5 1.25 17.5972 1.25 15.25V13.5C1.25 13.0858 1.58579 12.75 2 12.75C2.41421 12.75 2.75 13.0858 2.75 13.5V15.25C2.75 16.7688 3.98122 18 5.5 18H12.5C14.0188 18 15.25 16.7688 15.25 15.25V9.25C15.25 7.73122 14.0188 6.5 12.5 6.5H5.5C3.98122 6.5 2.75 7.73122 2.75 9.25V10C2.75 10.4142 2.41421 10.75 2 10.75C1.58579 10.75 1.25 10.4142 1.25 10V9.25C1.25 6.90279 3.15279 5 5.5 5H12.5Z" fill="black"/>
</svg>
