<svg width="24" height="24" viewBox="0 0 24 24" fill="none" xmlns="http://www.w3.org/2000/svg">
<path d="M10.2021 4.04C11.9839 2.50087 14.75 3.7666 14.75 6.12106V18.1123C14.7497 20.4664 11.9838 21.7322 10.2021 20.1933L6.87305 17.3173C6.64599 17.1212 6.35571 17.0127 6.05566 17.0127H4.5C2.70518 17.0127 1.25017 15.5574 1.25 13.7627V10.4697C1.25025 8.67499 2.70524 7.21971 4.5 7.21969C4.91405 7.2197 5.24975 7.5557 5.25 7.96969C5.24983 8.38375 4.9141 8.71968 4.5 8.71969C3.53366 8.7197 2.75025 9.50341 2.75 10.4697V13.7627C2.75017 14.729 3.53361 15.5127 4.5 15.5127H6.05566C6.71577 15.5127 7.35399 15.7511 7.85352 16.1826L11.1826 19.0586C11.9924 19.7578 13.2497 19.1821 13.25 18.1123V6.12106C13.25 5.05086 11.9925 4.4752 11.1826 5.17477L8.49023 7.50094C8.17687 7.77149 7.70339 7.73695 7.43262 7.42379C7.16191 7.11042 7.19653 6.63699 7.50977 6.36618L10.2021 4.04Z" fill="black"/>
<path d="M21.7119 9.0986C22.0048 8.80571 22.4805 8.80571 22.7734 9.0986C23.0661 9.39151 23.0663 9.86729 22.7734 10.1601L21.1816 11.75L22.7734 13.3418C23.0658 13.6346 23.0659 14.1095 22.7734 14.4023C22.4806 14.695 22.0048 14.695 21.7119 14.4023L20.1211 12.8115L18.5303 14.4023C18.2374 14.6949 17.7626 14.6949 17.4697 14.4023C17.1769 14.1095 17.177 13.6347 17.4697 13.3418L19.0596 11.75L17.4697 10.1601C17.1769 9.86728 17.177 9.3915 17.4697 9.0986C17.7626 8.80603 18.2374 8.80603 18.5303 9.0986L20.1211 10.6894L21.7119 9.0986Z" fill="black"/>
</svg>
