<svg width="24" height="24" viewBox="0 0 24 24" fill="none" xmlns="http://www.w3.org/2000/svg">
<path d="M11.2021 4.03952C12.9839 2.50038 15.75 3.76612 15.75 6.12057V18.1118C15.7499 20.4662 12.9838 21.7319 11.2021 20.1928L7.87305 17.3169C7.64599 17.1207 7.35571 17.0122 7.05566 17.0122H5.5C3.70509 17.0122 2.25002 15.5571 2.25 13.7622V10.4692C2.25025 8.6745 3.70524 7.21922 5.5 7.2192C5.91405 7.21921 6.24975 7.55521 6.25 7.9692C6.24998 8.3834 5.9142 8.71919 5.5 8.7192C4.53366 8.71921 3.75025 9.50293 3.75 10.4692V13.7622C3.75002 14.7287 4.53351 15.5122 5.5 15.5122H7.05566C7.71577 15.5122 8.35399 15.7506 8.85352 16.1821L12.1826 19.0581C12.9925 19.7575 14.2499 19.1819 14.25 18.1118V6.12057C14.25 5.05037 12.9925 4.47471 12.1826 5.17428L9.70215 7.31784C9.38881 7.58832 8.9153 7.55374 8.64453 7.24069C8.37376 6.92724 8.40824 6.45287 8.72168 6.18209L11.2021 4.03952Z" fill="black"/>
<path d="M19.5498 5.51706C19.8809 5.26843 20.3508 5.3354 20.5996 5.66647C21.9496 7.46316 22.75 9.69752 22.75 12.1167C22.75 14.5358 21.9496 16.7702 20.5996 18.5669C20.3508 18.8979 19.8809 18.9649 19.5498 18.7163C19.2187 18.4675 19.1518 17.9976 19.4004 17.6665C20.562 16.1206 21.25 14.1998 21.25 12.1167C21.25 10.0335 20.562 8.11276 19.4004 6.56686C19.1518 6.23574 19.2188 5.76583 19.5498 5.51706Z" fill="black"/>
<path d="M17.5498 8.51706C17.8809 8.26843 18.3508 8.3354 18.5996 8.66647C19.3216 9.6275 19.75 10.8231 19.75 12.1167C19.75 13.4102 19.3217 14.6058 18.5996 15.5669C18.3508 15.8979 17.8809 15.9649 17.5498 15.7163C17.2187 15.4675 17.1518 14.9976 17.4004 14.6665C17.9341 13.9562 18.25 13.0742 18.25 12.1167C18.25 11.1591 17.9341 10.2771 17.4004 9.56686C17.1518 9.23574 17.2188 8.76583 17.5498 8.51706Z" fill="black"/>
</svg>
