<svg width="24" height="24" viewBox="0 0 24 24" fill="none" xmlns="http://www.w3.org/2000/svg">
<path d="M18 12C18.4141 12 18.7498 12.336 18.75 12.75V18.1123C18.7497 20.4664 15.9838 21.7322 14.2021 20.1933L13.9307 19.958L12.5312 18.8359C12.2082 18.5768 12.1561 18.1044 12.415 17.7812C12.6741 17.4583 13.1456 17.4063 13.4688 17.665L14.8691 18.7881L14.8906 18.8056L15.1826 19.0586C15.9924 19.7578 17.2497 19.1821 17.25 18.1123V12.75C17.2502 12.336 17.5859 12 18 12Z" fill="black"/>
<path d="M14.2021 4.04C15.9839 2.50087 18.75 3.7666 18.75 6.12106V6.93942L21.4697 4.21969C21.7626 3.9271 22.2374 3.9271 22.5303 4.21969C22.823 4.5126 22.8231 4.98838 22.5303 5.28122L7.53027 20.2812C7.23749 20.5736 6.76251 20.5736 6.46973 20.2812C6.17689 19.9884 6.17699 19.5126 6.46973 19.2197L8.67676 17.0127H8.5C6.70518 17.0127 5.25017 15.5574 5.25 13.7627V10.4697C5.25025 8.67499 6.70524 7.21971 8.5 7.21969C8.91405 7.2197 9.24975 7.5557 9.25 7.96969C9.24983 8.38375 8.9141 8.71968 8.5 8.71969C7.53366 8.7197 6.75025 9.50341 6.75 10.4697V13.7627C6.75017 14.729 7.53361 15.5127 8.5 15.5127H10C10.0543 15.5127 10.1072 15.5193 10.1582 15.5302L17.25 8.43942V6.12106C17.25 5.05086 15.9925 4.4752 15.1826 5.17477L12.7021 7.31833C12.3889 7.58863 11.9153 7.55403 11.6445 7.24118C11.3738 6.92778 11.4084 6.45338 11.7217 6.18258L14.2021 4.04Z" fill="black"/>
</svg>
