<svg width="24" height="24" viewBox="0 0 24 24" fill="none" xmlns="http://www.w3.org/2000/svg">
<path fill-rule="evenodd" clip-rule="evenodd" d="M14.5986 1.89087C17.1251 1.37073 19.4984 3.17778 19.7295 5.68775C21.5281 6.65959 22.75 8.56239 22.75 10.7502V17.0002H22.7432C22.6121 20.0598 20.0918 22.5002 17 22.5002H7C3.82445 22.5002 1.25014 19.9258 1.25 16.7502V16.2502C1.25 15.836 1.58579 15.5002 2 15.5002C2.41421 15.5002 2.75 15.836 2.75 16.2502V16.7502C2.75014 19.0973 4.65287 21.0002 7 21.0002H17C19.2632 21.0002 21.1126 19.231 21.2422 17.0002H17.5C15.7052 17.0002 14.2501 15.5451 14.25 13.7502C14.25 11.9553 15.7051 10.5002 17.5 10.5002H18.5C18.9142 10.5002 19.25 10.836 19.25 11.2502C19.2499 11.6643 18.9141 12.0002 18.5 12.0002H17.5C16.5335 12.0002 15.75 12.7837 15.75 13.7502C15.7501 14.7166 16.5336 15.5002 17.5 15.5002H21.25V10.7502C21.25 8.40304 19.3472 6.50025 17 6.50025H7C4.65279 6.50025 2.75 8.40304 2.75 10.7502V11.7502C2.74986 12.1643 2.41413 12.5002 2 12.5002C1.61159 12.5002 1.2922 12.2047 1.25391 11.8264L1.25 11.7502V9.32544C1.25012 6.59686 3.16828 4.24386 5.84082 3.69361L14.5986 1.89087ZM18.0684 5.09986C17.6003 3.86612 16.2865 3.07452 14.9014 3.35962L6.92578 5.00122C6.95049 5.00091 6.97522 5.00025 7 5.00025H17C17.3651 5.00025 17.7221 5.03479 18.0684 5.09986Z" fill="black"/>
<path d="M12 16.5002C12.4142 16.5002 12.75 16.836 12.75 17.2502C12.7499 17.6643 12.4141 18.0002 12 18.0002H6C5.58587 18.0002 5.25014 17.6643 5.25 17.2502C5.25 16.836 5.58579 16.5002 6 16.5002H12Z" fill="black"/>
<path d="M17.7002 13.0002C18.1143 13.0004 18.4502 13.3361 18.4502 13.7502C18.4501 14.1643 18.1142 14.5001 17.7002 14.5002H17.5C17.0859 14.5002 16.7501 14.1643 16.75 13.7502C16.75 13.336 17.0858 13.0002 17.5 13.0002H17.7002Z" fill="black"/>
</svg>
