<svg width="24" height="24" viewBox="0 0 24 24" fill="none" xmlns="http://www.w3.org/2000/svg">
<path d="M4.09863 14.3115C7.9147 12.9486 12.0853 12.9486 15.9014 14.3115C17.0098 14.7076 17.75 15.7574 17.75 16.9346V18.25C17.7498 19.8936 16.2941 21.1561 14.667 20.9238L13.7119 20.7881C11.2498 20.4364 8.75022 20.4364 6.28809 20.7881L5.33301 20.9238C3.70587 21.1561 2.25018 19.8936 2.25 18.25V16.9346C2.25004 15.7574 2.99015 14.7076 4.09863 14.3115Z" fill="black"/>
<path d="M19 8.25C19.4142 8.25 19.75 8.58579 19.75 9V10.25H21C21.4142 10.25 21.75 10.5858 21.75 11C21.75 11.4142 21.4142 11.75 21 11.75H19.75V13C19.75 13.4142 19.4142 13.75 19 13.75C18.5858 13.75 18.25 13.4142 18.25 13V11.75H17C16.5858 11.75 16.25 11.4142 16.25 11C16.25 10.5858 16.5858 10.25 17 10.25H18.25V9C18.25 8.58579 18.5858 8.25 19 8.25Z" fill="black"/>
<path d="M10 2.25C12.6234 2.25 14.75 4.37665 14.75 7C14.75 9.62335 12.6234 11.75 10 11.75C7.37665 11.75 5.25 9.62335 5.25 7C5.25 4.37665 7.37665 2.25 10 2.25Z" fill="black"/>
</svg>
