<svg width="24" height="24" viewBox="0 0 24 24" fill="none" xmlns="http://www.w3.org/2000/svg">
<path fill-rule="evenodd" clip-rule="evenodd" d="M12 1.25C12.4142 1.25 12.75 1.58579 12.75 2V3.28125C17.7842 3.66432 21.75 7.86765 21.75 13C21.75 16.2259 20.1825 19.0846 17.7686 20.8594L18.6709 22.665C18.8557 23.0353 18.706 23.4856 18.3359 23.6709C17.9656 23.8561 17.5145 23.7061 17.3291 23.3359L16.4883 21.6533C15.1444 22.3518 13.6192 22.75 12 22.75C10.3805 22.75 8.85479 22.352 7.51074 21.6533L6.6709 23.3359C6.48551 23.7061 6.03439 23.8561 5.66406 23.6709C5.29396 23.4856 5.14427 23.0353 5.3291 22.665L6.23047 20.8594C3.8169 19.0846 2.25 16.2256 2.25 13C2.25 7.86765 6.21577 3.66432 11.25 3.28125V2C11.25 1.58579 11.5858 1.25 12 1.25ZM12 8.25C11.5858 8.25 11.25 8.58579 11.25 9V12.7324C11.25 13.1504 11.4589 13.5406 11.8066 13.7725L14.584 15.624C14.9286 15.8538 15.3943 15.7607 15.624 15.416C15.8538 15.0714 15.7607 14.6057 15.416 14.376L12.75 12.5986V9C12.75 8.58579 12.4142 8.25 12 8.25Z" fill="black"/>
<path d="M6.5498 1.40039C6.88103 1.15197 7.35099 1.21882 7.59961 1.5498C7.84814 1.88118 7.78157 2.35206 7.4502 2.60059L3.4502 5.60059C3.11889 5.849 2.64893 5.78139 2.40039 5.4502C2.15192 5.1189 2.21864 4.64896 2.5498 4.40039L6.5498 1.40039Z" fill="black"/>
<path d="M16.4004 1.5498C16.649 1.21882 17.119 1.15197 17.4502 1.40039L21.4502 4.40039C21.7814 4.64896 21.8481 5.1189 21.5996 5.4502C21.3511 5.78139 20.8811 5.849 20.5498 5.60059L16.5498 2.60059C16.2184 2.35206 16.1519 1.88118 16.4004 1.5498Z" fill="black"/>
</svg>
