<svg width="24" height="24" viewBox="0 0 24 24" fill="none" xmlns="http://www.w3.org/2000/svg">
<path d="M15.2495 9C15.2495 9.41403 15.5856 9.74971 15.9995 9.75C16.4137 9.75 16.7495 9.41421 16.7495 9V6.41699C18.5532 6.90915 19.949 8.44055 20.2066 10.3721L21.1392 17.3721C21.5189 20.2196 19.3039 22.75 16.4312 22.75H7.56887C4.69618 22.7499 2.48023 20.2196 2.85988 17.3721L3.79348 10.3721C4.05103 8.44085 5.44639 6.91037 7.24953 6.41797V9C7.24953 9.41403 7.58557 9.74971 7.99953 9.75C8.41375 9.75 8.74953 9.41421 8.74953 9V6.25H15.2495V9Z" fill="black"/>
<path d="M11.9995 1.25C14.6229 1.25 16.7495 3.37665 16.7495 6V6.41699C16.3497 6.30789 15.9296 6.25 15.4976 6.25H15.2495V6C15.2495 4.20507 13.7945 2.75 11.9995 2.75C10.2049 2.75029 8.74953 4.20525 8.74953 6V6.25H8.50149C8.06938 6.25005 7.64945 6.30877 7.24953 6.41797V6C7.24953 3.37683 9.37643 1.25029 11.9995 1.25Z" fill="black"/>
</svg>
