<svg width="24" height="24" viewBox="0 0 24 24" fill="none" xmlns="http://www.w3.org/2000/svg">
<path d="M7.21582 12.75C7.02907 14.9776 6.02119 16.9784 4.48047 18.459L5.51953 19.541C7.3403 17.7914 8.5294 15.4066 8.71973 12.75H11.25V21.9678C6.32541 21.6025 2.3967 17.6745 2.03125 12.75H7.21582Z" fill="black"/>
<path d="M15.2783 12.75C15.4641 15.441 16.6387 17.8601 18.4424 19.6436C16.8809 20.9609 14.9119 21.8073 12.75 21.9678V12.75H15.2783Z" fill="black"/>
<path d="M21.9688 12.75C21.8031 14.9822 20.9051 17.0082 19.5137 18.5928C17.9744 17.0783 16.9654 15.0315 16.7822 12.75H21.9688Z" fill="black"/>
<path d="M11.25 11.25H8.71973C8.52958 8.59326 7.34026 6.2087 5.51953 4.45898L4.48047 5.54102C6.02115 7.0217 7.02924 9.02234 7.21582 11.25H2.03125C2.39638 6.32509 6.32513 2.39554 11.25 2.03027V11.25Z" fill="black"/>
<path d="M12.75 2.03027C14.9119 2.1907 16.8819 3.0371 18.4434 4.35449C16.6389 6.13823 15.4639 8.55814 15.2783 11.25H12.75V2.03027Z" fill="black"/>
<path d="M19.5137 5.40527C20.9056 6.99009 21.8032 9.01723 21.9688 11.25H16.7822C16.9652 8.96795 17.9742 6.91994 19.5137 5.40527Z" fill="black"/>
</svg>
