<svg width="24" height="24" viewBox="0 0 24 24" fill="none" xmlns="http://www.w3.org/2000/svg">
<path d="M13.375 20.4189C13.6043 20.0741 14.0701 19.9799 14.415 20.209C14.7598 20.4382 14.854 20.9041 14.625 21.249C14.0246 22.1521 12.9951 22.75 11.8262 22.75C10.6572 22.75 9.62781 22.1521 9.02734 21.249C8.79824 20.9041 8.89247 20.4383 9.2373 20.209C9.58218 19.98 10.0471 20.0742 10.2764 20.4189C10.6106 20.9217 11.1804 21.25 11.8262 21.25C12.4718 21.25 13.0407 20.9214 13.375 20.4189Z" fill="black"/>
<path d="M12.1777 1.25879C15.7902 1.44181 18.6631 4.42892 18.6631 8.08691V10.1777C18.6631 10.5652 18.7873 10.9615 19.0088 11.4053C19.2402 11.8689 19.5212 12.2845 19.8301 12.8027C20.1935 13.4126 20.4023 14.1256 20.4023 14.8848L20.3984 15.0674C20.3143 16.9497 18.9355 18.5608 17.0215 18.8262C15.6368 19.0182 13.9232 19.2154 12.4443 19.2617L11.8262 19.2715C10.2256 19.2715 8.21262 19.0456 6.62988 18.8262C4.65462 18.5518 3.25 16.8441 3.25 14.8848C3.25008 14.1256 3.45883 13.4126 3.82227 12.8027C4.13118 12.2844 4.4121 11.869 4.64355 11.4053C4.86506 10.9614 4.98926 10.5653 4.98926 10.1777V8.08691C4.98928 4.31099 8.05023 1.25 11.8262 1.25L12.1777 1.25879Z" fill="black"/>
</svg>
