<svg width="24" height="24" viewBox="0 0 24 24" fill="none" xmlns="http://www.w3.org/2000/svg">
<path d="M2.83691 3.00128C5.51002 1.99827 8.48998 1.99827 11.1631 3.00128L11.25 3.03351V21.5228L9.83203 20.9905C8.01509 20.3087 5.98491 20.3087 4.16797 20.9905C2.83198 21.4917 1.25 20.5932 1.25 19.0784V5.22784C1.25029 4.22112 1.90222 3.35204 2.83691 3.00128Z" fill="black"/>
<path d="M12.8369 3.00128C15.51 1.99827 18.49 1.99827 21.1631 3.00128C22.0978 3.35204 22.7497 4.22112 22.75 5.22784V19.0784C22.75 20.5932 21.168 21.4917 19.832 20.9905C18.0151 20.3087 15.9849 20.3087 14.168 20.9905L12.75 21.5228V3.03351L12.8369 3.00128Z" fill="black"/>
</svg>
