<svg width="24" height="24" viewBox="0 0 24 24" fill="none" xmlns="http://www.w3.org/2000/svg">
<path fill-rule="evenodd" clip-rule="evenodd" d="M15 2.25C17.6234 2.25 19.75 4.37665 19.75 7V20.168C19.75 21.5525 18.2183 22.3892 17.0537 21.6406L12.6758 18.8262C12.2641 18.5616 11.7359 18.5616 11.3242 18.8262L6.94629 21.6406C5.78166 22.3892 4.25 21.5525 4.25 20.168V7C4.25 4.37665 6.37665 2.25 9 2.25H15ZM9 7.75C8.58579 7.75 8.25 8.08579 8.25 8.5C8.25 8.91421 8.58579 9.25 9 9.25H15C15.4142 9.25 15.75 8.91421 15.75 8.5C15.75 8.08579 15.4142 7.75 15 7.75H9Z" fill="black"/>
</svg>
