<svg width="24" height="24" viewBox="0 0 24 24" fill="none" xmlns="http://www.w3.org/2000/svg">
<path d="M4.53816 3.87158C5.73524 2.67467 7.67425 2.73053 8.86824 3.92432L10.8614 5.91748C12.055 7.11151 12.1101 9.05056 10.9132 10.2476L10.6368 10.5239C10.429 10.7321 10.4069 11.0694 10.6046 11.3091C11.0216 11.8145 11.4692 12.3154 11.9522 12.7983C12.4352 13.2813 12.9361 13.7289 13.4415 14.146C13.6812 14.3437 14.0184 14.3216 14.2266 14.1138L14.503 13.8374C15.7 12.6405 17.639 12.6956 18.8331 13.8892L20.8262 15.8823C22.0202 17.0763 22.076 19.0153 20.879 20.2124L19.5919 21.4995C18.2841 22.807 16.1449 22.7007 14.0635 21.937C11.9172 21.1494 9.52137 19.5667 7.35261 17.398C5.18381 15.2291 3.60011 12.8334 2.81257 10.687C2.04899 8.60574 1.94365 6.46638 3.25105 5.15869L4.53816 3.87158Z" fill="black"/>
<path d="M20.4698 3.47022C20.7627 3.17741 21.2375 3.17735 21.5303 3.47022C21.8231 3.76309 21.8231 4.23788 21.5303 4.53076L19.5606 6.50049L21.5303 8.47022C21.8231 8.76309 21.8231 9.23788 21.5303 9.53076C21.2375 9.82364 20.7627 9.82359 20.4698 9.53076L18.5001 7.56104L16.5303 9.53076C16.2375 9.82344 15.7626 9.82353 15.4698 9.53076C15.177 9.23794 15.1771 8.76313 15.4698 8.47022L17.4395 6.50049L15.4698 4.53076C15.1771 4.23785 15.177 3.76304 15.4698 3.47022C15.7626 3.17747 16.2375 3.17755 16.5303 3.47022L18.5001 5.43994L20.4698 3.47022Z" fill="black"/>
</svg>
