<svg width="24" height="24" viewBox="0 0 24 24" fill="none" xmlns="http://www.w3.org/2000/svg">
<path d="M4.53851 3.12102C5.73558 1.9242 7.67462 1.97906 8.86859 3.17278L10.8617 5.16594C12.0554 6.35978 12.111 8.2989 10.9145 9.49602L10.6381 9.77239C10.4299 9.98062 10.407 10.3187 10.6049 10.5585C11.022 11.064 11.4696 11.5648 11.9526 12.0478C12.4356 12.5308 12.9364 12.9784 13.4418 13.3954C13.6817 13.5932 14.0198 13.5704 14.228 13.3622L14.5043 13.0859C15.6641 11.9267 17.52 11.9426 18.7201 13.0302L18.8344 13.1386L20.8276 15.1318C22.0211 16.3257 22.0761 18.2648 20.8793 19.4618L19.5932 20.749C18.2855 22.0566 16.1453 21.9501 14.0639 21.1865C11.9176 20.3989 9.52169 18.8161 7.35296 16.6474C5.18421 14.4786 3.60151 12.0828 2.8139 9.93645C2.05018 7.85496 1.94368 5.71487 3.2514 4.40715L4.53851 3.12102Z" fill="black"/>
</svg>
