<svg width="24" height="24" viewBox="0 0 24 24" fill="none" xmlns="http://www.w3.org/2000/svg">
<path d="M14.253 12.8374C15.45 11.6405 17.3891 11.6955 18.5831 12.8892L20.5762 14.8823C21.77 16.0763 21.8258 18.0153 20.629 19.2124L19.3419 20.4995C18.0342 21.8069 15.8948 21.7006 13.8135 20.937C12.271 20.371 10.6009 19.3923 8.97761 18.0825L13.8594 13.2007C13.9009 13.1763 13.9414 13.1489 13.9766 13.1138L14.253 12.8374Z" fill="black"/>
<path d="M4.28815 2.87158C5.48526 1.67471 7.42427 1.73049 8.61823 2.92432L10.6114 4.91748C11.8048 6.11151 11.8599 8.05063 10.6632 9.24756L10.3868 9.52392C10.179 9.73215 10.1569 10.0694 10.3546 10.3091C10.6903 10.716 11.047 11.1191 11.4249 11.5132L18.4698 4.47021L18.5264 4.41846C18.821 4.17829 19.2558 4.19566 19.5303 4.47021C19.8045 4.74472 19.822 5.17868 19.5821 5.47314L19.5303 5.53076L4.53034 20.5308C4.23753 20.8234 3.76265 20.8233 3.46979 20.5308C3.1769 20.2379 3.1769 19.7621 3.46979 19.4692L6.82526 16.1138C4.79933 14.021 3.31604 11.7404 2.56257 9.68701C1.79898 7.60574 1.69368 5.46639 3.00104 4.15869L4.28815 2.87158Z" fill="black"/>
</svg>
