<svg width="24" height="24" viewBox="0 0 24 24" fill="none" xmlns="http://www.w3.org/2000/svg">
<path d="M4.53851 3.87205C5.73558 2.67522 7.67462 2.73008 8.86859 3.92381L10.8617 5.91698C12.0554 7.11082 12.111 9.04994 10.9145 10.2471L10.6381 10.5234C10.4299 10.7317 10.407 11.0697 10.6049 11.3096C11.022 11.815 11.4696 12.3158 11.9526 12.7988C12.4356 13.2818 12.9364 13.7294 13.4418 14.1465C13.6817 14.3442 14.0198 14.3214 14.228 14.1133L14.5043 13.8369C15.6641 12.6777 17.5199 12.6936 18.7201 13.7812L18.8344 13.8896L20.8276 15.8828C22.0211 17.0768 22.0761 19.0159 20.8793 20.2129L19.5932 21.5C18.2855 22.8076 16.1453 22.7011 14.0639 21.9375C11.9176 21.1499 9.52168 19.5671 7.35296 17.3984C5.18422 15.2297 3.60151 12.8338 2.8139 10.6875C2.05018 8.60599 1.94368 6.46591 3.2514 5.15819L4.53851 3.87205Z" fill="black"/>
<path d="M14.3119 6.76658C14.4774 6.38707 14.9197 6.21286 15.2992 6.37791C15.9413 6.65773 16.5425 7.06062 17.0659 7.58397C17.6207 8.13878 18.0387 8.78126 18.3198 9.46678C18.4766 9.84977 18.2943 10.287 17.9116 10.4443C17.5284 10.6014 17.0903 10.4181 16.933 10.0351C16.7261 9.53038 16.417 9.05619 16.0053 8.64451C15.6169 8.25615 15.1732 7.95992 14.7006 7.75389C14.321 7.58843 14.1466 7.14625 14.3119 6.76658Z" fill="black"/>
<path d="M14.2944 3.40721C14.4355 3.01817 14.8661 2.8173 15.2553 2.95799C16.6909 3.47813 18.0378 4.31378 19.1869 5.46287C20.3651 6.64102 21.2139 8.02665 21.7309 9.50291C21.8678 9.89382 21.6618 10.3221 21.2709 10.459C20.88 10.5958 20.4518 10.3898 20.3149 9.99901C19.8708 8.73085 19.1417 7.53983 18.1264 6.5244C17.1358 5.53384 15.9779 4.81597 14.7446 4.36912C14.3551 4.22805 14.1533 3.79664 14.2944 3.40721Z" fill="black"/>
</svg>
