<svg width="24" height="24" viewBox="0 0 24 24" fill="none" xmlns="http://www.w3.org/2000/svg">
<path d="M8.50007 18.5C9.32843 18.5 9.99998 19.1717 10.0001 20C10.0001 20.8285 9.32849 21.5 8.50007 21.5C7.67165 21.5 7.00007 20.8285 7.00007 20C7.00017 19.1717 7.67171 18.5 8.50007 18.5Z" fill="black"/>
<path d="M17.5001 18.5C18.3284 18.5 19 19.1717 19.0001 20C19.0001 20.8285 18.3285 21.5 17.5001 21.5C16.6716 21.5 16.0001 20.8285 16.0001 20C16.0002 19.1717 16.6717 18.5 17.5001 18.5Z" fill="black"/>
<path fill-rule="evenodd" clip-rule="evenodd" d="M1.26472 2.85355C1.34599 2.44742 1.74139 2.18346 2.14754 2.26468L3.19636 2.47465C4.3815 2.71174 5.27332 3.69488 5.39363 4.8975L5.47859 5.75004H19.0548C21.0387 5.75035 22.4949 7.61527 22.0137 9.54008L20.8907 14.0313C20.4176 15.923 18.7176 17.2499 16.7677 17.25H7.77449C6.38257 17.25 5.21001 16.2101 5.04402 14.8282L4.05476 6.58207L3.90144 5.04691C3.84677 4.50028 3.44108 4.05315 2.90242 3.94535L1.85359 3.73539C1.44757 3.65418 1.18378 3.25956 1.26472 2.85355ZM9.00007 12.75C8.58587 12.75 8.2501 13.0858 8.25007 13.5C8.25007 13.9142 8.58586 14.25 9.00007 14.25H13.0001C13.4142 14.2499 13.7501 13.9142 13.7501 13.5C13.7501 13.0859 13.4142 12.7501 13.0001 12.75H9.00007Z" fill="black"/>
</svg>
