<svg width="24" height="24" viewBox="0 0 24 24" fill="none" xmlns="http://www.w3.org/2000/svg">
<path d="M21.917 17C21.9167 19.623 19.79 21.7497 17.167 21.75H6.83398C4.2108 21.75 2.08426 19.6231 2.08398 17V13.0088C2.36096 13.1902 2.66601 13.3378 2.99512 13.4365L10.4199 15.6641C11.4507 15.9732 12.5503 15.9733 13.5811 15.6641L21.0059 13.4365C21.335 13.3377 21.64 13.1903 21.917 13.0088V17Z" fill="black"/>
<path fill-rule="evenodd" clip-rule="evenodd" d="M20 6.42871C21.1046 6.42871 22 7.32414 22 8.42871V10.083C22 10.6527 21.7576 11.1778 21.3594 11.5479C21.3533 11.5535 21.347 11.5589 21.3408 11.5645C21.2939 11.6069 21.2453 11.6475 21.1943 11.6855C21.1882 11.6901 21.182 11.6947 21.1758 11.6992C21.12 11.7398 21.0621 11.7776 21.002 11.8125C20.9907 11.819 20.9791 11.8248 20.9678 11.8311C20.9195 11.8578 20.8701 11.8824 20.8193 11.9053C20.8022 11.913 20.785 11.9205 20.7676 11.9277C20.7127 11.9505 20.6571 11.9722 20.5996 11.9902C20.5914 11.9928 20.5835 11.9965 20.5752 11.999L13.1494 14.2266C12.3997 14.4515 11.6003 14.4515 10.8506 14.2266L3.42578 11.999C3.35906 11.979 3.2947 11.9541 3.23145 11.9277C3.21403 11.9205 3.19682 11.913 3.17969 11.9053C3.12892 11.8824 3.07947 11.8578 3.03125 11.8311C3.01989 11.8248 3.00828 11.819 2.99707 11.8125C2.93692 11.7776 2.87896 11.7398 2.82324 11.6992C2.81703 11.6947 2.81084 11.6901 2.80469 11.6855C2.75374 11.6475 2.70507 11.6069 2.6582 11.5645C2.65205 11.5589 2.64573 11.5535 2.63965 11.5479C2.53674 11.4522 2.44472 11.346 2.36426 11.2314C2.3585 11.2232 2.35232 11.2153 2.34668 11.207C2.31381 11.1587 2.28345 11.1087 2.25488 11.0576C2.24827 11.0458 2.24075 11.0344 2.23438 11.0225C2.08388 10.7398 2 10.4189 2 10.083V8.42871C2.00002 7.32414 2.89544 6.42871 4 6.42871H7.91699V5C7.91699 3.48122 9.14821 2.25 10.667 2.25H13.334L13.6152 2.26465C15.0016 2.40584 16.084 3.57641 16.084 5V6.42871H20ZM14.584 6.42871V5C14.584 4.35307 14.0918 3.82123 13.4619 3.75684L13.334 3.75H10.667C9.97664 3.75 9.41699 4.30964 9.41699 5V6.42871H14.584ZM12 9.10742C11.5858 9.10742 11.25 9.44323 11.25 9.85742V11.5713C11.25 11.9855 11.5858 12.3213 12 12.3213C12.4142 12.3213 12.75 11.9855 12.75 11.5713V9.85742C12.75 9.44323 12.4142 9.10742 12 9.10742Z" fill="black"/>
</svg>
