<svg width="24" height="24" viewBox="0 0 24 24" fill="none" xmlns="http://www.w3.org/2000/svg">
<path d="M8.5 10.25C10.2949 10.25 11.75 11.7051 11.75 13.5V18.5C11.75 20.2949 10.2949 21.75 8.5 21.75H6.5C4.70507 21.75 3.25 20.2949 3.25 18.5V13.5C3.25 11.7051 4.70507 10.25 6.5 10.25H8.5Z" fill="black"/>
<path d="M19 16.25C20.5188 16.25 21.75 17.4812 21.75 19C21.75 20.5188 20.5188 21.75 19 21.75H16C14.4812 21.75 13.25 20.5188 13.25 19C13.25 17.4812 14.4812 16.25 16 16.25H19Z" fill="black"/>
<path d="M18.5 3.25C20.2949 3.25 21.75 4.70507 21.75 6.5V11.5C21.75 13.2949 20.2949 14.75 18.5 14.75H16.5C14.7051 14.75 13.25 13.2949 13.25 11.5V6.5C13.25 4.70507 14.7051 3.25 16.5 3.25H18.5Z" fill="black"/>
<path d="M9 3.25C10.5188 3.25 11.75 4.48122 11.75 6C11.75 7.51878 10.5188 8.75 9 8.75H6C4.48122 8.75 3.25 7.51878 3.25 6C3.25 4.48122 4.48122 3.25 6 3.25H9Z" fill="black"/>
</svg>
