<svg width="24" height="24" viewBox="0 0 24 24" fill="none" xmlns="http://www.w3.org/2000/svg">
<path d="M8.5 13.25C10.2949 13.25 11.75 14.7051 11.75 16.5V18.5C11.75 20.2949 10.2949 21.75 8.5 21.75H6.5C4.70507 21.75 3.25 20.2949 3.25 18.5V16.5C3.25 14.7051 4.70507 13.25 6.5 13.25H8.5Z" fill="black"/>
<path d="M18.5 13.25C20.2949 13.25 21.75 14.7051 21.75 16.5V18.5C21.75 20.2949 20.2949 21.75 18.5 21.75H16.5C14.7051 21.75 13.25 20.2949 13.25 18.5V16.5C13.25 14.7051 14.7051 13.25 16.5 13.25H18.5Z" fill="black"/>
<path d="M8.5 3.25C10.2949 3.25 11.75 4.70507 11.75 6.5V8.5C11.75 10.2949 10.2949 11.75 8.5 11.75H6.5C4.70507 11.75 3.25 10.2949 3.25 8.5V6.5C3.25 4.70507 4.70507 3.25 6.5 3.25H8.5Z" fill="black"/>
<path d="M18.5 3.25C20.2949 3.25 21.75 4.70507 21.75 6.5V8.5C21.75 10.2949 20.2949 11.75 18.5 11.75H16.5C14.7051 11.75 13.25 10.2949 13.25 8.5V6.5C13.25 4.70507 14.7051 3.25 16.5 3.25H18.5Z" fill="black"/>
</svg>
