<svg width="24" height="24" viewBox="0 0 24 24" fill="none" xmlns="http://www.w3.org/2000/svg">
<path fill-rule="evenodd" clip-rule="evenodd" d="M17 1.25C17.5485 1.25 18.0786 1.32826 18.5811 1.47168C17.9153 2.10885 17.5 3.00568 17.5 4C17.5 5.933 19.067 7.5 21 7.5C21.6379 7.5 22.235 7.32748 22.75 7.0293V17C22.75 20.1756 20.1756 22.75 17 22.75H7C3.82436 22.75 1.25 20.1756 1.25 17V7C1.25 3.82436 3.82436 1.25 7 1.25H17ZM17.4941 8.68555C17.1825 8.41283 16.7083 8.44426 16.4355 8.75586L13.418 12.2051L10.9805 10.1738C10.6677 9.9132 10.2037 9.94956 9.93555 10.2559L6.43555 14.2559C6.16283 14.5675 6.19426 15.0417 6.50586 15.3145C6.81754 15.5872 7.29167 15.5557 7.56445 15.2441L10.583 11.7959L13.0195 13.8262C13.3323 14.0868 13.7963 14.0504 14.0645 13.7441L17.5645 9.74414C17.8372 9.43246 17.8057 8.95833 17.4941 8.68555Z" fill="black"/>
<path d="M21 2C22.1046 2 23 2.89543 23 4C23 4.72657 22.6108 5.3597 22.0312 5.70996C22.0252 5.71362 22.0197 5.71809 22.0137 5.72168C21.9583 5.75435 21.9014 5.78421 21.8428 5.81152C21.8389 5.81332 21.8349 5.81463 21.8311 5.81641C21.7791 5.84021 21.7261 5.86149 21.6719 5.88086C21.6566 5.88637 21.6415 5.89232 21.626 5.89746C21.5782 5.9132 21.5297 5.92631 21.4805 5.93848C21.4606 5.94343 21.441 5.94975 21.4209 5.9541C21.3849 5.96183 21.3483 5.9669 21.3115 5.97266C21.2759 5.97828 21.2403 5.98458 21.2041 5.98828C21.1369 5.99509 21.069 6 21 6C19.8954 6 19 5.10457 19 4C19 3.93742 19.0032 3.87555 19.0088 3.81445C19.0101 3.80039 19.0121 3.78644 19.0137 3.77246C19.0197 3.71935 19.028 3.66699 19.0381 3.61523C19.0399 3.60582 19.041 3.59628 19.043 3.58691C19.0553 3.52836 19.0696 3.4706 19.0869 3.41406C19.091 3.40086 19.0963 3.38809 19.1006 3.375C19.1147 3.3321 19.1296 3.28961 19.1465 3.24805C19.1534 3.23099 19.1606 3.21408 19.168 3.19727C19.1857 3.15704 19.2054 3.11789 19.2256 3.0791C19.2332 3.06449 19.2401 3.04955 19.248 3.03516C19.2733 2.98943 19.3004 2.94481 19.3291 2.90137C19.3422 2.88144 19.3563 2.8622 19.3701 2.84277C19.3891 2.81607 19.4094 2.79035 19.4297 2.76465C19.4469 2.74278 19.4633 2.72033 19.4814 2.69922C19.5011 2.67632 19.5223 2.65479 19.543 2.63281C19.5691 2.60493 19.5953 2.57713 19.623 2.55078C19.6489 2.52621 19.675 2.50169 19.7021 2.47852C19.7228 2.46092 19.7443 2.44449 19.7656 2.42773C19.7861 2.41166 19.807 2.39614 19.8281 2.38086C19.9199 2.31429 20.0175 2.2555 20.1201 2.20508C20.1302 2.20014 20.1402 2.1952 20.1504 2.19043C20.4084 2.06908 20.696 2 21 2Z" fill="black"/>
</svg>
