<svg width="24" height="24" viewBox="0 0 24 24" fill="none" xmlns="http://www.w3.org/2000/svg">
<path d="M12.001 14.75C12.6909 14.7505 13.251 15.31 13.251 16C13.251 16.69 12.6909 17.2495 12.001 17.25C11.3106 17.25 10.751 16.6904 10.751 16C10.751 15.3096 11.3106 14.75 12.001 14.75Z" fill="black"/>
<path fill-rule="evenodd" clip-rule="evenodd" d="M17.2295 19.249C17.0999 20.8036 15.8001 21.9996 14.2402 22H9.76074C8.20049 22 6.90108 20.8039 6.77148 19.249L6.03906 10.4648C6.18917 10.488 6.34342 10.5 6.5 10.5H17.5C17.6565 10.5 17.8109 10.488 17.9609 10.4648L17.2295 19.249ZM12.001 13.25C10.4822 13.25 9.25098 14.4812 9.25098 16C9.25098 17.5188 10.4822 18.75 12.001 18.75C13.5193 18.7495 14.751 17.5185 14.751 16C14.751 14.4815 13.5193 13.2505 12.001 13.25Z" fill="black"/>
<path d="M17.5 6C18.3284 6 19 6.67157 19 7.5C19 8.32843 18.3284 9 17.5 9H6.5C5.67157 9 5 8.32843 5 7.5C5 6.67157 5.67157 6 6.5 6H17.5Z" fill="black"/>
<path d="M15 2C16.1046 2 17 2.89543 17 4V4.5H7V4C7 2.89543 7.89543 2 9 2H15Z" fill="black"/>
</svg>
