<svg width="24" height="24" viewBox="0 0 24 24" fill="none" xmlns="http://www.w3.org/2000/svg">
<path d="M19.3623 17.0293C19.5239 16.9516 19.7176 17.0659 19.7178 17.2451V19.1895C19.7178 19.2351 19.6943 19.3979 19.3838 19.6602C19.077 19.9192 18.5802 20.1928 17.8896 20.4395C16.5163 20.9299 14.5604 21.25 12.3584 21.25C10.1566 21.25 8.20141 20.9299 6.82812 20.4395C6.13758 20.1928 5.64077 19.9192 5.33398 19.6602C5.0235 19.3979 5 19.2351 5 19.1895V17.2451C5.00018 17.0659 5.19386 16.9516 5.35547 17.0293C5.63141 17.162 5.92648 17.2826 6.23438 17.3926C7.84383 17.9673 10.009 18.3066 12.3584 18.3066C14.708 18.3066 16.8738 17.9674 18.4834 17.3926C18.7913 17.2826 19.0864 17.162 19.3623 17.0293Z" fill="black"/>
<path d="M19.3623 12.3193C19.524 12.2416 19.7178 12.3567 19.7178 12.5361V14.4795C19.7178 14.5252 19.6946 14.6887 19.3838 14.9512C19.077 15.2102 18.5802 15.4829 17.8896 15.7295C16.5163 16.22 14.5605 16.54 12.3584 16.54C10.1565 16.54 8.20142 16.2199 6.82812 15.7295C6.13758 15.4829 5.64077 15.2102 5.33398 14.9512C5.02317 14.6887 5 14.5252 5 14.4795V12.5361C5 12.3567 5.19379 12.2416 5.35547 12.3193C5.63144 12.452 5.92644 12.5736 6.23438 12.6836C7.84381 13.2583 10.0091 13.5966 12.3584 13.5967C14.7079 13.5967 16.8739 13.2583 18.4834 12.6836C18.7913 12.5736 19.0863 12.452 19.3623 12.3193Z" fill="black"/>
<path d="M19.3623 7.60938C19.524 7.53162 19.7178 7.64676 19.7178 7.82617V9.77051C19.7177 9.81665 19.6937 9.97948 19.3838 10.2412C19.077 10.5003 18.5802 10.7729 17.8896 11.0195C16.5163 11.51 14.5605 11.8311 12.3584 11.8311C10.1565 11.831 8.20142 11.51 6.82812 11.0195C6.13758 10.7729 5.64077 10.5003 5.33398 10.2412C5.02409 9.97947 5.00012 9.81665 5 9.77051V7.82617C5 7.64676 5.19379 7.53162 5.35547 7.60938C5.63147 7.7421 5.9264 7.86364 6.23438 7.97363C7.84382 8.54836 10.009 8.88667 12.3584 8.88672C14.708 8.88672 16.8738 8.5484 18.4834 7.97363C18.7914 7.86364 19.0863 7.7421 19.3623 7.60938Z" fill="black"/>
<path d="M12.3584 3C14.5604 3 16.5163 3.32008 17.8896 3.81055C18.5802 4.05717 19.077 4.3308 19.3838 4.58984C19.6943 4.85213 19.7178 5.01489 19.7178 5.06055C19.7178 5.1063 19.6942 5.26905 19.3838 5.53125C19.077 5.79029 18.5802 6.06392 17.8896 6.31055C16.5163 6.801 14.5604 7.12109 12.3584 7.12109C10.1566 7.12105 8.20141 6.80096 6.82812 6.31055C6.13758 6.06392 5.64077 5.79029 5.33398 5.53125C5.02358 5.26904 5.00002 5.1063 5 5.06055C5 5.01489 5.0235 4.85214 5.33398 4.58984C5.64077 4.3308 6.13758 4.05717 6.82812 3.81055C8.20141 3.32012 10.1566 3.00005 12.3584 3Z" fill="black"/>
</svg>
