<svg width="24" height="24" viewBox="0 0 24 24" fill="none" xmlns="http://www.w3.org/2000/svg">
<path d="M10.4621 18.9033C10.8761 18.9031 11.2119 18.5674 11.212 18.1534L11.212 14.5377C11.2119 13.5715 10.4285 12.7881 9.46223 12.7879H5.84659C5.43246 12.7879 5.09676 13.1237 5.09667 13.5378C5.09671 13.952 5.43243 14.2877 5.84659 14.2877H8.65154L3.77775 19.1615C3.48503 19.4544 3.48491 19.9294 3.77775 20.2222C4.0706 20.5148 4.54559 20.5148 4.83841 20.2222L9.7122 15.3484L9.7122 18.1534C9.71231 18.5675 10.048 18.9033 10.4621 18.9033Z" fill="black"/>
<path d="M18.154 11.2114C18.5681 11.2113 18.9039 10.8756 18.9039 10.4615C18.9038 10.0474 18.568 9.7117 18.154 9.71158H15.349L20.2228 4.83779C20.5155 4.54488 20.5156 4.06995 20.2228 3.77713C19.93 3.4844 19.455 3.48449 19.1622 3.77713L14.2884 8.65092L14.2884 5.84597C14.2883 5.43188 13.9526 5.09609 13.5384 5.09605C13.1243 5.0961 12.7886 5.43188 12.7885 5.84597L12.7885 9.46161C12.7886 10.428 13.572 11.2114 14.5383 11.2114L18.154 11.2114Z" fill="black"/>
</svg>
