<svg width="24" height="24" viewBox="0 0 24 24" fill="none" xmlns="http://www.w3.org/2000/svg">
<path fill-rule="evenodd" clip-rule="evenodd" d="M9 2C10.6569 2 12 3.34315 12 5V19C12 20.6569 10.6569 22 9 22H5C3.34315 22 2 20.6569 2 19V5C2 3.34315 3.34315 2 5 2H9ZM7 17C6.44772 17 6 17.4477 6 18C6 18.5523 6.44772 19 7 19C7.55228 19 8 18.5523 8 18C8 17.4477 7.55228 17 7 17Z" fill="black"/>
<path d="M20.9883 12.3496C21.5968 12.7415 22 13.4255 22 14.2031V19C22 20.6569 20.6569 22 19 22H14.5C13.9477 22 13.5 21.5523 13.5 21V18.9082C13.5001 18.6074 13.6357 18.3226 13.8691 18.1328L20.9883 12.3496Z" fill="black"/>
<path d="M14.5186 3.25781C15.4675 3.07101 16.4881 3.34565 17.2217 4.0791L20.0635 6.9209C21.2461 8.10363 21.2327 10.0247 20.0342 11.1914L14.1523 15.9697C13.891 16.182 13.5003 15.9967 13.5 15.6602V4.76465C13.5 4.07862 13.8455 3.39039 14.5186 3.25781Z" fill="black"/>
</svg>
