<svg width="24" height="24" viewBox="0 0 24 24" fill="none" xmlns="http://www.w3.org/2000/svg">
<path fill-rule="evenodd" clip-rule="evenodd" d="M18 3.25C20.6232 3.25009 22.7488 5.37588 22.749 7.99902L22.75 9.22168C22.75 9.78725 22.3552 10.1967 21.9287 10.3438C21.2417 10.5807 20.7502 11.2337 20.75 11.999C20.75 12.7644 21.2417 13.4172 21.9287 13.6543C22.3551 13.8013 22.7498 14.211 22.75 14.7764V15.999C22.75 18.6223 20.6233 20.7489 18 20.749H6C3.37668 20.749 1.25002 18.6223 1.25 15.999V14.7764C1.25017 14.2111 1.644 13.8014 2.07031 13.6543C2.75754 13.4173 3.249 12.7645 3.24902 11.999C3.24886 11.2337 2.75743 10.5807 2.07031 10.3438C1.64398 10.1966 1.25 9.78705 1.25 9.22168V7.99902C1.25018 5.37584 3.37678 3.25003 6 3.25H18ZM14.7607 13.6416C14.4518 13.3326 13.9507 13.3319 13.6416 13.6406C13.3325 13.9497 13.3325 14.4516 13.6416 14.7607C13.9507 15.0696 14.4517 15.0688 14.7607 14.7598C15.0694 14.4507 15.0695 13.9506 14.7607 13.6416ZM14.7686 9.23047C14.4757 8.93769 14.0009 8.93761 13.708 9.23047L9.23047 13.708C8.93788 14.0009 8.93778 14.4757 9.23047 14.7686C9.52328 15.0613 9.99813 15.0612 10.291 14.7686L14.7686 10.291C15.0614 9.99815 15.0614 9.52337 14.7686 9.23047ZM10.3574 9.23828C10.0483 8.92955 9.54729 8.92939 9.23828 9.23828C8.92938 9.54741 8.92924 10.0494 9.23828 10.3584C9.54735 10.6672 10.0484 10.6662 10.3574 10.3574C10.6664 10.0483 10.6664 9.54737 10.3574 9.23828Z" fill="black"/>
</svg>
