<svg width="24" height="24" viewBox="0 0 24 24" fill="none" xmlns="http://www.w3.org/2000/svg">
<path fill-rule="evenodd" clip-rule="evenodd" d="M11.0977 2.41547C11.693 2.2964 12.307 2.2964 12.9023 2.41547C14.225 2.68013 15.3644 3.51274 16.0195 4.69184L22.2061 15.8266C22.5628 16.4688 22.75 17.1915 22.75 17.9262C22.7499 20.3142 20.8138 22.2504 18.4258 22.2504H5.57422C3.18623 22.2504 1.25007 20.3142 1.25 17.9262C1.25003 17.1915 1.4372 16.4688 1.79395 15.8266L7.98047 4.69184C8.6356 3.51274 9.775 2.68013 11.0977 2.41547ZM12 15.2504C11.5858 15.2504 11.25 15.5862 11.25 16.0004V16.5004C11.2501 16.9145 11.5859 17.2504 12 17.2504C12.4141 17.2504 12.7499 16.9145 12.75 16.5004V16.0004C12.75 15.5862 12.4142 15.2504 12 15.2504ZM12 8.25044C11.5858 8.25044 11.25 8.58622 11.25 9.00044V13.0004C11.2501 13.4145 11.5859 13.7504 12 13.7504C12.4141 13.7504 12.7499 13.4145 12.75 13.0004V9.00044C12.75 8.58622 12.4142 8.25044 12 8.25044Z" fill="black"/>
</svg>
