<svg width="24" height="24" viewBox="0 0 24 24" fill="none" xmlns="http://www.w3.org/2000/svg">
<path fill-rule="evenodd" clip-rule="evenodd" d="M14.25 1.25586V6C14.25 7.51878 15.4812 8.75 17 8.75H20.75V18C20.75 20.6234 18.6234 22.75 16 22.75H8C5.37665 22.75 3.25 20.6234 3.25 18V6C3.25 3.37665 5.37665 1.25 8 1.25H14.0635C14.1259 1.25001 14.1881 1.25165 14.25 1.25586ZM8 16.25C7.58579 16.25 7.25 16.5858 7.25 17C7.25 17.4142 7.58579 17.75 8 17.75H12C12.4142 17.75 12.75 17.4142 12.75 17C12.75 16.5858 12.4142 16.25 12 16.25H8ZM8 11.25C7.58579 11.25 7.25 11.5858 7.25 12C7.25 12.4142 7.58579 12.75 8 12.75H16C16.4142 12.75 16.75 12.4142 16.75 12C16.75 11.5858 16.4142 11.25 16 11.25H8Z" fill="black"/>
<path d="M15.75 1.82812C15.9049 1.94842 16.0479 2.08586 16.1758 2.23926L20.1123 6.96387C20.1884 7.05513 20.2582 7.15064 20.3213 7.25H17C16.3096 7.25 15.75 6.69036 15.75 6V1.82812Z" fill="black"/>
</svg>
