<svg width="24" height="24" viewBox="0 0 24 24" fill="none" xmlns="http://www.w3.org/2000/svg">
<path d="M13.25 1.25586V6C13.25 7.51878 14.4812 8.75 16 8.75H19.75V17H16C14.8954 17 14 17.8954 14 19C14 20.1046 14.8954 21 16 21H18.6826C17.8116 22.0679 16.4855 22.75 15 22.75H7C4.37665 22.75 2.25 20.6234 2.25 18V6C2.25 3.37665 4.37665 1.25 7 1.25H13.0635C13.1259 1.25001 13.1881 1.25165 13.25 1.25586Z" fill="black"/>
<path d="M22 18.25C22.4142 18.25 22.75 18.5858 22.75 19C22.75 19.4142 22.4142 19.75 22 19.75H16C15.5858 19.75 15.25 19.4142 15.25 19C15.25 18.5858 15.5858 18.25 16 18.25H22Z" fill="black"/>
<path d="M14.75 1.82812C14.9049 1.94842 15.0479 2.08586 15.1758 2.23926L19.1123 6.96387C19.1884 7.05513 19.2582 7.15064 19.3213 7.25H16C15.3096 7.25 14.75 6.69036 14.75 6V1.82812Z" fill="black"/>
</svg>
