<svg width="24" height="24" viewBox="0 0 24 24" fill="none" xmlns="http://www.w3.org/2000/svg">
<path fill-rule="evenodd" clip-rule="evenodd" d="M22 12C22 17.5228 17.5228 22 12 22C6.47715 22 2 17.5228 2 12C2 6.47715 6.47715 2 12 2C17.5228 2 22 6.47715 22 12ZM15.5781 10.5859C15.5781 10.1717 15.2423 9.83594 14.8281 9.83594C14.414 9.83608 14.0781 10.1718 14.0781 10.5859V13.0176L9.70215 8.6416C9.40926 8.34871 8.93449 8.34871 8.6416 8.6416C8.34873 8.9345 8.34871 9.40926 8.6416 9.70215L13.0176 14.0781H10.5859C10.1718 14.0781 9.83606 14.414 9.83594 14.8281C9.83594 15.2423 10.1717 15.5781 10.5859 15.5781H13.8281C14.7945 15.5781 15.5781 14.7945 15.5781 13.8281V10.5859Z" fill="black"/>
</svg>
