<svg width="24" height="24" viewBox="0 0 24 24" fill="none" xmlns="http://www.w3.org/2000/svg">
<path fill-rule="evenodd" clip-rule="evenodd" d="M2 12C2 17.5228 6.47715 22 12 22C17.5228 22 22 17.5228 22 12C22 6.47715 17.5228 2 12 2C6.47715 2 2 6.47715 2 12ZM8.42188 10.5859C8.42188 10.1717 8.75766 9.83594 9.17188 9.83594C9.58597 9.83608 9.92188 10.1718 9.92188 10.5859V13.0176L14.2979 8.6416C14.5907 8.34871 15.0655 8.34871 15.3584 8.6416C15.6513 8.9345 15.6513 9.40926 15.3584 9.70215L10.9824 14.0781H13.4141C13.8282 14.0781 14.1639 14.414 14.1641 14.8281C14.1641 15.2423 13.8283 15.5781 13.4141 15.5781H10.1719C9.20546 15.5781 8.42193 14.7945 8.42188 13.8281V10.5859Z" fill="black"/>
</svg>
