<svg width="24" height="24" viewBox="0 0 24 24" fill="none" xmlns="http://www.w3.org/2000/svg">
<path d="M20.5153 19.1938C20.9291 19.194 21.2643 19.5305 21.2643 19.9448C21.2641 20.3588 20.929 20.6945 20.5153 20.6948H14.3932C13.9793 20.6948 13.6434 20.359 13.6432 19.9448C13.6432 19.5304 13.9791 19.1938 14.3932 19.1938H20.5153Z" fill="black"/>
<path d="M16.6744 12.4164L10.1481 19.1118C9.5837 19.6908 8.80986 20.018 8.0016 20.018L5.24965 20.017C4.39681 20.017 3.71573 19.3063 3.7516 18.4535L3.86976 15.645C3.90136 14.8937 4.21369 14.1817 4.74476 13.6498L11.3209 7.06292L16.6744 12.4164Z" fill="black"/>
<path d="M14.0446 4.33538C14.825 3.55402 16.0908 3.55345 16.8717 4.33441L19.3639 6.8266C20.1379 7.60101 20.1458 8.85495 19.3815 9.6391L17.7213 11.3422L12.3815 6.0014L14.0446 4.33538Z" fill="black"/>
</svg>
