<svg width="24" height="24" viewBox="0 0 24 24" fill="none" xmlns="http://www.w3.org/2000/svg">
<path d="M15.0762 3.55811C14.6621 3.55824 14.3263 3.89393 14.3263 4.30803C14.3263 4.72215 14.6621 5.05781 15.0762 5.05795L17.8811 5.05795L13.0073 9.93173C12.7147 10.2246 12.7145 10.6996 13.0073 10.9924C13.3001 11.2852 13.7751 11.2851 14.068 10.9924L18.9418 6.11861V8.92355C18.9418 9.33769 19.2776 9.67341 19.6917 9.67347C20.1059 9.67347 20.4416 9.33773 20.4416 8.92355V5.30792C20.4415 4.34151 19.6582 3.55813 18.6918 3.55811L15.0762 3.55811Z" fill="black"/>
<path d="M4.30729 14.327C3.89324 14.327 3.55758 14.6629 3.55737 15.0769L3.55737 18.6925C3.55739 19.659 4.34078 20.4423 5.30719 20.4423H8.92282C9.337 20.4423 9.67274 20.1066 9.67274 19.6924C9.67261 19.2784 9.33692 18.9426 8.92282 18.9425H6.11787L10.991 14.0694C11.2839 13.7765 11.2839 13.3016 10.991 13.0088C10.6981 12.7162 10.2231 12.716 9.93031 13.0088L5.05721 17.8818L5.05721 15.0769C5.05701 14.6629 4.72137 14.327 4.30729 14.327Z" fill="black"/>
</svg>
