<svg width="24" height="24" viewBox="0 0 24 24" fill="none" xmlns="http://www.w3.org/2000/svg">
<path d="M12.0004 9.75C12.6801 9.75012 13.2881 10.0529 13.7006 10.5293C13.0158 10.6681 12.5004 11.2742 12.5004 12C12.5004 12.7257 13.0159 13.3308 13.7006 13.4697C13.2881 13.9465 12.6803 14.2499 12.0004 14.25C10.7578 14.25 9.75043 13.2426 9.75043 12C9.75043 10.7574 10.7578 9.75 12.0004 9.75Z" fill="black"/>
<path fill-rule="evenodd" clip-rule="evenodd" d="M12.0004 5.25C16.0814 5.2502 19.6326 7.51684 21.4584 10.8555C21.8483 11.5686 21.8483 12.4314 21.4584 13.1445C19.6326 16.4831 16.0814 18.7498 12.0004 18.75C7.91952 18.7499 4.36936 16.483 2.5434 13.1445C2.15334 12.4313 2.15333 11.5687 2.5434 10.8555C4.36937 7.51702 7.9195 5.25004 12.0004 5.25ZM12.0004 8.25C9.92937 8.25 8.25043 9.92893 8.25043 12C8.25043 14.0711 9.92937 15.75 12.0004 15.75C14.0713 15.7498 15.7504 14.0709 15.7504 12C15.7504 9.92907 14.0713 8.25022 12.0004 8.25Z" fill="black"/>
</svg>
