<svg width="24" height="24" viewBox="0 0 24 24" fill="none" xmlns="http://www.w3.org/2000/svg">
<path d="M19 14.25C20.5188 14.25 21.75 15.4812 21.75 17C21.75 18.5188 20.5188 19.75 19 19.75C17.4812 19.75 16.25 18.5188 16.25 17C16.25 15.4812 17.4812 14.25 19 14.25Z" fill="black"/>
<path d="M13 16.25C13.4142 16.25 13.75 16.5858 13.75 17C13.75 17.4142 13.4142 17.75 13 17.75H3C2.58579 17.75 2.25 17.4142 2.25 17C2.25 16.5858 2.58579 16.25 3 16.25H13Z" fill="black"/>
<path d="M5 4.25C6.51878 4.25 7.75 5.48122 7.75 7C7.75 8.51878 6.51878 9.75 5 9.75C3.48122 9.75 2.25 8.51878 2.25 7C2.25 5.48122 3.48122 4.25 5 4.25Z" fill="black"/>
<path d="M21 6.25C21.4142 6.25 21.75 6.58579 21.75 7C21.75 7.41421 21.4142 7.75 21 7.75H11C10.5858 7.75 10.25 7.41421 10.25 7C10.25 6.58579 10.5858 6.25 11 6.25H21Z" fill="black"/>
</svg>
