<svg width="24" height="24" viewBox="0 0 24 24" fill="none" xmlns="http://www.w3.org/2000/svg">
<path d="M20 1.25C21.5188 1.25 22.75 2.48122 22.75 4V4.81738C22.75 5.76723 22.3893 6.68159 21.7412 7.37598L16.0859 13.4355C15.8701 13.6669 15.7501 13.9716 15.75 14.2881V18.3818C15.75 19.0447 15.3751 19.6508 14.7822 19.9473L10.7822 21.9473C9.61872 22.5287 8.25 21.6826 8.25 20.3818V14.2881C8.24994 13.9716 8.12993 13.6669 7.91406 13.4355L2.25879 7.37598C1.61069 6.68159 1.25 5.76723 1.25 4.81738V4C1.25 2.48122 2.48122 1.25 4 1.25H20Z" fill="black"/>
</svg>
