<svg width="24" height="24" viewBox="0 0 24 24" fill="none" xmlns="http://www.w3.org/2000/svg">
<path d="M13.3301 2.38337C13.8606 2.15768 14.4077 2.53404 14.4912 3.0406L14.502 3.15095L14.5244 3.50544C14.6957 5.24248 15.7428 6.40146 16.9961 7.88142C18.3089 9.43174 19.7499 11.2563 19.75 14.2496C19.75 18.4172 16.2543 21.7496 12 21.7496C7.74573 21.7496 4.25001 18.4172 4.25 14.2496C4.2501 11.5354 5.74764 9.09977 7.96973 7.78278C8.53098 7.45035 9.14994 7.83944 9.24121 8.38044L9.25195 8.49079L9.27148 8.77888C9.31162 9.16703 9.40607 9.4807 9.52344 9.73396C9.57195 9.06848 9.67231 8.26713 9.87793 7.43122C10.3115 5.66894 11.2365 3.62405 13.2168 2.44099L13.3301 2.38337Z" fill="black"/>
</svg>
