<svg width="24" height="24" viewBox="0 0 24 24" fill="none" xmlns="http://www.w3.org/2000/svg">
<path d="M10.5 1.25C11.6581 1.25 12.6109 2.12506 12.7354 3.25H18.0361C19.4664 3.25 20.2924 4.8726 19.4512 6.0293L17.4619 8.76465C17.1431 9.20296 17.1431 9.79704 17.4619 10.2354L19.4512 12.9707C20.2924 14.1274 19.4664 15.75 18.0361 15.75H12C11.0335 15.75 10.25 14.9665 10.25 14V13.75H4.75V22C4.75 22.4142 4.41421 22.75 4 22.75C3.58579 22.75 3.25 22.4142 3.25 22V3.5C3.25 2.25736 4.25736 1.25 5.5 1.25H10.5Z" fill="black"/>
</svg>
