<svg width="24" height="24" viewBox="0 0 24 24" fill="none" xmlns="http://www.w3.org/2000/svg">
<path fill-rule="evenodd" clip-rule="evenodd" d="M8.95605 3.75C9.8391 3.75 10.3852 4.22286 11 5.01465V5.01074C11.045 5.0687 11.0898 5.12909 11.1357 5.19043C11.1615 5.22483 11.1878 5.25948 11.2139 5.29492C11.304 5.41725 11.3964 5.5456 11.4922 5.67969C12.1961 6.66517 13.3329 7.25 14.5439 7.25H17C17.211 7.25 17.4184 7.26524 17.6211 7.29492C17.6453 7.29846 17.6693 7.30269 17.6934 7.30664C17.8889 7.33873 18.08 7.3836 18.2656 7.44141C18.4528 7.49972 18.6345 7.5708 18.8096 7.65332C18.9885 7.73763 19.16 7.8349 19.3242 7.94238C19.5719 8.10456 19.8026 8.29112 20.0107 8.5C20.777 9.26871 21.25 10.3289 21.25 11.5V16C21.25 18.3472 19.3472 20.25 17 20.25H7C4.65279 20.25 2.75 18.3472 2.75 16V8C2.75 5.65279 4.65279 3.75 7 3.75H8.95605ZM12 15.75C11.5858 15.75 11.25 16.0858 11.25 16.5C11.25 16.9142 11.5858 17.25 12 17.25H18C18.4142 17.25 18.75 16.9142 18.75 16.5C18.75 16.0858 18.4142 15.75 18 15.75H12Z" fill="black"/>
<path d="M16.5 4C18.5297 4 20.2458 5.34402 20.8066 7.19043C19.7926 6.29419 18.4597 5.75 17 5.75H14.5439C13.8173 5.75 13.1352 5.39891 12.7129 4.80762L12.6455 4.71387C12.4833 4.48626 12.3101 4.24229 12.1182 4H16.5Z" fill="black"/>
</svg>
