<svg width="24" height="24" viewBox="0 0 24 24" fill="none" xmlns="http://www.w3.org/2000/svg">
<path fill-rule="evenodd" clip-rule="evenodd" d="M16.4277 4.27909C19.8127 3.9406 22.75 6.59895 22.75 10.0008V15.9998C22.7496 20.3437 17.0727 21.9904 14.748 18.3211C13.6642 16.6098 11.1881 16.5524 10.0264 18.2117L9.74219 18.618C7.12507 22.3562 1.25054 20.5044 1.25 15.9412V10.0008C1.25 6.59895 4.18732 3.9406 7.57227 4.27909L11.4775 4.66972C11.8249 4.70445 12.1751 4.70445 12.5225 4.66972L16.4277 4.27909ZM8 8.72538C7.58579 8.72538 7.25 9.06117 7.25 9.47538V10.7254H6C5.58579 10.7254 5.25 11.0612 5.25 11.4754C5.25022 11.8894 5.58592 12.2254 6 12.2254H7.25V13.4754C7.25022 13.8894 7.58592 14.2254 8 14.2254C8.41408 14.2254 8.74978 13.8894 8.75 13.4754V12.2254H10C10.4141 12.2254 10.7498 11.8894 10.75 11.4754C10.75 11.0612 10.4142 10.7254 10 10.7254H8.75V9.47538C8.75 9.06117 8.41421 8.72538 8 8.72538ZM16 11.9754C15.4477 11.9754 15 12.4231 15 12.9754C15.0002 13.5275 15.4479 13.9754 16 13.9754C16.5521 13.9754 16.9998 13.5275 17 12.9754C17 12.4231 16.5523 11.9754 16 11.9754ZM18 8.97538C17.4477 8.97538 17 9.4231 17 9.97538C17.0002 10.5275 17.4479 10.9754 18 10.9754C18.5521 10.9754 18.9998 10.5275 19 9.97538C19 9.4231 18.5523 8.97538 18 8.97538Z" fill="black"/>
</svg>
