<svg width="24" height="24" viewBox="0 0 24 24" fill="none" xmlns="http://www.w3.org/2000/svg">
<path d="M11.2002 22H8C5.79086 22 4 20.2091 4 18V12.5H11.2002V22Z" fill="black"/>
<path d="M20 18C20 20.2091 18.2091 22 16 22H12.7002V12.5H20V18Z" fill="black"/>
<path fill-rule="evenodd" clip-rule="evenodd" d="M9.5 1.25C10.5054 1.25 11.4038 1.70677 12 2.42383C12.5962 1.70677 13.4946 1.25 14.5 1.25H15C16.5188 1.25 17.75 2.48122 17.75 4C17.75 4.78923 17.4153 5.49849 16.8828 6H19.5C20.3284 6 21 6.67157 21 7.5V9.5C21 10.3284 20.3284 11 19.5 11H4.5C3.67157 11 3 10.3284 3 9.5V7.5C3 6.67157 3.67157 6 4.5 6H7.11719C6.58466 5.49849 6.25 4.78923 6.25 4C6.25 2.48122 7.48122 1.25 9 1.25H9.5ZM9 2.75C8.30964 2.75 7.75 3.30964 7.75 4C7.75 4.69036 8.30964 5.25 9 5.25H11.25V4.5C11.25 3.5335 10.4665 2.75 9.5 2.75H9ZM14.5 2.75C13.5335 2.75 12.75 3.5335 12.75 4.5V5.25H15C15.6904 5.25 16.25 4.69036 16.25 4C16.25 3.30964 15.6904 2.75 15 2.75H14.5Z" fill="black"/>
</svg>
