<svg width="24" height="24" viewBox="0 0 24 24" fill="none" xmlns="http://www.w3.org/2000/svg">
<path d="M9.90905 4.3187C10.9681 4.18568 11.7498 5.06315 11.7499 6.00034V11.5003C11.7499 11.9145 12.0857 12.2503 12.4999 12.2503H17.9999C18.9371 12.2503 19.8145 13.0321 19.6815 14.0912C19.5126 15.4352 19.0333 16.7271 18.2753 17.8617C17.3138 19.3005 15.9473 20.4221 14.3485 21.0843C12.7497 21.7466 10.9901 21.92 9.29283 21.5824C7.59554 21.2447 6.03605 20.4115 4.81237 19.1878C3.58871 17.9641 2.75545 16.4047 2.41783 14.7074C2.08025 13.0101 2.25363 11.2505 2.91588 9.65171C3.57815 8.05295 4.69969 6.68638 6.13854 5.72495C7.27308 4.96687 8.56506 4.4876 9.90905 4.3187Z" fill="black"/>
<path d="M15.1034 2.32944C15.7416 2.42125 16.3673 2.59234 16.9657 2.84019C17.906 3.22966 18.7607 3.80022 19.4803 4.51987C20.2 5.23951 20.7706 6.09428 21.16 7.03452C21.4078 7.63282 21.579 8.2587 21.6708 8.89683C21.8247 9.96821 20.932 10.7503 19.9999 10.7503H14.2001C13.6755 10.7503 13.25 10.3247 13.2499 9.80015V4.00034C13.2499 3.06813 14.0319 2.17537 15.1034 2.32944Z" fill="black"/>
</svg>
