<svg width="24" height="24" viewBox="0 0 24 24" fill="none" xmlns="http://www.w3.org/2000/svg">
<path fill-rule="evenodd" clip-rule="evenodd" d="M18.5268 3.41788C18.8213 3.17783 19.2552 3.19533 19.5297 3.46964C19.8043 3.74419 19.8216 4.17897 19.5815 4.47354L19.5297 4.53018L4.53071 19.5302C4.2379 19.823 3.76307 19.8228 3.47016 19.5302C3.17727 19.2373 3.17727 18.7625 3.47016 18.4696L5.46332 16.4755C4.15672 15.5359 3.0691 14.3127 2.2934 12.8944C1.90334 12.1812 1.90333 11.3186 2.2934 10.6054C4.11937 7.26696 7.66953 4.99995 11.7504 4.99991C13.2778 5 14.7303 5.3189 16.0463 5.89151L18.4692 3.46964L18.5268 3.41788ZM11.7504 7.99991C9.67939 7.99991 8.00045 9.67886 8.00043 11.7499C8.00043 12.3835 8.15843 12.9797 8.43598 13.5028L9.58442 12.3544C9.53077 12.1619 9.50043 11.9595 9.50043 11.7499C9.50045 10.5073 10.5078 9.49991 11.7504 9.49991C11.9598 9.49996 12.1619 9.53005 12.3539 9.5839L13.5034 8.43546C12.9803 8.15791 12.3839 7.99999 11.7504 7.99991Z" fill="black"/>
<path d="M18.602 7.45792C19.6587 8.32901 20.5473 9.39648 21.2084 10.6054C21.5983 11.3185 21.5982 12.1814 21.2084 12.8944C19.3826 16.233 15.8313 18.4997 11.7504 18.4999C10.4953 18.4999 9.29036 18.2837 8.17036 17.8896L10.7084 15.3515C11.0393 15.447 11.3889 15.4999 11.7504 15.4999C13.8213 15.4997 15.5004 13.8208 15.5004 11.7499C15.5004 11.3882 15.4476 11.0388 15.352 10.7079L18.602 7.45792Z" fill="black"/>
</svg>
