<svg width="24" height="24" viewBox="0 0 24 24" fill="none" xmlns="http://www.w3.org/2000/svg">
<path d="M9.05664 2.86739C10.7823 1.50514 13.2177 1.50514 14.9434 2.86739L20.4434 7.20918C21.5843 8.10991 22.2499 9.4841 22.25 10.9377V17.4992C22.25 20.1226 20.1234 22.2492 17.5 22.2492H16C15.0335 22.2492 14.25 21.4657 14.25 20.4992V17.4992C14.2498 16.809 13.6902 16.2492 13 16.2492H11C10.3098 16.2492 9.75017 16.809 9.75 17.4992V20.4992C9.75 21.4657 8.9665 22.2492 8 22.2492H6.5C3.87665 22.2492 1.75 20.1226 1.75 17.4992V10.9377C1.7501 9.4841 2.41572 8.10991 3.55664 7.20918L9.05664 2.86739Z" fill="black"/>
</svg>
