<svg width="24" height="24" viewBox="0 0 24 24" fill="none" xmlns="http://www.w3.org/2000/svg">
<path fill-rule="evenodd" clip-rule="evenodd" d="M17 1.25C20.1756 1.25 22.75 3.82436 22.75 7V17C22.75 20.1756 20.1756 22.75 17 22.75H7C3.82436 22.75 1.25 20.1756 1.25 17V7C1.25 3.82436 3.82436 1.25 7 1.25H17ZM17.2627 12.0527C16.5476 11.4568 15.4962 11.504 14.8379 12.1621L9.84863 17.1514C9.38 17.62 8.62 17.62 8.15137 17.1514L7.07812 16.0781C6.45593 15.456 5.47477 15.3753 4.75879 15.8867L2.91895 17.2012C2.86192 17.2419 2.81015 17.2883 2.76367 17.3389C2.93635 19.5276 4.76686 21.25 7 21.25H17C19.3472 21.25 21.25 19.3472 21.25 17V15.374L17.2627 12.0527ZM8 6C6.89543 6 6 6.89543 6 8C6 9.10457 6.89543 10 8 10C9.10457 10 10 9.10457 10 8C10 6.89543 9.10457 6 8 6Z" fill="black"/>
</svg>
