<svg width="24" height="24" viewBox="0 0 24 24" fill="none" xmlns="http://www.w3.org/2000/svg">
<path d="M21.0246 15.3374C22.1016 16.2774 21.9791 18.0806 20.6565 18.8238L14.6203 22.2154C12.9922 23.1301 11.0082 23.1301 9.3801 22.2154L3.34396 18.8238C2.02142 18.0807 1.89818 16.2775 2.97482 15.3374L8.64572 18.523C10.7301 19.6939 13.2704 19.694 15.3547 18.523L21.0246 15.3374Z" fill="black"/>
<path d="M21.1877 10.4956C22.0852 11.4676 21.9082 13.1205 20.6565 13.8238L14.6203 17.2154C12.9922 18.1301 11.0082 18.1301 9.3801 17.2154L3.34396 13.8238C2.09229 13.1205 1.91446 11.4676 2.81174 10.4956L8.64572 13.773C10.7301 14.944 13.2703 14.944 15.3547 13.773L21.1877 10.4956Z" fill="black"/>
<path d="M9.3801 1.93606C11.0082 1.02131 12.9922 1.02131 14.6203 1.93606L20.6565 5.32766C22.1145 6.14686 22.1145 8.25456 20.6565 9.07376L14.6203 12.4654C12.9922 13.3801 11.0082 13.3801 9.3801 12.4654L3.34396 9.07376C1.88588 8.25456 1.88588 6.14686 3.34396 5.32766L9.3801 1.93606Z" fill="black"/>
</svg>
