<svg width="24" height="24" viewBox="0 0 24 24" fill="none" xmlns="http://www.w3.org/2000/svg">
<path d="M7.38839 9.6001C9.04798 7.9409 11.7385 7.94099 13.3982 9.6001C13.691 9.89294 13.6909 10.3677 13.3982 10.6606C13.1053 10.9535 12.6305 10.9535 12.3376 10.6606C11.2637 9.58733 9.52274 9.58723 8.44894 10.6606L4.91378 14.1968C3.8399 15.2707 3.84002 17.0115 4.91378 18.0854C5.98774 19.1592 7.72857 19.1593 8.80245 18.0854L10.57 16.3179C10.8628 16.0252 11.3377 16.0253 11.6306 16.3179C11.9234 16.6107 11.9233 17.0855 11.6306 17.3784L9.863 19.146C8.20327 20.8057 5.51198 20.8057 3.85226 19.146C2.19316 17.4864 2.19309 14.7958 3.85226 13.1362L7.38839 9.6001Z" fill="black"/>
<path d="M13.0446 3.94385C14.7043 2.28433 17.3957 2.28435 19.0554 3.94385C20.715 5.60353 20.715 8.29485 19.0554 9.95459L15.5202 13.4897C13.8605 15.1495 11.1692 15.1495 9.50948 13.4897C9.2168 13.1969 9.21674 12.722 9.50948 12.4292C9.80233 12.1365 10.2772 12.1365 10.57 12.4292C11.644 13.5031 13.3857 13.5031 14.4597 12.4292L17.9948 8.89307C19.0684 7.8191 19.0686 6.0782 17.9948 5.00439C16.921 3.93077 15.1801 3.93092 14.1062 5.00439L12.3376 6.77197C12.0447 7.06481 11.5699 7.06485 11.2771 6.77197C10.9846 6.47907 10.9844 6.00419 11.2771 5.71143L13.0446 3.94385Z" fill="black"/>
</svg>
