<svg width="24" height="24" viewBox="0 0 24 24" fill="none" xmlns="http://www.w3.org/2000/svg">
<path d="M5.98489 8.95555C6.27778 8.66266 6.75254 8.66266 7.04543 8.95555C7.33808 9.24847 7.33824 9.72329 7.04543 10.0161L4.92434 12.1372C3.26461 13.7969 3.26461 16.4882 4.92434 18.1479C6.584 19.8072 9.27447 19.8072 10.9341 18.1479L13.0552 16.0259C13.3481 15.733 13.8238 15.733 14.1167 16.0259C14.4096 16.3188 14.4096 16.7945 14.1167 17.0874L11.9947 19.2085C9.74911 21.4537 6.10823 21.4539 3.86282 19.2085C1.61753 16.9631 1.61764 13.3221 3.86282 11.0766L5.98489 8.95555Z" fill="black"/>
<path d="M13.0552 8.95555C13.3481 8.66266 13.8238 8.66266 14.1167 8.95555C14.409 9.24847 14.4093 9.72341 14.1167 10.0161L9.87356 14.2583C9.58073 14.5509 9.10584 14.5508 8.81301 14.2583C8.52033 13.9655 8.5204 13.4906 8.81301 13.1977L13.0552 8.95555Z" fill="black"/>
<path d="M10.9341 4.00536C13.1796 1.75989 16.8204 1.75998 19.0659 4.00536C21.3115 6.25087 21.3115 9.89168 19.0659 12.1372L16.9448 14.2583C16.652 14.5512 16.1772 14.5512 15.8843 14.2583C15.5914 13.9654 15.5914 13.4906 15.8843 13.1977L18.0054 11.0766C19.6651 9.41692 19.6651 6.72563 18.0054 5.06591C16.3457 3.40631 13.6543 3.40622 11.9947 5.06591L9.87356 7.187C9.58066 7.47989 9.1059 7.47989 8.81301 7.187C8.52036 6.89409 8.5202 6.41927 8.81301 6.12645L10.9341 4.00536Z" fill="black"/>
</svg>
