<svg width="24" height="24" viewBox="0 0 24 24" fill="none" xmlns="http://www.w3.org/2000/svg">
<path fill-rule="evenodd" clip-rule="evenodd" d="M12 2.25391C12.5387 2.25391 13.0771 2.34185 13.5908 2.52441C14.5245 2.85629 15.331 3.47206 15.8975 4.28516C16.1341 4.62501 16.0507 5.09237 15.7109 5.3291C15.3712 5.56579 14.9038 5.48219 14.667 5.14258C14.2794 4.58619 13.7268 4.16456 13.0879 3.9375C12.4529 3.71194 11.7635 3.68871 11.1152 3.87207C11.1074 3.87428 11.0996 3.87664 11.0918 3.87891C10.6788 3.99909 10.2966 4.20029 9.96484 4.4668C9.93696 4.48923 9.91091 4.51378 9.88379 4.53711C9.83433 4.57961 9.7852 4.62247 9.73828 4.66797C9.71696 4.68865 9.69555 4.70921 9.6748 4.73047C9.62322 4.78332 9.57345 4.83805 9.52539 4.89453C9.04229 5.46178 8.75 6.19653 8.75 7V8.25H15.75C18.3734 8.25 20.5 10.3766 20.5 13V17C20.5 19.6234 18.3734 21.75 15.75 21.75H7.75C5.12665 21.75 3 19.6234 3 17V13C3 10.5455 4.86164 8.52521 7.25 8.27539V7C7.25 5.76063 7.72548 4.63288 8.50293 3.78711C8.52585 3.76216 8.54982 3.73829 8.57324 3.71387C8.62808 3.6567 8.6836 3.60027 8.74121 3.5459C8.76031 3.52788 8.77847 3.50889 8.79785 3.49121C8.87389 3.42178 8.95276 3.35545 9.0332 3.29102C9.05167 3.27625 9.07019 3.26156 9.08887 3.24707C9.26923 3.10696 9.4604 2.98052 9.66016 2.86719C9.66599 2.86388 9.67189 2.8607 9.67773 2.85742C9.781 2.79941 9.88628 2.74467 9.99414 2.69434C9.99731 2.69286 10.0007 2.6919 10.0039 2.69043C10.2227 2.58894 10.4503 2.50416 10.6855 2.43652L10.6895 2.43457H10.6924C10.917 2.37037 11.1479 2.32166 11.3848 2.29102C11.403 2.28863 11.4212 2.28635 11.4395 2.28418C11.5497 2.27121 11.661 2.26114 11.7734 2.25586C11.7835 2.25538 11.7936 2.2553 11.8037 2.25488C11.8688 2.25224 11.9342 2.25 12 2.25V2.25391ZM11.75 13.25C11.3358 13.25 11 13.5858 11 14V16C11 16.4142 11.3358 16.75 11.75 16.75C12.1642 16.75 12.5 16.4142 12.5 16V14C12.5 13.5858 12.1642 13.25 11.75 13.25Z" fill="black"/>
</svg>
