<svg width="24" height="24" viewBox="0 0 24 24" fill="none" xmlns="http://www.w3.org/2000/svg">
<path fill-rule="evenodd" clip-rule="evenodd" d="M12 2.25C14.6234 2.25 16.75 4.37665 16.75 7V8.30859C16.8196 8.31963 16.8885 8.33266 16.957 8.34668C19.1216 8.78952 20.75 10.7045 20.75 13V17C20.75 19.6234 18.6234 21.75 16 21.75H8C5.37665 21.75 3.25 19.6234 3.25 17V13C3.25 10.7045 4.87837 8.78952 7.04297 8.34668C7.11148 8.33266 7.18045 8.31963 7.25 8.30859V7C7.25 4.37665 9.37665 2.25 12 2.25ZM14.6514 12.4697C14.3585 12.1768 13.8837 12.1768 13.5908 12.4697L12.1211 13.9395L10.6514 12.4697C10.3585 12.1771 9.88361 12.1769 9.59082 12.4697C9.29803 12.7625 9.29822 13.2374 9.59082 13.5303L11.0605 15L9.59082 16.4697C9.29822 16.7626 9.29803 17.2375 9.59082 17.5303C9.88361 17.8231 10.3585 17.8229 10.6514 17.5303L12.1211 16.0605L13.5908 17.5303C13.8837 17.8232 14.3585 17.8232 14.6514 17.5303C14.9443 17.2374 14.9443 16.7626 14.6514 16.4697L13.1816 15L14.6514 13.5303C14.9443 13.2374 14.9443 12.7626 14.6514 12.4697ZM12 3.75C10.2051 3.75 8.75 5.20507 8.75 7V8.25H15.25V7C15.25 5.20507 13.7949 3.75 12 3.75Z" fill="black"/>
</svg>
