<svg width="24" height="24" viewBox="0 0 24 24" fill="none" xmlns="http://www.w3.org/2000/svg">
<path fill-rule="evenodd" clip-rule="evenodd" d="M12 2.25C14.6234 2.25 16.75 4.37665 16.75 7V8.30859C19.017 8.66816 20.75 10.6318 20.75 13V17C20.75 19.6234 18.6234 21.75 16 21.75H8C5.37665 21.75 3.25 19.6234 3.25 17V13C3.25 10.6318 4.98299 8.66816 7.25 8.30859V7C7.25 4.37665 9.37665 2.25 12 2.25ZM15.0303 12.9697C14.7375 12.6769 14.2626 12.6772 13.9697 12.9697L11.5 15.4395L10.5303 14.4697C10.2374 14.177 9.76257 14.1769 9.46973 14.4697C9.17689 14.7626 9.17699 15.2374 9.46973 15.5303L10.9697 17.0303C11.2626 17.3232 11.7374 17.3232 12.0303 17.0303L15.0303 14.0303C15.3228 13.7374 15.3231 13.2625 15.0303 12.9697ZM12 3.75C10.2051 3.75 8.75 5.20507 8.75 7V8.25H15.25V7C15.25 5.20507 13.7949 3.75 12 3.75Z" fill="black"/>
</svg>
