<svg width="24" height="24" viewBox="0 0 24 24" fill="none" xmlns="http://www.w3.org/2000/svg">
<path d="M11.75 15.3357C11.7501 15.7498 12.0859 16.0857 12.5 16.0857C12.9141 16.0857 13.2499 15.7498 13.25 15.3357V8.33573H18.5C20.7091 8.33573 22.5 10.1266 22.5 12.3357V17.3357C22.4999 19.5448 20.7091 21.3357 18.5 21.3357H6.5C4.29093 21.3357 2.50011 19.5448 2.5 17.3357V12.3357C2.5 10.1266 4.29086 8.33573 6.5 8.33573H11.75V15.3357Z" fill="black"/>
<path d="M11.2627 2.51249C11.9461 1.82917 13.0539 1.82917 13.7373 2.51249L16.0303 4.80546C16.3231 5.09836 16.3231 5.57314 16.0303 5.866C15.7374 6.15876 15.2626 6.15876 14.9697 5.866L13.25 4.14628V8.33573H11.75V4.14628L10.0303 5.866C9.73741 6.15876 9.26259 6.15876 8.96973 5.866C8.67687 5.57314 8.67694 5.09836 8.96973 4.80546L11.2627 2.51249Z" fill="black"/>
</svg>
