<svg width="24" height="24" viewBox="0 0 24 24" fill="none" xmlns="http://www.w3.org/2000/svg">
<path d="M20 10.75C20.4142 10.75 20.75 11.0858 20.75 11.5C20.75 16.0798 17.2313 19.8353 12.75 20.2158V22C12.75 22.4142 12.4142 22.75 12 22.75C11.5858 22.75 11.25 22.4142 11.25 22V20.2158C6.7687 19.8353 3.25 16.0798 3.25 11.5C3.25 11.0858 3.58579 10.75 4 10.75C4.41421 10.75 4.75 11.0858 4.75 11.5C4.75 15.5041 7.99594 18.75 12 18.75C16.0041 18.75 19.25 15.5041 19.25 11.5C19.25 11.0858 19.5858 10.75 20 10.75Z" fill="black"/>
<path d="M12 1.25C14.6234 1.25 16.75 3.37665 16.75 6V11C16.75 13.6234 14.6234 15.75 12 15.75C9.37665 15.75 7.25 13.6234 7.25 11V6C7.25 3.37665 9.37665 1.25 12 1.25Z" fill="black"/>
</svg>
