<svg width="24" height="24" viewBox="0 0 24 24" fill="none" xmlns="http://www.w3.org/2000/svg">
<path fill-rule="evenodd" clip-rule="evenodd" d="M20.0303 2.2513C20.074 2.25303 20.1167 2.25801 20.1582 2.26692C20.1773 2.27104 20.1953 2.27893 20.2139 2.2845C20.2427 2.29312 20.2715 2.30093 20.2988 2.31282C20.3093 2.31736 20.3189 2.32344 20.3291 2.32844C20.3619 2.34455 20.3939 2.36161 20.4238 2.38215C20.4376 2.39156 20.4488 2.40408 20.4619 2.41438C20.4851 2.43266 20.5095 2.44922 20.5303 2.47005L20.5371 2.47688C20.5518 2.49193 20.5637 2.50941 20.5771 2.52571C20.5931 2.54504 20.6101 2.56343 20.624 2.5843C20.6367 2.60328 20.6453 2.62461 20.6562 2.64485C20.6685 2.66749 20.6824 2.68924 20.6924 2.71321C20.7123 2.76144 20.7285 2.81213 20.7383 2.86555C20.7453 2.90436 20.748 2.94352 20.749 2.98176C20.7492 2.98784 20.75 2.99421 20.75 3.00032V16.0003C20.75 16.0544 20.7423 16.1067 20.7314 16.1575C20.7432 16.2701 20.75 16.3846 20.75 16.5003C20.7498 18.2951 19.2948 19.7503 17.5 19.7503C15.7052 19.7503 14.2502 18.2951 14.25 16.5003C14.25 14.7054 15.7051 13.2503 17.5 13.2503C18.1445 13.2503 18.7447 13.4384 19.25 13.762V7.89778L9.75 9.6263V18.0003L9.74609 18.1673C9.65904 19.8845 8.23883 21.2503 6.5 21.2503C4.70517 21.2503 3.25015 19.7951 3.25 18.0003C3.25 16.2054 4.70507 14.7503 6.5 14.7503C7.14453 14.7503 7.74475 14.9384 8.25 15.262V4.98274C8.2501 4.97817 8.25079 4.97363 8.25098 4.96907C8.25268 4.92709 8.25729 4.88595 8.26562 4.84602C8.27134 4.81886 8.28142 4.79307 8.29004 4.76692C8.32709 4.654 8.38763 4.55219 8.46973 4.47005L8.47656 4.46321C8.49971 4.4406 8.5257 4.42123 8.55176 4.40169C8.56212 4.39391 8.57127 4.38451 8.58203 4.37727C8.60505 4.36181 8.63039 4.35016 8.65527 4.33723C8.67474 4.32709 8.69344 4.3154 8.71387 4.30696C8.75193 4.29129 8.79166 4.27828 8.83301 4.26887C8.84238 4.26674 8.85182 4.26479 8.86133 4.26301L8.86621 4.26204L19.8457 2.26497C19.8489 2.26429 19.8522 2.26365 19.8555 2.26301L19.8662 2.26204C19.8737 2.26068 19.8812 2.25926 19.8887 2.25813C19.9022 2.25611 19.9159 2.25453 19.9297 2.25325C19.9635 2.25003 19.9971 2.24999 20.0303 2.2513ZM9.75 5.6263V8.1009L19.25 6.37337V3.89778L9.75 5.6263Z" fill="black"/>
</svg>
