<svg width="24" height="24" viewBox="0 0 24 24" fill="none" xmlns="http://www.w3.org/2000/svg">
<path d="M20 10.75C20.4142 10.75 20.75 11.0858 20.75 11.5C20.75 16.0798 17.2313 19.8353 12.75 20.2158V22C12.75 22.4142 12.4142 22.75 12 22.75C11.5858 22.75 11.25 22.4142 11.25 22V20.2168C10.4477 20.1487 9.67526 19.9737 8.94824 19.7031C8.56004 19.5586 8.36236 19.1265 8.50684 18.7383C8.65133 18.3501 9.0835 18.1524 9.47168 18.2969C10.2579 18.5895 11.1093 18.75 12 18.75C16.0041 18.75 19.25 15.5041 19.25 11.5C19.25 11.0858 19.5858 10.75 20 10.75Z" fill="black"/>
<path d="M12 1.25C14.6929 1.25 16.75 3.6405 16.75 6.42578V7.18945L19.4697 4.46973L19.5264 4.41797C19.8209 4.17781 20.2557 4.19518 20.5303 4.46973C20.8047 4.74417 20.8219 5.1781 20.582 5.47266L20.5303 5.53027L5.53027 20.5303C5.23739 20.8231 4.76261 20.8231 4.46973 20.5303C4.17685 20.2374 4.17689 19.7626 4.46973 19.4697L6.03809 17.9004C4.32512 16.3038 3.25 14.028 3.25 11.5C3.25 11.0858 3.58579 10.75 4 10.75C4.41421 10.75 4.75 11.0858 4.75 11.5C4.75 13.6132 5.65558 15.5128 7.09961 16.8389L9.04004 14.8984C7.93891 13.9416 7.25007 12.4746 7.25 10.8516V6.42578C7.25 3.6405 9.3071 1.25 12 1.25Z" fill="black"/>
<path d="M15.0049 12.2529C15.1473 11.8641 15.5779 11.6644 15.9668 11.8066C16.3557 11.9489 16.5562 12.3796 16.4141 12.7686C15.9284 14.096 14.9441 15.1732 13.6816 15.6934C13.2987 15.8511 12.86 15.669 12.7021 15.2861C12.5443 14.9032 12.7274 14.4644 13.1104 14.3066C13.9504 13.9604 14.6509 13.2205 15.0049 12.2529Z" fill="black"/>
</svg>
