<svg width="24" height="24" viewBox="0 0 24 24" fill="none" xmlns="http://www.w3.org/2000/svg">
<path d="M12.7838 3.59129C14.2482 2.1272 16.6222 2.12705 18.0865 3.59129C19.5509 5.05569 19.5508 7.43053 18.0865 8.895L9.8541 17.1274C8.9755 18.0058 7.55108 18.0057 6.67245 17.1274C5.79378 16.2487 5.79378 14.8235 6.67245 13.9448L13.4908 7.12644C13.7837 6.83408 14.2586 6.83383 14.5514 7.12644C14.8441 7.41918 14.8438 7.89407 14.5514 8.18699L7.733 15.0054C7.44011 15.2982 7.44011 15.774 7.733 16.0669C8.02584 16.3594 8.50074 16.3594 8.79355 16.0669L17.026 7.83348C17.9043 6.95478 17.9045 5.53041 17.026 4.65184C16.1474 3.77338 14.723 3.77353 13.8443 4.65184L5.71249 12.7837C4.24803 14.2481 4.24803 16.6229 5.71249 18.0874C7.17683 19.5514 9.55083 19.5513 11.0152 18.0874L17.733 11.3696C18.0259 11.0769 18.5007 11.0769 18.7935 11.3696C19.0863 11.6624 19.0862 12.1373 18.7935 12.4302L12.0768 19.1479C10.0266 21.1981 6.70222 21.1979 4.65195 19.1479C2.60169 17.0977 2.60169 13.7734 4.65195 11.7231L12.7838 3.59129Z" fill="black"/>
</svg>
