<svg width="24" height="24" viewBox="0 0 24 24" fill="none" xmlns="http://www.w3.org/2000/svg">
<path fill-rule="evenodd" clip-rule="evenodd" d="M21 2.75C21.4142 2.75 21.75 3.08579 21.75 3.5C21.75 3.91421 21.4142 4.25 21 4.25H19.75V19.4658C19.7498 20.9187 18.0811 21.739 16.9307 20.8516L15.6006 19.8242C15.5169 19.7596 15.4014 19.7553 15.3125 19.8125L13.4873 20.9854C12.5814 21.5677 11.4186 21.5677 10.5127 20.9854L8.6875 19.8125C8.59858 19.7553 8.48312 19.7596 8.39941 19.8242L7.06934 20.8516C5.9189 21.739 4.25017 20.9187 4.25 19.4658V4.25H3C2.58579 4.25 2.25 3.91421 2.25 3.5C2.25 3.08579 2.58579 2.75 3 2.75H21ZM9 12.75C8.58579 12.75 8.25 13.0858 8.25 13.5C8.25 13.9142 8.58579 14.25 9 14.25H12C12.4142 14.25 12.75 13.9142 12.75 13.5C12.75 13.0858 12.4142 12.75 12 12.75H9ZM15 12.75C14.5858 12.75 14.25 13.0858 14.25 13.5C14.25 13.9142 14.5858 14.25 15 14.25H15.5C15.9142 14.25 16.25 13.9142 16.25 13.5C16.25 13.0858 15.9142 12.75 15.5 12.75H15ZM9 8.75C8.58579 8.75 8.25 9.08579 8.25 9.5C8.25 9.91421 8.58579 10.25 9 10.25H12C12.4142 10.25 12.75 9.91421 12.75 9.5C12.75 9.08579 12.4142 8.75 12 8.75H9ZM15 8.75C14.5858 8.75 14.25 9.08579 14.25 9.5C14.25 9.91421 14.5858 10.25 15 10.25H15.5C15.9142 10.25 16.25 9.91421 16.25 9.5C16.25 9.08579 15.9142 8.75 15.5 8.75H15Z" fill="black"/>
</svg>
