<svg width="24" height="24" viewBox="0 0 24 24" fill="none" xmlns="http://www.w3.org/2000/svg">
<path fill-rule="evenodd" clip-rule="evenodd" d="M19.6709 1.63734C21.2846 1.42628 22.6151 2.75612 22.4043 4.36976C22.0958 6.72869 21.2479 10.7362 18.8526 13.319C18.0906 14.1405 17.1691 14.8985 16.2227 15.5729L16.5 17.5114C16.5779 18.0566 16.3943 18.6072 16.0049 18.9967L12.8233 22.1784C11.8037 23.1977 10.0579 22.6161 9.85356 21.1891L9.42875 18.2184L9.43363 18.2174C9.16211 18.0863 8.9088 17.9103 8.68949 17.691L6.34965 15.3512C6.13037 15.1316 5.95436 14.8779 5.82328 14.6061L5.82231 14.6129L2.85258 14.1881C1.42564 13.9836 0.843984 12.2379 1.86332 11.2184L5.04496 8.03577C5.43421 7.64671 5.9845 7.4641 6.52934 7.54163L8.46684 7.818C9.14135 6.87145 9.90109 5.95016 10.7227 5.18812C13.3052 2.79324 17.312 1.94594 19.6709 1.63734ZM16.5352 7.5055C15.7542 6.72506 14.488 6.725 13.7071 7.5055C12.9262 8.28645 12.9264 9.55357 13.7071 10.3346C14.4881 11.1153 15.7542 11.1153 16.5352 10.3346C17.3162 9.55355 17.3162 8.28655 16.5352 7.5055Z" fill="black"/>
<path d="M7.51957 19.7037C7.81233 19.4111 8.28723 19.4113 8.58012 19.7037C8.87297 19.9966 8.87288 20.4714 8.58012 20.7643L7.16606 22.1784C6.87314 22.4709 6.3983 22.4711 6.10551 22.1784C5.81314 21.8855 5.81306 21.4106 6.10551 21.1178L7.51957 19.7037Z" fill="black"/>
<path d="M5.39848 17.5817C5.69116 17.2893 6.16617 17.2896 6.45902 17.5817C6.75188 17.8745 6.75179 18.3503 6.45902 18.6432L3.6309 21.4713C3.33806 21.764 2.86321 21.764 2.57035 21.4713C2.2779 21.1784 2.27774 20.7035 2.57035 20.4108L5.39848 17.5817Z" fill="black"/>
<path d="M3.27738 15.4606C3.57015 15.1681 4.0451 15.1682 4.33793 15.4606C4.63073 15.7534 4.63054 16.2282 4.33793 16.5211L2.92387 17.9352C2.63096 18.228 2.15617 18.228 1.86332 17.9352C1.57093 17.6423 1.57071 17.1674 1.86332 16.8746L3.27738 15.4606Z" fill="black"/>
</svg>
