<svg width="24" height="24" viewBox="0 0 24 24" fill="none" xmlns="http://www.w3.org/2000/svg">
<path fill-rule="evenodd" clip-rule="evenodd" d="M13.574 2.23647C14.1692 1.99013 15.055 1.64734 15.9344 1.9933C16.0555 2.04098 16.1758 2.09082 16.2947 2.14272C17.1603 2.52032 17.5441 3.3887 17.7908 3.98354C17.8349 4.08974 17.8745 4.18994 17.9129 4.2853C17.9989 4.4987 18.0761 4.68979 18.1668 4.88002C18.2935 5.1456 18.4139 5.33225 18.5408 5.45912C18.6677 5.586 18.8543 5.70648 19.1199 5.83315C19.3102 5.92388 19.5012 6.00107 19.7146 6.08705C19.8099 6.12544 19.9103 6.16512 20.0164 6.20912C20.6113 6.45581 21.4796 6.83967 21.8572 7.70522C21.9091 7.82422 21.9589 7.94437 22.0066 8.06557C22.3527 8.94498 22.0098 9.83071 21.7635 10.4259C21.7195 10.5321 21.6778 10.6312 21.6375 10.7257C21.5474 10.9374 21.4657 11.1276 21.3953 11.3263C21.2971 11.6035 21.2499 11.8208 21.2498 12.0001C21.2498 12.1796 21.297 12.3975 21.3953 12.6749C21.4657 12.8735 21.5464 13.063 21.6365 13.2746C21.6768 13.3692 21.7195 13.469 21.7635 13.5753C22.0098 14.1705 22.3524 15.0554 22.0066 15.9347C21.959 16.0558 21.9091 16.1762 21.8572 16.2951C21.4796 17.1606 20.6123 17.5445 20.0174 17.7912C19.9112 17.8352 19.8109 17.8748 19.7156 17.9132C19.5021 17.9992 19.3102 18.0764 19.1199 18.1671C18.8544 18.2938 18.6677 18.4143 18.5408 18.5412C18.414 18.668 18.2935 18.8547 18.1668 19.1203C18.076 19.3106 17.9989 19.5025 17.9129 19.716C17.8745 19.8113 17.8348 19.9116 17.7908 20.0177C17.5441 20.6127 17.1604 21.4809 16.2947 21.8585C16.1758 21.9104 16.0555 21.9603 15.9344 22.008C15.055 22.3539 14.1692 22.0111 13.574 21.7648C13.4677 21.7208 13.3689 21.6781 13.2742 21.6378C13.0625 21.5477 12.8724 21.4671 12.6736 21.3966C12.3962 21.2983 12.1793 21.2501 11.9998 21.2501C11.8203 21.2501 11.6034 21.2983 11.326 21.3966C11.1273 21.467 10.9379 21.5477 10.7264 21.6378C10.6316 21.6782 10.532 21.7207 10.4256 21.7648C9.8304 22.0111 8.94461 22.3539 8.06523 22.008C7.94407 21.9603 7.82384 21.9104 7.70488 21.8585C6.83925 21.4809 6.45548 20.6126 6.20879 20.0177C6.16473 19.9115 6.12514 19.8114 6.08672 19.716C6.00068 19.5024 5.9236 19.3106 5.83281 19.1203C5.70618 18.8548 5.58562 18.668 5.45879 18.5412C5.33193 18.4144 5.14509 18.2947 4.87968 18.1681C4.68945 18.0774 4.49836 18.0002 4.28496 17.9142C4.18964 17.8758 4.08838 17.8352 3.98222 17.7912C3.38732 17.5445 2.51993 17.1605 2.14238 16.2951C2.09052 16.1762 2.04061 16.0558 1.99297 15.9347C1.64718 15.0554 1.98981 14.1705 2.23613 13.5753C2.2802 13.4689 2.32272 13.3693 2.36308 13.2746C2.45316 13.063 2.53392 12.8735 2.60429 12.6749C2.70262 12.3975 2.7498 12.1796 2.7498 12.0001C2.74972 11.8208 2.70253 11.6035 2.60429 11.3263C2.53391 11.1277 2.45318 10.9383 2.36308 10.7267C2.32271 10.6319 2.28022 10.5324 2.23613 10.4259C1.98978 9.83071 1.64694 8.94498 1.99297 8.06557C2.04063 7.94444 2.09049 7.82415 2.14238 7.70522C2.52008 6.83978 3.38835 6.45677 3.9832 6.2101C4.08944 6.16605 4.18957 6.12548 4.28496 6.08705C4.49836 6.00109 4.68944 5.92388 4.87968 5.83315C5.14505 5.70659 5.33192 5.58685 5.45879 5.4601C5.58566 5.33322 5.70613 5.14562 5.83281 4.88002C5.92352 4.68979 6.00074 4.49871 6.08672 4.2853C6.12514 4.18991 6.16473 4.08977 6.20879 3.98354C6.45549 3.38866 6.8393 2.52034 7.70488 2.14272C7.82383 2.09082 7.94407 2.04098 8.06523 1.9933C8.94435 1.64747 9.82944 1.99015 10.4246 2.23647C10.531 2.28052 10.6307 2.32308 10.7254 2.36342C10.9372 2.45361 11.1272 2.53419 11.326 2.60463C11.6034 2.70295 11.8203 2.75014 11.9998 2.75014C12.1793 2.75013 12.3962 2.70295 12.6736 2.60463C12.8724 2.5342 13.0625 2.4536 13.2742 2.36342C13.3688 2.32312 13.4677 2.28046 13.574 2.23647ZM14.7605 13.6417C14.4514 13.3329 13.9504 13.3327 13.6414 13.6417C13.3324 13.9507 13.3326 14.4517 13.6414 14.7609C13.9505 15.07 14.4514 15.07 14.7605 14.7609C15.0697 14.4518 15.0697 13.9509 14.7605 13.6417ZM14.7693 9.23061C14.4766 8.93784 14.0017 8.93808 13.7088 9.23061L9.23027 13.7081C8.93757 14.0009 8.93783 14.4758 9.23027 14.7687C9.52316 15.0616 9.9989 15.0616 10.2918 14.7687L14.7693 10.2912C15.0618 9.99825 15.0621 9.52338 14.7693 9.23061ZM10.3582 9.2394C10.0491 8.93028 9.54817 8.93028 9.23906 9.2394C8.92995 9.54851 8.92995 10.0494 9.23906 10.3585C9.5482 10.6674 10.0492 10.6676 10.3582 10.3585C10.6672 10.0495 10.667 9.54854 10.3582 9.2394Z" fill="black"/>
</svg>
