<svg width="24" height="24" viewBox="0 0 24 24" fill="none" xmlns="http://www.w3.org/2000/svg">
<path fill-rule="evenodd" clip-rule="evenodd" d="M19.2979 2.25C20.9281 2.25026 22.2499 3.57186 22.25 5.20215C22.25 6.57298 21.3143 7.72135 20.0479 8.05371V16.4453C21.3144 16.7776 22.2499 17.927 22.25 19.2979C22.25 20.9282 20.9282 22.2497 19.2979 22.25C17.9269 22.2499 16.7775 21.3146 16.4453 20.0479H8.05469C7.72257 21.3147 6.57323 22.25 5.20215 22.25C3.5717 22.2499 2.25 20.9283 2.25 19.2979C2.25011 17.9269 3.18543 16.7775 4.45215 16.4453V8.05371C3.18548 7.72144 2.25 6.57307 2.25 5.20215C2.25013 3.57178 3.57178 2.25013 5.20215 2.25C6.57316 2.25 7.7225 3.18536 8.05469 4.45215H16.4453C16.7776 3.18549 17.927 2.25011 19.2979 2.25ZM8.05469 5.95215C7.78544 6.97916 6.97913 7.78438 5.95215 8.05371V16.4453C6.97918 16.7146 7.78537 17.5208 8.05469 18.5479H16.4453C16.7147 17.5208 17.5207 16.7145 18.5479 16.4453V8.05371C17.5207 7.78446 16.7147 6.97919 16.4453 5.95215H8.05469Z" fill="black"/>
</svg>
