<svg width="24" height="24" viewBox="0 0 24 24" fill="none" xmlns="http://www.w3.org/2000/svg">
<path d="M3 14.4004C3.41421 14.4004 3.75 14.7362 3.75 15.1504V17C3.75 18.7949 5.20508 20.25 7 20.25H8.84961C9.26382 20.25 9.59961 20.5858 9.59961 21C9.59961 21.4142 9.26382 21.75 8.84961 21.75H7C4.37665 21.75 2.25 19.6234 2.25 17V15.1504C2.25 14.7362 2.58579 14.4004 3 14.4004Z" fill="black"/>
<path d="M21 14.4004C21.4142 14.4004 21.75 14.7362 21.75 15.1504V17C21.75 19.6234 19.6234 21.75 17 21.75H15.1504C14.7362 21.75 14.4004 21.4142 14.4004 21C14.4004 20.5858 14.7362 20.25 15.1504 20.25H17C18.7949 20.25 20.25 18.7949 20.25 17V15.1504C20.25 14.7362 20.5858 14.4004 21 14.4004Z" fill="black"/>
<path d="M18 15C18 16.6569 16.6569 18 15 18H9C7.34315 18 6 16.6569 6 15V13.75H18V15Z" fill="black"/>
<path d="M22 11.25C22.4142 11.25 22.75 11.5858 22.75 12C22.75 12.4142 22.4142 12.75 22 12.75H2C1.58579 12.75 1.25 12.4142 1.25 12C1.25 11.5858 1.58579 11.25 2 11.25H22Z" fill="black"/>
<path d="M15 6C16.6569 6 18 7.34315 18 9V10.25H6V9C6 7.34315 7.34315 6 9 6H15Z" fill="black"/>
<path d="M8.84961 2.25C9.26382 2.25 9.59961 2.58579 9.59961 3C9.59961 3.41421 9.26382 3.75 8.84961 3.75H7C5.20507 3.75 3.75 5.20508 3.75 7V8.84961C3.75 9.26382 3.41421 9.59961 3 9.59961C2.58579 9.59961 2.25 9.26382 2.25 8.84961V7C2.25 4.37665 4.37665 2.25 7 2.25H8.84961Z" fill="black"/>
<path d="M17 2.25C19.6234 2.25 21.75 4.37665 21.75 7V8.84961C21.75 9.26382 21.4142 9.59961 21 9.59961C20.5858 9.59961 20.25 9.26382 20.25 8.84961V7C20.25 5.20507 18.7949 3.75 17 3.75H15.1504C14.7362 3.75 14.4004 3.41421 14.4004 3C14.4004 2.58579 14.7362 2.25 15.1504 2.25H17Z" fill="black"/>
</svg>
