<svg width="24" height="24" viewBox="0 0 24 24" fill="none" xmlns="http://www.w3.org/2000/svg">
<path fill-rule="evenodd" clip-rule="evenodd" d="M11.5146 2.26931C11.8166 2.10164 12.1834 2.10164 12.4854 2.26931L19.4854 6.15798C19.8026 6.33434 19.9999 6.66899 20 7.032V11.6707C19.9998 15.3022 18.031 18.6492 14.8564 20.4129L12.4854 21.7293C12.1835 21.8968 11.8165 21.8968 11.5146 21.7293L9.14355 20.4129C5.96903 18.6492 4.00016 15.3022 4 11.6707V7.032C4.00008 6.66899 4.19736 6.33434 4.51465 6.15798L11.5146 2.26931ZM14.7734 9.4695C14.4805 9.17661 14.0048 9.17661 13.7119 9.4695L12.1211 11.0593L10.5303 9.4695C10.2374 9.17661 9.76262 9.17661 9.46973 9.4695C9.17724 9.76243 9.17697 10.2373 9.46973 10.53L11.0605 12.1209L9.46973 13.7117C9.17707 14.0046 9.17693 14.4794 9.46973 14.7722C9.76256 15.0648 10.2374 15.0648 10.5303 14.7722L12.1211 13.1814L13.7119 14.7722C14.0048 15.0648 14.4806 15.0648 14.7734 14.7722C15.0659 14.4795 15.0658 14.0045 14.7734 13.7117L13.1816 12.1209L14.7734 10.53C15.066 10.2374 15.0656 9.76243 14.7734 9.4695Z" fill="black"/>
</svg>
