<svg width="24" height="24" viewBox="0 0 24 24" fill="none" xmlns="http://www.w3.org/2000/svg">
<path fill-rule="evenodd" clip-rule="evenodd" d="M11.5146 2.26931C11.8166 2.10164 12.1834 2.10164 12.4854 2.26931L19.4854 6.15798C19.8026 6.33434 19.9999 6.66899 20 7.032V11.6707C19.9998 15.3022 18.031 18.6492 14.8564 20.4129L12.4854 21.7293C12.1835 21.8968 11.8165 21.8968 11.5146 21.7293L9.14355 20.4129C5.96903 18.6492 4.00016 15.3022 4 11.6707V7.032C4.00008 6.66899 4.19736 6.33434 4.51465 6.15798L11.5146 2.26931ZM16.0303 9.46852C15.7375 9.17601 15.2625 9.17601 14.9697 9.46852L11.5 12.9383L10.0303 11.4695C9.73738 11.1766 9.26262 11.1766 8.96973 11.4695C8.67727 11.7624 8.67699 12.2373 8.96973 12.53L10.9697 14.53C11.2625 14.8224 11.7375 14.8224 12.0303 14.53L16.0303 10.5291C16.3228 10.2362 16.3228 9.76134 16.0303 9.46852Z" fill="black"/>
</svg>
