<svg width="24" height="24" viewBox="0 0 24 24" fill="none" xmlns="http://www.w3.org/2000/svg">
<path d="M10.3287 2.32112C11.0866 1.06218 12.9125 1.06227 13.6705 2.32112L16.0005 6.19417C16.0633 6.2984 16.1662 6.37263 16.2847 6.40022L20.688 7.41976C22.1199 7.75146 22.6837 9.48854 21.7203 10.5985L18.7574 14.0116C18.678 14.1034 18.6386 14.2236 18.649 14.3446L19.0396 18.8475C19.1666 20.3118 17.6898 21.3847 16.3365 20.8114L12.1753 19.0487C12.0632 19.0013 11.9359 19.0012 11.8238 19.0487L7.66265 20.8114C6.30943 21.3843 4.83256 20.3116 4.95952 18.8475L5.35015 14.3446C5.36052 14.2235 5.32128 14.1034 5.24175 14.0116L2.27886 10.5985C1.31568 9.48866 1.87968 7.75171 3.31108 7.41976L7.7144 6.40022C7.83295 6.37274 7.93575 6.29838 7.99858 6.19417L10.3287 2.32112Z" fill="black"/>
</svg>
