<svg width="24" height="24" viewBox="0 0 24 24" fill="none" xmlns="http://www.w3.org/2000/svg">
<path d="M8.53005 12.4701C8.23714 12.1774 7.76234 12.1773 7.4695 12.4701L5.17653 14.7631C4.49338 15.4464 4.49342 16.5543 5.17653 17.2377L7.4695 19.5306C7.76236 19.8235 8.23714 19.8234 8.53005 19.5306C8.82294 19.2377 8.82294 18.763 8.53005 18.4701L6.81032 16.7504L17.9998 16.7504C18.414 16.7504 18.7498 16.4146 18.7498 16.0004C18.7498 15.5862 18.414 15.2504 17.9998 15.2504L6.81032 15.2504L8.53005 13.5306C8.82294 13.2377 8.82294 12.763 8.53005 12.4701Z" fill="black"/>
<path d="M17.53 3.47009C17.2371 3.17733 16.7624 3.17724 16.4695 3.47009C16.1767 3.76295 16.1768 4.23776 16.4695 4.53064L18.1892 6.25037L6.99978 6.25036C6.58568 6.2505 6.24978 6.58623 6.24978 7.00036C6.24978 7.41449 6.58567 7.75023 6.99978 7.75036L18.1892 7.75037L16.4695 9.47009C16.1767 9.76295 16.1768 10.2378 16.4695 10.5306C16.7624 10.8235 17.2371 10.8235 17.53 10.5306L19.823 8.23767C20.5063 7.55427 20.5063 6.44646 19.823 5.76306L17.53 3.47009Z" fill="black"/>
</svg>
