<svg width="24" height="24" viewBox="0 0 24 24" fill="none" xmlns="http://www.w3.org/2000/svg">
<path d="M11.5301 8.53055C11.823 8.23768 11.823 7.76291 11.5301 7.47001L9.23718 5.17704C8.55378 4.49372 7.44597 4.49372 6.76257 5.17704L4.4696 7.47001C4.17684 7.76291 4.17675 8.23771 4.4696 8.53055C4.76246 8.82333 5.23727 8.82329 5.53015 8.53055L7.24988 6.81083L7.24987 18.0003C7.24987 18.4145 7.58572 18.7502 7.99987 18.7503C8.41409 18.7503 8.74987 18.4145 8.74987 18.0003L8.74988 6.81083L10.4696 8.53055C10.7625 8.82333 11.2373 8.82329 11.5301 8.53055Z" fill="black"/>
<path d="M20.5301 17.5306C20.823 17.2377 20.823 16.7629 20.5301 16.47C20.2373 16.1773 19.7625 16.1772 19.4696 16.47L17.7499 18.1897V7.00028C17.7499 6.58607 17.4141 6.25028 16.9999 6.25028C16.5857 6.25035 16.2499 6.58611 16.2499 7.00028V18.1897L14.5301 16.47C14.2373 16.1773 13.7625 16.1772 13.4696 16.47C13.1768 16.7629 13.1768 17.2376 13.4696 17.5306L15.7626 19.8235C16.446 20.5068 17.5538 20.5068 18.2372 19.8235L20.5301 17.5306Z" fill="black"/>
</svg>
