<svg width="24" height="24" viewBox="0 0 24 24" fill="none" xmlns="http://www.w3.org/2000/svg">
<path d="M19.6135 9.43171C19.9916 9.26325 20.1618 8.82019 19.9938 8.44197C19.3375 6.96792 18.2858 5.70388 16.9561 4.78989C15.6263 3.87596 14.0695 3.34751 12.4582 3.26298C10.8469 3.17854 9.24324 3.54083 7.8252 4.31066C6.43426 5.06588 5.2751 6.18458 4.4698 7.54581L3.96241 5.34668C3.86912 4.94324 3.46634 4.69149 3.06283 4.78465C2.65929 4.87782 2.40772 5.28069 2.5008 5.68423L3.23038 8.84438C3.44799 9.7858 4.38755 10.3725 5.32908 10.1552L8.48839 9.42613C8.89199 9.33296 9.14359 8.93015 9.05042 8.52655C8.95723 8.12296 8.55443 7.87135 8.15084 7.96452L5.56509 8.56205C5.62495 8.50949 5.67944 8.44869 5.72149 8.37591C6.38997 7.21807 7.36562 6.26771 8.54053 5.62972C9.7155 4.99177 11.0441 4.69103 12.3792 4.76097C13.7144 4.83097 15.0048 5.26838 16.1067 6.02567C17.2084 6.78298 18.0791 7.83054 18.6229 9.0519C18.7914 9.43018 19.2352 9.60016 19.6135 9.43171Z" fill="black"/>
<path d="M20.9367 19.2157C21.3403 19.1225 21.5919 18.7197 21.4987 18.3161L20.7696 15.1568C20.5522 14.2152 19.6121 13.6278 18.6704 13.8451L15.5116 14.5751C15.1081 14.6682 14.8561 15.0703 14.9491 15.4738C15.0423 15.8774 15.4451 16.129 15.8487 16.0358L18.4354 15.44C18.3756 15.4925 18.3205 15.5526 18.2785 15.6253C17.61 16.783 16.6343 17.7335 15.4595 18.3715C14.2845 19.0094 12.9559 19.3101 11.6208 19.2402C10.2856 19.1702 8.99517 18.7327 7.89332 17.9755C6.79159 17.2183 5.92089 16.1705 5.37708 14.9493C5.2086 14.5709 4.76489 14.401 4.38649 14.5695C4.00834 14.738 3.83802 15.181 4.00619 15.5592C4.66252 17.0332 5.71422 18.2974 7.04389 19.2113C8.37365 20.1251 9.93051 20.6537 11.5418 20.7382C13.1531 20.8226 14.7568 20.4603 16.1748 19.6905C17.5652 18.9356 18.7246 17.8173 19.5298 16.4567L20.0371 18.6537C20.1302 19.0572 20.5331 19.3088 20.9367 19.2157Z" fill="black"/>
</svg>
