<svg width="24" height="24" viewBox="0 0 24 24" fill="none" xmlns="http://www.w3.org/2000/svg">
<path fill-rule="evenodd" clip-rule="evenodd" d="M13.5587 2.25C14.7423 2.25008 15.7928 3.00798 16.1671 4.13086L16.5411 5.25H17.5821C19.6083 5.25004 20.7646 7.56361 19.5489 9.18457C19.0303 9.87623 18.7501 10.7176 18.7501 11.582V18C18.7501 20.6233 16.6233 22.7498 14.0001 22.75H10.0001C7.37688 22.7498 5.25008 20.6232 5.25008 18V11.582C5.25002 10.7174 4.96902 9.87631 4.45027 9.18457C3.23489 7.56382 4.3914 5.25059 6.41707 5.25H7.45906L7.83309 4.13086C8.20739 3.00797 9.25785 2.25005 10.4415 2.25H13.5587ZM10.0001 10.25C9.58603 10.2502 9.25008 10.5859 9.25008 11L9.2491 17C9.2491 17.4139 9.58528 17.7495 9.9991 17.75C10.4133 17.75 10.7491 17.4142 10.7491 17L10.7501 11C10.7501 10.5859 10.4141 10.2503 10.0001 10.25ZM14.0001 10.25C13.586 10.2502 13.2501 10.5859 13.2501 11L13.2491 17C13.2491 17.4139 13.5853 17.7495 13.9991 17.75C14.4133 17.75 14.7491 17.4142 14.7491 17L14.7501 11C14.7501 10.5859 14.4141 10.2503 14.0001 10.25ZM10.4415 3.75C9.90359 3.75005 9.42615 4.09426 9.25594 4.60449L9.04109 5.25H14.9591L14.7442 4.60449C14.574 4.09427 14.0965 3.75008 13.5587 3.75H10.4415Z" fill="black"/>
</svg>
