<svg width="24" height="24" viewBox="0 0 24 24" fill="none" xmlns="http://www.w3.org/2000/svg">
<path fill-rule="evenodd" clip-rule="evenodd" d="M22 12C22 6.47715 17.5228 2 12 2C6.47715 2 2 6.47715 2 12C2 17.5228 6.47715 22 12 22C17.5228 22 22 17.5228 22 12ZM15.8496 12.7891C16.1314 13.0926 16.114 13.5677 15.8105 13.8496C15.5071 14.1314 15.0319 14.114 14.75 13.8105L12.2334 11.0996C12.1345 10.9931 11.9651 10.9931 11.8662 11.0996L9.34961 13.8105C9.06774 14.114 8.59256 14.1314 8.28906 13.8496C7.98564 13.5677 7.96818 13.0926 8.25 12.7891L10.7676 10.0791C11.4599 9.33349 12.6397 9.33349 13.332 10.0791L15.8496 12.7891Z" fill="black"/>
</svg>
