<svg width="24" height="24" viewBox="0 0 24 24" fill="none" xmlns="http://www.w3.org/2000/svg">
<path fill-rule="evenodd" clip-rule="evenodd" d="M2 12C2 6.47715 6.47715 2 12 2C17.5228 2 22 6.47715 22 12C22 17.5228 17.5228 22 12 22C6.47715 22 2 17.5228 2 12ZM8.42188 13.4141C8.42188 13.8283 8.75766 14.1641 9.17188 14.1641C9.58597 14.1639 9.92188 13.8282 9.92188 13.4141V10.9824L14.2979 15.3584C14.5907 15.6513 15.0655 15.6513 15.3584 15.3584C15.6513 15.0655 15.6513 14.5907 15.3584 14.2979L10.9824 9.92188H13.4141C13.8282 9.92188 14.1639 9.58598 14.1641 9.17188C14.1641 8.75766 13.8283 8.42188 13.4141 8.42188H10.1719C9.20546 8.42193 8.42193 9.20546 8.42188 10.1719V13.4141Z" fill="black"/>
</svg>
