<svg width="24" height="24" viewBox="0 0 24 24" fill="none" xmlns="http://www.w3.org/2000/svg">
<path fill-rule="evenodd" clip-rule="evenodd" d="M22 12C22 6.47715 17.5228 2 12 2C6.47715 2 2 6.47715 2 12C2 17.5228 6.47715 22 12 22C17.5228 22 22 17.5228 22 12ZM15.5781 13.4141C15.5781 13.8283 15.2423 14.1641 14.8281 14.1641C14.414 14.1639 14.0781 13.8282 14.0781 13.4141V10.9824L9.70215 15.3584C9.40926 15.6513 8.93449 15.6513 8.6416 15.3584C8.34873 15.0655 8.34871 14.5907 8.6416 14.2979L13.0176 9.92188H10.5859C10.1718 9.92188 9.83606 9.58598 9.83594 9.17188C9.83594 8.75766 10.1717 8.42188 10.5859 8.42188H13.8281C14.7945 8.42193 15.5781 9.20546 15.5781 10.1719V13.4141Z" fill="black"/>
</svg>
