<svg width="24" height="24" viewBox="0 0 24 24" fill="none" xmlns="http://www.w3.org/2000/svg">
<path d="M6.09863 14.3115C9.9147 12.9486 14.0853 12.9486 17.9014 14.3115C19.0098 14.7076 19.75 15.7574 19.75 16.9346V18.25C19.7498 19.8936 18.2941 21.1561 16.667 20.9238L15.7119 20.7881C13.2498 20.4364 10.7502 20.4364 8.28809 20.7881L7.33301 20.9238C5.70587 21.1561 4.25018 19.8936 4.25 18.25V16.9346C4.25004 15.7574 4.99015 14.7076 6.09863 14.3115Z" fill="black"/>
<path d="M12 2.25C14.6234 2.25 16.75 4.37665 16.75 7C16.75 9.62335 14.6234 11.75 12 11.75C9.37665 11.75 7.25 9.62335 7.25 7C7.25 4.37665 9.37665 2.25 12 2.25Z" fill="black"/>
</svg>
