<svg width="24" height="24" viewBox="0 0 24 24" fill="none" xmlns="http://www.w3.org/2000/svg">
<path d="M7.15332 14.5215C10.4252 13.353 14.0006 13.353 17.2725 14.5215C18.2605 14.8744 18.9199 15.8102 18.9199 16.8594V17.9795C18.9196 19.4462 17.621 20.5725 16.1689 20.3652L15.835 20.3174C13.4325 19.9742 10.9933 19.9742 8.59082 20.3174L8.25684 20.3652C6.80477 20.5726 5.50614 19.4462 5.50586 17.9795V16.8594C5.50588 15.8102 6.16528 14.8744 7.15332 14.5215Z" fill="black"/>
<path d="M5.6123 13.6338C4.59424 14.3697 3.96096 15.5591 3.96094 16.8594V17.9795C3.96098 18.3052 4.00291 18.62 4.07715 18.9209C4.02204 18.9282 3.9662 18.9337 3.91113 18.9414L3.6377 18.9805C2.44687 19.1476 1.37988 18.2392 1.37988 17.0576V16.1562C1.37988 15.3112 1.92225 14.5577 2.73242 14.2734C3.66892 13.9449 4.63633 13.7329 5.6123 13.6338Z" fill="black"/>
<path d="M18.7695 13.6338C19.7455 13.733 20.7129 13.9449 21.6494 14.2734C22.4593 14.5578 23.001 15.3114 23.001 16.1562V17.0576C23.001 18.239 21.9348 19.1473 20.7441 18.9805L20.4707 18.9414C20.4156 18.9337 20.3598 18.9282 20.3047 18.9209C20.3789 18.62 20.4209 18.3052 20.4209 17.9795V16.8594C20.4209 15.5593 19.7874 14.3697 18.7695 13.6338Z" fill="black"/>
<path d="M7.0498 6.00293C6.7072 6.73197 6.51465 7.54545 6.51465 8.4043C6.51466 9.98069 7.16055 11.4052 8.20117 12.4307C7.79531 12.5984 7.3488 12.6923 6.88086 12.6924C4.99976 12.6921 3.47461 11.1935 3.47461 9.3457C3.47479 7.49805 4.99987 6.00025 6.88086 6C6.93717 6 6.99417 6.00027 7.0498 6.00293Z" fill="black"/>
<path d="M17.501 6C19.3817 6.00051 20.907 7.49821 20.9072 9.3457C20.9072 11.1934 19.3819 12.6919 17.501 12.6924C17.033 12.6924 16.5866 12.5984 16.1807 12.4307C17.2211 11.4052 17.8672 9.98056 17.8672 8.4043C17.8672 7.54552 17.6746 6.73192 17.332 6.00293C17.3877 6.00028 17.4447 6 17.501 6Z" fill="black"/>
<path d="M12.2129 4.25C14.5072 4.25004 16.3672 6.10999 16.3672 8.4043C16.3672 10.6986 14.5072 12.5586 12.2129 12.5586C9.91857 12.5586 8.05862 10.6986 8.05859 8.4043C8.05859 6.10996 9.91856 4.25 12.2129 4.25Z" fill="black"/>
</svg>
