<svg width="24" height="24" viewBox="0 0 24 24" fill="none" xmlns="http://www.w3.org/2000/svg">
<path d="M17.4521 12.4869C17.9309 12.0081 18.75 12.3479 18.75 13.025V18.3619C18.7497 20.716 15.9838 21.9817 14.2021 20.4429L13.9102 20.191L13.8682 20.1549L13.832 20.1129L12.4932 18.5611C12.2025 18.2242 12.2208 17.7197 12.5352 17.4049L17.4521 12.4869Z" fill="black"/>
<path d="M14.2021 4.2906C15.9837 2.75157 18.7496 4.01654 18.75 6.37068V7.18904L21.4697 4.47029L21.5264 4.41853C21.8209 4.17837 22.2557 4.19574 22.5303 4.47029C22.8045 4.74483 22.822 5.17874 22.582 5.47322L22.5303 5.53083L18.75 9.31013V9.32478L18.5137 9.54744L7.53027 20.5299C7.23738 20.8228 6.76262 20.8228 6.46973 20.5299C6.17704 20.2369 6.1769 19.7621 6.46973 19.4693L8.67578 17.2633H8.5C6.7052 17.2633 5.25021 15.808 5.25 14.0133V10.7203C5.25001 8.92538 6.70509 7.4703 8.5 7.47029H10.0557C10.3556 7.47029 10.646 7.36257 10.873 7.16658L14.2021 4.2906Z" fill="black"/>
</svg>
