<svg width="24" height="24" viewBox="0 0 24 24" fill="none" xmlns="http://www.w3.org/2000/svg">
<path d="M11.2021 4.2906C12.9837 2.75157 15.7496 4.01654 15.75 6.37068V18.3619C15.7497 20.716 12.9838 21.9817 11.2021 20.4429L7.87305 17.567C7.64601 17.3709 7.35566 17.2633 7.05566 17.2633H5.5C3.7052 17.2633 2.25021 15.808 2.25 14.0133V10.7203C2.25001 8.92538 3.70509 7.4703 5.5 7.47029H7.05566C7.35558 7.47029 7.64603 7.36257 7.87305 7.16658L11.2021 4.2906Z" fill="black"/>
<path d="M17.5498 8.76716C17.8809 8.51854 18.3508 8.5855 18.5996 8.91658C19.3216 9.8776 19.75 11.0733 19.75 12.3668C19.75 13.6603 19.3216 14.856 18.5996 15.817C18.3509 16.1479 17.8809 16.2149 17.5498 15.9664C17.2188 15.7176 17.1518 15.2477 17.4004 14.9166C17.934 14.2064 18.25 13.3243 18.25 12.3668C18.25 11.4093 17.934 10.5272 17.4004 9.81697C17.1518 9.48584 17.2188 9.01594 17.5498 8.76716Z" fill="black"/>
</svg>
