<svg width="24" height="24" viewBox="0 0 24 24" fill="none" xmlns="http://www.w3.org/2000/svg">
<path d="M11.2021 4.2906C12.9837 2.75157 15.7496 4.01654 15.75 6.37068V18.3619C15.7497 20.716 12.9838 21.9817 11.2021 20.4429L7.87305 17.567C7.64601 17.3709 7.35566 17.2633 7.05566 17.2633H5.5C3.7052 17.2633 2.25021 15.808 2.25 14.0133V10.7203C2.25001 8.92538 3.70509 7.4703 5.5 7.47029H7.05566C7.35558 7.47029 7.64603 7.36257 7.87305 7.16658L11.2021 4.2906Z" fill="black"/>
<path d="M19.5498 5.76716C19.8809 5.51854 20.3508 5.5855 20.5996 5.91658C21.9495 7.71326 22.75 9.94767 22.75 12.3668C22.75 14.7859 21.9496 17.0203 20.5996 18.817C20.3509 19.1479 19.8809 19.2149 19.5498 18.9664C19.2188 18.7176 19.1518 18.2477 19.4004 17.9166C20.562 16.3707 21.25 14.4499 21.25 12.3668C21.25 10.2837 20.5619 8.36285 19.4004 6.81697C19.1518 6.48584 19.2188 6.01594 19.5498 5.76716Z" fill="black"/>
<path d="M17.5498 8.76716C17.8809 8.51854 18.3508 8.5855 18.5996 8.91658C19.3216 9.8776 19.75 11.0733 19.75 12.3668C19.75 13.6603 19.3216 14.856 18.5996 15.817C18.3509 16.1479 17.8809 16.2149 17.5498 15.9664C17.2188 15.7176 17.1518 15.2477 17.4004 14.9166C17.934 14.2064 18.25 13.3243 18.25 12.3668C18.25 11.4093 17.934 10.5272 17.4004 9.81697C17.1518 9.48584 17.2188 9.01594 17.5498 8.76716Z" fill="black"/>
</svg>
