<svg width="24" height="24" viewBox="0 0 24 24" fill="none" xmlns="http://www.w3.org/2000/svg">
<path fill-rule="evenodd" clip-rule="evenodd" d="M17 6.00056C19.6775 6.00062 21.8629 8.10533 21.9932 10.7506H17.5C15.7051 10.7506 14.25 12.2056 14.25 14.0006C14.2503 15.7953 15.7052 17.2506 17.5 17.2506H21.9932C21.8627 19.8956 19.6774 22.0005 17 22.0006H7C4.23873 22.0006 2.00025 19.7618 2 17.0006V11.0006C2 8.23913 4.23858 6.00056 7 6.00056H17ZM6 16.7506C5.58579 16.7506 5.25 17.0863 5.25 17.5006C5.25025 17.9146 5.58594 18.2506 6 18.2506H12C12.414 18.2505 12.7497 17.9145 12.75 17.5006C12.75 17.0864 12.4142 16.7506 12 16.7506H6Z" fill="black"/>
<path fill-rule="evenodd" clip-rule="evenodd" d="M22 15.7506H17.5C16.5337 15.7506 15.7503 14.9668 15.75 14.0006C15.75 13.0341 16.5335 12.2506 17.5 12.2506H22V15.7506ZM17.5 13.2506C17.0858 13.2506 16.75 13.5863 16.75 14.0006C16.7503 14.4146 17.0859 14.7506 17.5 14.7506H17.7002C18.1141 14.7504 18.4499 14.4145 18.4502 14.0006C18.4502 13.5864 18.1143 13.2507 17.7002 13.2506H17.5Z" fill="black"/>
<path d="M14.4414 2.17341C16.6605 1.71654 18.7661 3.00161 19.4873 4.99274C18.7212 4.67519 17.881 4.49958 17 4.49958H7C4.89013 4.49962 3.01459 5.50534 1.82715 7.06306C2.58839 5.49771 4.04444 4.31376 5.84082 3.94392L14.4414 2.17341Z" fill="black"/>
</svg>
