<svg width="24" height="24" viewBox="0 0 24 24" fill="none" xmlns="http://www.w3.org/2000/svg">
<path d="M17.5117 17.9697C17.8046 17.6769 18.2794 17.6769 18.5723 17.9697L22.0303 21.4277C22.323 21.7206 22.3231 22.1954 22.0303 22.4883C21.7374 22.781 21.2626 22.781 20.9697 22.4883L17.5117 19.0303C17.2188 18.7374 17.2188 18.2626 17.5117 17.9697Z" fill="black"/>
<path fill-rule="evenodd" clip-rule="evenodd" d="M11 3C15.4183 3 19 6.58172 19 11C19 15.4183 15.4183 19 11 19C6.58172 19 3 15.4183 3 11C3 6.58172 6.58172 3 11 3ZM11 7.25C10.5858 7.25 10.25 7.58579 10.25 8V10.25H8C7.58579 10.25 7.25 10.5858 7.25 11C7.25 11.4142 7.58579 11.75 8 11.75H10.25V14C10.25 14.4142 10.5858 14.75 11 14.75C11.4142 14.75 11.75 14.4142 11.75 14V11.75H14C14.4142 11.75 14.75 11.4142 14.75 11C14.75 10.5858 14.4142 10.25 14 10.25H11.75V8C11.75 7.58579 11.4142 7.25 11 7.25Z" fill="black"/>
</svg>
