<svg width="24" height="24" viewBox="0 0 24 24" fill="none" xmlns="http://www.w3.org/2000/svg">
<path d="M12 8.25C12.4142 8.25 12.75 8.58579 12.75 9V12.5986L15.416 14.376C15.7607 14.6057 15.8538 15.0714 15.624 15.416C15.3943 15.7606 14.9286 15.8538 14.584 15.624L11.8066 13.7725C11.4589 13.5406 11.25 13.1503 11.25 12.7324V9C11.25 8.5858 11.5858 8.25003 12 8.25Z" fill="black"/>
<path fill-rule="evenodd" clip-rule="evenodd" d="M12 1.25C12.4142 1.25 12.75 1.58579 12.75 2V3.28125C17.7843 3.6643 21.75 7.86763 21.75 13C21.75 16.2262 20.1819 19.0847 17.7676 20.8594L18.6709 22.665C18.8558 23.0353 18.706 23.4856 18.3359 23.6709C17.9656 23.8561 17.5145 23.7062 17.3291 23.3359L16.4883 21.6543C15.1445 22.3526 13.619 22.75 12 22.75C10.3805 22.75 8.85479 22.352 7.51074 21.6533L6.6709 23.3359C6.48553 23.7061 6.03441 23.8561 5.66406 23.6709C5.29403 23.4856 5.14425 23.0353 5.3291 22.665L6.23145 20.8594C3.81753 19.0846 2.25 16.2259 2.25 13C2.25 7.86767 6.21579 3.66435 11.25 3.28125V2C11.25 1.5858 11.5858 1.25003 12 1.25ZM12 4.75C7.44367 4.75003 3.75 8.44367 3.75 13C3.75 17.5563 7.44367 21.25 12 21.25C16.5563 21.25 20.25 17.5563 20.25 13C20.25 8.44365 16.5563 4.75 12 4.75Z" fill="black"/>
<path d="M6.5498 1.40039C6.88106 1.15195 7.35102 1.21872 7.59961 1.5498C7.84807 1.88108 7.78132 2.35103 7.4502 2.59961L3.4502 5.59961C3.11892 5.84807 2.64898 5.78132 2.40039 5.4502C2.15195 5.11894 2.21873 4.64899 2.5498 4.40039L6.5498 1.40039Z" fill="black"/>
<path d="M16.4004 1.5498C16.649 1.21868 17.1189 1.15193 17.4502 1.40039L21.4502 4.40039C21.7813 4.64897 21.8481 5.11892 21.5996 5.4502C21.351 5.78128 20.8811 5.84805 20.5498 5.59961L16.5498 2.59961C16.2187 2.35101 16.1519 1.88106 16.4004 1.5498Z" fill="black"/>
</svg>
