<svg width="24" height="24" viewBox="0 0 24 24" fill="none" xmlns="http://www.w3.org/2000/svg">
<path fill-rule="evenodd" clip-rule="evenodd" d="M11.9995 1.25C14.6229 1.25 16.7495 3.37665 16.7495 6V6.41699C18.5531 6.90908 19.9479 8.44052 20.2056 10.3721L21.1392 17.3721C21.5188 20.2195 19.3037 22.7498 16.4312 22.75H7.56789C4.69557 22.7495 2.48029 20.2193 2.85988 17.3721L3.79348 10.3721C4.05105 8.44079 5.44637 6.90934 7.24953 6.41699V6C7.24953 3.3768 9.37639 1.25025 11.9995 1.25ZM8.74953 9C8.74953 9.41421 8.41374 9.75 7.99953 9.75C7.58553 9.74975 7.24953 9.41406 7.24953 9V8.00293C6.21145 8.43719 5.43665 9.39428 5.2798 10.5703L4.34719 17.5703C4.08749 19.5183 5.60275 21.2495 7.56789 21.25H16.4312C18.3966 21.2498 19.9116 19.5185 19.6519 17.5703L18.7193 10.5703C18.5624 9.39401 17.788 8.43703 16.7495 8.00293V9C16.7495 9.41421 16.4137 9.75 15.9995 9.75C15.5855 9.74975 15.2495 9.41406 15.2495 9V7.75H8.74953V9ZM11.9995 2.75C10.2048 2.75025 8.74953 4.20523 8.74953 6V6.25H15.2495V6C15.2495 4.20507 13.7945 2.75 11.9995 2.75Z" fill="black"/>
</svg>
