<svg width="24" height="24" viewBox="0 0 24 24" fill="none" xmlns="http://www.w3.org/2000/svg">
<path d="M15.498 6.25C17.8786 6.25006 19.8913 8.01237 20.206 10.3721L21.1396 17.3721C21.5193 20.2195 19.3042 22.7498 16.4316 22.75H7.56833C4.69577 22.7498 2.48067 20.2195 2.86033 17.3721L3.79392 10.3721C4.10863 8.01237 6.12132 6.25006 8.50193 6.25H15.498ZM8.50193 7.75C6.8731 7.75006 5.49557 8.95579 5.28025 10.5703L4.34763 17.5703C4.08787 19.5185 5.60295 21.2498 7.56833 21.25H16.4316C18.397 21.2498 19.9121 19.5185 19.6523 17.5703L18.7197 10.5703C18.5044 8.95579 17.1268 7.75006 15.498 7.75H8.50193Z" fill="black"/>
<path d="M16.0306 13.5301L12.0303 17.5303C11.7374 17.8232 11.2625 17.8232 10.9696 17.5303L8.96986 15.5305C8.67696 15.2377 8.67696 14.7628 8.96986 14.4699C9.26275 14.177 9.73762 14.177 10.0305 14.4699L11.5 15.9393L14.9699 12.4694C15.2628 12.1768 15.7378 12.1766 16.0306 12.4694C16.3234 12.7622 16.3232 13.2372 16.0306 13.5301Z" fill="black"/>
<path d="M15.25 9V6C15.25 4.20507 13.7949 2.75 12 2.75C10.205 2.75 8.74997 4.20507 8.74997 6V9C8.74997 9.41421 8.41419 9.75 7.99997 9.75C7.58576 9.75 7.24997 9.41421 7.24997 9V6C7.24997 3.37665 9.37662 1.25 12 1.25C14.6233 1.25 16.75 3.37665 16.75 6V9C16.75 9.41421 16.4142 9.75 16 9.75C15.5858 9.75 15.25 9.41421 15.25 9Z" fill="black"/>
</svg>
