<svg width="24" height="24" viewBox="0 0 24 24" fill="none" xmlns="http://www.w3.org/2000/svg">
<path d="M19.25 12C19.25 10.2051 17.7949 8.75 16 8.75H8C6.20507 8.75 4.75 10.2051 4.75 12V17C4.75 18.7949 6.20507 20.25 8 20.25H16C17.7949 20.25 19.25 18.7949 19.25 17V12ZM20.75 17C20.75 19.6234 18.6234 21.75 16 21.75H8C5.37665 21.75 3.25 19.6234 3.25 17V12C3.25 9.37665 5.37665 7.25 8 7.25H16C18.6234 7.25 20.75 9.37665 20.75 12V17Z" fill="black"/>
<path d="M15.25 10V7C15.25 5.20507 13.7949 3.75 12 3.75C10.2051 3.75 8.75 5.20507 8.75 7V10C8.75 10.4142 8.41421 10.75 8 10.75C7.58579 10.75 7.25 10.4142 7.25 10V7C7.25 4.37665 9.37665 2.25 12 2.25C14.6234 2.25 16.75 4.37665 16.75 7V10C16.75 10.4142 16.4142 10.75 16 10.75C15.5858 10.75 15.25 10.4142 15.25 10Z" fill="black"/>
</svg>
