<svg width="24" height="24" viewBox="0 0 24 24" fill="none" xmlns="http://www.w3.org/2000/svg">
<path fill-rule="evenodd" clip-rule="evenodd" d="M12 1.25C14.9074 1.25 17.5435 2.40605 19.4785 4.28125C19.498 4.29744 19.517 4.31454 19.5352 4.33301C19.5392 4.33711 19.543 4.34154 19.5469 4.3457C21.5239 6.29515 22.75 9.00415 22.75 12C22.75 14.9983 21.5209 17.7084 19.541 19.6582C19.5388 19.6605 19.5374 19.6637 19.5352 19.666C19.5256 19.6758 19.5149 19.6842 19.5049 19.6934C17.5675 21.5836 14.9206 22.75 12 22.75C6.06294 22.75 1.25 17.9371 1.25 12C1.25 6.06294 6.06294 1.25 12 1.25ZM8.6748 12.75C8.51461 15.027 7.62388 17.257 6.00293 19.0391C7.43981 20.2644 9.25479 21.0566 11.25 21.2168V12.75H8.6748ZM12.75 21.2168C14.7142 21.0591 16.5045 20.2898 17.9307 19.0967C16.3454 17.288 15.4751 15.0416 15.3193 12.75H12.75V21.2168ZM16.8232 12.75C16.9738 14.6592 17.6989 16.526 19 18.041C20.2471 16.5972 21.055 14.7659 21.2168 12.75H16.8232ZM2.7832 12.75C2.94253 14.735 3.72673 16.5422 4.94141 17.9756C6.27195 16.4879 7.01579 14.6411 7.1709 12.75H2.7832ZM19 5.95703C17.6983 7.47239 16.9736 9.34015 16.8232 11.25H21.2168C21.0549 9.23356 20.2477 7.40101 19 5.95703ZM12.75 11.25H15.3193C15.4751 8.95819 16.3451 6.71114 17.9307 4.90234C16.5046 3.70947 14.7141 2.93986 12.75 2.78223V11.25ZM11.25 2.78223C9.25499 2.94234 7.43975 3.73482 6.00293 4.95996C7.62419 6.7421 8.51459 8.97277 8.6748 11.25H11.25V2.78223ZM4.94141 6.02344C3.72646 7.45691 2.94255 9.26475 2.7832 11.25H7.1709C7.01577 9.35864 6.27226 7.51126 4.94141 6.02344Z" fill="black"/>
</svg>
