<svg width="24" height="24" viewBox="0 0 24 24" fill="none" xmlns="http://www.w3.org/2000/svg">
<path fill-rule="evenodd" clip-rule="evenodd" d="M12.8369 3.00174C15.51 1.99877 18.49 1.99877 21.1631 3.00174C22.0979 3.35254 22.7499 4.22241 22.75 5.22928V19.0799C22.7498 20.5944 21.1679 21.4929 19.832 20.992C18.0151 20.3102 15.9849 20.3102 14.168 20.992L12.2773 21.701C12.1897 21.7338 12.0951 21.7472 12 21.7449C11.9049 21.7472 11.8103 21.7338 11.7227 21.701L9.83203 20.992C8.01508 20.3102 5.98492 20.3102 4.16797 20.992C2.83213 21.4929 1.25024 20.5944 1.25 19.0799V5.22928C1.25014 4.22241 1.90211 3.35254 2.83691 3.00174C5.50998 1.99877 8.49002 1.99877 11.1631 3.00174L12 3.31522L12.8369 3.00174ZM10.6367 4.40702C8.30319 3.53135 5.69681 3.53135 3.36328 4.40702C2.9697 4.55491 2.75014 4.89376 2.75 5.22928V19.0799C2.75028 19.4087 3.15305 19.771 3.6416 19.5877C5.79828 18.7784 8.20172 18.7784 10.3584 19.5877L11.25 19.9217V4.63651L10.6367 4.40702ZM20.6367 4.40702C18.3032 3.53135 15.6968 3.53135 13.3633 4.40702L12.75 4.63651V19.9217L13.6416 19.5877C15.7983 18.7784 18.2017 18.7784 20.3584 19.5877C20.8469 19.771 21.2497 19.4087 21.25 19.0799V5.22928C21.2499 4.89376 21.0303 4.55491 20.6367 4.40702Z" fill="black"/>
</svg>
