<svg width="24" height="24" viewBox="0 0 24 24" fill="none" xmlns="http://www.w3.org/2000/svg">
<path d="M15 7.75C15.4142 7.75 15.75 8.08579 15.75 8.5C15.75 8.91421 15.4142 9.25 15 9.25H9C8.58579 9.25 8.25 8.91421 8.25 8.5C8.25 8.08579 8.58579 7.75 9 7.75H15Z" fill="black"/>
<path fill-rule="evenodd" clip-rule="evenodd" d="M15 2.25C17.6234 2.25 19.75 4.37665 19.75 7V20.168C19.75 21.5525 18.2183 22.3892 17.0537 21.6406L12.6758 18.8262C12.2641 18.5616 11.7359 18.5616 11.3242 18.8262L6.94629 21.6406C5.78166 22.3892 4.25 21.5525 4.25 20.168V7C4.25 4.37665 6.37665 2.25 9 2.25H15ZM9 3.75C7.20507 3.75 5.75 5.20507 5.75 7V20.168C5.75 20.3656 5.96844 20.4854 6.13477 20.3789L10.5127 17.5645C11.4186 16.9821 12.5814 16.9821 13.4873 17.5645L17.8652 20.3789C18.0316 20.4854 18.25 20.3656 18.25 20.168V7C18.25 5.20507 16.7949 3.75 15 3.75H9Z" fill="black"/>
</svg>
