<svg width="24" height="24" viewBox="0 0 24 24" fill="none" xmlns="http://www.w3.org/2000/svg">
<path d="M14 16.25C14.4142 16.25 14.75 16.5858 14.75 17C14.75 17.4142 14.4142 17.75 14 17.75H10C9.58579 17.75 9.25 17.4142 9.25 17C9.25 16.5858 9.58579 16.25 10 16.25H14Z" fill="black"/>
<path fill-rule="evenodd" clip-rule="evenodd" d="M17 1.25C20.1756 1.25 22.75 3.82436 22.75 7V17C22.75 20.1756 20.1756 22.75 17 22.75H7C3.82436 22.75 1.25 20.1756 1.25 17V7C1.25 3.82436 3.82436 1.25 7 1.25H17ZM7 2.75C4.65279 2.75 2.75 4.65279 2.75 7V17C2.75 19.3472 4.65279 21.25 7 21.25H17C19.3472 21.25 21.25 19.3472 21.25 17V7C21.25 4.65279 19.3472 2.75 17 2.75H15.75V9C15.75 9.24108 15.6341 9.46744 15.4385 9.6084C15.2429 9.74935 14.9914 9.78815 14.7627 9.71191L12 8.79102L9.2373 9.71191C9.0086 9.78815 8.7571 9.74935 8.56152 9.6084C8.36595 9.46743 8.25 9.24108 8.25 9V2.75H7ZM9.75 7.95898L11.7627 7.28809C11.9166 7.23677 12.0834 7.23677 12.2373 7.28809L14.25 7.95898V2.75H9.75V7.95898Z" fill="black"/>
</svg>
