<svg width="24" height="24" viewBox="0 0 24 24" fill="none" xmlns="http://www.w3.org/2000/svg">
<path d="M21.25 7.29106L12.75 10.8321V20.875L21.0957 17.3975C21.1888 17.3587 21.2499 17.2678 21.25 17.167V7.29106ZM8.94922 8.24907L12 9.52055L20.0498 6.16606L16.999 4.89458L8.94922 8.24907ZM12.4805 3.01274C12.173 2.8847 11.827 2.8847 11.5195 3.01274L3.94922 6.16606L6.99902 7.43755L15.0498 4.08305L12.4805 3.01274ZM2.75 17.167C2.75013 17.2678 2.81124 17.3587 2.9043 17.3975L11.25 20.875V10.8321L2.75 7.29106V17.167ZM22.75 17.167C22.7499 17.8734 22.3249 18.5106 21.6729 18.7823L12.2881 22.6924C12.1037 22.7692 11.8963 22.7692 11.7119 22.6924L2.32715 18.7823C1.67512 18.5106 1.25013 17.8734 1.25 17.167V6.16704C1.25 5.86426 1.43243 5.59111 1.71191 5.47465L10.9424 1.62798C11.6192 1.34601 12.3808 1.34601 13.0576 1.62798L22.2881 5.47465C22.5676 5.59111 22.75 5.86426 22.75 6.16704V17.167Z" fill="black"/>
</svg>
