<svg width="24" height="24" viewBox="0 0 24 24" fill="none" xmlns="http://www.w3.org/2000/svg">
<path fill-rule="evenodd" clip-rule="evenodd" d="M10.9424 1.62846C11.6192 1.3465 12.3808 1.3465 13.0576 1.62846L22.2881 5.47514C22.5675 5.59163 22.75 5.86481 22.75 6.16753V17.1675C22.7497 17.8737 22.3247 18.5111 21.6729 18.7828L12.2881 22.6929C12.1038 22.7696 11.8962 22.7696 11.7119 22.6929L2.32715 18.7828C1.67525 18.5111 1.25031 17.8737 1.25 17.1675V6.16753C1.25 5.86481 1.43252 5.59163 1.71191 5.47514L10.9424 1.62846ZM2.75 17.1675C2.75031 17.2681 2.81137 17.3593 2.9043 17.398L11.25 20.8755V10.8326L2.75 7.29155V17.1675ZM12.75 10.8326V20.8755L21.0957 17.398C21.1886 17.3593 21.2497 17.2681 21.25 17.1675V7.29155L12.75 10.8326ZM8.94922 8.24956L12 9.52104L20.0498 6.16655L16.999 4.89506L8.94922 8.24956ZM12.4805 3.01323C12.173 2.88519 11.827 2.88519 11.5195 3.01323L3.94922 6.16655L6.99902 7.43803L15.0498 4.08354L12.4805 3.01323Z" fill="black"/>
</svg>
