<svg width="24" height="24" viewBox="0 0 24 24" fill="none" xmlns="http://www.w3.org/2000/svg">
<path fill-rule="evenodd" clip-rule="evenodd" d="M17 1.25C20.1756 1.25 22.75 3.82436 22.75 7V17C22.75 20.1756 20.1756 22.75 17 22.75H7C3.82436 22.75 1.25 20.1756 1.25 17V7C1.25 3.82436 3.82436 1.25 7 1.25H17ZM2.75 7.75V17C2.75 19.3472 4.65279 21.25 7 21.25H17C19.3472 21.25 21.25 19.3472 21.25 17V7.75H2.75ZM7 2.75C4.90879 2.75 3.17171 4.26061 2.81738 6.25H21.1826C20.8283 4.26061 19.0912 2.75 17 2.75H7Z" fill="black"/>
</svg>
