<svg width="24" height="24" viewBox="0 0 24 24" fill="none" xmlns="http://www.w3.org/2000/svg">
<path d="M9 17.25C9.41421 17.25 9.75 17.5858 9.75 18C9.75 18.4142 9.41421 18.75 9 18.75H8C7.58579 18.75 7.25 18.4142 7.25 18C7.25 17.5858 7.58579 17.25 8 17.25H9Z" fill="black"/>
<path d="M16 17.25C16.4142 17.25 16.75 17.5858 16.75 18C16.75 18.4142 16.4142 18.75 16 18.75H15C14.5858 18.75 14.25 18.4142 14.25 18C14.25 17.5858 14.5858 17.25 15 17.25H16Z" fill="black"/>
<path d="M9 13.25C9.41421 13.25 9.75 13.5858 9.75 14C9.75 14.4142 9.41421 14.75 9 14.75H8C7.58579 14.75 7.25 14.4142 7.25 14C7.25 13.5858 7.58579 13.25 8 13.25H9Z" fill="black"/>
<path d="M16 13.25C16.4142 13.25 16.75 13.5858 16.75 14C16.75 14.4142 16.4142 14.75 16 14.75H15C14.5858 14.75 14.25 14.4142 14.25 14C14.25 13.5858 14.5858 13.25 15 13.25H16Z" fill="black"/>
<path fill-rule="evenodd" clip-rule="evenodd" d="M15 5.25C15.9665 5.25 16.75 6.0335 16.75 7V8C16.75 8.9665 15.9665 9.75 15 9.75H9C8.0335 9.75 7.25 8.9665 7.25 8V7C7.25 6.0335 8.0335 5.25 9 5.25H15ZM9 6.75C8.86193 6.75 8.75 6.86193 8.75 7V8C8.75 8.13807 8.86193 8.25 9 8.25H15C15.1381 8.25 15.25 8.13807 15.25 8V7C15.25 6.86193 15.1381 6.75 15 6.75H9Z" fill="black"/>
<path fill-rule="evenodd" clip-rule="evenodd" d="M16 1.25C18.6234 1.25 20.75 3.37665 20.75 6V18C20.75 20.6234 18.6234 22.75 16 22.75H8C5.37665 22.75 3.25 20.6234 3.25 18V6C3.25 3.37665 5.37665 1.25 8 1.25H16ZM8 2.75C6.20507 2.75 4.75 4.20507 4.75 6V18C4.75 19.7949 6.20507 21.25 8 21.25H16C17.7949 21.25 19.25 19.7949 19.25 18V6C19.25 4.20507 17.7949 2.75 16 2.75H8Z" fill="black"/>
</svg>
