<svg width="24" height="24" viewBox="0 0 24 24" fill="none" xmlns="http://www.w3.org/2000/svg">
<path d="M7.5 15.75C7.9142 15.75 8.24999 16.0858 8.25 16.5C8.25 16.9142 7.91421 17.25 7.5 17.25H6.5C6.08579 17.25 5.75 16.9142 5.75 16.5C5.75001 16.0858 6.0858 15.75 6.5 15.75H7.5Z" fill="black"/>
<path d="M12.5 15.75C12.9142 15.75 13.25 16.0858 13.25 16.5C13.25 16.9142 12.9142 17.25 12.5 17.25H11.5C11.0858 17.25 10.75 16.9142 10.75 16.5C10.75 16.0858 11.0858 15.75 11.5 15.75H12.5Z" fill="black"/>
<path d="M17.5 15.75C17.9142 15.75 18.25 16.0858 18.25 16.5C18.25 16.9142 17.9142 17.25 17.5 17.25H16.5C16.0858 17.25 15.75 16.9142 15.75 16.5C15.75 16.0858 16.0858 15.75 16.5 15.75H17.5Z" fill="black"/>
<path d="M7.5 11.75C7.9142 11.75 8.24999 12.0858 8.25 12.5C8.25 12.9142 7.91421 13.25 7.5 13.25H6.5C6.08579 13.25 5.75 12.9142 5.75 12.5C5.75001 12.0858 6.0858 11.75 6.5 11.75H7.5Z" fill="black"/>
<path d="M12.5 11.75C12.9142 11.75 13.25 12.0858 13.25 12.5C13.25 12.9142 12.9142 13.25 12.5 13.25H11.5C11.0858 13.25 10.75 12.9142 10.75 12.5C10.75 12.0858 11.0858 11.75 11.5 11.75H12.5Z" fill="black"/>
<path d="M17.5 11.75C17.9142 11.75 18.25 12.0858 18.25 12.5C18.25 12.9142 17.9142 13.25 17.5 13.25H16.5C16.0858 13.25 15.75 12.9142 15.75 12.5C15.75 12.0858 16.0858 11.75 16.5 11.75H17.5Z" fill="black"/>
<path fill-rule="evenodd" clip-rule="evenodd" d="M16.5 1.25C16.9142 1.25 17.25 1.58579 17.25 2V2.8877C19.8244 3.45854 21.75 5.75376 21.75 8.5V16.5C21.75 19.6756 19.1756 22.25 16 22.25H8C4.82436 22.25 2.25 19.6756 2.25 16.5V8.5C2.25001 5.75376 4.17557 3.45854 6.75 2.8877V2C6.75 1.58579 7.08579 1.25 7.5 1.25C7.91421 1.25 8.25 1.58579 8.25 2V2.75H15.75V2C15.75 1.58579 16.0858 1.25 16.5 1.25ZM3.75 16.5C3.75 18.8472 5.65279 20.75 8 20.75H16C18.3472 20.75 20.25 18.8472 20.25 16.5V9.25H3.75V16.5ZM8.25 5C8.25 5.41421 7.91421 5.75 7.5 5.75C7.08579 5.75 6.75 5.41421 6.75 5V4.43652C5.24537 4.89882 4.09802 6.17444 3.81738 7.75H20.1826C19.902 6.17444 18.7546 4.89882 17.25 4.43652V5C17.25 5.41421 16.9142 5.75 16.5 5.75C16.0858 5.75 15.75 5.41421 15.75 5V4.25H8.25V5Z" fill="black"/>
</svg>
