<svg width="24" height="24" viewBox="0 0 24 24" fill="none" xmlns="http://www.w3.org/2000/svg">
<path fill-rule="evenodd" clip-rule="evenodd" d="M4.53851 3.87198C5.73558 2.67519 7.67463 2.73002 8.86859 3.92374L10.8617 5.9169C12.0554 7.11074 12.1109 9.04987 10.9145 10.247L10.6381 10.5233C10.4299 10.7316 10.407 11.0696 10.6049 11.3095C11.022 11.8149 11.4696 12.3157 11.9526 12.7987C12.4356 13.2817 12.9364 13.7293 13.4418 14.1464C13.6817 14.3441 14.0198 14.3213 14.228 14.1132L14.5043 13.8368C15.6641 12.6776 17.52 12.6935 18.7201 13.7812L18.8344 13.8896L20.8276 15.8827C22.0211 17.0767 22.076 19.0158 20.8793 20.2128L19.5932 21.4999C18.2856 22.8075 16.1453 22.701 14.0639 21.9374C11.9176 21.1498 9.52168 19.567 7.35296 17.3983C5.18423 15.2296 3.60151 12.8338 2.8139 10.6874C2.05018 8.60592 1.94368 6.46583 3.2514 5.15811L4.53851 3.87198ZM7.80804 4.98526C7.16756 4.34479 6.17861 4.35326 5.59905 4.93253L4.31292 6.21964C3.66633 6.86624 3.50134 8.20638 4.2221 10.1708C4.91909 12.0701 6.36402 14.2864 8.41448 16.3368C10.4649 18.3872 12.6812 19.8323 14.5805 20.5292C16.5447 21.2498 17.8851 21.0849 18.5317 20.4384L19.8188 19.1523C20.398 18.5728 20.4063 17.5837 19.766 16.9433L17.7729 14.9501C17.1325 14.3101 16.1444 14.3185 15.5649 14.8974L15.2885 15.1747C14.5376 15.9255 13.327 15.9967 12.4867 15.3036C11.9505 14.8611 11.4138 14.3811 10.892 13.8593C10.3702 13.3375 9.89022 12.8008 9.44769 12.2646C8.75434 11.4243 8.82571 10.2138 9.57659 9.4628L9.85394 9.18643C10.4328 8.60689 10.4413 7.6178 9.8012 6.97745L7.80804 4.98526Z" fill="black"/>
<path d="M14.3119 6.76651C14.4774 6.38688 14.9196 6.21352 15.2992 6.37882C15.9413 6.65862 16.5425 7.06058 17.0659 7.58389C17.6207 8.13871 18.0387 8.78118 18.3198 9.46671C18.4767 9.8497 18.2943 10.2869 17.9116 10.4442C17.5284 10.6013 17.0902 10.4181 16.933 10.0351C16.7261 9.53031 16.417 9.05611 16.0053 8.64444C15.6169 8.25611 15.1732 7.95983 14.7006 7.75382C14.3209 7.58833 14.1465 7.14621 14.3119 6.76651Z" fill="black"/>
<path d="M14.2944 3.40811C14.4354 3.01883 14.866 2.81719 15.2553 2.95792C16.691 3.47807 18.0377 4.3146 19.1869 5.46378C20.3649 6.64182 21.2139 8.02675 21.7309 9.50284C21.8678 9.89372 21.6618 10.3219 21.2709 10.4589C20.88 10.5958 20.4518 10.3899 20.3149 9.99893C19.8708 8.73075 19.1418 7.53977 18.1264 6.52432C17.1358 5.53374 15.9779 4.81589 14.7446 4.36905C14.3552 4.228 14.1535 3.79747 14.2944 3.40811Z" fill="black"/>
</svg>
