<svg width="24" height="24" viewBox="0 0 24 24" fill="none" xmlns="http://www.w3.org/2000/svg">
<path fill-rule="evenodd" clip-rule="evenodd" d="M4.53851 3.87199C5.73558 2.67518 7.67463 2.73003 8.86859 3.92375L10.8617 5.91691C12.0554 7.11075 12.111 9.04988 10.9145 10.247L10.6381 10.5234C10.4299 10.7316 10.407 11.0696 10.6049 11.3095C11.022 11.8149 11.4696 12.3157 11.9526 12.7987C12.4356 13.2817 12.9364 13.7293 13.4418 14.1464C13.6817 14.3441 14.0198 14.3214 14.228 14.1132L14.5043 13.8368C15.6641 12.6776 17.52 12.6935 18.7201 13.7812L18.8344 13.8896L20.8276 15.8827C22.0211 17.0767 22.0761 19.0158 20.8793 20.2128L19.5932 21.4999C18.2856 22.8076 16.1453 22.701 14.0639 21.9374C11.9176 21.1498 9.52168 19.567 7.35296 17.3984C5.18422 15.2296 3.60151 12.8338 2.8139 10.6874C2.05018 8.60593 1.94368 6.46585 3.2514 5.15812L4.53851 3.87199ZM7.80804 4.98527C7.16756 4.34479 6.17861 4.35325 5.59905 4.93254L4.31292 6.21965C3.66633 6.86625 3.50134 8.20639 4.2221 10.1708C4.91909 12.0701 6.36402 14.2864 8.41448 16.3368C10.4649 18.3872 12.6812 19.8323 14.5805 20.5292C16.5447 21.2498 17.8851 21.085 18.5317 20.4384L19.8188 19.1523C20.398 18.5728 20.4063 17.5838 19.766 16.9433L17.7729 14.9501C17.1325 14.3101 16.1444 14.3185 15.5649 14.8974L15.2885 15.1747C14.5376 15.9255 13.327 15.9968 12.4867 15.3036C11.9505 14.8611 11.4138 14.3811 10.892 13.8593C10.3702 13.3375 9.89022 12.8008 9.44769 12.2646C8.75434 11.4244 8.82571 10.2138 9.57659 9.46281L9.85394 9.18644C10.4328 8.6069 10.4414 7.61782 9.8012 6.97746L7.80804 4.98527Z" fill="black"/>
<path d="M20.4692 3.46965C20.7621 3.17675 21.2378 3.17675 21.5307 3.46965C21.8233 3.76247 21.8233 4.23735 21.5307 4.53019L19.56 6.49992L21.5307 8.46965C21.8233 8.76247 21.8233 9.23735 21.5307 9.53019C21.2378 9.82309 20.7621 9.82309 20.4692 9.53019L18.4994 7.56047L16.5297 9.53019C16.2368 9.82282 15.762 9.823 15.4692 9.53019C15.1766 9.23737 15.1766 8.76247 15.4692 8.46965L17.4389 6.49992L15.4692 4.53019C15.1767 4.23735 15.1766 3.76245 15.4692 3.46965C15.762 3.17686 16.2368 3.17707 16.5297 3.46965L18.4994 5.4384L20.4692 3.46965Z" fill="black"/>
</svg>
