<svg width="24" height="24" viewBox="0 0 24 24" fill="none" xmlns="http://www.w3.org/2000/svg">
<path fill-rule="evenodd" clip-rule="evenodd" d="M4.53851 3.12102C5.73558 1.92421 7.67463 1.97905 8.86859 3.17277L10.8617 5.16594C12.0554 6.35978 12.111 8.2989 10.9145 9.49602L10.6381 9.77238C10.4299 9.98061 10.407 10.3187 10.6049 10.5585C11.022 11.0639 11.4696 11.5648 11.9526 12.0478C12.4356 12.5308 12.9364 12.9784 13.4418 13.3954C13.6817 13.5931 14.0198 13.5704 14.228 13.3622L14.5043 13.0859C15.6641 11.9267 17.52 11.9426 18.7201 13.0302L18.8344 13.1386L20.8276 15.1318C22.0211 16.3257 22.0761 18.2648 20.8793 19.4618L19.5932 20.7489C18.2856 22.0566 16.1453 21.95 14.0639 21.1864C11.9176 20.3989 9.52168 18.8161 7.35296 16.6474C5.18422 14.4786 3.60151 12.0828 2.8139 9.93644C2.05018 7.85495 1.94368 5.71487 3.2514 4.40715L4.53851 3.12102ZM7.80804 4.2343C7.16756 3.59382 6.17861 3.60228 5.59905 4.18156L4.31292 5.46867C3.66633 6.11527 3.50134 7.45542 4.2221 9.41984C4.91909 11.3192 6.36402 13.5354 8.41448 15.5859C10.4649 17.6363 12.6812 19.0813 14.5805 19.7782C16.5447 20.4988 17.8851 20.334 18.5317 19.6874L19.8188 18.4013C20.398 17.8218 20.4063 16.8328 19.766 16.1923L17.7729 14.1991C17.1325 13.5591 16.1444 13.5676 15.5649 14.1464L15.2885 14.4237C14.5376 15.1746 13.327 15.2458 12.4867 14.5527C11.9505 14.1101 11.4138 13.6301 10.892 13.1083C10.3702 12.5865 9.89022 12.0498 9.44769 11.5136C8.75434 10.6734 8.82571 9.46285 9.57659 8.71184L9.85394 8.43547C10.4328 7.85592 10.4414 6.86685 9.8012 6.22648L7.80804 4.2343Z" fill="black"/>
</svg>
