<svg width="24" height="24" viewBox="0 0 24 24" fill="none" xmlns="http://www.w3.org/2000/svg">
<path d="M14.5043 13.0859C15.7015 11.8893 17.6406 11.9448 18.8344 13.1386L20.8276 15.1318C22.0211 16.3257 22.0761 18.2648 20.8793 19.4618L19.5932 20.7489C18.5535 21.7886 16.9782 21.9276 15.3793 21.5761C13.7565 21.2192 11.9284 20.3265 10.1371 19.0302C9.80159 18.7873 9.72631 18.3179 9.96917 17.9823C10.212 17.6472 10.6807 17.5719 11.016 17.8144C12.6962 19.0303 14.337 19.8112 15.7016 20.1112C17.0901 20.4165 18.0226 20.1965 18.5317 19.6874L19.8188 18.4013C20.398 17.8218 20.4063 16.8328 19.766 16.1923L17.7729 14.1991C17.1325 13.5591 16.1444 13.5676 15.5649 14.1464L15.2885 14.4237C14.959 14.7532 14.5392 14.9522 14.103 15.0126C13.6927 15.0692 13.314 14.7822 13.2573 14.372C13.2006 13.9617 13.4876 13.583 13.8979 13.5263C14.0201 13.5093 14.1364 13.4538 14.228 13.3622L14.5043 13.0859Z" fill="black"/>
<path fill-rule="evenodd" clip-rule="evenodd" d="M4.53851 3.12102C5.73558 1.92421 7.67463 1.97905 8.86859 3.17277L10.8617 5.16594C12.0554 6.35978 12.111 8.2989 10.9145 9.49602L10.6381 9.77238C10.4299 9.98061 10.407 10.3187 10.6049 10.5585C11.0131 11.0531 11.4502 11.5431 11.9213 12.0165L19.4692 4.46965L19.5268 4.41789C19.8213 4.17791 20.2552 4.19541 20.5297 4.46965C20.8043 4.7442 20.8216 5.17898 20.5815 5.47355L20.5297 5.53019L5.53069 20.5302C5.2378 20.8231 4.76206 20.8231 4.46917 20.5302C4.17665 20.2374 4.17662 19.7625 4.46917 19.4696L7.32171 16.6161C5.1689 14.4556 3.59775 12.0726 2.8139 9.93644C2.05018 7.85495 1.94368 5.71487 3.2514 4.40715L4.53851 3.12102ZM7.80804 4.2343C7.16756 3.59382 6.17861 3.60228 5.59905 4.18156L4.31292 5.46867C3.66633 6.11527 3.50134 7.45542 4.2221 9.41984C4.91557 11.3096 6.34922 13.5129 8.38323 15.5546L10.8608 13.0771C10.351 12.5651 9.88144 12.0392 9.44769 11.5136C8.75434 10.6734 8.82571 9.46285 9.57659 8.71184L9.85394 8.43547C10.4328 7.85592 10.4414 6.86685 9.8012 6.22648L7.80804 4.2343Z" fill="black"/>
</svg>
