<svg width="24" height="24" viewBox="0 0 24 24" fill="none" xmlns="http://www.w3.org/2000/svg">
<path fill-rule="evenodd" clip-rule="evenodd" d="M12 8.75C14.0711 8.75 15.75 10.4289 15.75 12.5C15.75 14.5711 14.0711 16.25 12 16.25C9.92893 16.25 8.25 14.5711 8.25 12.5C8.25 10.4289 9.92893 8.75 12 8.75ZM12 10.25C10.7574 10.25 9.75 11.2574 9.75 12.5C9.75 13.7426 10.7574 14.75 12 14.75C13.2426 14.75 14.25 13.7426 14.25 12.5C14.25 11.2574 13.2426 10.25 12 10.25Z" fill="black"/>
<path fill-rule="evenodd" clip-rule="evenodd" d="M13.5215 2.25C15.0215 2.25 16.3778 3.14378 16.9688 4.52246L17.2783 5.24512C17.4095 5.55124 17.7109 5.75 18.0439 5.75C20.6429 5.75021 22.7498 7.85707 22.75 10.4561V15.5C22.75 18.6756 20.1756 21.25 17 21.25H7C3.82436 21.25 1.25 18.6756 1.25 15.5V10.4561C1.25021 7.85707 3.35707 5.75021 5.95605 5.75C6.28911 5.75 6.59048 5.55124 6.72168 5.24512L7.03125 4.52246C7.62222 3.14378 8.9785 2.25 10.4785 2.25H13.5215ZM10.4785 3.75C9.57858 3.75 8.76479 4.28619 8.41016 5.11328L8.10059 5.83594C7.73302 6.69359 6.88915 7.25 5.95605 7.25C4.1855 7.25021 2.75021 8.6855 2.75 10.4561V15.5C2.75 17.8472 4.65279 19.75 7 19.75H17C19.3472 19.75 21.25 17.8472 21.25 15.5V10.4561C21.2498 8.6855 19.8145 7.25021 18.0439 7.25C17.1108 7.25 16.267 6.69359 15.8994 5.83594L15.5898 5.11328C15.2352 4.28619 14.4214 3.75 13.5215 3.75H10.4785Z" fill="black"/>
</svg>
