<svg width="24" height="24" viewBox="0 0 24 24" fill="none" xmlns="http://www.w3.org/2000/svg">
<path d="M8.49994 18.5C9.32834 18.5 9.9999 19.1716 9.99994 20C9.99994 20.8285 9.32837 21.5 8.49994 21.5C7.67154 21.5 6.99994 20.8285 6.99994 20C6.99997 19.1717 7.67156 18.5001 8.49994 18.5Z" fill="black"/>
<path d="M17.4999 18.5C18.3283 18.5 18.9999 19.1716 18.9999 20C18.9999 20.8285 18.3284 21.5 17.4999 21.5C16.6715 21.5 15.9999 20.8285 15.9999 20C16 19.1717 16.6716 18.5001 17.4999 18.5Z" fill="black"/>
<path d="M12.9999 12.75C13.4141 12.75 13.7499 13.0859 13.7499 13.5C13.7499 13.9143 13.4142 14.25 12.9999 14.25H8.99994C8.58575 14.25 8.24994 13.9142 8.24994 13.5C8.24997 13.0859 8.58578 12.7501 8.99994 12.75H12.9999Z" fill="black"/>
<path fill-rule="evenodd" clip-rule="evenodd" d="M1.26459 2.85259C1.34601 2.44668 1.7414 2.18354 2.1474 2.2647L3.19623 2.47466C4.38145 2.7117 5.27319 3.69482 5.39349 4.89751L5.47845 5.75005H19.0546C21.0386 5.75034 22.4938 7.61526 22.0126 9.54009L20.8906 14.0313C20.4175 15.923 18.7174 17.2499 16.7675 17.25H7.77435C6.38249 17.25 5.20995 16.2101 5.04388 14.8282L4.0556 6.58989L4.05365 6.57427L3.90131 5.04692C3.84661 4.50029 3.44097 4.05313 2.90228 3.94536L1.85248 3.7354C1.44656 3.65396 1.18338 3.25861 1.26459 2.85259ZM6.53314 14.6495C6.60874 15.2775 7.14179 15.75 7.77435 15.75H16.7675C18.0293 15.7499 19.1295 14.8912 19.4355 13.667L20.5576 9.17583C20.802 8.19774 20.0627 7.25034 19.0546 7.25005H5.64545L6.53314 14.6495Z" fill="black"/>
</svg>
