<svg width="24" height="24" viewBox="0 0 24 24" fill="none" xmlns="http://www.w3.org/2000/svg">
<path d="M9.75 6C9.75 5.30964 9.19036 4.75 8.5 4.75H5.5C4.80964 4.75 4.25 5.30964 4.25 6C4.25 6.69036 4.80964 7.25 5.5 7.25H8.5C9.19036 7.25 9.75 6.69036 9.75 6ZM11.25 6C11.25 7.51878 10.0188 8.75 8.5 8.75H5.5C3.98122 8.75 2.75 7.51878 2.75 6C2.75 4.48122 3.98122 3.25 5.5 3.25H8.5C10.0188 3.25 11.25 4.48122 11.25 6Z" fill="black"/>
<path d="M9.75 13.5C9.75 12.5335 8.9665 11.75 8 11.75H6C5.0335 11.75 4.25 12.5335 4.25 13.5V18.5C4.25 19.4665 5.0335 20.25 6 20.25H8C8.9665 20.25 9.75 19.4665 9.75 18.5V13.5ZM11.25 18.5C11.25 20.2949 9.79493 21.75 8 21.75H6C4.20507 21.75 2.75 20.2949 2.75 18.5V13.5C2.75 11.7051 4.20507 10.25 6 10.25H8C9.79493 10.25 11.25 11.7051 11.25 13.5V18.5Z" fill="black"/>
<path d="M19.75 6.5C19.75 5.5335 18.9665 4.75 18 4.75H16C15.0335 4.75 14.25 5.5335 14.25 6.5V11.5C14.25 12.4665 15.0335 13.25 16 13.25H18C18.9665 13.25 19.75 12.4665 19.75 11.5V6.5ZM21.25 11.5C21.25 13.2949 19.7949 14.75 18 14.75H16C14.2051 14.75 12.75 13.2949 12.75 11.5V6.5C12.75 4.70507 14.2051 3.25 16 3.25H18C19.7949 3.25 21.25 4.70507 21.25 6.5V11.5Z" fill="black"/>
<path d="M19.75 19C19.75 18.3096 19.1904 17.75 18.5 17.75H15.5C14.8096 17.75 14.25 18.3096 14.25 19C14.25 19.6904 14.8096 20.25 15.5 20.25H18.5C19.1904 20.25 19.75 19.6904 19.75 19ZM21.25 19C21.25 20.5188 20.0188 21.75 18.5 21.75H15.5C13.9812 21.75 12.75 20.5188 12.75 19C12.75 17.4812 13.9812 16.25 15.5 16.25H18.5C20.0188 16.25 21.25 17.4812 21.25 19Z" fill="black"/>
</svg>
