<svg width="24" height="24" viewBox="0 0 24 24" fill="none" xmlns="http://www.w3.org/2000/svg">
<path fill-rule="evenodd" clip-rule="evenodd" d="M8 13.25C9.79493 13.25 11.25 14.7051 11.25 16.5V18.5C11.25 20.2949 9.79493 21.75 8 21.75H6C4.20507 21.75 2.75 20.2949 2.75 18.5V16.5C2.75 14.7051 4.20507 13.25 6 13.25H8ZM6 14.75C5.0335 14.75 4.25 15.5335 4.25 16.5V18.5C4.25 19.4665 5.0335 20.25 6 20.25H8C8.9665 20.25 9.75 19.4665 9.75 18.5V16.5C9.75 15.5335 8.9665 14.75 8 14.75H6Z" fill="black"/>
<path fill-rule="evenodd" clip-rule="evenodd" d="M18 13.25C19.7949 13.25 21.25 14.7051 21.25 16.5V18.5C21.25 20.2949 19.7949 21.75 18 21.75H16C14.2051 21.75 12.75 20.2949 12.75 18.5V16.5C12.75 14.7051 14.2051 13.25 16 13.25H18ZM16 14.75C15.0335 14.75 14.25 15.5335 14.25 16.5V18.5C14.25 19.4665 15.0335 20.25 16 20.25H18C18.9665 20.25 19.75 19.4665 19.75 18.5V16.5C19.75 15.5335 18.9665 14.75 18 14.75H16Z" fill="black"/>
<path fill-rule="evenodd" clip-rule="evenodd" d="M8 3.25C9.79493 3.25 11.25 4.70507 11.25 6.5V8.5C11.25 10.2949 9.79493 11.75 8 11.75H6C4.20507 11.75 2.75 10.2949 2.75 8.5V6.5C2.75 4.70507 4.20507 3.25 6 3.25H8ZM6 4.75C5.0335 4.75 4.25 5.5335 4.25 6.5V8.5C4.25 9.4665 5.0335 10.25 6 10.25H8C8.9665 10.25 9.75 9.4665 9.75 8.5V6.5C9.75 5.5335 8.9665 4.75 8 4.75H6Z" fill="black"/>
<path fill-rule="evenodd" clip-rule="evenodd" d="M18 3.25C19.7949 3.25 21.25 4.70507 21.25 6.5V8.5C21.25 10.2949 19.7949 11.75 18 11.75H16C14.2051 11.75 12.75 10.2949 12.75 8.5V6.5C12.75 4.70507 14.2051 3.25 16 3.25H18ZM16 4.75C15.0335 4.75 14.25 5.5335 14.25 6.5V8.5C14.25 9.4665 15.0335 10.25 16 10.25H18C18.9665 10.25 19.75 9.4665 19.75 8.5V6.5C19.75 5.5335 18.9665 4.75 18 4.75H16Z" fill="black"/>
</svg>
