<svg width="24" height="24" viewBox="0 0 24 24" fill="none" xmlns="http://www.w3.org/2000/svg">
<path d="M1.25 17V7C1.25 3.82436 3.82436 1.25 7 1.25H16C16.4142 1.25 16.75 1.58579 16.75 2C16.75 2.41421 16.4142 2.75 16 2.75H7C4.65279 2.75 2.75 4.65279 2.75 7V17C2.75 19.3472 4.65279 21.25 7 21.25H17C19.3472 21.25 21.25 19.3472 21.25 17V9C21.25 8.58579 21.5858 8.25 22 8.25C22.4142 8.25 22.75 8.58579 22.75 9V17C22.75 20.1756 20.1756 22.75 17 22.75H7C3.82436 22.75 1.25 20.1756 1.25 17Z" fill="black"/>
<path d="M19.75 4C19.75 3.30964 20.3096 2.75 21 2.75C21.6904 2.75 22.25 3.30964 22.25 4C22.25 4.69036 21.6904 5.25 21 5.25C20.3096 5.25 19.75 4.69036 19.75 4ZM18.25 4C18.25 5.51878 19.4812 6.75 21 6.75C22.5188 6.75 23.75 5.51878 23.75 4C23.75 2.48122 22.5188 1.25 21 1.25C19.4812 1.25 18.25 2.48122 18.25 4Z" fill="black"/>
<path d="M7.56445 15.2441C7.29167 15.5557 6.81754 15.5872 6.50586 15.3145C6.19426 15.0417 6.16283 14.5675 6.43555 14.2559L9.93555 10.2559C10.2037 9.94956 10.6677 9.9132 10.9805 10.1738L13.418 12.2051L16.4355 8.75586C16.7083 8.44426 17.1825 8.41283 17.4941 8.68555C17.8057 8.95833 17.8372 9.43246 17.5645 9.74414L14.0645 13.7441C13.7963 14.0504 13.3323 14.0868 13.0195 13.8262L10.583 11.7959L7.56445 15.2441Z" fill="black"/>
</svg>
