<svg width="24" height="24" viewBox="0 0 24 24" fill="none" xmlns="http://www.w3.org/2000/svg">
<path d="M14.9697 8.96973C15.2626 8.6771 15.7375 8.67692 16.0303 8.96973C16.3231 9.26253 16.3229 9.73736 16.0303 10.0303L12.0303 14.0303C11.7374 14.3232 11.2626 14.3232 10.9697 14.0303L8.96973 12.0303C8.67705 11.7374 8.6769 11.2625 8.96973 10.9697C9.26255 10.6769 9.73736 10.677 10.0303 10.9697L11.5 12.4395L14.9697 8.96973Z" fill="black"/>
<path fill-rule="evenodd" clip-rule="evenodd" d="M17 1.25C20.1756 1.25 22.75 3.82436 22.75 7V17C22.75 20.1756 20.1756 22.75 17 22.75H7C3.82436 22.75 1.25 20.1756 1.25 17V7C1.25 3.82436 3.82436 1.25 7 1.25H17ZM7 2.75C4.65279 2.75 2.75 4.65279 2.75 7V17C2.75 19.3472 4.65279 21.25 7 21.25H17C19.3472 21.25 21.25 19.3472 21.25 17V7C21.25 4.65279 19.3472 2.75 17 2.75H7Z" fill="black"/>
</svg>
