<svg width="24" height="24" viewBox="0 0 24 24" fill="none" xmlns="http://www.w3.org/2000/svg">
<path fill-rule="evenodd" clip-rule="evenodd" d="M11.4443 5.25C13.9472 5.25 16.1351 6.5907 17.333 8.58984C20.2021 8.47651 22.7498 10.8219 22.75 13.7773C22.75 16.6461 20.4244 18.9726 17.5557 18.9727H5.33301C3.07799 18.9725 1.25 17.1437 1.25 14.8887C1.25011 12.8644 2.76558 11.173 4.69727 10.8584C5.28628 7.66701 8.08279 5.25005 11.4443 5.25ZM11.4443 6.75C8.65095 6.75006 6.35537 8.88741 6.10547 11.6152C6.06935 12.0073 5.74065 12.3059 5.34863 12.3057C3.93653 12.3044 2.75012 13.4796 2.75 14.8887C2.75 16.3153 3.90642 17.4725 5.33301 17.4727H17.5557C19.596 17.4726 21.25 15.8177 21.25 13.7773C21.2497 11.5649 19.2033 9.80951 17.0264 10.1211C16.7062 10.1669 16.3874 10.0046 16.2393 9.70996C15.3574 7.95334 13.5405 6.75 11.4443 6.75Z" fill="black"/>
</svg>
