<svg width="24" height="24" viewBox="0 0 24 24" fill="none" xmlns="http://www.w3.org/2000/svg">
<path fill-rule="evenodd" clip-rule="evenodd" d="M12 3.25C13.9957 3.25 15.8351 3.53813 17.2021 4.02637C17.8823 4.2693 18.4858 4.57597 18.9336 4.9541C19.378 5.32935 19.75 5.84845 19.75 6.5V18.5C19.75 19.1515 19.378 19.6707 18.9336 20.0459C18.4858 20.424 17.8823 20.7307 17.2021 20.9736C15.8351 21.4619 13.9957 21.75 12 21.75C10.0043 21.75 8.16491 21.4619 6.79785 20.9736C6.1177 20.7307 5.51423 20.424 5.06641 20.0459C4.62201 19.6707 4.25 19.1515 4.25 18.5V6.5C4.25 5.84845 4.62201 5.32935 5.06641 4.9541C5.51423 4.57597 6.1177 4.2693 6.79785 4.02637C8.16491 3.53813 10.0043 3.25 12 3.25ZM18.25 16.5068C17.9331 16.6824 17.5799 16.8387 17.2021 16.9736C15.8351 17.4619 13.9957 17.75 12 17.75C10.0043 17.75 8.16491 17.4619 6.79785 16.9736C6.42009 16.8387 6.06694 16.6824 5.75 16.5068V18.5C5.75 18.5388 5.77015 18.6774 6.03418 18.9004C6.29476 19.1203 6.71646 19.3521 7.30273 19.5615C8.46917 19.9781 10.1298 20.25 12 20.25C13.8702 20.25 15.5308 19.9781 16.6973 19.5615C17.2835 19.3521 17.7052 19.1203 17.9658 18.9004C18.2299 18.6774 18.25 18.5388 18.25 18.5V16.5068ZM18.25 12.5068C17.9331 12.6824 17.5799 12.8387 17.2021 12.9736C15.8351 13.4619 13.9957 13.75 12 13.75C10.0043 13.75 8.16491 13.4619 6.79785 12.9736C6.42009 12.8387 6.06694 12.6824 5.75 12.5068V14.5C5.75 14.5388 5.77015 14.6774 6.03418 14.9004C6.29476 15.1203 6.71646 15.3521 7.30273 15.5615C8.46917 15.9781 10.1298 16.25 12 16.25C13.8702 16.25 15.5308 15.9781 16.6973 15.5615C17.2835 15.3521 17.7052 15.1203 17.9658 14.9004C18.2299 14.6774 18.25 14.5388 18.25 14.5V12.5068ZM18.25 8.50684C17.9331 8.68244 17.5799 8.8387 17.2021 8.97363C15.8351 9.46187 13.9957 9.75 12 9.75C10.0043 9.75 8.16491 9.46187 6.79785 8.97363C6.42009 8.8387 6.06694 8.68244 5.75 8.50684V10.5C5.75 10.5388 5.77015 10.6774 6.03418 10.9004C6.29476 11.1203 6.71646 11.3521 7.30273 11.5615C8.46917 11.9781 10.1298 12.25 12 12.25C13.8702 12.25 15.5308 11.9781 16.6973 11.5615C17.2835 11.3521 17.7052 11.1203 17.9658 10.9004C18.2299 10.6774 18.25 10.5388 18.25 10.5V8.50684ZM12 4.75C10.1298 4.75 8.46917 5.02193 7.30273 5.43848C6.71646 5.64786 6.29476 5.87967 6.03418 6.09961C5.77015 6.32255 5.75 6.4612 5.75 6.5C5.75 6.5388 5.77015 6.67745 6.03418 6.90039C6.29476 7.12033 6.71646 7.35214 7.30273 7.56152C8.46917 7.97807 10.1298 8.25 12 8.25C13.8702 8.25 15.5308 7.97807 16.6973 7.56152C17.2835 7.35214 17.7052 7.12033 17.9658 6.90039C18.2299 6.67745 18.25 6.5388 18.25 6.5C18.25 6.4612 18.2299 6.32255 17.9658 6.09961C17.7052 5.87967 17.2835 5.64786 16.6973 5.43848C15.5308 5.02193 13.8702 4.75 12 4.75Z" fill="black"/>
</svg>
