<svg width="24" height="24" viewBox="0 0 24 24" fill="none" xmlns="http://www.w3.org/2000/svg">
<path d="M9.46218 12.7885C10.4284 12.7888 11.2112 13.5722 11.2112 14.5385V18.1538C11.2111 18.5677 10.8761 18.9035 10.4622 18.9038C10.048 18.9038 9.7123 18.5679 9.71218 18.1538V15.3481L4.83816 20.2221C4.54527 20.515 4.07051 20.515 3.77761 20.2221C3.4848 19.9292 3.48475 19.4544 3.77761 19.1616L8.65066 14.2885H5.84597C5.432 14.2883 5.09611 13.9525 5.09597 13.5385C5.09597 13.1244 5.43191 12.7887 5.84597 12.7885H9.46218Z" fill="black"/>
<path d="M19.1614 3.77778C19.4543 3.48488 19.93 3.48488 20.2229 3.77778C20.5156 4.07058 20.5155 4.54545 20.2229 4.83832L15.3489 9.71235H18.1536C18.5677 9.71246 18.9036 10.0482 18.9036 10.4623C18.9035 10.8764 18.5676 11.2122 18.1536 11.2123H14.5384C13.572 11.2123 12.7885 10.4287 12.7884 9.46235V5.84711C12.7884 5.43295 13.1242 5.09715 13.5384 5.09711C13.9525 5.09715 14.2883 5.43295 14.2884 5.84711V8.65082L19.1614 3.77778Z" fill="black"/>
</svg>
