<svg width="24" height="24" viewBox="0 0 24 24" fill="none" xmlns="http://www.w3.org/2000/svg">
<path d="M7 17C7.55228 17 8 17.4477 8 18C8 18.5523 7.55228 19 7 19C6.44772 19 6 18.5523 6 18C6 17.4477 6.44772 17 7 17Z" fill="black"/>
<path fill-rule="evenodd" clip-rule="evenodd" d="M9 1.25C10.5765 1.25 11.924 2.22351 12.4785 3.60156L12.4902 3.59082C13.9547 2.12636 16.3295 2.12635 17.7939 3.59082L20.6221 6.41895C22.0635 7.86039 22.0846 10.1822 20.6885 11.6514C21.9113 12.2692 22.75 13.5364 22.75 15V19C22.75 21.0711 21.0711 22.75 19 22.75H5C2.92894 22.75 1.25 21.0711 1.25 19V5C1.25 2.92894 2.92894 1.25001 5 1.25H9ZM5 2.75C3.75737 2.75001 2.75 3.75736 2.75 5V19C2.75 20.2426 3.75737 21.25 5 21.25H9C10.2426 21.25 11.25 20.2426 11.25 19V5C11.25 3.75736 10.2426 2.75 9 2.75H5ZM12.6924 19.6514C12.5886 20.2437 12.3469 20.7882 12 21.25H19C20.2426 21.25 21.25 20.2426 21.25 19V15C21.25 13.9396 20.5157 13.0534 19.5283 12.8154L12.6924 19.6514ZM16.7334 4.65137C15.8547 3.77269 14.4295 3.77269 13.5508 4.65137L12.75 5.45215V17.4736L19.5615 10.6621C20.4401 9.78349 20.44 8.35916 19.5615 7.48047L16.7334 4.65137Z" fill="black"/>
</svg>
