<svg width="24" height="24" viewBox="0 0 24 24" fill="none" xmlns="http://www.w3.org/2000/svg">
<path fill-rule="evenodd" clip-rule="evenodd" d="M14.627 8.44922C14.8876 8.37653 15.167 8.45024 15.3584 8.6416C15.5498 8.83299 15.6234 9.11237 15.5508 9.37305L14.3135 13.793C14.2428 14.045 14.045 14.2428 13.793 14.3135L9.37305 15.5508C9.11252 15.6235 8.83302 15.5505 8.6416 15.3594C8.45016 15.1679 8.37644 14.8877 8.44922 14.627L9.68652 10.207C9.75723 9.95505 9.95502 9.75717 10.207 9.68652L14.627 8.44922ZM11.0176 11.0186L10.2539 13.7461L12.9824 12.9824L13.7471 10.2529L11.0176 11.0186Z" fill="black"/>
<path fill-rule="evenodd" clip-rule="evenodd" d="M12 1.25C17.9371 1.25 22.75 6.06294 22.75 12C22.75 17.9371 17.9371 22.75 12 22.75C6.06294 22.75 1.25 17.9371 1.25 12C1.25 6.06294 6.06294 1.25 12 1.25ZM12 2.75C6.89137 2.75 2.75 6.89137 2.75 12C2.75 17.1086 6.89137 21.25 12 21.25C17.1086 21.25 21.25 17.1086 21.25 12C21.25 6.89137 17.1086 2.75 12 2.75Z" fill="black"/>
</svg>
