<svg width="24" height="24" viewBox="0 0 24 24" fill="none" xmlns="http://www.w3.org/2000/svg">
<path d="M16.8506 7.02539C17.0581 6.66702 17.5175 6.54459 17.876 6.75195C18.9948 7.39924 19.75 8.61113 19.75 10V18C19.75 20.0711 18.0711 21.75 16 21.75H12C10.6111 21.75 9.39924 20.9948 8.75195 19.876C8.54459 19.5175 8.66702 19.0581 9.02539 18.8506C9.38385 18.6432 9.84331 18.7657 10.0508 19.124C10.4409 19.7985 11.1681 20.25 12 20.25H16C17.2426 20.25 18.25 19.2426 18.25 18V10C18.25 9.16814 17.7985 8.44095 17.124 8.05078C16.7657 7.84331 16.6432 7.38385 16.8506 7.02539Z" fill="black"/>
<path fill-rule="evenodd" clip-rule="evenodd" d="M12 2.25C14.0711 2.25 15.75 3.92893 15.75 6V14C15.75 16.0711 14.0711 17.75 12 17.75H8C5.92893 17.75 4.25 16.0711 4.25 14V6C4.25 3.92893 5.92893 2.25 8 2.25H12ZM8 3.75C6.75736 3.75 5.75 4.75736 5.75 6V14C5.75 15.2426 6.75736 16.25 8 16.25H12C13.2426 16.25 14.25 15.2426 14.25 14V6C14.25 4.75736 13.2426 3.75 12 3.75H8Z" fill="black"/>
</svg>
