<svg width="24" height="24" viewBox="0 0 24 24" fill="none" xmlns="http://www.w3.org/2000/svg">
<path d="M13.6416 13.6416C13.9506 13.3326 14.4516 13.3328 14.7607 13.6416C15.0699 13.9507 15.0698 14.4516 14.7607 14.7607C14.4516 15.0699 13.9507 15.0699 13.6416 14.7607C13.3328 14.4516 13.3326 13.9506 13.6416 13.6416Z" fill="black"/>
<path d="M13.708 9.23047C14.0009 8.93758 14.4766 8.93758 14.7695 9.23047C15.0622 9.52323 15.062 9.9981 14.7695 10.291L10.292 14.7686C9.99911 15.0614 9.52434 15.0614 9.23145 14.7686C8.93855 14.4757 8.93855 14.0009 9.23145 13.708L13.708 9.23047Z" fill="black"/>
<path d="M9.23926 9.23926C9.54838 8.93018 10.0493 8.93016 10.3584 9.23926C10.6672 9.54838 10.6674 10.0494 10.3584 10.3584C10.0494 10.6674 9.5484 10.6672 9.23926 10.3584C8.93014 10.0493 8.93014 9.54837 9.23926 9.23926Z" fill="black"/>
<path fill-rule="evenodd" clip-rule="evenodd" d="M18 3.25C20.6234 3.25 22.75 5.37665 22.75 8V9.22266C22.75 9.78805 22.356 10.1975 21.9297 10.3447C21.2425 10.5817 20.75 11.2344 20.75 12C20.75 12.7651 21.2415 13.4172 21.9287 13.6543C22.3553 13.8013 22.75 14.2108 22.75 14.7764V16C22.75 18.6234 20.6234 20.75 18 20.75H6C3.37665 20.75 1.25 18.6234 1.25 16V14.7764C1.25 14.2108 1.64472 13.8013 2.07129 13.6543L2.19727 13.6055C2.81781 13.3358 3.25 12.7175 3.25 12C3.25 11.2344 2.75751 10.5817 2.07031 10.3447C1.64399 10.1975 1.25 9.78805 1.25 9.22266V8C1.25 5.37665 3.37665 3.25 6 3.25H18ZM6 4.75C4.20507 4.75 2.75 6.20507 2.75 8V9C3.92353 9.4896 4.75 10.6472 4.75 12C4.75 13.3529 3.92305 14.5086 2.75 14.998V16C2.75 17.7949 4.20507 19.25 6 19.25H18L18.167 19.2461C19.8843 19.1592 21.25 17.7389 21.25 16V14.998C20.0769 14.5086 19.25 13.3529 19.25 12C19.25 10.6472 20.0765 9.4896 21.25 9V8C21.25 6.20507 19.7949 4.75 18 4.75H6Z" fill="black"/>
</svg>
