<svg width="24" height="24" viewBox="0 0 24 24" fill="none" xmlns="http://www.w3.org/2000/svg">
<path fill-rule="evenodd" clip-rule="evenodd" d="M11.1016 7.95996C11.6247 7.41664 12.5281 7.45555 12.9971 8.07617L13.9414 9.32617L15.4238 9.83887C16.2079 10.1101 16.5152 11.0561 16.04 11.7363L15.1416 13.0205L15.1133 14.5879C15.0979 15.4176 14.2929 16.0025 13.499 15.7607L12 15.3037L10.501 15.7607C9.70712 16.0025 8.90209 15.4176 8.88672 14.5879L8.85742 13.0205L7.95996 11.7363C7.48478 11.0562 7.79209 10.1101 8.57617 9.83887L10.0576 9.32617L11.0029 8.07617L11.1016 7.95996ZM11.209 10.292C11.0595 10.4898 10.8545 10.6387 10.6201 10.7197L9.37891 11.1484L10.1309 12.2246C10.2373 12.3771 10.3082 12.5506 10.3389 12.7324L10.3564 12.917L10.3799 14.2285L11.6357 13.8467C11.8138 13.7924 12.001 13.7795 12.1836 13.8066L12.3643 13.8467L13.6191 14.2285L13.6436 12.917C13.6482 12.6689 13.7271 12.428 13.8691 12.2246L14.6201 11.1484L13.3799 10.7197C13.1455 10.6387 12.9405 10.4898 12.791 10.292L12 9.24414L11.209 10.292Z" fill="black"/>
<path fill-rule="evenodd" clip-rule="evenodd" d="M18 3.25C20.6234 3.25 22.75 5.37665 22.75 8V9.22266C22.75 9.78805 22.356 10.1975 21.9297 10.3447C21.2425 10.5817 20.75 11.2344 20.75 12C20.75 12.7651 21.2415 13.4172 21.9287 13.6543C22.3553 13.8013 22.75 14.2108 22.75 14.7764V16C22.75 18.6234 20.6234 20.75 18 20.75H6C3.37665 20.75 1.25 18.6234 1.25 16V14.7764C1.25 14.2108 1.64472 13.8013 2.07129 13.6543L2.19727 13.6055C2.81781 13.3358 3.25 12.7175 3.25 12C3.25 11.2344 2.75751 10.5817 2.07031 10.3447C1.64399 10.1975 1.25 9.78805 1.25 9.22266V8C1.25 5.37665 3.37665 3.25 6 3.25H18ZM6 4.75C4.20507 4.75 2.75 6.20507 2.75 8V9C3.92353 9.4896 4.75 10.6472 4.75 12C4.75 13.3529 3.92305 14.5086 2.75 14.998V16C2.75 17.7949 4.20507 19.25 6 19.25H18L18.167 19.2461C19.8843 19.1592 21.25 17.7389 21.25 16V14.998C20.0769 14.5086 19.25 13.3529 19.25 12C19.25 10.6472 20.0765 9.4896 21.25 9V8C21.25 6.20507 19.7949 4.75 18 4.75H6Z" fill="black"/>
</svg>
