<svg width="24" height="24" viewBox="0 0 24 24" fill="none" xmlns="http://www.w3.org/2000/svg">
<path d="M21.25 8C21.25 6.20507 19.7949 4.75 18 4.75H6C4.20507 4.75 2.75 6.20507 2.75 8V9C3.92353 9.4896 4.75 10.6472 4.75 12C4.75 13.3529 3.92305 14.5086 2.75 14.998V16C2.75 17.7949 4.20507 19.25 6 19.25H18L18.167 19.2461C19.8843 19.1592 21.25 17.7389 21.25 16V14.998C20.0769 14.5086 19.25 13.3529 19.25 12C19.25 10.6472 20.0765 9.4896 21.25 9V8ZM22.75 9.22266C22.75 9.78805 22.356 10.1975 21.9297 10.3447C21.2425 10.5817 20.75 11.2344 20.75 12C20.75 12.7651 21.2415 13.4172 21.9287 13.6543C22.3553 13.8013 22.75 14.2108 22.75 14.7764V16C22.75 18.6234 20.6234 20.75 18 20.75H6C3.37665 20.75 1.25 18.6234 1.25 16V14.7764C1.25 14.2108 1.64472 13.8013 2.07129 13.6543L2.19727 13.6055C2.81781 13.3358 3.25 12.7175 3.25 12C3.25 11.2344 2.75751 10.5817 2.07031 10.3447C1.64399 10.1975 1.25 9.78805 1.25 9.22266V8C1.25 5.37665 3.37665 3.25 6 3.25H18C20.6234 3.25 22.75 5.37665 22.75 8V9.22266Z" fill="black"/>
<path d="M10.3583 10.3576C10.0492 10.6667 9.54803 10.6667 9.23892 10.3576C8.9298 10.0485 8.9298 9.5473 9.23892 9.23818C9.54803 8.92907 10.0492 8.92907 10.3583 9.23818C10.6674 9.5473 10.6674 10.0485 10.3583 10.3576Z" fill="black"/>
<path d="M14.7613 14.7605C14.4522 15.0696 13.951 15.0696 13.6419 14.7605C13.3328 14.4514 13.3328 13.9502 13.6419 13.6411C13.951 13.332 14.4522 13.332 14.7613 13.6411C15.0704 13.9502 15.0704 14.4514 14.7613 14.7605Z" fill="black"/>
<path d="M10.2918 14.7682C9.99893 15.061 9.52406 15.061 9.23116 14.7682C8.93827 14.4753 8.93827 14.0004 9.23116 13.7075L13.7086 9.23007C14.0015 8.93718 14.4764 8.93718 14.7692 9.23007C15.0621 9.52297 15.0621 9.99784 14.7692 10.2907L10.2918 14.7682Z" fill="black"/>
</svg>
