<svg width="24" height="24" viewBox="0 0 24 24" fill="none" xmlns="http://www.w3.org/2000/svg">
<path d="M11 14.75C11.4142 14.75 11.75 15.0858 11.75 15.5C11.75 15.9142 11.4142 16.25 11 16.25H6C5.58579 16.25 5.25 15.9142 5.25 15.5C5.25 15.0858 5.58579 14.75 6 14.75H11Z" fill="black"/>
<path fill-rule="evenodd" clip-rule="evenodd" d="M17 3.25C20.1756 3.25 22.75 5.82436 22.75 9V15C22.75 18.1756 20.1756 20.75 17 20.75H7C3.82436 20.75 1.25 18.1756 1.25 15V9C1.25 5.82436 3.82436 3.25 7 3.25H17ZM2.75 15C2.75 17.3472 4.65279 19.25 7 19.25H17C19.3472 19.25 21.25 17.3472 21.25 15V10.25H2.75V15ZM7 4.75C4.73672 4.75 2.88723 6.51917 2.75781 8.75H21.2422C21.1128 6.51917 19.2633 4.75 17 4.75H7Z" fill="black"/>
</svg>
