<svg width="24" height="24" viewBox="0 0 24 24" fill="none" xmlns="http://www.w3.org/2000/svg">
<path fill-rule="evenodd" clip-rule="evenodd" d="M13.0635 1.25C13.8795 1.25007 14.6533 1.61244 15.1758 2.23926L19.1123 6.96387C19.524 7.45796 19.7499 8.08048 19.75 8.72363V12C19.75 12.4142 19.4142 12.75 19 12.75C18.5858 12.75 18.25 12.4142 18.25 12V8.75H16C14.4812 8.75 13.25 7.51878 13.25 6V2.76562C13.1886 2.75632 13.1264 2.75001 13.0635 2.75H7C5.20507 2.75 3.75 4.20507 3.75 6V18C3.75 19.7949 5.20507 21.25 7 21.25H12C12.4142 21.25 12.75 21.5858 12.75 22C12.75 22.4142 12.4142 22.75 12 22.75H7C4.37665 22.75 2.25 20.6234 2.25 18V6C2.25 3.37665 4.37665 1.25 7 1.25H13.0635ZM14.75 6C14.75 6.69036 15.3096 7.25 16 7.25H17.3984L14.75 4.07129V6Z" fill="black"/>
<path d="M22 18.25C22.4142 18.25 22.75 18.5858 22.75 19C22.75 19.4142 22.4142 19.75 22 19.75H16C15.5858 19.75 15.25 19.4142 15.25 19C15.25 18.5858 15.5858 18.25 16 18.25H22Z" fill="black"/>
</svg>
