<svg width="24" height="24" viewBox="0 0 24 24" fill="none" xmlns="http://www.w3.org/2000/svg">
<path d="M12 16.25C12.4142 16.25 12.75 16.5858 12.75 17C12.75 17.4142 12.4142 17.75 12 17.75H8C7.58579 17.75 7.25 17.4142 7.25 17C7.25 16.5858 7.58579 16.25 8 16.25H12Z" fill="black"/>
<path d="M16 11.25C16.4142 11.25 16.75 11.5858 16.75 12C16.75 12.4142 16.4142 12.75 16 12.75H8C7.58579 12.75 7.25 12.4142 7.25 12C7.25 11.5858 7.58579 11.25 8 11.25H16Z" fill="black"/>
<path fill-rule="evenodd" clip-rule="evenodd" d="M14.0635 1.25C14.8795 1.25007 15.6533 1.61244 16.1758 2.23926L20.1123 6.96387C20.524 7.45796 20.7499 8.08048 20.75 8.72363V18C20.75 20.6234 18.6234 22.75 16 22.75H8C5.37665 22.75 3.25 20.6234 3.25 18V6C3.25 3.37665 5.37665 1.25 8 1.25H14.0635ZM8 2.75C6.20507 2.75 4.75 4.20507 4.75 6V18C4.75 19.7949 6.20507 21.25 8 21.25H16C17.7949 21.25 19.25 19.7949 19.25 18V8.75H17C15.4812 8.75 14.25 7.51878 14.25 6V2.76562C14.1886 2.75632 14.1264 2.75001 14.0635 2.75H8ZM15.75 6C15.75 6.69036 16.3096 7.25 17 7.25H18.3984L15.75 4.07129V6Z" fill="black"/>
</svg>
