<svg width="24" height="24" viewBox="0 0 24 24" fill="none" xmlns="http://www.w3.org/2000/svg">
<path d="M15.8496 11.21C16.1312 10.9065 16.1139 10.4322 15.8105 10.1504C15.507 9.86854 15.0319 9.88592 14.75 10.1895L12.2334 12.9004C12.1345 13.0069 11.9661 13.0068 11.8672 12.9004L9.34961 10.1895C9.06781 9.8861 8.59354 9.86878 8.29004 10.1504C7.98664 10.4321 7.96855 10.9064 8.25 11.21L10.7676 13.9209C11.4599 14.6665 12.6397 14.6665 13.332 13.9209L15.8496 11.21Z" fill="black"/>
<path fill-rule="evenodd" clip-rule="evenodd" d="M22.75 12C22.75 6.06294 17.9371 1.25 12 1.25C6.06294 1.25 1.25 6.06294 1.25 12C1.25 17.9371 6.06294 22.75 12 22.75C17.9371 22.75 22.75 17.9371 22.75 12ZM21.25 12C21.25 17.1086 17.1086 21.25 12 21.25C6.89137 21.25 2.75 17.1086 2.75 12C2.75 6.89137 6.89137 2.75 12 2.75C17.1086 2.75 21.25 6.89137 21.25 12Z" fill="black"/>
</svg>
