<svg width="24" height="24" viewBox="0 0 24 24" fill="none" xmlns="http://www.w3.org/2000/svg">
<path d="M15.5303 11.5303C15.8232 11.2374 15.8232 10.7626 15.5303 10.4697C15.2374 10.1768 14.7626 10.1768 14.4697 10.4697L12.1768 12.7627C12.0791 12.8602 11.9209 12.8602 11.8232 12.7627L9.53027 10.4697C9.23738 10.1768 8.76262 10.1768 8.46973 10.4697C8.17683 10.7626 8.17683 11.2374 8.46973 11.5303L10.7627 13.8232C11.4461 14.5066 12.5539 14.5066 13.2373 13.8232L15.5303 11.5303Z" fill="black"/>
<path fill-rule="evenodd" clip-rule="evenodd" d="M22.75 7C22.75 3.82436 20.1756 1.25 17 1.25L7 1.25C3.82436 1.25 1.25 3.82436 1.25 7L1.25 17C1.25 20.1756 3.82436 22.75 7 22.75H17L17.2959 22.7422C20.334 22.5882 22.75 20.0764 22.75 17V7ZM21.25 17L21.2441 17.2188C21.1303 19.4643 19.2738 21.25 17 21.25H7C4.65279 21.25 2.75 19.3472 2.75 17L2.75 7C2.75 4.65279 4.65279 2.75 7 2.75L17 2.75C19.2738 2.75 21.1303 4.53571 21.2441 6.78125L21.25 7V17Z" fill="black"/>
</svg>
