<svg width="24" height="24" viewBox="0 0 24 24" fill="none" xmlns="http://www.w3.org/2000/svg">
<path d="M21.2441 6.78125C21.1303 4.53571 19.2738 2.75 17 2.75H7C4.65279 2.75 2.75 4.65279 2.75 7V17C2.75 19.3472 4.65279 21.25 7 21.25H17C19.2738 21.25 21.1303 19.4643 21.2441 17.2188L21.25 17V7L21.2441 6.78125ZM14.4697 10.4697C14.7626 10.1768 15.2374 10.1768 15.5303 10.4697C15.8232 10.7626 15.8232 11.2374 15.5303 11.5303L13.2373 13.8232C12.5539 14.5066 11.4461 14.5066 10.7627 13.8232L8.46973 11.5303C8.17683 11.2374 8.17683 10.7626 8.46973 10.4697C8.76262 10.1768 9.23738 10.1768 9.53027 10.4697L11.8232 12.7627C11.9209 12.8602 12.0791 12.8602 12.1768 12.7627L14.4697 10.4697ZM22.75 17C22.75 20.0764 20.334 22.5882 17.2959 22.7422L17 22.75H7C3.82436 22.75 1.25 20.1756 1.25 17V7C1.25 3.82436 3.82436 1.25 7 1.25H17C20.1756 1.25 22.75 3.82436 22.75 7V17Z" fill="black"/>
</svg>
