<svg width="24" height="24" viewBox="0 0 24 24" fill="none" xmlns="http://www.w3.org/2000/svg">
<path d="M15.5781 13.8281C15.5781 14.7946 14.7946 15.5781 13.8281 15.5781H10.5859C10.1717 15.5781 9.83594 15.2423 9.83594 14.8281C9.8361 14.4141 10.1718 14.0781 10.5859 14.0781H13.0176L8.6416 9.70215C8.34871 9.40926 8.34871 8.93449 8.6416 8.6416C8.93449 8.34871 9.40926 8.34871 9.70215 8.6416L14.0781 13.0176V10.5859C14.0781 10.1718 14.4141 9.8361 14.8281 9.83594C15.2423 9.83594 15.5781 10.1717 15.5781 10.5859V13.8281Z" fill="black"/>
<path fill-rule="evenodd" clip-rule="evenodd" d="M22.75 12C22.75 17.9371 17.9371 22.75 12 22.75C6.06294 22.75 1.25 17.9371 1.25 12C1.25 6.06294 6.06294 1.25 12 1.25C17.9371 1.25 22.75 6.06294 22.75 12ZM21.25 12C21.25 6.89137 17.1086 2.75 12 2.75C6.89137 2.75 2.75 6.89137 2.75 12C2.75 17.1086 6.89137 21.25 12 21.25C17.1086 21.25 21.25 17.1086 21.25 12Z" fill="black"/>
</svg>
