<svg width="24" height="24" viewBox="0 0 24 24" fill="none" xmlns="http://www.w3.org/2000/svg">
<path d="M7 7.25H9C9.41421 7.25 9.75 7.58579 9.75 8C9.75 8.41421 9.41421 8.75 9 8.75H7C5.20508 8.75 3.75 10.2051 3.75 12L3.75 17C3.75 18.7949 5.20507 20.25 7 20.25H19C20.7949 20.25 22.25 18.7949 22.25 17V12C22.25 10.2051 20.7949 8.75 19 8.75H17C16.5858 8.75 16.25 8.41421 16.25 8C16.25 7.58579 16.5858 7.25 17 7.25H19C21.6234 7.25 23.75 9.37665 23.75 12V17C23.75 19.6234 21.6234 21.75 19 21.75H7C4.37665 21.75 2.25 19.6234 2.25 17L2.25 12C2.25 9.37665 4.37665 7.25 7 7.25Z" fill="black"/>
<path d="M11.7627 15.8232C12.4461 16.5066 13.5539 16.5066 14.2373 15.8232L16.5303 13.5303C16.8232 13.2374 16.8232 12.7626 16.5303 12.4697C16.2374 12.1768 15.7626 12.1768 15.4697 12.4697L13.1768 14.7627C13.0791 14.8602 12.9209 14.8602 12.8232 14.7627L10.5303 12.4697C10.2374 12.1768 9.76262 12.1768 9.46973 12.4697C9.17683 12.7626 9.17683 13.2374 9.46973 13.5303L11.7627 15.8232Z" fill="black"/>
<path d="M13.75 15L13.75 3C13.75 2.58579 13.4142 2.25 13 2.25C12.5858 2.25 12.25 2.58579 12.25 3L12.25 15C12.25 15.4142 12.5858 15.75 13 15.75C13.4142 15.75 13.75 15.4142 13.75 15Z" fill="black"/>
</svg>
