<svg width="24" height="24" viewBox="0 0 24 24" fill="none" xmlns="http://www.w3.org/2000/svg">
<path d="M8.42188 13.8281C8.42188 14.7946 9.20538 15.5781 10.1719 15.5781H13.4141C13.8283 15.5781 14.1641 15.2423 14.1641 14.8281C14.1639 14.4141 13.8282 14.0781 13.4141 14.0781H10.9824L15.3584 9.70215C15.6513 9.40926 15.6513 8.93449 15.3584 8.6416C15.0655 8.34871 14.5907 8.34871 14.2979 8.6416L9.92188 13.0176V10.5859C9.92187 10.1718 9.58595 9.8361 9.17188 9.83594C8.75766 9.83594 8.42188 10.1717 8.42188 10.5859V13.8281Z" fill="black"/>
<path fill-rule="evenodd" clip-rule="evenodd" d="M1.25 12C1.25 17.9371 6.06294 22.75 12 22.75C17.9371 22.75 22.75 17.9371 22.75 12C22.75 6.06294 17.9371 1.25 12 1.25C6.06294 1.25 1.25 6.06294 1.25 12ZM2.75 12C2.75 6.89137 6.89137 2.75 12 2.75C17.1086 2.75 21.25 6.89137 21.25 12C21.25 17.1086 17.1086 21.25 12 21.25C6.89137 21.25 2.75 17.1086 2.75 12Z" fill="black"/>
</svg>
