<svg width="24" height="24" viewBox="0 0 24 24" fill="none" xmlns="http://www.w3.org/2000/svg">
<path d="M12 3.25003C12.4142 3.25003 12.75 3.58583 12.75 4.00003C12.75 4.41424 12.4142 4.75003 12 4.75003H8C5.6528 4.75003 3.75002 6.65283 3.75 9.00003V17C3.75 19.3472 5.65279 21.25 8 21.25H16C18.3472 21.25 20.25 19.3472 20.25 17V13C20.25 12.5858 20.5858 12.25 21 12.25C21.4142 12.25 21.75 12.5858 21.75 13V17C21.75 20.1757 19.1756 22.75 16 22.75H8C4.82436 22.75 2.25 20.1757 2.25 17V9.00003C2.25002 5.8244 4.82437 3.25003 8 3.25003H12Z" fill="black"/>
<path fill-rule="evenodd" clip-rule="evenodd" d="M16.5459 2.72171C17.5098 1.76035 19.0734 1.75916 20.0381 2.71975L22.2764 4.94924C23.2326 5.90166 23.2427 7.44367 22.2988 8.40823L14.9033 15.9873C14.2696 16.6348 13.3998 17.0001 12.4922 17H10.0205C8.87142 17 7.95363 16.0455 8.00195 14.9014L8.1084 12.3897C8.14387 11.5498 8.49364 10.7529 9.08984 10.1582L16.5459 2.72171ZM10.043 11.1074C9.68538 11.4642 9.47546 11.9416 9.4541 12.4453L9.34766 14.958C9.33155 15.3394 9.63748 15.6572 10.0205 15.6573L12.4922 15.6582C13.0368 15.6583 13.5582 15.4383 13.9385 15.0498L18.9082 9.94924L15.0527 6.1094L10.043 11.1074ZM19.0859 3.66995C18.6475 3.23329 17.9362 3.23296 17.498 3.66995L16.0049 5.16018L19.8486 8.98831L21.334 7.47073C21.7631 7.03227 21.759 6.3314 21.3242 5.89846L19.0859 3.66995Z" fill="black"/>
</svg>
