<svg width="24" height="24" viewBox="0 0 24 24" fill="none" xmlns="http://www.w3.org/2000/svg">
<path fill-rule="evenodd" clip-rule="evenodd" d="M13.5136 3.80666C14.5867 2.73196 16.3273 2.73092 17.4013 3.80471L19.8935 6.29689C20.9577 7.36159 20.9684 9.08487 19.9179 10.1631L10.6845 19.6367C9.97905 20.3603 9.01107 20.7686 8.0009 20.7686H5.24894C3.97016 20.7683 2.94857 19.7024 3.00187 18.4238L3.12004 15.6143C3.15964 14.6756 3.55026 13.7848 4.21379 13.1201L13.5136 3.80666ZM5.27433 14.1817C4.87636 14.5805 4.64177 15.1146 4.61808 15.6778L4.49992 18.4863C4.48226 18.9123 4.82293 19.2683 5.24894 19.2686H8.00187C8.6077 19.2684 9.18812 19.0228 9.61125 18.5889L16.1435 11.8858L11.8505 7.59377L5.27433 14.1817ZM16.3417 4.86623C15.8536 4.37807 15.0619 4.37868 14.5741 4.86721L12.9101 6.53225L17.1903 10.8115L18.8437 9.11623C19.3212 8.62624 19.3174 7.84245 18.8339 7.35842L16.3417 4.86623Z" fill="black"/>
<path d="M20.5146 19.1953C20.9286 19.1953 21.2645 19.531 21.2646 19.9453C21.2643 20.3595 20.9285 20.6953 20.5146 20.6953H14.3935C13.9796 20.6953 13.6437 20.3595 13.6435 19.9453C13.6436 19.5311 13.9795 19.1954 14.3935 19.1953H20.5146Z" fill="black"/>
</svg>
