<svg width="24" height="24" viewBox="0 0 24 24" fill="none" xmlns="http://www.w3.org/2000/svg">
<path d="M13.5137 3.80617C14.5868 2.73147 16.3275 2.73043 17.4014 3.80422L19.8936 6.29641C20.958 7.36109 20.9686 9.08432 19.918 10.1626L10.6846 19.6362C9.97917 20.36 9.01134 20.7681 8.00104 20.7681H5.24908C3.9701 20.7679 2.94845 19.7022 3.00201 18.4234L3.12018 15.6138C3.15979 14.6749 3.55023 13.7844 4.21393 13.1196L13.5137 3.80617ZM20.5147 19.1948C20.9287 19.1948 21.2646 19.5305 21.2647 19.9448C21.2647 20.3592 20.9288 20.6948 20.5147 20.6948H14.3936C13.9796 20.6948 13.6436 20.3592 13.6436 19.9448C13.6437 19.5305 13.9796 19.1948 14.3936 19.1948H20.5147ZM5.27447 14.1812C4.87633 14.58 4.64192 15.114 4.61822 15.6773L4.50006 18.4859C4.48214 18.9121 4.82287 19.2678 5.24908 19.2681H8.00201C8.60797 19.2679 9.18824 19.0225 9.61139 18.5884L16.1436 11.8853L11.8506 7.59328L5.27447 14.1812ZM16.3419 4.86574C15.8537 4.37759 15.0621 4.37819 14.5743 4.86672L12.9102 6.53176L17.1905 10.8111L18.8438 9.11574C19.3214 8.62569 19.3177 7.84195 18.834 7.35793L16.3419 4.86574Z" fill="black"/>
</svg>
