<svg width="24" height="24" viewBox="0 0 24 24" fill="none" xmlns="http://www.w3.org/2000/svg">
<path d="M9.62305 12.7012C9.91594 12.4083 10.3917 12.4083 10.6846 12.7012C10.977 12.9941 10.9772 13.469 10.6846 13.7617L5.81152 18.6348H8.61523C9.02942 18.6348 9.36519 18.9706 9.36523 19.3848C9.36523 19.799 9.02945 20.1348 8.61523 20.1348H5C4.0335 20.1348 3.25 19.3513 3.25 18.3848V14.7695C3.25 14.3553 3.58579 14.0195 4 14.0195C4.41421 14.0195 4.75 14.3553 4.75 14.7695V17.5742L9.62305 12.7012Z" fill="black"/>
<path d="M18.3848 3.25C19.3511 3.2502 20.1348 4.03362 20.1348 5V8.61523C20.1348 9.02933 19.7988 9.36504 19.3848 9.36523C18.9706 9.36523 18.6348 9.02945 18.6348 8.61523V5.81055L13.7607 10.6846C13.4679 10.9772 12.993 10.9772 12.7002 10.6846C12.4074 10.3918 12.4075 9.91694 12.7002 9.62402L17.5742 4.75H14.7686C14.3546 4.74975 14.0186 4.41406 14.0186 4C14.0186 3.58594 14.3546 3.25025 14.7686 3.25H18.3848Z" fill="black"/>
</svg>
