<svg width="24" height="24" viewBox="0 0 24 24" fill="none" xmlns="http://www.w3.org/2000/svg">
<path fill-rule="evenodd" clip-rule="evenodd" d="M13.3301 2.38392C13.8607 2.15811 14.4079 2.53443 14.4912 3.04115L14.502 3.1515L14.5244 3.50599C14.6958 5.2429 15.7428 6.40203 16.9961 7.88197C18.3089 9.43229 19.75 11.2568 19.75 14.2501C19.7498 18.4176 16.2541 21.7501 12 21.7501C7.74585 21.7501 4.2502 18.4176 4.25 14.2501C4.25 11.5359 5.74766 9.10039 7.96973 7.78334C8.5311 7.45073 9.15008 7.83982 9.24121 8.38099L9.25195 8.49134L9.27148 8.77943C9.31165 9.16753 9.40606 9.48129 9.52344 9.73451C9.57194 9.06907 9.67234 8.26768 9.87793 7.43177C10.3115 5.66948 11.2365 3.62467 13.2168 2.44154L13.3301 2.38392ZM13.1465 4.37123C12.195 5.28007 11.6438 6.53476 11.335 7.79017C10.9474 9.36584 10.972 10.8194 10.9912 11.257C11.0157 11.8187 10.4329 12.3605 9.79395 12.0597C9.32617 11.8394 8.30414 11.18 7.91016 9.66322C6.58766 10.7806 5.75 12.445 5.75 14.2501C5.7502 17.5382 8.5224 20.2501 12 20.2501C15.4776 20.2501 18.2498 17.5382 18.25 14.2501C18.25 11.8278 17.1304 10.3619 15.8516 8.8517C14.8009 7.61103 13.5642 6.27431 13.1465 4.37123Z" fill="black"/>
</svg>
