<svg width="24" height="24" viewBox="0 0 24 24" fill="none" xmlns="http://www.w3.org/2000/svg">
<path d="M18 15.75C18.4142 15.75 18.75 16.0858 18.75 16.5C18.75 16.9142 18.4142 17.25 18 17.25H12C11.5858 17.25 11.25 16.9142 11.25 16.5C11.25 16.0858 11.5858 15.75 12 15.75H18Z" fill="black"/>
<path fill-rule="evenodd" clip-rule="evenodd" d="M8.95605 2.25C9.91 2.25 10.8165 2.61428 11.5029 3.25H16.5C19.316 3.25 21.6131 5.46713 21.7432 8.25098C22.3776 9.17547 22.75 10.294 22.75 11.5V16C22.75 19.1756 20.1756 21.75 17 21.75H7C3.82436 21.75 1.25 19.1756 1.25 16V8C1.25 4.82436 3.82436 2.25 7 2.25H8.95605ZM7 3.75C4.65279 3.75 2.75 5.65279 2.75 8V16C2.75 18.3472 4.65279 20.25 7 20.25H17C19.3472 20.25 21.25 18.3472 21.25 16V11.5C21.25 9.15279 19.3472 7.25 17 7.25H14.5439C13.3329 7.25 12.1961 6.66517 11.4922 5.67969L10.7871 4.69238C10.3648 4.10109 9.68269 3.75 8.95605 3.75H7ZM12.7129 4.80762C13.1352 5.39891 13.8173 5.75 14.5439 5.75H17C17.9277 5.75 18.8032 5.97116 19.5791 6.36133C18.9017 5.3879 17.7758 4.75 16.5 4.75H12.6719L12.7129 4.80762Z" fill="black"/>
</svg>
