<svg width="24" height="24" viewBox="0 0 24 24" fill="none" xmlns="http://www.w3.org/2000/svg">
<path d="M8 8.72588C8.41421 8.72588 8.75 9.06166 8.75 9.47588V10.7259H10C10.4142 10.7259 10.75 11.0617 10.75 11.4759C10.7499 11.89 10.4141 12.2259 10 12.2259H8.75V13.4759C8.74987 13.89 8.41414 14.2259 8 14.2259C7.58586 14.2259 7.25013 13.89 7.25 13.4759V12.2259H6C5.58586 12.2259 5.25013 11.89 5.25 11.4759C5.25 11.0617 5.58579 10.7259 6 10.7259H7.25V9.47588C7.25 9.06166 7.58579 8.72588 8 8.72588Z" fill="black"/>
<path d="M16 11.9759C16.5523 11.9759 17 12.4236 17 12.9759C16.9999 13.5281 16.5522 13.9759 16 13.9759C15.4478 13.9759 15.0001 13.5281 15 12.9759C15 12.4236 15.4477 11.9759 16 11.9759Z" fill="black"/>
<path d="M18 8.97588C18.5523 8.97588 19 9.42359 19 9.97588C18.9999 10.5281 18.5522 10.9759 18 10.9759C17.4478 10.9759 17.0001 10.5281 17 9.97588C17 9.42359 17.4477 8.97588 18 8.97588Z" fill="black"/>
<path fill-rule="evenodd" clip-rule="evenodd" d="M16.4277 4.27959C19.8125 3.94111 22.7497 6.5987 22.75 10.0003V16.0003C22.7498 20.3444 17.0727 21.9911 14.748 18.3216C13.6642 16.6103 11.1881 16.5528 10.0264 18.2122L9.74219 18.6185C7.16599 22.2985 1.4328 20.5615 1.25391 16.1536L1.25 15.9417V10.0013C1.25 6.59944 4.18732 3.94109 7.57227 4.27959L11.4775 4.67021C11.8249 4.70495 12.1751 4.70495 12.5225 4.67021L16.4277 4.27959ZM21.25 10.0003C21.2497 7.48615 19.0789 5.52163 16.5771 5.77177L12.6719 6.1624C12.2252 6.20706 11.7748 6.20706 11.3281 6.1624L7.42285 5.77177C4.92096 5.52161 2.75 7.48689 2.75 10.0013V15.9417L2.76172 16.2259C2.99706 19.113 6.79194 20.2158 8.5127 17.7581L8.79688 17.3519C10.5726 14.8151 14.3588 14.9028 16.0156 17.5188C17.5365 19.9191 21.2498 18.842 21.25 16.0003V10.0003Z" fill="black"/>
</svg>
