<svg width="24" height="24" viewBox="0 0 24 24" fill="none" xmlns="http://www.w3.org/2000/svg">
<path fill-rule="evenodd" clip-rule="evenodd" d="M9.5 1.25C10.5054 1.25 11.4038 1.70677 12 2.42383C12.5962 1.70677 13.4946 1.25 14.5 1.25H15C16.5188 1.25 17.75 2.48122 17.75 4C17.75 4.45058 17.6394 4.87468 17.4473 5.25H19.5C20.7426 5.25 21.75 6.25736 21.75 7.5V9.5C21.75 10.2799 21.3527 10.9664 20.75 11.3701V18C20.75 20.6234 18.6234 22.75 16 22.75H8C5.37665 22.75 3.25 20.6234 3.25 18V11.3701C2.64727 10.9664 2.25 10.2799 2.25 9.5V7.5C2.25 6.25736 3.25736 5.25 4.5 5.25H6.55273C6.36065 4.87468 6.25 4.45058 6.25 4C6.25 2.48122 7.48122 1.25 9 1.25H9.5ZM15.25 21.25H16C17.7949 21.25 19.25 19.7949 19.25 18V11.75H15.25V21.25ZM10.25 21.25H13.75V6.75H10.25V21.25ZM4.75 11.75V18C4.75 19.7949 6.20507 21.25 8 21.25H8.75V11.75H4.75ZM15.25 10.25H19.5C19.9142 10.25 20.25 9.91421 20.25 9.5V7.5C20.25 7.08579 19.9142 6.75 19.5 6.75H15.25V10.25ZM4.5 6.75C4.08579 6.75 3.75 7.08579 3.75 7.5V9.5C3.75 9.91421 4.08579 10.25 4.5 10.25H8.75V6.75H4.5ZM9 2.75C8.30964 2.75 7.75 3.30964 7.75 4C7.75 4.69036 8.30964 5.25 9 5.25H11.25V4.5C11.25 3.5335 10.4665 2.75 9.5 2.75H9ZM14.5 2.75C13.5335 2.75 12.75 3.5335 12.75 4.5V5.25H15C15.6904 5.25 16.25 4.69036 16.25 4C16.25 3.30964 15.6904 2.75 15 2.75H14.5Z" fill="black"/>
</svg>
