<svg width="24" height="24" viewBox="0 0 24 24" fill="none" xmlns="http://www.w3.org/2000/svg">
<path fill-rule="evenodd" clip-rule="evenodd" d="M9.90905 4.3187C10.9681 4.18567 11.7499 5.0631 11.7499 6.00034V11.5003C11.7499 11.9144 12.0858 12.2503 12.4999 12.2503H17.9999C18.9371 12.2503 19.8145 13.0321 19.6815 14.0912C19.5126 15.4351 19.0333 16.7271 18.2753 17.8617C17.3138 19.3005 15.9472 20.4221 14.3485 21.0843C12.7497 21.7465 10.9901 21.92 9.29283 21.5824C7.59554 21.2447 6.03605 20.4115 4.81237 19.1878C3.58868 17.9642 2.75547 16.4047 2.41783 14.7074C2.08024 13.0101 2.25367 11.2505 2.91588 9.6517C3.57812 8.05297 4.69974 6.68638 6.13854 5.72495C7.27307 4.96688 8.56508 4.4876 9.90905 4.3187ZM10.0956 5.80698C8.98214 5.94697 7.91146 6.34399 6.97155 6.97202C5.77947 7.76864 4.8503 8.9013 4.30162 10.2259C3.753 11.5505 3.60986 13.0082 3.88951 14.4144C4.16927 15.8207 4.85901 17.1134 5.87291 18.1273C6.88682 19.1412 8.17948 19.8309 9.5858 20.1107C10.992 20.3903 12.4497 20.2472 13.7743 19.6986C15.0989 19.1499 16.2316 18.2207 17.0282 17.0287C17.6562 16.0887 18.0532 15.0181 18.1932 13.9046C18.1974 13.8714 18.1893 13.8433 18.161 13.8138C18.1286 13.7801 18.0722 13.7503 17.9999 13.7503H12.4999C11.2573 13.7503 10.2499 12.7429 10.2499 11.5003V6.00034C10.2499 5.92798 10.2201 5.87165 10.1864 5.8392C10.1569 5.81088 10.1288 5.8028 10.0956 5.80698Z" fill="black"/>
<path fill-rule="evenodd" clip-rule="evenodd" d="M15.1034 2.32944C15.7416 2.42125 16.3673 2.59235 16.9657 2.84018C17.906 3.22966 18.7607 3.80021 19.4803 4.51987C20.2 5.23952 20.7705 6.09425 21.16 7.03452C21.4079 7.63285 21.579 8.25865 21.6708 8.89682C21.8248 9.96827 20.9321 10.7503 19.9999 10.7503H14.9999C14.0335 10.7503 13.2499 9.96673 13.2499 9.00034V4.00034C13.2499 3.06814 14.0319 2.17539 15.1034 2.32944ZM14.8505 3.81674C14.8407 3.82007 14.8265 3.8267 14.8114 3.84116C14.7794 3.8718 14.7499 3.92773 14.7499 4.00034V9.00034C14.7499 9.1383 14.8619 9.25027 14.9999 9.25034H19.9999C20.0725 9.25034 20.1284 9.22076 20.159 9.18881C20.1735 9.1737 20.1801 9.15955 20.1835 9.14975C20.1863 9.14129 20.1891 9.12954 20.1864 9.11069C20.1124 8.59606 19.9741 8.09124 19.7743 7.60874C19.4602 6.85045 18.9992 6.16176 18.4188 5.58139C17.8384 5.00103 17.1498 4.54002 16.3915 4.22592C15.909 4.02609 15.4041 3.88784 14.8895 3.81381C14.8707 3.81115 14.8589 3.8139 14.8505 3.81674Z" fill="black"/>
</svg>
