<svg width="24" height="24" viewBox="0 0 24 24" fill="none" xmlns="http://www.w3.org/2000/svg">
<path fill-rule="evenodd" clip-rule="evenodd" d="M12 2.25C17.3848 2.25 21.75 6.61522 21.75 12V19C21.75 20.5188 20.5188 21.75 19 21.75H18C16.4812 21.75 15.25 20.5188 15.25 19V15C15.25 13.4812 16.4812 12.25 18 12.25H19C19.4506 12.25 19.8747 12.3606 20.25 12.5527V12C20.25 7.44365 16.5563 3.75 12 3.75C7.44365 3.75 3.75 7.44365 3.75 12V12.5527C4.12532 12.3606 4.54942 12.25 5 12.25H6C7.51878 12.25 8.75 13.4812 8.75 15V19C8.75 20.5188 7.51878 21.75 6 21.75H5C3.48122 21.75 2.25 20.5188 2.25 19V12C2.25 6.61522 6.61522 2.25 12 2.25ZM5 13.75C4.30964 13.75 3.75 14.3096 3.75 15V19C3.75 19.6904 4.30964 20.25 5 20.25H6C6.69036 20.25 7.25 19.6904 7.25 19V15C7.25 14.3096 6.69036 13.75 6 13.75H5ZM18 13.75C17.3096 13.75 16.75 14.3096 16.75 15V19C16.75 19.6904 17.3096 20.25 18 20.25H19C19.6904 20.25 20.25 19.6904 20.25 19V15C20.25 14.3096 19.6904 13.75 19 13.75H18Z" fill="black"/>
</svg>
