<svg width="24" height="24" viewBox="0 0 24 24" fill="none" xmlns="http://www.w3.org/2000/svg">
<path fill-rule="evenodd" clip-rule="evenodd" d="M3.11967 4.23691C5.55558 1.66992 9.47396 1.59148 12.0005 4.00156C14.5271 1.59154 18.4455 1.66988 20.8814 4.23691C23.3726 6.86278 23.3728 11.1043 20.8814 13.7301L14.7212 20.2232C13.2426 21.7815 10.7586 21.7813 9.27983 20.2232L3.11967 13.7301C0.628079 11.1042 0.628079 6.86277 3.11967 4.23691ZM19.7935 5.26913C17.8723 3.2445 14.7743 3.24445 12.8531 5.26913C12.3896 5.75741 11.6116 5.75716 11.148 5.26913C9.2268 3.24441 6.12883 3.24454 4.20756 5.26913C2.26515 7.31622 2.26515 10.6508 4.20756 12.6978L10.3687 19.191C11.2559 20.1253 12.7453 20.1256 13.6324 19.191L19.7935 12.6978C21.7357 10.6509 21.7355 7.31623 19.7935 5.26913Z" fill="black"/>
</svg>
