<svg width="24" height="24" viewBox="0 0 24 24" fill="none" xmlns="http://www.w3.org/2000/svg">
<path d="M12.0004 8.25001C12.4144 8.25024 12.7504 8.58595 12.7504 9.00001C12.7504 9.41408 12.4145 9.74978 12.0004 9.75001C10.7578 9.75001 9.75045 10.7574 9.75043 12C9.75043 12.4141 9.41445 12.7498 9.00043 12.75C8.58622 12.75 8.25043 12.4142 8.25043 12C8.25045 9.92895 9.92937 8.25001 12.0004 8.25001Z" fill="black"/>
<path fill-rule="evenodd" clip-rule="evenodd" d="M18.9916 3.88282C19.2862 3.64272 19.72 3.66005 19.9946 3.93458C20.269 4.20913 20.2864 4.64299 20.0463 4.93751L19.9946 4.99513L4.99458 19.9951C4.70171 20.2876 4.22682 20.2878 3.93403 19.9951C3.64113 19.7022 3.64113 19.2265 3.93403 18.9336L5.96625 16.9014C5.61187 16.6613 5.27104 16.4031 4.94868 16.124C3.98017 15.2855 3.16282 14.277 2.5434 13.1445C2.15334 12.4313 2.15333 11.5687 2.5434 10.8555C4.36939 7.51702 7.91947 5.25001 12.0004 5.25001C12.967 5.25005 13.9054 5.37702 14.7983 5.61622C15.4206 5.78299 16.0208 6.00444 16.5932 6.27442L18.934 3.93458L18.9916 3.88282ZM12.0004 6.75001C8.48844 6.75001 5.43179 8.69919 3.85883 11.5752C3.71403 11.84 3.71403 12.16 3.85883 12.4248C4.38657 13.3897 5.08269 14.2504 5.90668 14.9688L7.07465 15.792L15.4545 7.4131C15.116 7.27734 14.7675 7.16109 14.4106 7.06544C13.6431 6.8598 12.8349 6.75005 12.0004 6.75001Z" fill="black"/>
<path d="M18.4633 8.32228C18.7524 8.02607 19.2274 8.01983 19.5239 8.3086C20.2877 9.05342 20.9413 9.91178 21.4575 10.8555C21.8474 11.5686 21.8474 12.4314 21.4575 13.1445C19.6316 16.483 16.0813 18.7499 12.0004 18.75C11.074 18.75 10.1733 18.6334 9.31391 18.4131C8.9128 18.3102 8.67111 17.9012 8.77387 17.5C8.8768 17.0988 9.28576 16.8571 9.68696 16.96C10.4255 17.1493 11.2009 17.25 12.0004 17.25C15.5123 17.2499 18.5692 15.3008 20.142 12.4248C20.2867 12.1601 20.2867 11.8399 20.142 11.5752C19.698 10.7634 19.1351 10.0246 18.477 9.38282C18.1805 9.09365 18.1742 8.61883 18.4633 8.32228Z" fill="black"/>
</svg>
