<svg width="24" height="24" viewBox="0 0 24 24" fill="none" xmlns="http://www.w3.org/2000/svg">
<path fill-rule="evenodd" clip-rule="evenodd" d="M9.05664 2.86787C10.7823 1.50563 13.2177 1.50563 14.9434 2.86787L20.4434 7.20967C21.5843 8.1104 22.2499 9.48458 22.25 10.9382V17.4997C22.25 20.1231 20.1234 22.2497 17.5 22.2497H16C15.0335 22.2497 14.25 21.4662 14.25 20.4997V17.4997C14.2498 16.8095 13.6902 16.2497 13 16.2497H11C10.3098 16.2497 9.75017 16.8095 9.75 17.4997V20.4997C9.75 21.4662 8.9665 22.2497 8 22.2497H6.5C3.87665 22.2497 1.75 20.1231 1.75 17.4997V10.9382C1.7501 9.48458 2.41572 8.1104 3.55664 7.20967L9.05664 2.86787ZM14.0137 4.04561C12.833 3.1136 11.167 3.1136 9.98633 4.04561L4.48633 8.38741C3.70573 9.00367 3.2501 9.94365 3.25 10.9382V17.4997C3.25 19.2946 4.70507 20.7497 6.5 20.7497H8C8.13807 20.7497 8.25 20.6378 8.25 20.4997V17.4997C8.25017 15.9811 9.48132 14.7497 11 14.7497H13C14.5187 14.7497 15.7498 15.9811 15.75 17.4997V20.4997C15.75 20.6378 15.8619 20.7497 16 20.7497H17.5C19.2949 20.7497 20.75 19.2946 20.75 17.4997V10.9382C20.7499 9.94365 20.2943 9.00367 19.5137 8.38741L14.0137 4.04561Z" fill="black"/>
</svg>
