<svg width="24" height="24" viewBox="0 0 24 24" fill="none" xmlns="http://www.w3.org/2000/svg">
<path fill-rule="evenodd" clip-rule="evenodd" d="M8 5.25C9.51878 5.25 10.75 6.48122 10.75 8C10.75 9.51878 9.51878 10.75 8 10.75C6.48122 10.75 5.25 9.51878 5.25 8C5.25 6.48122 6.48122 5.25 8 5.25ZM8 6.75C7.30964 6.75 6.75 7.30964 6.75 8C6.75 8.69036 7.30964 9.25 8 9.25C8.69035 9.25 9.25 8.69035 9.25 8C9.25 7.30965 8.69035 6.75 8 6.75Z" fill="black"/>
<path fill-rule="evenodd" clip-rule="evenodd" d="M17 1.25C20.1756 1.25 22.75 3.82436 22.75 7V17C22.75 20.1756 20.1756 22.75 17 22.75H7C3.82436 22.75 1.25 20.1756 1.25 17V7C1.25 3.82436 3.82436 1.25 7 1.25H17ZM16.7822 12.6289C16.3651 12.2814 15.7522 12.3086 15.3682 12.6924L10.3789 17.6816C9.61738 18.4432 8.38262 18.4432 7.62109 17.6816L6.54785 16.6084C6.1849 16.2455 5.61295 16.1988 5.19531 16.4971L2.93555 18.1104C2.92527 18.1177 2.91384 18.1231 2.90332 18.1299C3.39826 19.9285 5.04415 21.25 7 21.25H17C19.3472 21.25 21.25 19.3472 21.25 17V16.3516L16.7822 12.6289ZM7 2.75C4.65279 2.75 2.75 4.65279 2.75 7V16.3994L4.32324 15.2764C5.33756 14.5519 6.72696 14.6665 7.6084 15.5479L8.68164 16.6211C8.85738 16.7968 9.14262 16.7968 9.31836 16.6211L14.3076 11.6318C15.2402 10.6995 16.7301 10.6323 17.7432 11.4766L21.25 14.3984V7C21.25 4.65279 19.3472 2.75 17 2.75H7Z" fill="black"/>
</svg>
