<svg width="24" height="24" viewBox="0 0 24 24" fill="none" xmlns="http://www.w3.org/2000/svg">
<path fill-rule="evenodd" clip-rule="evenodd" d="M15 1.25C17.0711 1.25 18.75 2.92893 18.75 5V19C18.75 21.0711 17.0711 22.75 15 22.75H9C6.92893 22.75 5.25 21.0711 5.25 19V5C5.25 2.92893 6.92893 1.25 9 1.25H15ZM15.2217 2.76074C15.1016 3.32581 14.6008 3.75 14 3.75H10C9.39909 3.75 8.8973 3.32591 8.77734 2.76074C7.63922 2.87254 6.75 3.83249 6.75 5V19C6.75 20.2426 7.75736 21.25 9 21.25H15C16.2426 21.25 17.25 20.2426 17.25 19V5C17.25 3.83216 16.3603 2.87209 15.2217 2.76074Z" fill="black"/>
</svg>
