<svg width="24" height="24" viewBox="0 0 24 24" fill="none" xmlns="http://www.w3.org/2000/svg">
<path fill-rule="evenodd" clip-rule="evenodd" d="M17.5 9.75C17.9142 9.75 18.25 10.0858 18.25 10.5V12.5C18.25 12.526 18.2487 12.5518 18.2461 12.5771C18.2101 12.9298 17.9298 13.2101 17.5771 13.2461L17.5 13.25H11.1436C10.8168 14.4039 9.7585 15.25 8.5 15.25C6.98122 15.25 5.75 14.0188 5.75 12.5C5.75 10.9812 6.98122 9.75 8.5 9.75C9.7585 9.75 10.8168 10.5961 11.1436 11.75H14.25V10.5C14.25 10.0858 14.5858 9.75 15 9.75C15.4142 9.75 15.75 10.0858 15.75 10.5V11.75H16.75V10.5C16.75 10.0858 17.0858 9.75 17.5 9.75ZM8.5 11.25C7.80964 11.25 7.25 11.8096 7.25 12.5C7.25 13.1904 7.80964 13.75 8.5 13.75C9.19036 13.75 9.75 13.1904 9.75 12.5C9.75 11.8096 9.19036 11.25 8.5 11.25Z" fill="black"/>
<path fill-rule="evenodd" clip-rule="evenodd" d="M17 1.25C20.1756 1.25 22.75 3.82436 22.75 7V17C22.75 20.1756 20.1756 22.75 17 22.75H7C3.82436 22.75 1.25 20.1756 1.25 17V7C1.25 3.82436 3.82436 1.25 7 1.25H17ZM7 2.75C4.65279 2.75 2.75 4.65279 2.75 7V17C2.75 19.3472 4.65279 21.25 7 21.25H17C19.3472 21.25 21.25 19.3472 21.25 17V7C21.25 4.65279 19.3472 2.75 17 2.75H7Z" fill="black"/>
</svg>
