<svg width="24" height="24" viewBox="0 0 24 24" fill="none" xmlns="http://www.w3.org/2000/svg">
<path fill-rule="evenodd" clip-rule="evenodd" d="M20 4.25C20.9665 4.25 21.75 5.0335 21.75 6V16C21.75 16.1369 21.7319 16.2696 21.7021 16.3975C22.3189 16.6681 22.75 17.2833 22.75 18V19C22.75 19.9665 21.9665 20.75 21 20.75H3C2.0335 20.75 1.25 19.9665 1.25 19V18C1.25 17.2837 1.68057 16.6683 2.29688 16.3975C2.26717 16.2697 2.25 16.1368 2.25 16V6C2.25 5.0335 3.0335 4.25 4 4.25H20ZM3 17.75C2.86193 17.75 2.75 17.8619 2.75 18V19C2.75 19.1381 2.86193 19.25 3 19.25H21C21.1381 19.25 21.25 19.1381 21.25 19V18C21.25 17.8619 21.1381 17.75 21 17.75H3ZM4 5.75C3.86193 5.75 3.75 5.86193 3.75 6V16C3.75 16.1381 3.86193 16.25 4 16.25H20C20.1381 16.25 20.25 16.1381 20.25 16V6C20.25 5.86193 20.1381 5.75 20 5.75H15.2246C15.1088 6.32052 14.6047 6.75 14 6.75H10C9.39529 6.75 8.89124 6.32052 8.77539 5.75H4Z" fill="black"/>
</svg>
