<svg width="24" height="24" viewBox="0 0 24 24" fill="none" xmlns="http://www.w3.org/2000/svg">
<path fill-rule="evenodd" clip-rule="evenodd" d="M9.38015 1.93704C11.0083 1.02229 12.9922 1.02229 14.6204 1.93704L20.6565 5.32766C22.1143 6.14699 22.1145 8.25462 20.6565 9.07376L19.5764 9.67922L20.2014 10.0181L20.2122 10.024L20.6565 10.274C22.1143 11.0933 22.1145 13.1999 20.6565 14.0191L19.6858 14.564L20.4505 14.9488C21.9833 15.7207 22.032 17.9003 20.5364 18.7407L14.6204 22.064C12.9924 22.9786 11.0082 22.9785 9.38015 22.064L3.55105 18.7896C2.0298 17.9349 2.11182 15.7067 3.69461 14.9693L4.42703 14.6275L3.34402 14.0191C1.88597 13.1999 1.88602 11.0932 3.34402 10.274L3.78836 10.024L4.40554 9.66946L3.34402 9.07376C1.88595 8.25457 1.886 6.14688 3.34402 5.32766L9.38015 1.93704ZM14.6204 17.4107C12.9924 18.3253 11.0082 18.3252 9.38015 17.4107L6.03738 15.5327L4.3284 16.3286C3.8548 16.5493 3.82809 17.2239 4.28543 17.481L10.1155 20.7564C11.2872 21.4145 12.7133 21.4146 13.885 20.7564L19.8011 17.4331C20.2505 17.1806 20.2348 16.52 19.7757 16.2886L18.1087 15.4497L14.6204 17.4107ZM4.52859 11.3286L4.52371 11.3316L4.0784 11.5816C3.64105 11.8276 3.641 12.4655 4.0784 12.7115L10.1155 16.1031C11.2872 16.7611 12.7134 16.7612 13.885 16.1031L19.9221 12.7115C20.3594 12.4655 20.3592 11.8277 19.9221 11.5816L19.4876 11.3374L18.0305 10.5484L14.6204 12.4654C12.9924 13.38 11.0082 13.3799 9.38015 12.4654L5.92898 10.5259L4.52859 11.3286ZM13.885 3.24465C12.7132 2.58634 11.2873 2.58633 10.1155 3.24465L4.0784 6.63626C3.64108 6.88229 3.64097 7.52021 4.0784 7.76614L10.1155 11.1577C11.2872 11.8158 12.7134 11.8159 13.885 11.1577L19.9221 7.76614C20.3595 7.52026 20.3592 6.8824 19.9221 6.63626L13.885 3.24465Z" fill="black"/>
</svg>
