<svg width="24" height="24" viewBox="0 0 24 24" fill="none" xmlns="http://www.w3.org/2000/svg">
<path d="M10.4697 8.46973C10.7626 8.17683 11.2374 8.17684 11.5303 8.46973C11.8232 8.76262 11.8232 9.23738 11.5303 9.53027L9.81055 11.25H16C16.4142 11.25 16.75 11.5858 16.75 12C16.75 12.4142 16.4142 12.75 16 12.75H9.81055L11.5303 14.4697C11.8232 14.7626 11.8232 15.2374 11.5303 15.5303C11.2374 15.8232 10.7626 15.8232 10.4697 15.5303L8.17676 13.2373C7.49344 12.5539 7.49344 11.4461 8.17676 10.7627L10.4697 8.46973Z" fill="black"/>
<path fill-rule="evenodd" clip-rule="evenodd" d="M17 1.25C20.1756 1.25 22.75 3.82436 22.75 7V17C22.75 20.1756 20.1756 22.75 17 22.75H7C3.82436 22.75 1.25 20.1756 1.25 17V7C1.25 3.82436 3.82436 1.25 7 1.25H17ZM7 2.75C4.65279 2.75 2.75 4.65279 2.75 7V17C2.75 19.3472 4.65279 21.25 7 21.25H17C19.3472 21.25 21.25 19.3472 21.25 17V7C21.25 4.65279 19.3472 2.75 17 2.75H7Z" fill="black"/>
</svg>
