<svg width="24" height="24" viewBox="0 0 24 24" fill="none" xmlns="http://www.w3.org/2000/svg">
<path d="M12.79 15.8496C13.0935 16.1312 13.5678 16.1139 13.8496 15.8105C14.1315 15.507 14.1141 15.0319 13.8105 14.75L11.0996 12.2334C10.9931 12.1345 10.9932 11.9661 11.0996 11.8672L13.8105 9.34961C14.1139 9.06781 14.1312 8.59354 13.8496 8.29004C13.5679 7.98664 13.0936 7.96855 12.79 8.25L10.0791 10.7676C9.3335 11.4599 9.33351 12.6397 10.0791 13.332L12.79 15.8496Z" fill="black"/>
<path fill-rule="evenodd" clip-rule="evenodd" d="M12 22.75C17.9371 22.75 22.75 17.9371 22.75 12C22.75 6.06294 17.9371 1.25 12 1.25C6.06294 1.25 1.25 6.06294 1.25 12C1.25 17.9371 6.06294 22.75 12 22.75ZM12 21.25C6.89137 21.25 2.75 17.1086 2.75 12C2.75 6.89137 6.89137 2.75 12 2.75C17.1086 2.75 21.25 6.89137 21.25 12C21.25 17.1086 17.1086 21.25 12 21.25Z" fill="black"/>
</svg>
