<svg width="24" height="24" viewBox="0 0 24 24" fill="none" xmlns="http://www.w3.org/2000/svg">
<path fill-rule="evenodd" clip-rule="evenodd" d="M12.7625 1.91178C13.3405 1.3532 14.3646 1.74604 14.3651 2.60318V9.67057H18.0047C19.0323 9.67067 19.6207 10.8421 19.0076 11.6667L11.3465 21.9626C10.8005 22.6964 9.63486 22.3107 9.63459 21.3962V14.3288H5.99494C4.96739 14.3285 4.37886 13.1572 4.99201 12.3327L12.6531 2.03678L12.7625 1.91178ZM6.49299 12.8288H10.1844C10.709 12.8288 11.1345 13.2544 11.1346 13.779V19.734L17.5067 11.1706H13.8153C13.2907 11.1705 12.8651 10.745 12.8651 10.2204V4.26432L6.49299 12.8288Z" fill="black"/>
</svg>
