<svg width="24" height="24" viewBox="0 0 24 24" fill="none" xmlns="http://www.w3.org/2000/svg">
<path d="M5.98478 8.95492C6.27769 8.66225 6.75251 8.6621 7.04533 8.95492C7.33801 9.24774 7.33795 9.7226 7.04533 10.0155L4.92326 12.1366C3.26364 13.7962 3.26378 16.4876 4.92326 18.1473C6.58297 19.807 9.27427 19.807 10.934 18.1473L13.0551 16.0262C13.3479 15.7334 13.8227 15.7334 14.1156 16.0262C14.4085 16.3191 14.4085 16.7939 14.1156 17.0868L11.9945 19.2078C9.74903 21.4533 6.10821 21.4533 3.86271 19.2078C1.61745 16.9623 1.61731 13.3214 3.86271 11.076L5.98478 8.95492Z" fill="black"/>
<path d="M13.0551 8.95492C13.3479 8.6621 13.8227 8.66227 14.1156 8.95492C14.4085 9.24781 14.4085 9.72257 14.1156 10.0155L9.87345 14.2586C9.58062 14.5513 9.10576 14.5512 8.8129 14.2586C8.52007 13.9658 8.5202 13.491 8.8129 13.1981L13.0551 8.95492Z" fill="black"/>
<path d="M10.934 4.00472C13.1794 1.75948 16.8204 1.75951 19.0658 4.00472C21.3113 6.25017 21.3112 9.89103 19.0658 12.1366L16.9447 14.2586C16.652 14.5513 16.1771 14.5511 15.8842 14.2586C15.5913 13.9658 15.5914 13.491 15.8842 13.1981L18.0053 11.076C19.6647 9.41635 19.6647 6.72593 18.0053 5.06624C16.3456 3.40652 13.6543 3.40652 11.9945 5.06624L9.87345 7.18734C9.5806 7.48011 9.10578 7.48007 8.8129 7.18734C8.52004 6.89447 8.52008 6.41969 8.8129 6.12679L10.934 4.00472Z" fill="black"/>
</svg>
