<svg width="24" height="24" viewBox="0 0 24 24" fill="none" xmlns="http://www.w3.org/2000/svg">
<path d="M14.4593 12.4298L17.9948 8.89425C19.0688 7.82031 19.0688 6.07911 17.9948 5.00516C16.9209 3.93122 15.1797 3.93122 14.1058 5.00516L12.338 6.77293C12.0451 7.06582 11.5702 7.06582 11.2773 6.77293C10.9844 6.48004 10.9844 6.00516 11.2773 5.71227L13.0451 3.9445C14.7048 2.28477 17.3958 2.28478 19.0555 3.9445C20.7152 5.60423 20.7152 8.29518 19.0555 9.95491L15.52 13.4904C13.8602 15.1502 11.1693 15.1502 9.50956 13.4904C9.21667 13.1976 9.21667 12.7227 9.50956 12.4298C9.80245 12.1369 10.2773 12.1369 10.5702 12.4298C11.6442 13.5037 13.3854 13.5037 14.4593 12.4298Z" fill="black"/>
<path d="M8.4489 10.6619L4.91337 14.1974C3.83942 15.2714 3.83942 17.0126 4.91337 18.0865C5.98731 19.1605 7.72851 19.1605 8.80245 18.0865L10.5702 16.3188C10.8631 16.0259 11.338 16.0259 11.6309 16.3188C11.9238 16.6117 11.9238 17.0865 11.6309 17.3794L9.86311 19.1472C8.20339 20.8069 5.51243 20.8069 3.85271 19.1472C2.19298 17.4875 2.19298 14.7965 3.85271 13.1368L7.38824 9.60126C9.04797 7.94153 11.7389 7.94153 13.3986 9.60126C13.6915 9.89415 13.6915 10.369 13.3986 10.6619C13.1058 10.9548 12.6309 10.9548 12.338 10.6619C11.264 9.58797 9.52284 9.58797 8.4489 10.6619Z" fill="black"/>
</svg>
