<svg width="24" height="24" viewBox="0 0 24 24" fill="none" xmlns="http://www.w3.org/2000/svg">
<path d="M7.38799 9.60114C9.0477 7.94156 11.739 7.94155 13.3987 9.60114C13.6916 9.89404 13.6916 10.3698 13.3987 10.6627C13.106 10.9553 12.6311 10.9551 12.3382 10.6627C11.2642 9.58873 9.52248 9.58873 8.44854 10.6627L4.91338 14.1978C3.83948 15.2717 3.83954 17.0125 4.91338 18.0865C5.98732 19.1604 7.72811 19.1604 8.80205 18.0865L10.5706 16.3189C10.8635 16.0263 11.3384 16.0261 11.6312 16.3189C11.9238 16.6117 11.9237 17.0866 11.6312 17.3795L9.8626 19.147C8.20287 20.8068 5.51256 20.8068 3.85284 19.147C2.19321 17.4873 2.19315 14.797 3.85284 13.1373L7.38799 9.60114Z" fill="black"/>
<path d="M13.0452 3.94489C14.7049 2.28526 17.3953 2.28533 19.055 3.94489C20.7147 5.60462 20.7147 8.29591 19.055 9.95564L15.5198 13.4908C13.8601 15.1505 11.1688 15.1505 9.50909 13.4908C9.21644 13.198 9.21654 12.7231 9.50909 12.4302C9.80198 12.1374 10.2777 12.1374 10.5706 12.4302C11.6446 13.5038 13.3854 13.504 14.4593 12.4302L17.9944 8.89411C19.0683 7.82017 19.0684 6.07937 17.9944 5.00544C16.9205 3.93167 15.1797 3.93159 14.1058 5.00544L12.3382 6.77302C12.0453 7.06587 11.5705 7.0658 11.2776 6.77302C10.9847 6.48013 10.9847 6.00537 11.2776 5.71247L13.0452 3.94489Z" fill="black"/>
</svg>
