<svg width="24" height="24" viewBox="0 0 24 24" fill="none" xmlns="http://www.w3.org/2000/svg">
<path d="M12 18.25C12.4142 18.25 12.75 18.5858 12.75 19V22C12.75 22.4142 12.4142 22.75 12 22.75C11.5858 22.75 11.25 22.4142 11.25 22V19C11.25 18.5858 11.5858 18.25 12 18.25Z" fill="black"/>
<path d="M6.51953 16.4199C6.81242 16.127 7.28816 16.127 7.58105 16.4199C7.87352 16.7128 7.87367 17.1877 7.58105 17.4805L5.45898 19.6016C5.16608 19.8943 4.69129 19.8944 4.39844 19.6016C4.10569 19.3087 4.10569 18.8339 4.39844 18.541L6.51953 16.4199Z" fill="black"/>
<path d="M16.4189 16.4199C16.7118 16.127 17.1876 16.127 17.4805 16.4199L19.6016 18.541C19.8943 18.8339 19.8943 19.3087 19.6016 19.6016C19.3087 19.8944 18.8339 19.8943 18.541 19.6016L16.4189 17.4805C16.1263 17.1877 16.1265 16.7128 16.4189 16.4199Z" fill="black"/>
<path d="M5 11.25C5.41421 11.25 5.75 11.5858 5.75 12C5.75 12.4142 5.41421 12.75 5 12.75H2C1.58579 12.75 1.25 12.4142 1.25 12C1.25 11.5858 1.58579 11.25 2 11.25H5Z" fill="black"/>
<path d="M22 11.25C22.4142 11.25 22.75 11.5858 22.75 12C22.75 12.4142 22.4142 12.75 22 12.75H19C18.5858 12.75 18.25 12.4142 18.25 12C18.25 11.5858 18.5858 11.25 19 11.25H22Z" fill="black"/>
<path d="M4.39844 4.39844C4.69125 4.10562 5.16607 4.10578 5.45898 4.39844L7.58105 6.51953C7.87392 6.81243 7.87394 7.28817 7.58105 7.58105C7.28817 7.87392 6.81242 7.87391 6.51953 7.58105L4.39844 5.45898C4.10578 5.16608 4.10564 4.69125 4.39844 4.39844Z" fill="black"/>
<path d="M18.541 4.39844C18.8339 4.10577 19.3087 4.10562 19.6016 4.39844C19.8944 4.69126 19.8942 5.16607 19.6016 5.45898L17.4805 7.58105C17.1876 7.87391 16.7118 7.87393 16.4189 7.58105C16.1261 7.28817 16.1261 6.81243 16.4189 6.51953L18.541 4.39844Z" fill="black"/>
<path d="M12 1.25C12.4142 1.25 12.75 1.58579 12.75 2V5C12.75 5.41421 12.4142 5.75 12 5.75C11.5858 5.75 11.25 5.41421 11.25 5V2C11.25 1.58579 11.5858 1.25 12 1.25Z" fill="black"/>
</svg>
