<svg width="24" height="24" viewBox="0 0 24 24" fill="none" xmlns="http://www.w3.org/2000/svg">
<path fill-rule="evenodd" clip-rule="evenodd" d="M12 6.25C14.0711 6.25 15.75 7.92893 15.75 10C15.75 12.0711 14.0711 13.75 12 13.75C9.92893 13.75 8.25 12.0711 8.25 10C8.25 7.92893 9.92893 6.25 12 6.25ZM12 7.75C10.7574 7.75 9.75 8.75736 9.75 10C9.75 11.2426 10.7574 12.25 12 12.25C13.2426 12.25 14.25 11.2426 14.25 10C14.25 8.75736 13.2426 7.75 12 7.75Z" fill="black"/>
<path fill-rule="evenodd" clip-rule="evenodd" d="M12 1.75C16.8251 1.75 20.75 5.62314 20.75 10.417C20.7499 13.3982 19.0115 16.3405 17.1689 18.4824C16.2364 19.5664 15.2461 20.482 14.373 21.1328C13.9374 21.4576 13.5186 21.7256 13.1406 21.916C12.7862 22.0945 12.3812 22.25 12 22.25C11.6188 22.25 11.2138 22.0945 10.8594 21.916C10.4814 21.7256 10.0626 21.4576 9.62695 21.1328C8.75392 20.482 7.76357 19.5664 6.83105 18.4824C4.98855 16.3405 3.25013 13.3982 3.25 10.417C3.25 5.62314 7.17493 1.75 12 1.75ZM12 3.25C7.98851 3.25 4.75 6.46634 4.75 10.417C4.75013 12.8632 6.21155 15.4623 7.96875 17.5049C8.83617 18.5132 9.74653 19.3515 10.5234 19.9307C10.9124 20.2206 11.2561 20.4361 11.5342 20.5762C11.6729 20.6461 11.7859 20.6931 11.873 20.7207C11.9644 20.7497 12.0031 20.75 12 20.75C11.9969 20.75 12.0356 20.7497 12.127 20.7207C12.2141 20.6931 12.3271 20.6461 12.4658 20.5762C12.7439 20.4361 13.0876 20.2206 13.4766 19.9307C14.2535 19.3515 15.1638 18.5132 16.0312 17.5049C17.7885 15.4623 19.2499 12.8632 19.25 10.417C19.25 6.46634 16.0115 3.25 12 3.25Z" fill="black"/>
</svg>
