<svg width="24" height="24" viewBox="0 0 24 24" fill="none" xmlns="http://www.w3.org/2000/svg">
<path d="M18 1.25C20.6234 1.25 22.75 3.37665 22.75 6V18C22.75 20.6234 20.6234 22.75 18 22.75H13C10.3766 22.75 8.25 20.6234 8.25 18V16C8.25 15.5858 8.58579 15.25 9 15.25C9.41421 15.25 9.75 15.5858 9.75 16V18C9.75 19.7949 11.2051 21.25 13 21.25H18C19.7949 21.25 21.25 19.7949 21.25 18V6C21.25 4.20507 19.7949 2.75 18 2.75H13C11.2051 2.75 9.75 4.20508 9.75 6V8C9.75 8.41421 9.41421 8.75 9 8.75C8.58579 8.75 8.25 8.41421 8.25 8V6C8.25 3.37665 10.3766 1.25 13 1.25H18Z" fill="black"/>
<path d="M13.4697 8.46973C13.7626 8.17683 14.2374 8.17683 14.5303 8.46973L16.8232 10.7627C17.5066 11.4461 17.5066 12.5539 16.8232 13.2373L14.5303 15.5303C14.2374 15.8232 13.7626 15.8232 13.4697 15.5303C13.1768 15.2374 13.1768 14.7626 13.4697 14.4697L15.1895 12.75H4C3.58579 12.75 3.25 12.4142 3.25 12C3.25 11.5858 3.58579 11.25 4 11.25H15.1895L13.4697 9.53027C13.1768 9.23738 13.1768 8.76262 13.4697 8.46973Z" fill="black"/>
</svg>
