<svg width="24" height="24" viewBox="0 0 24 24" fill="none" xmlns="http://www.w3.org/2000/svg">
<path d="M8.5 7.75028C8.91421 7.75028 9.25 8.08607 9.25 8.50028C9.24989 8.9144 8.91414 9.25028 8.5 9.25028H6.5C4.70507 9.25028 3.25 10.7054 3.25 12.5003V17.5003C3.25011 19.2951 4.70514 20.7503 6.5 20.7503H18.5C20.2949 20.7503 21.7499 19.2951 21.75 17.5003V12.5003C21.75 10.7054 20.2949 9.25028 18.5 9.25028H16.5C16.0859 9.25028 15.7501 8.9144 15.75 8.50028C15.75 8.08607 16.0858 7.75028 16.5 7.75028H18.5C21.1234 7.75028 23.25 9.87693 23.25 12.5003V17.5003C23.2499 20.1235 21.1233 22.2503 18.5 22.2503H6.5C3.87672 22.2503 1.75011 20.1235 1.75 17.5003V12.5003C1.75 9.87693 3.87665 7.75028 6.5 7.75028H8.5Z" fill="black"/>
<path d="M11.2627 2.67704C11.9461 1.99372 13.0539 1.99372 13.7373 2.67704L16.0303 4.97001C16.3231 5.26291 16.3231 5.7377 16.0303 6.03055C15.7374 6.32331 15.2626 6.32331 14.9697 6.03055L13.25 4.31083V15.5003C13.2499 15.9144 12.9141 16.2503 12.5 16.2503C12.0859 16.2503 11.7501 15.9144 11.75 15.5003V4.31083L10.0303 6.03055C9.73741 6.32331 9.26259 6.32331 8.96973 6.03055C8.67687 5.7377 8.67694 5.26291 8.96973 4.97001L11.2627 2.67704Z" fill="black"/>
</svg>
