<svg width="24" height="24" viewBox="0 0 24 24" fill="none" xmlns="http://www.w3.org/2000/svg">
<path d="M17.5498 8.40039C17.8811 8.15194 18.351 8.2187 18.5996 8.5498C18.8481 8.88107 18.7813 9.35102 18.4502 9.59961L13.6504 13.2002C12.6726 13.9335 11.3274 13.9335 10.3496 13.2002L5.5498 9.59961C5.2187 9.35102 5.15194 8.88107 5.40039 8.5498C5.64898 8.2187 6.11893 8.15194 6.4502 8.40039L11.25 12C11.6944 12.3333 12.3056 12.3333 12.75 12L17.5498 8.40039Z" fill="black"/>
<path fill-rule="evenodd" clip-rule="evenodd" d="M17 3.25C20.1756 3.25 22.75 5.82436 22.75 9V15C22.75 18.1756 20.1756 20.75 17 20.75H7C3.82436 20.75 1.25 18.1756 1.25 15V9C1.25 5.82436 3.82436 3.25 7 3.25H17ZM7 4.75C4.65279 4.75 2.75 6.65279 2.75 9V15C2.75 17.3472 4.65279 19.25 7 19.25H17C19.3472 19.25 21.25 17.3472 21.25 15V9C21.25 6.65279 19.3472 4.75 17 4.75H7Z" fill="black"/>
</svg>
