<svg width="24" height="24" viewBox="0 0 24 24" fill="none" xmlns="http://www.w3.org/2000/svg">
<path d="M7.0498 9.7998C7.74016 9.7998 8.2998 10.3594 8.2998 11.0498C8.2998 11.7402 7.74016 12.2998 7.0498 12.2998C6.35953 12.2997 5.7998 11.7401 5.7998 11.0498C5.7998 10.3595 6.35953 9.7999 7.0498 9.7998Z" fill="black"/>
<path d="M12.0498 9.7998C12.7402 9.7998 13.2998 10.3594 13.2998 11.0498C13.2998 11.7402 12.7402 12.2998 12.0498 12.2998C11.3595 12.2997 10.7998 11.7401 10.7998 11.0498C10.7998 10.3595 11.3595 9.7999 12.0498 9.7998Z" fill="black"/>
<path d="M17.0498 9.7998C17.7402 9.7998 18.2998 10.3594 18.2998 11.0498C18.2998 11.7402 17.7402 12.2998 17.0498 12.2998C16.3595 12.2997 15.7998 11.7401 15.7998 11.0498C15.7998 10.3595 16.3595 9.7999 17.0498 9.7998Z" fill="black"/>
<path fill-rule="evenodd" clip-rule="evenodd" d="M17 2.25C20.1756 2.25 22.75 4.82436 22.75 8V14C22.75 17.1756 20.1756 19.75 17 19.75H7.70117C7.41747 19.7501 7.14243 19.8472 6.9209 20.0244L4.09375 22.2861C2.94765 23.203 1.25 22.386 1.25 20.9189V8C1.25 4.82436 3.82436 2.25 7 2.25H17ZM7 3.75C4.65279 3.75 2.75 5.65279 2.75 8V20.9189C2.75 21.1289 2.99282 21.245 3.15625 21.1143L5.9834 18.8525C6.47091 18.4625 7.07684 18.2501 7.70117 18.25H17C19.3472 18.25 21.25 16.3472 21.25 14V8C21.25 5.65279 19.3472 3.75 17 3.75H7Z" fill="black"/>
</svg>
