<svg width="24" height="24" viewBox="0 0 24 24" fill="none" xmlns="http://www.w3.org/2000/svg">
<path d="M7.0498 10.7998C7.74016 10.7998 8.2998 11.3594 8.2998 12.0498C8.2998 12.7402 7.74016 13.2998 7.0498 13.2998C6.35953 13.2997 5.7998 12.7401 5.7998 12.0498C5.7998 11.3595 6.35953 10.7999 7.0498 10.7998Z" fill="black"/>
<path d="M12.0498 10.7998C12.7402 10.7998 13.2998 11.3594 13.2998 12.0498C13.2998 12.7402 12.7402 13.2998 12.0498 13.2998C11.3595 13.2997 10.7998 12.7401 10.7998 12.0498C10.7998 11.3595 11.3595 10.7999 12.0498 10.7998Z" fill="black"/>
<path d="M17.0498 10.7998C17.7402 10.7998 18.2998 11.3594 18.2998 12.0498C18.2998 12.7402 17.7402 13.2998 17.0498 13.2998C16.3595 13.2997 15.7998 12.7401 15.7998 12.0498C15.7998 11.3595 16.3595 10.7999 17.0498 10.7998Z" fill="black"/>
<path fill-rule="evenodd" clip-rule="evenodd" d="M12 1.25C17.9371 1.25 22.75 6.06294 22.75 12C22.75 17.9371 17.9371 22.75 12 22.75C10.1131 22.75 8.33838 22.2624 6.7959 21.4072C6.70155 21.3549 6.60945 21.3528 6.54395 21.376L4.02051 22.2676C2.47491 22.8137 0.986079 21.3249 1.53223 19.7793L2.46094 17.1484C2.48316 17.0855 2.48256 16.998 2.43555 16.9062C1.67909 15.4351 1.25 13.7669 1.25 12C1.25 6.06294 6.06294 1.25 12 1.25ZM12 2.75C6.89137 2.75 2.75 6.89137 2.75 12C2.75 13.5216 3.11904 14.9546 3.76953 16.2197C3.98861 16.6458 4.04769 17.1623 3.87598 17.6484L2.94629 20.2793C2.82042 20.6359 3.16393 20.9794 3.52051 20.8535L6.04395 19.9609C6.54984 19.7821 7.08777 19.8541 7.52344 20.0957C8.84946 20.8308 10.3747 21.25 12 21.25C17.1086 21.25 21.25 17.1086 21.25 12C21.25 6.89137 17.1086 2.75 12 2.75Z" fill="black"/>
</svg>
