<svg width="24" height="24" viewBox="0 0 24 24" fill="none" xmlns="http://www.w3.org/2000/svg">
<path fill-rule="evenodd" clip-rule="evenodd" d="M17 1.25C20.1756 1.25 22.75 3.82436 22.75 7V17C22.75 20.1756 20.1756 22.75 17 22.75H7C3.82436 22.75 1.25 20.1756 1.25 17V7C1.25 3.82436 3.82436 1.25 7 1.25H17ZM7 2.75C4.65279 2.75 2.75 4.65279 2.75 7V17C2.75 19.3472 4.65279 21.25 7 21.25H17C19.3472 21.25 21.25 19.3472 21.25 17V7C21.25 4.65279 19.3472 2.75 17 2.75H7Z" fill="black"/>
<path d="M8.30005 12.0498C8.30005 12.7402 7.7404 13.2998 7.05005 13.2998C6.35969 13.2998 5.80005 12.7402 5.80005 12.0498C5.80005 11.3594 6.35969 10.7998 7.05005 10.7998C7.7404 10.7998 8.30005 11.3594 8.30005 12.0498Z" fill="black"/>
<path d="M13.3 12.0498C13.3 12.7402 12.7404 13.2998 12.05 13.2998C11.3597 13.2998 10.8 12.7402 10.8 12.0498C10.8 11.3594 11.3597 10.7998 12.05 10.7998C12.7404 10.7998 13.3 11.3594 13.3 12.0498Z" fill="black"/>
<path d="M18.3 12.0498C18.3 12.7402 17.7404 13.2998 17.05 13.2998C16.3597 13.2998 15.8 12.7402 15.8 12.0498C15.8 11.3594 16.3597 10.7998 17.05 10.7998C17.7404 10.7998 18.3 11.3594 18.3 12.0498Z" fill="black"/>
</svg>
