<svg width="24" height="24" viewBox="0 0 24 24" fill="none" xmlns="http://www.w3.org/2000/svg">
<path fill-rule="evenodd" clip-rule="evenodd" d="M20.0303 2.2513C20.074 2.25303 20.1167 2.25801 20.1582 2.26692C20.1861 2.27294 20.2125 2.28324 20.2393 2.29231C20.2578 2.29857 20.2771 2.30226 20.2949 2.30989C20.3279 2.324 20.3582 2.34307 20.3887 2.36165C20.3989 2.36788 20.41 2.37252 20.4199 2.37923C20.4847 2.42298 20.5403 2.47829 20.5889 2.54036C20.6004 2.55514 20.6136 2.56866 20.624 2.5843C20.6367 2.60328 20.6453 2.62461 20.6562 2.64485C20.6685 2.66749 20.6824 2.68924 20.6924 2.71321C20.7123 2.76146 20.7286 2.81212 20.7383 2.86555C20.7454 2.90479 20.7481 2.94409 20.749 2.98274C20.7492 2.98848 20.75 2.99455 20.75 3.00032V16.0003C20.75 16.0544 20.7423 16.1067 20.7314 16.1575C20.7432 16.2701 20.75 16.3846 20.75 16.5003C20.7498 18.2951 19.2948 19.7503 17.5 19.7503C15.7052 19.7503 14.2502 18.2951 14.25 16.5003C14.25 14.7054 15.7051 13.2503 17.5 13.2503C18.1444 13.2503 18.7448 13.4376 19.25 13.7611V7.89778L9.75 9.62532V18.0003L9.74609 18.1673C9.65901 19.8845 8.23881 21.2503 6.5 21.2503C4.70519 21.2503 3.25018 19.7951 3.25 18.0003C3.25 16.2054 4.70507 14.7503 6.5 14.7503C7.14435 14.7503 7.74483 14.9376 8.25 15.2611V4.98274C8.2501 4.97817 8.25079 4.97363 8.25098 4.96907C8.25268 4.92709 8.2573 4.88595 8.26562 4.84602C8.27133 4.81885 8.28143 4.79308 8.29004 4.76692C8.32709 4.654 8.38763 4.5522 8.46973 4.47005L8.47656 4.46321C8.49971 4.44059 8.5257 4.42124 8.55176 4.40169C8.56212 4.39391 8.57126 4.38451 8.58203 4.37727C8.60506 4.3618 8.63039 4.35017 8.65527 4.33723C8.67474 4.32709 8.69344 4.3154 8.71387 4.30696C8.75194 4.29128 8.79165 4.27829 8.83301 4.26887C8.84238 4.26674 8.85182 4.26479 8.86133 4.26302L8.86621 4.26204L19.8457 2.26497C19.8489 2.26429 19.8522 2.26365 19.8555 2.26301L19.8662 2.26204C19.8737 2.26068 19.8812 2.25926 19.8887 2.25813C19.9022 2.25612 19.9159 2.25453 19.9297 2.25325C19.9635 2.25003 19.9971 2.24999 20.0303 2.2513ZM6.5 16.2503C5.5335 16.2503 4.75 17.0338 4.75 18.0003C4.75018 18.9667 5.53362 19.7503 6.5 19.7503C7.46638 19.7503 8.24982 18.9667 8.25 18.0003C8.25 17.0338 7.4665 16.2503 6.5 16.2503ZM17.5 14.7503C16.5335 14.7503 15.75 15.5338 15.75 16.5003C15.7502 17.4667 16.5336 18.2503 17.5 18.2503C18.4664 18.2503 19.2498 17.4667 19.25 16.5003C19.25 15.5338 18.4665 14.7503 17.5 14.7503ZM9.75 5.62532V8.10091L19.25 6.37337V3.89778L9.75 5.62532Z" fill="black"/>
</svg>
