<svg width="24" height="24" viewBox="0 0 24 24" fill="none" xmlns="http://www.w3.org/2000/svg">
<path d="M12.7837 3.59094C14.2481 2.1266 16.622 2.12657 18.0864 3.59094C19.5508 5.05537 19.5508 7.4292 18.0864 8.89368L9.85397 17.1271C8.97538 18.0054 7.55095 18.0053 6.67233 17.1271C5.79365 16.2484 5.79365 14.8231 6.67233 13.9445L13.4907 7.1261C13.7836 6.83348 14.2584 6.83335 14.5512 7.1261C14.844 7.41891 14.8439 7.89373 14.5512 8.18665L7.73288 15.005C7.44004 15.2978 7.44015 15.7726 7.73288 16.0656C8.02577 16.3584 8.50053 16.3584 8.79343 16.0656L17.0258 7.83313C17.9044 6.95444 17.9045 5.53014 17.0258 4.65149C16.1472 3.7729 14.7229 3.77294 13.8442 4.65149L5.71237 12.7833C4.24796 14.2477 4.24807 16.6216 5.71237 18.0861C7.17684 19.5505 9.55064 19.5505 11.0151 18.0861L17.7329 11.3693C18.0258 11.0764 18.5005 11.0764 18.7934 11.3693C19.0863 11.6622 19.0863 12.1369 18.7934 12.4298L12.0766 19.1476C10.0265 21.1977 6.7021 21.1975 4.65182 19.1476C2.60157 17.0973 2.60157 13.773 4.65182 11.7228L12.7837 3.59094Z" fill="black"/>
</svg>
