<svg width="24" height="24" viewBox="0 0 24 24" fill="none" xmlns="http://www.w3.org/2000/svg">
<path d="M10.2998 8.75C10.714 8.75 11.0498 9.08579 11.0498 9.5V14.5C11.0498 14.9142 10.714 15.25 10.2998 15.25C9.88568 15.2499 9.5498 14.9142 9.5498 14.5V9.5C9.5498 9.08585 9.88568 8.7501 10.2998 8.75Z" fill="black"/>
<path d="M13.7998 8.75C14.214 8.75 14.5498 9.08579 14.5498 9.5V14.5C14.5498 14.9142 14.214 15.25 13.7998 15.25C13.3857 15.2499 13.0498 14.9142 13.0498 14.5V9.5C13.0498 9.08585 13.3857 8.7501 13.7998 8.75Z" fill="black"/>
<path fill-rule="evenodd" clip-rule="evenodd" d="M12 1.25C17.9371 1.25 22.75 6.06294 22.75 12C22.75 17.9371 17.9371 22.75 12 22.75C6.06294 22.75 1.25 17.9371 1.25 12C1.25 6.06294 6.06294 1.25 12 1.25ZM12 2.75C6.89137 2.75 2.75 6.89137 2.75 12C2.75 17.1086 6.89137 21.25 12 21.25C17.1086 21.25 21.25 17.1086 21.25 12C21.25 6.89137 17.1086 2.75 12 2.75Z" fill="black"/>
</svg>
