<svg width="24" height="24" viewBox="0 0 24 24" fill="none" xmlns="http://www.w3.org/2000/svg">
<path fill-rule="evenodd" clip-rule="evenodd" d="M9.25 10.0557C9.25 8.57822 10.8966 7.69642 12.126 8.51562L15.043 10.4609C16.1414 11.1932 16.1414 12.8068 15.043 13.5391L12.126 15.4844C10.8966 16.3036 9.25 15.4218 9.25 13.9443V10.0557ZM11.2939 9.76367C11.0614 9.60902 10.75 9.77626 10.75 10.0557V13.9443C10.75 14.2237 11.0614 14.391 11.2939 14.2363L14.2109 12.291C14.4187 12.1525 14.4187 11.8475 14.2109 11.709L11.2939 9.76367Z" fill="black"/>
<path fill-rule="evenodd" clip-rule="evenodd" d="M12 1.25C17.9371 1.25 22.75 6.06294 22.75 12C22.75 17.9371 17.9371 22.75 12 22.75C6.06294 22.75 1.25 17.9371 1.25 12C1.25 6.06294 6.06294 1.25 12 1.25ZM12 2.75C6.89137 2.75 2.75 6.89137 2.75 12C2.75 17.1086 6.89137 21.25 12 21.25C17.1086 21.25 21.25 17.1086 21.25 12C21.25 6.89137 17.1086 2.75 12 2.75Z" fill="black"/>
</svg>
