<svg width="24" height="24" viewBox="0 0 24 24" fill="none" xmlns="http://www.w3.org/2000/svg">
<path d="M13.5303 8.46973C13.2374 8.17683 12.7626 8.17683 12.4697 8.46973C12.1768 8.76262 12.1768 9.23738 12.4697 9.53027L14.1895 11.25H8C7.58579 11.25 7.25 11.5858 7.25 12C7.25 12.4142 7.58579 12.75 8 12.75H14.1895L12.4697 14.4697C12.1768 14.7626 12.1768 15.2374 12.4697 15.5303C12.7626 15.8232 13.2374 15.8232 13.5303 15.5303L15.8232 13.2373C16.5066 12.5539 16.5066 11.4461 15.8232 10.7627L13.5303 8.46973Z" fill="black"/>
<path fill-rule="evenodd" clip-rule="evenodd" d="M7 1.25C3.82436 1.25 1.25 3.82436 1.25 7V17C1.25 20.1756 3.82436 22.75 7 22.75H17C20.1756 22.75 22.75 20.1756 22.75 17V7C22.75 3.82436 20.1756 1.25 17 1.25H7ZM17 2.75C19.3472 2.75 21.25 4.65279 21.25 7V17C21.25 19.3472 19.3472 21.25 17 21.25H7C4.65279 21.25 2.75 19.3472 2.75 17V7C2.75 4.65279 4.65279 2.75 7 2.75H17Z" fill="black"/>
</svg>
