<svg width="24" height="24" viewBox="0 0 24 24" fill="none" xmlns="http://www.w3.org/2000/svg">
<path d="M11.21 8.15039C10.9065 7.86879 10.4322 7.88611 10.1504 8.18945C9.86854 8.49299 9.88592 8.96815 10.1895 9.25L12.9004 11.7666C13.0069 11.8655 13.0068 12.0339 12.9004 12.1328L10.1895 14.6504C9.8861 14.9322 9.86879 15.4065 10.1504 15.71C10.4321 16.0134 10.9064 16.0315 11.21 15.75L13.9209 13.2324C14.6665 12.5401 14.6665 11.3603 13.9209 10.668L11.21 8.15039Z" fill="black"/>
<path fill-rule="evenodd" clip-rule="evenodd" d="M12 1.25C6.06295 1.25 1.25001 6.06295 1.25 12C1.25 17.9371 6.06294 22.75 12 22.75C17.9371 22.75 22.75 17.9371 22.75 12C22.75 6.06296 17.937 1.25001 12 1.25ZM12 2.75C17.1086 2.75001 21.25 6.89138 21.25 12C21.25 17.1086 17.1086 21.25 12 21.25C6.89137 21.25 2.75 17.1086 2.75 12C2.75001 6.89138 6.89137 2.75 12 2.75Z" fill="black"/>
</svg>
