<svg width="24" height="24" viewBox="0 0 24 24" fill="none" xmlns="http://www.w3.org/2000/svg">
<path d="M13.5303 8.46973C13.2374 8.17685 12.7626 8.17686 12.4697 8.46973C12.1768 8.76262 12.1768 9.23738 12.4697 9.53027L14.1895 11.25H8C7.5858 11.25 7.25002 11.5858 7.25 12C7.25 12.4142 7.58579 12.75 8 12.75H14.1895L12.4697 14.4697C12.1768 14.7626 12.1768 15.2374 12.4697 15.5303C12.7626 15.8232 13.2374 15.8232 13.5303 15.5303L15.8232 13.2373C16.5065 12.5539 16.5066 11.4461 15.8232 10.7627L13.5303 8.46973Z" fill="black"/>
<path fill-rule="evenodd" clip-rule="evenodd" d="M12 1.25C6.06295 1.25 1.25002 6.06296 1.25 12C1.25 17.9371 6.06294 22.75 12 22.75C17.9371 22.75 22.75 17.9371 22.75 12C22.75 6.06296 17.937 1.25001 12 1.25ZM12 2.75C17.1086 2.75001 21.25 6.89139 21.25 12C21.25 17.1086 17.1086 21.25 12 21.25C6.89137 21.25 2.75 17.1086 2.75 12C2.75002 6.89138 6.89138 2.75 12 2.75Z" fill="black"/>
</svg>
