<svg width="24" height="24" viewBox="0 0 24 24" fill="none" xmlns="http://www.w3.org/2000/svg">
<path fill-rule="evenodd" clip-rule="evenodd" d="M12.828 6.36096C13.9019 5.28715 15.6437 5.28706 16.7176 6.36096C17.7913 7.43487 17.7914 9.17671 16.7176 10.2506C15.6437 11.3245 13.9019 11.3244 12.828 10.2506C11.754 9.17667 11.754 7.4349 12.828 6.36096ZM15.6561 7.42151C15.1679 6.93372 14.3766 6.93359 13.8885 7.42151C13.4005 7.90955 13.4007 8.7009 13.8885 9.18909C14.3767 9.67724 15.1679 9.67724 15.6561 9.18909C16.1441 8.70092 16.1442 7.90962 15.6561 7.42151Z" fill="black"/>
<path fill-rule="evenodd" clip-rule="evenodd" d="M19.3221 1.02209C20.9359 0.811026 22.2664 2.14169 22.0555 3.75549C21.747 6.11442 20.9 10.1219 18.5047 12.7047C17.7426 13.5264 16.8205 14.284 15.8739 14.9586L16.1512 16.8971C16.2291 17.4423 16.0455 17.992 15.6561 18.3815L12.4744 21.5641C11.4548 22.5835 9.70883 22.0012 9.50471 20.5739L9.07991 17.6041L9.08577 17.6031C8.81393 17.4719 8.56018 17.2962 8.34065 17.0768L6.00178 14.7369C5.78211 14.5172 5.60568 14.264 5.47444 13.9918L5.47346 13.9987L2.50374 13.5739C1.07652 13.3696 0.495077 11.6238 1.51448 10.6041L4.69612 7.42151C5.08558 7.03213 5.63627 6.8495 6.18147 6.92737L8.11897 7.20373C8.79352 6.25714 9.5522 5.33591 10.3739 4.57385C12.9565 2.17872 16.9631 1.33066 19.3221 1.02209ZM14.491 15.8795C13.3008 16.6223 12.1722 17.2137 11.3719 17.6061C11.1311 17.7241 10.8806 17.7995 10.6287 17.8385L10.9891 20.3619C11.0184 20.5656 11.2683 20.6489 11.4139 20.5035L14.5955 17.3209C14.6511 17.2653 14.6779 17.1868 14.6668 17.109L14.491 15.8795ZM7.41877 11.2047C7.18917 11.6323 6.98558 12.0254 6.81819 12.3668C6.61011 12.7916 6.69951 13.3133 7.06233 13.6764L9.4012 16.0162C9.76434 16.3791 10.287 16.4676 10.7117 16.2594C11.0531 16.092 11.4463 15.8893 11.8739 15.6598L7.41877 11.2047ZM19.5174 2.51037C17.1941 2.81423 13.6063 3.62113 11.3934 5.67346C10.1577 6.81954 9.05245 8.39905 8.1844 9.84924L13.2293 14.8942C14.6795 14.0261 16.259 12.9209 17.4051 11.6852C19.4574 9.47231 20.2643 5.88447 20.5682 3.56116C20.6514 2.92429 20.1543 2.42717 19.5174 2.51037ZM5.96858 8.41174C5.89089 8.40078 5.8122 8.42661 5.75666 8.48205L2.57502 11.6647C2.42956 11.8104 2.51275 12.0604 2.71663 12.0895L5.23909 12.4489C5.27806 12.1973 5.35361 11.9472 5.47151 11.7067C5.8639 10.9063 6.45517 9.77703 7.19807 8.58655L5.96858 8.41174Z" fill="black"/>
<path d="M7.1717 19.0895C7.46461 18.7967 7.9394 18.7966 8.23225 19.0895C8.52468 19.3824 8.52487 19.8573 8.23225 20.15L6.81721 21.5641C6.52429 21.8566 6.04945 21.8569 5.75666 21.5641C5.46395 21.2713 5.46413 20.7964 5.75666 20.5035L7.1717 19.0895Z" fill="black"/>
<path d="M5.04963 16.9674C5.34243 16.6747 5.8173 16.6749 6.11018 16.9674C6.40303 17.2603 6.40295 17.735 6.11018 18.028L3.28206 20.8571C2.9892 21.1497 2.51435 21.1497 2.22151 20.8571C1.92868 20.5642 1.9288 20.0894 2.22151 19.7965L5.04963 16.9674Z" fill="black"/>
<path d="M2.92854 14.8463C3.22141 14.5536 3.69623 14.5536 3.98909 14.8463C4.28194 15.1392 4.28185 15.614 3.98909 15.9069L2.57502 17.3209C2.28213 17.6138 1.80737 17.6138 1.51448 17.3209C1.22168 17.028 1.22162 16.5532 1.51448 16.2604L2.92854 14.8463Z" fill="black"/>
</svg>
