<svg width="24" height="24" viewBox="0 0 24 24" fill="none" xmlns="http://www.w3.org/2000/svg">
<path d="M13.6421 13.6421C13.9512 13.3329 14.4521 13.3329 14.7612 13.6421C15.0701 13.9512 15.0702 14.4522 14.7612 14.7612C14.4522 15.0702 13.9512 15.07 13.6421 14.7612C13.333 14.4521 13.333 13.9512 13.6421 13.6421Z" fill="black"/>
<path d="M13.7085 9.23093C14.0014 8.93804 14.4761 8.93804 14.769 9.23093C15.0618 9.52384 15.0619 9.99863 14.769 10.2915L10.2915 14.769C9.99861 15.0616 9.52375 15.0617 9.23093 14.769C8.93812 14.4762 8.9383 14.0014 9.23093 13.7085L13.7085 9.23093Z" fill="black"/>
<path d="M9.23874 9.23874C9.54782 8.92966 10.0488 8.92973 10.3579 9.23874C10.667 9.54786 10.667 10.0488 10.3579 10.3579C10.0488 10.667 9.54785 10.667 9.23874 10.3579C8.92974 10.0488 8.92969 9.54783 9.23874 9.23874Z" fill="black"/>
<path fill-rule="evenodd" clip-rule="evenodd" d="M13.5727 2.23679C14.1671 1.99055 15.0513 1.64765 15.9301 1.99265C16.0534 2.04108 16.1764 2.0922 16.2973 2.14499C17.1621 2.52256 17.5451 3.38964 17.7915 3.98386C17.9339 4.32744 18.0364 4.6044 18.1675 4.87937C18.2938 5.1444 18.4139 5.33171 18.5405 5.45847L18.6469 5.55222C18.7653 5.64524 18.9207 5.7367 19.1196 5.83152C19.3945 5.96249 19.6715 6.06514 20.0151 6.20749C20.6094 6.45373 21.4771 6.83621 21.855 7.70066C21.9078 7.82171 21.9588 7.94451 22.0073 8.06784C22.3529 8.94688 22.0103 9.83247 21.7641 10.4272C21.6217 10.7712 21.4978 11.0393 21.396 11.3266C21.2978 11.6038 21.2505 11.8212 21.2505 12.0005L21.2592 12.1421C21.2772 12.2916 21.3223 12.4656 21.396 12.6733C21.4979 12.9606 21.6217 13.2288 21.7641 13.5727C22.0103 14.1673 22.3523 15.0523 22.0063 15.9311C21.9579 16.0542 21.9078 16.1765 21.855 16.2973C21.4769 17.1618 20.6094 17.545 20.0151 17.7915C19.6715 17.934 19.3946 18.0363 19.1196 18.1675C18.9206 18.2624 18.7654 18.3536 18.6469 18.4468L18.5405 18.5405C18.4138 18.6672 18.2939 18.8544 18.1675 19.1196C18.0364 19.3945 17.9339 19.6715 17.7915 20.0151C17.5452 20.6094 17.1628 21.477 16.2983 21.855C16.1772 21.9079 16.0546 21.9587 15.9311 22.0073C15.0523 22.3531 14.1672 22.0103 13.5727 21.7641C13.2288 21.6217 12.9606 21.4978 12.6733 21.396C12.4656 21.3223 12.2915 21.2772 12.1421 21.2593L12.0005 21.2505C11.8212 21.2505 11.6038 21.2978 11.3266 21.396C11.0393 21.4978 10.7712 21.6218 10.4272 21.7641C9.83246 22.0103 8.94685 22.3529 8.06784 22.0073C7.9447 21.9589 7.8225 21.9078 7.70163 21.855C6.83686 21.4771 6.45354 20.6094 6.20749 20.0151C6.06516 19.6713 5.96349 19.3936 5.83249 19.1186C5.73777 18.9198 5.64614 18.7652 5.55319 18.6469L5.45944 18.5405C5.33268 18.4138 5.14558 18.2939 4.88034 18.1675C4.60514 18.0362 4.32775 17.934 3.98386 17.7915C3.38946 17.545 2.52268 17.1612 2.14499 16.2964C2.09238 16.1758 2.04092 16.053 1.99265 15.9301C1.64766 15.0513 1.99056 14.1671 2.23679 13.5727C2.37929 13.2287 2.50303 12.9606 2.60495 12.6733C2.67862 12.4656 2.7237 12.2916 2.74167 12.1421L2.75046 12.0005C2.75046 11.8213 2.70303 11.6045 2.60495 11.3276C2.50307 11.0402 2.37927 10.7713 2.23679 10.4272C1.99053 9.83256 1.64764 8.94786 1.99265 8.06882C2.0409 7.94597 2.0924 7.82417 2.14499 7.70359C2.52242 6.83822 3.38933 6.45478 3.98386 6.20847C4.32776 6.06601 4.60518 5.96359 4.88034 5.83249C5.14563 5.70607 5.3327 5.58612 5.45944 5.45945L5.55319 5.353C5.6463 5.23459 5.7376 5.07945 5.83249 4.88034C5.96359 4.6052 6.06601 4.32777 6.20847 3.98386C6.45475 3.38934 6.83816 2.52145 7.70359 2.14402C7.82406 2.09148 7.94609 2.04085 8.06882 1.99265C8.94787 1.64764 9.83256 1.99053 10.4272 2.23679C10.7713 2.37927 11.0402 2.50308 11.3276 2.60495C11.6045 2.70303 11.8213 2.75046 12.0005 2.75046L12.1421 2.74167C12.2916 2.72372 12.4656 2.67862 12.6733 2.60495C12.9606 2.50304 13.2288 2.3793 13.5727 2.23679ZM15.3823 3.38913C15.1347 3.29187 14.796 3.35363 14.1469 3.62253C13.8692 3.7376 13.5098 3.89904 13.1743 4.01804C12.8719 4.12529 12.5264 4.22287 12.1596 4.24558L12.0005 4.25046C11.5745 4.25046 11.1716 4.14162 10.8257 4.01902C10.4901 3.90007 10.1309 3.73761 9.853 3.62253C9.20376 3.35369 8.86453 3.29186 8.61667 3.38913C8.51126 3.43053 8.40668 3.47389 8.30319 3.51902C8.05927 3.6254 7.86315 3.90887 7.59421 4.55808C7.47911 4.83595 7.33918 5.20444 7.18601 5.52585C7.04781 5.81583 6.87213 6.12919 6.62839 6.40476L6.51999 6.51999C6.2188 6.82108 5.85709 7.02815 5.52585 7.18601C5.20448 7.33915 4.83592 7.47911 4.55808 7.59421C3.90894 7.86315 3.6254 8.05927 3.51902 8.3032C3.47389 8.40669 3.43054 8.51126 3.38913 8.61667C3.29184 8.86453 3.35368 9.20371 3.62253 9.853C3.73761 10.1309 3.90007 10.4901 4.01902 10.8257C4.14162 11.1716 4.25046 11.5745 4.25046 12.0005L4.24558 12.1596C4.22285 12.5264 4.12529 12.8719 4.01804 13.1743C3.89904 13.5098 3.73759 13.8692 3.62253 14.1469C3.35365 14.796 3.29186 15.1347 3.38913 15.3823C3.43053 15.4876 3.4739 15.5923 3.51902 15.6958C3.62562 15.9398 3.91001 16.1366 4.55905 16.4057C4.83683 16.5209 5.20476 16.6608 5.52585 16.8139C5.85704 16.9719 6.21887 17.1789 6.51999 17.48L6.62839 17.5952C6.872 17.8707 7.04791 18.1842 7.18601 18.4741C7.33899 18.7953 7.47829 19.1632 7.59323 19.4409C7.86193 20.0899 8.05836 20.3734 8.30222 20.48C8.40622 20.5254 8.51171 20.5691 8.61765 20.6108C8.86524 20.7079 9.2041 20.6469 9.853 20.3784C10.1309 20.2634 10.4901 20.1008 10.8257 19.9819C11.1716 19.8593 11.5744 19.7505 12.0005 19.7505C12.4262 19.7506 12.8286 19.8594 13.1743 19.9819C13.5097 20.1009 13.8693 20.2634 14.1469 20.3784C14.7956 20.647 15.134 20.708 15.3813 20.6108C15.4874 20.5691 15.5936 20.5255 15.6977 20.48C15.9415 20.3731 16.1371 20.0893 16.4057 19.4409C16.5208 19.1632 16.6608 18.7953 16.8139 18.4741C16.9718 18.1429 17.1789 17.7811 17.48 17.48L17.5952 17.3716C17.8705 17.128 18.1834 16.9522 18.4731 16.8139C18.7944 16.6607 19.1631 16.5209 19.4409 16.4057C20.0893 16.1369 20.373 15.9407 20.48 15.6968C20.5254 15.5928 20.5691 15.4872 20.6108 15.3813C20.7081 15.1341 20.647 14.7957 20.3784 14.1469C20.2634 13.8693 20.1008 13.5097 19.9819 13.1743C19.8594 12.8286 19.7506 12.4262 19.7505 12.0005C19.7505 11.5744 19.8593 11.1716 19.9819 10.8257C20.1008 10.4901 20.2634 10.1309 20.3784 9.853C20.647 9.20407 20.708 8.86525 20.6108 8.61765C20.5691 8.51169 20.5254 8.40624 20.48 8.30222C20.3733 8.05821 20.0898 7.86211 19.4409 7.59324C19.1632 7.47819 18.7953 7.33812 18.4741 7.18503C18.1843 7.04687 17.8706 6.871 17.5952 6.62742L17.48 6.51902C17.1791 6.21795 16.9718 5.85592 16.8139 5.52488C16.6609 5.20383 16.5208 4.83564 16.4057 4.55808C16.1371 3.91011 15.9413 3.6267 15.6977 3.51999C15.5938 3.47464 15.4882 3.43073 15.3823 3.38913Z" fill="black"/>
</svg>
