<svg width="24" height="24" viewBox="0 0 24 24" fill="none" xmlns="http://www.w3.org/2000/svg">
<path fill-rule="evenodd" clip-rule="evenodd" d="M14.7578 1.25C15.7522 1.25012 16.706 1.64548 17.4092 2.34863L21.6514 6.59082C22.3545 7.29397 22.7499 8.24779 22.75 9.24219V18C22.75 20.3681 21.0169 22.3308 18.75 22.6904V22.75H5.25V22.6904C2.98306 22.3308 1.25 20.3681 1.25 18V6C1.25 3.37665 3.37665 1.25 6 1.25H14.7578ZM8 13.75C7.30964 13.75 6.75 14.3096 6.75 15V21.25H17.25V15C17.25 14.3096 16.6904 13.75 16 13.75H8ZM6 2.75C4.20507 2.75 2.75 4.20507 2.75 6V18C2.75 19.5366 3.81686 20.8224 5.25 21.1611V15C5.25 13.4812 6.48122 12.25 8 12.25H16C17.5188 12.25 18.75 13.4812 18.75 15V21.1611C20.1831 20.8224 21.25 19.5366 21.25 18V9.24219C21.2499 8.64561 21.0127 8.07322 20.5908 7.65137L16.75 3.81055V6C16.75 6.9665 15.9665 7.75 15 7.75H9C8.0335 7.75 7.25 6.9665 7.25 6V2.75H6ZM8.75 6C8.75 6.13807 8.86193 6.25 9 6.25H15C15.1381 6.25 15.25 6.13807 15.25 6V2.80664C15.0895 2.77059 14.9248 2.75003 14.7578 2.75H8.75V6Z" fill="black"/>
</svg>
