<svg width="24" height="24" viewBox="0 0 24 24" fill="none" xmlns="http://www.w3.org/2000/svg">
<path fill-rule="evenodd" clip-rule="evenodd" d="M19.2979 2.25C20.9281 2.25025 22.2499 3.57186 22.25 5.20215C22.25 6.57299 21.3143 7.72136 20.0479 8.05371V16.4443C21.3145 16.7766 22.2499 17.927 22.25 19.2979C22.2497 20.928 20.928 22.2497 19.2979 22.25C17.9271 22.2499 16.7777 21.3143 16.4453 20.0479H8.05469C7.72242 21.3145 6.57307 22.25 5.20215 22.25C3.57186 22.2499 2.25025 20.9281 2.25 19.2979C2.25011 17.9269 3.18537 16.7765 4.45215 16.4443V8.05371C3.18548 7.72144 2.25 6.57307 2.25 5.20215C2.25013 3.57178 3.57178 2.25013 5.20215 2.25C6.57316 2.25 7.7225 3.18536 8.05469 4.45215H16.4453C16.7776 3.18549 17.927 2.25011 19.2979 2.25ZM5.20215 17.8457C4.40021 17.8458 3.75013 18.4959 3.75 19.2979C3.75025 20.0997 4.40028 20.7499 5.20215 20.75C6.00412 20.75 6.65405 20.0998 6.6543 19.2979C6.65417 18.4958 6.0042 17.8457 5.20215 17.8457ZM19.2979 17.8457C18.4959 17.8458 17.8458 18.4959 17.8457 19.2979C17.846 20.0997 18.496 20.7499 19.2979 20.75C20.0996 20.7497 20.7497 20.0996 20.75 19.2979C20.7499 18.496 20.0997 17.846 19.2979 17.8457ZM8.05469 5.95215C7.78544 6.97916 6.97913 7.78438 5.95215 8.05371V16.4443C6.97938 16.7136 7.78547 17.5206 8.05469 18.5479H16.4443C16.7136 17.5204 17.5204 16.7136 18.5479 16.4443V8.05371C17.5208 7.78445 16.7146 6.97919 16.4453 5.95215H8.05469ZM5.20215 3.75C4.4002 3.75013 3.75013 4.4002 3.75 5.20215C3.75 6.0042 4.40013 6.65417 5.20215 6.6543C6.00428 6.6543 6.6543 6.00428 6.6543 5.20215C6.65417 4.40013 6.0042 3.75 5.20215 3.75ZM19.2979 3.75C18.4959 3.75013 17.8458 4.40021 17.8457 5.20215C17.8457 6.0042 18.4958 6.65417 19.2979 6.6543C20.0998 6.65405 20.75 6.00412 20.75 5.20215C20.7499 4.40028 20.0997 3.75025 19.2979 3.75Z" fill="black"/>
</svg>
