<svg width="24" height="24" viewBox="0 0 24 24" fill="none" xmlns="http://www.w3.org/2000/svg">
<path fill-rule="evenodd" clip-rule="evenodd" d="M17 1.25C20.1756 1.25 22.75 3.82436 22.75 7V17C22.75 20.1756 20.1756 22.75 17 22.75H7C3.82436 22.75 1.25 20.1756 1.25 17V7C1.25 3.82436 3.82436 1.25 7 1.25H17ZM7 2.75C4.65279 2.75 2.75 4.65279 2.75 7V17C2.75 19.3472 4.65279 21.25 7 21.25H13.25V2.75H7ZM14.75 14.75V21.25H17C19.3472 21.25 21.25 19.3472 21.25 17V14.75H14.75ZM14.75 13.25H21.25V7C21.25 4.65279 19.3472 2.75 17 2.75H14.75V13.25Z" fill="black"/>
</svg>
