<svg width="24" height="24" viewBox="0 0 24 24" fill="none" xmlns="http://www.w3.org/2000/svg">
<path d="M18.25 11C18.25 6.99594 15.0041 3.75 11 3.75C6.99594 3.75 3.75 6.99594 3.75 11C3.75 15.0041 6.99594 18.25 11 18.25C15.0041 18.25 18.25 15.0041 18.25 11ZM19.75 11C19.75 15.8325 15.8325 19.75 11 19.75C6.16751 19.75 2.25 15.8325 2.25 11C2.25 6.16751 6.16751 2.25 11 2.25C15.8325 2.25 19.75 6.16751 19.75 11Z" fill="black"/>
<path d="M15.9698 16.4277C16.2627 16.1348 16.7374 16.1348 17.0303 16.4277L22.0303 21.4277C22.3232 21.7206 22.3232 22.1953 22.0303 22.4882C21.7374 22.7811 21.2627 22.7811 20.9698 22.4882L15.9698 17.4882C15.6769 17.1953 15.6769 16.7206 15.9698 16.4277Z" fill="black"/>
</svg>
