<svg width="24" height="24" viewBox="0 0 24 24" fill="none" xmlns="http://www.w3.org/2000/svg">
<path fill-rule="evenodd" clip-rule="evenodd" d="M11 2.25C15.8325 2.25 19.75 6.16751 19.75 11C19.75 13.2629 18.8902 15.3246 17.4805 16.8779L22.0303 21.4277C22.3232 21.7206 22.3232 22.1954 22.0303 22.4883C21.7374 22.7812 21.2626 22.7812 20.9697 22.4883L16.3789 17.8975C14.8947 19.0565 13.0291 19.75 11 19.75C6.16751 19.75 2.25 15.8325 2.25 11C2.25 6.16751 6.16751 2.25 11 2.25ZM11 3.75C6.99594 3.75 3.75 6.99594 3.75 11C3.75 15.0041 6.99594 18.25 11 18.25C15.0041 18.25 18.25 15.0041 18.25 11C18.25 6.99594 15.0041 3.75 11 3.75Z" fill="black"/>
</svg>
