<svg width="24" height="24" viewBox="0 0 24 24" fill="none" xmlns="http://www.w3.org/2000/svg">
<path fill-rule="evenodd" clip-rule="evenodd" d="M19.4864 2.04774C21.0107 1.53983 22.4602 2.98926 21.9523 4.51356L16.8966 19.6835C16.3629 21.2843 14.1849 21.4979 13.3507 20.0311L10.256 14.5878C10.0558 14.2358 9.7642 13.9442 9.41222 13.744L3.96886 10.6493C2.50197 9.81514 2.71561 7.63801 4.31651 7.10438L19.4864 2.04774ZM20.5294 4.03992C20.6467 3.68817 20.3118 3.35342 19.9601 3.47059L4.79112 8.52723C4.42168 8.65037 4.37252 9.15212 4.71104 9.34461L10.1534 12.4403C10.226 12.4816 10.2969 12.5253 10.3663 12.5712L12.255 10.6845C12.5479 10.3916 13.0226 10.3916 13.3155 10.6845C13.6084 10.9774 13.6084 11.4521 13.3155 11.745L11.4278 13.6317C11.4741 13.7016 11.5181 13.7734 11.5597 13.8466L14.6554 19.2899C14.848 19.6276 15.3494 19.5785 15.4728 19.2098L20.5294 4.03992Z" fill="black"/>
</svg>
