<svg width="24" height="24" viewBox="0 0 24 24" fill="none" xmlns="http://www.w3.org/2000/svg">
<path fill-rule="evenodd" clip-rule="evenodd" d="M12.0001 8.25C14.0711 8.25008 15.7501 9.92898 15.7501 12C15.7501 14.071 14.0711 15.7499 12.0001 15.75C9.92902 15.75 8.25009 14.0711 8.25009 12C8.25009 9.92893 9.92902 8.25 12.0001 8.25ZM12.0001 9.75C10.7574 9.75 9.75009 10.7574 9.75009 12C9.75009 13.2426 10.7574 14.25 12.0001 14.25C13.2427 14.2499 14.2501 13.2426 14.2501 12C14.2501 10.7574 13.2427 9.75008 12.0001 9.75Z" fill="black"/>
<path fill-rule="evenodd" clip-rule="evenodd" d="M12.3409 1.25488C13.1336 1.27961 13.9059 1.39029 14.6475 1.57812C15.3383 1.75314 15.695 2.35026 15.8097 2.84668C15.9454 3.43463 16.3135 3.96377 16.8751 4.28809L17.0714 4.38867C17.5351 4.59926 18.0396 4.63838 18.5108 4.52734C18.9753 4.41777 19.6116 4.46044 20.0704 4.91016L20.1602 5.00586L20.4747 5.39062C21.1895 6.30599 21.7592 7.34044 22.1495 8.45996C22.4148 9.22089 22.0041 9.90597 21.5694 10.2646C21.068 10.6783 20.7501 11.3018 20.7501 12C20.7501 12.6979 21.0679 13.3208 21.5694 13.7344C22.0042 14.093 22.4148 14.7782 22.1495 15.5391C21.7032 16.8189 21.022 17.9867 20.1583 18.9932C19.6959 19.5318 19.0062 19.5882 18.5108 19.4717C17.9725 19.345 17.3902 19.4146 16.8751 19.7119C16.3136 20.0362 15.9455 20.5648 15.8097 21.1523C15.6949 21.6487 15.338 22.2458 14.6475 22.4209C13.906 22.6089 13.1339 22.7203 12.3409 22.7451L12.0001 22.75C11.0868 22.75 10.1987 22.6359 9.35068 22.4209C8.66035 22.2457 8.30309 21.6489 8.18857 21.1523C8.05296 20.5644 7.68602 20.0359 7.12509 19.7119C6.60979 19.4145 6.027 19.3449 5.48837 19.4717C4.99297 19.5883 4.3014 19.5322 3.83896 18.9932C2.97573 17.9868 2.2957 16.8184 1.8497 15.5391C1.5845 14.7782 1.99475 14.092 2.42978 13.7334C2.93188 13.3196 3.25009 12.6977 3.25009 12C3.25009 11.302 2.9318 10.6794 2.42978 10.2656C1.99488 9.907 1.58445 9.22094 1.8497 8.45996L2.02743 7.98535C2.46824 6.89104 3.08361 5.88644 3.83896 5.00586C4.30143 4.46675 4.99281 4.4105 5.48837 4.52734C6.02729 4.65446 6.60995 4.58541 7.12509 4.28809L7.32626 4.15723C7.77419 3.83094 8.06997 3.36146 8.18857 2.84668C8.30306 2.35003 8.66015 1.75317 9.35068 1.57812L9.67099 1.50293C10.4216 1.33727 11.2014 1.25002 12.0001 1.25L12.3409 1.25488ZM12.0001 2.75C11.2145 2.75002 10.4522 2.84685 9.72568 3.03027C9.72316 3.03213 9.71836 3.03622 9.712 3.04395C9.69166 3.06876 9.66592 3.11666 9.65048 3.18359C9.4399 4.09766 8.88803 4.93415 8.04696 5.48145L7.87509 5.58691C7.01424 6.08385 6.03784 6.1983 5.14364 5.9873C5.07732 5.97171 5.02349 5.97426 4.99228 5.98145C4.97198 5.98621 4.96879 5.99031 4.97275 5.9873C4.233 6.85096 3.65024 7.85194 3.26767 8.94629C3.2685 8.9392 3.26507 8.94361 3.2745 8.96777C3.28866 9.0038 3.32376 9.0577 3.38388 9.10742C4.21593 9.79329 4.75009 10.8341 4.75009 12C4.75009 13.166 4.2158 14.2061 3.38388 14.8916C3.3237 14.9413 3.28866 14.9952 3.2745 15.0312C3.26473 15.0563 3.26891 15.06 3.26767 15.0518C3.65008 16.1462 4.23298 17.1469 4.97275 18.0107C4.97515 18.012 4.9813 18.015 4.99228 18.0176C5.02348 18.0248 5.07729 18.0273 5.14364 18.0117C6.03804 17.8011 7.01465 17.9164 7.87509 18.4131C8.81262 18.9546 9.42569 19.8408 9.65048 20.8154C9.66594 20.8823 9.69164 20.9302 9.712 20.9551C9.71792 20.9623 9.72313 20.9657 9.72568 20.9678C10.4526 21.1516 11.2146 21.25 12.0001 21.25L12.294 21.2451C12.9748 21.2238 13.6365 21.1283 14.2716 20.9678C14.2739 20.9659 14.2796 20.9621 14.2862 20.9541C14.3066 20.9291 14.3333 20.8813 14.3487 20.8145C14.5742 19.8396 15.1881 18.9542 16.1251 18.4131C16.9852 17.9166 17.9607 17.8014 18.8546 18.0117C18.9209 18.0273 18.9747 18.0248 19.0059 18.0176C19.0158 18.0153 19.0217 18.0121 19.0245 18.0107C19.7648 17.1467 20.3479 16.1463 20.7306 15.0518C20.7299 15.048 20.7285 15.0411 20.7247 15.0312C20.7105 14.9952 20.6755 14.9413 20.6153 14.8916C19.7836 14.2059 19.2501 13.1655 19.2501 12C19.2501 10.8346 19.7826 9.7935 20.6143 9.10742C20.6748 9.05753 20.7105 9.00395 20.7247 8.96777C20.7289 8.95708 20.73 8.94991 20.7306 8.94629C20.3479 7.85181 19.7654 6.851 19.0255 5.9873C19.0225 5.98596 19.0162 5.98362 19.0069 5.98145C18.9756 5.9743 18.9218 5.97168 18.8556 5.9873C18.0176 6.18492 17.1076 6.09675 16.2882 5.67578L16.1251 5.58691C15.1877 5.04561 14.573 4.15972 14.3477 3.18457C14.3323 3.11769 14.3066 3.06989 14.2862 3.04492C14.2791 3.03633 14.2738 3.03192 14.2716 3.03027C13.6368 2.87009 12.9749 2.77612 12.294 2.75488L12.0001 2.75Z" fill="black"/>
</svg>
