<svg width="24" height="24" viewBox="0 0 24 24" fill="none" xmlns="http://www.w3.org/2000/svg">
<path fill-rule="evenodd" clip-rule="evenodd" d="M17.5 1.25C19.2949 1.25 20.75 2.70507 20.75 4.5C20.75 6.29493 19.2949 7.75 17.5 7.75C16.5864 7.75 15.7623 7.37155 15.1719 6.76465L8.59863 10.5205C8.69628 10.8297 8.75 11.1585 8.75 11.5C8.75 12.0887 8.59205 12.64 8.31836 13.1162L15.1748 17.2305C15.765 16.6259 16.5884 16.25 17.5 16.25C19.2949 16.25 20.75 17.7051 20.75 19.5C20.75 21.2949 19.2949 22.75 17.5 22.75C15.7051 22.75 14.25 21.2949 14.25 19.5C14.25 19.1565 14.3036 18.8255 14.4023 18.5146L7.26074 14.2305C6.75321 14.5584 6.14923 14.75 5.5 14.75C3.70507 14.75 2.25 13.2949 2.25 11.5C2.25 9.70508 3.70508 8.25 5.5 8.25C6.41312 8.25 7.23676 8.62806 7.82715 9.23438L14.4004 5.47852C14.303 5.16966 14.25 4.84104 14.25 4.5C14.25 2.70507 15.7051 1.25 17.5 1.25ZM17.5 17.75C16.5335 17.75 15.75 18.5335 15.75 19.5C15.75 20.4665 16.5335 21.25 17.5 21.25C18.4665 21.25 19.25 20.4665 19.25 19.5C19.25 18.5335 18.4665 17.75 17.5 17.75ZM5.5 9.75C4.5335 9.75 3.75 10.5335 3.75 11.5C3.75 12.4665 4.5335 13.25 5.5 13.25C6.4665 13.25 7.25 12.4665 7.25 11.5C7.25 10.5335 6.4665 9.75 5.5 9.75ZM17.5 2.75C16.5335 2.75 15.75 3.5335 15.75 4.5C15.75 5.4665 16.5335 6.25 17.5 6.25C18.4665 6.25 19.25 5.4665 19.25 4.5C19.25 3.5335 18.4665 2.75 17.5 2.75Z" fill="black"/>
</svg>
