<svg width="24" height="24" viewBox="0 0 24 24" fill="none" xmlns="http://www.w3.org/2000/svg">
<path d="M14.9697 9.46955C15.2626 9.17698 15.7375 9.17694 16.0303 9.46955C16.3231 9.76235 16.3229 10.2372 16.0303 10.5301L12.0303 14.5301C11.7374 14.823 11.2626 14.823 10.9697 14.5301L8.96973 12.5311C8.67693 12.2383 8.67712 11.7634 8.96973 11.4705C9.26262 11.1776 9.73738 11.1776 10.0303 11.4705L11.5 12.9393L14.9697 9.46955Z" fill="black"/>
<path fill-rule="evenodd" clip-rule="evenodd" d="M11.1504 1.61408C11.6788 1.3207 12.3212 1.3207 12.8496 1.61408L19.8496 5.50275C20.4051 5.81133 20.7499 6.39764 20.75 7.03302V11.6717C20.7499 15.5755 18.6331 19.1722 15.2207 21.0682L12.8496 22.3856C12.3212 22.6791 11.6788 22.6791 11.1504 22.3856L8.7793 21.0682C5.36686 19.1722 3.25013 15.5755 3.25 11.6717V7.03302C3.25015 6.39764 3.59494 5.81133 4.15039 5.50275L11.1504 1.61408ZM12.1211 2.9256C12.0457 2.88385 11.9543 2.88385 11.8789 2.9256L4.87891 6.81427C4.79966 6.8583 4.75015 6.94239 4.75 7.03302V11.6717C4.75013 15.0308 6.57146 18.1262 9.50781 19.7576L11.8789 21.074C11.9544 21.1159 12.0456 21.1159 12.1211 21.074L14.4922 19.7576C17.4285 18.1262 19.2499 15.0308 19.25 11.6717V7.03302C19.2499 6.94239 19.2003 6.8583 19.1211 6.81427L12.1211 2.9256Z" fill="black"/>
</svg>
