<svg width="24" height="24" viewBox="0 0 24 24" fill="none" xmlns="http://www.w3.org/2000/svg">
<path d="M13.7119 9.46955C14.0048 9.17665 14.4805 9.17665 14.7734 9.46955C15.0661 9.76229 15.0658 10.2372 14.7734 10.5301L13.1816 12.1209L14.7734 13.7127C15.066 14.0056 15.066 14.4804 14.7734 14.7733C14.4805 15.0662 14.0048 15.0662 13.7119 14.7733L12.1211 13.1824L10.5303 14.7733C10.2374 15.0661 9.76261 15.0661 9.46973 14.7733C9.17685 14.4804 9.17689 14.0056 9.46973 13.7127L11.0596 12.1209L9.46973 10.5311C9.17683 10.2382 9.17683 9.76244 9.46973 9.46955C9.76257 9.17695 10.2374 9.17694 10.5303 9.46955L12.1211 11.0604L13.7119 9.46955Z" fill="black"/>
<path fill-rule="evenodd" clip-rule="evenodd" d="M11.1504 1.61408C11.6788 1.3207 12.3212 1.3207 12.8496 1.61408L19.8496 5.50275C20.4051 5.81133 20.7499 6.39764 20.75 7.03302V11.6717C20.7499 15.5755 18.6331 19.1722 15.2207 21.0682L12.8496 22.3856C12.3212 22.6791 11.6788 22.6791 11.1504 22.3856L8.7793 21.0682C5.36686 19.1722 3.25013 15.5755 3.25 11.6717V7.03302C3.25015 6.39764 3.59494 5.81133 4.15039 5.50275L11.1504 1.61408ZM12.1211 2.9256C12.0457 2.88385 11.9543 2.88385 11.8789 2.9256L4.87891 6.81427C4.79966 6.8583 4.75015 6.94239 4.75 7.03302V11.6717C4.75013 15.0308 6.57146 18.1262 9.50781 19.7576L11.8789 21.074C11.9544 21.1159 12.0456 21.1159 12.1211 21.074L14.4922 19.7576C17.4285 18.1262 19.2499 15.0308 19.25 11.6717V7.03302C19.2499 6.94239 19.2003 6.8583 19.1211 6.81427L12.1211 2.9256Z" fill="black"/>
</svg>
