<svg width="24" height="24" viewBox="0 0 24 24" fill="none" xmlns="http://www.w3.org/2000/svg">
<path fill-rule="evenodd" clip-rule="evenodd" d="M10.3287 2.32161C11.0866 1.06267 12.9125 1.06276 13.6705 2.32161L16.0005 6.19466C16.0633 6.29889 16.1662 6.37312 16.2847 6.40071L20.688 7.42024C22.1199 7.75195 22.6837 9.48903 21.7203 10.599L18.7574 14.012C18.678 14.1039 18.6386 14.2241 18.649 14.345L19.0396 18.848C19.1666 20.3123 17.6898 21.3852 16.3365 20.8118L12.1753 19.0492C12.0632 19.0018 11.9359 19.0017 11.8238 19.0492L7.66265 20.8118C6.30943 21.3848 4.83256 20.3121 4.95952 18.848L5.35015 14.345C5.36052 14.224 5.32128 14.1039 5.24175 14.012L2.27886 10.599C1.31568 9.48914 1.87968 7.7522 3.31108 7.42024L7.7144 6.40071C7.83295 6.37322 7.93575 6.29886 7.99858 6.19466L10.3287 2.32161ZM12.3853 3.09505C12.2103 2.80491 11.7887 2.80482 11.6138 3.09505L9.28374 6.9681C9.01145 7.42035 8.56659 7.74352 8.05229 7.86263L3.64995 8.88216C3.31992 8.95894 3.18963 9.35953 3.41167 9.61556L6.37456 13.0286C6.72042 13.4273 6.88985 13.9491 6.84429 14.4749L6.45366 18.9779C6.42446 19.3155 6.76553 19.5629 7.07768 19.431L11.2388 17.6683C11.7249 17.4624 12.2742 17.4625 12.7603 17.6683L16.9214 19.431C17.2337 19.5633 17.5747 19.3157 17.5455 18.9779L17.1548 14.4749C17.1093 13.9493 17.2789 13.4272 17.6246 13.0286L20.5875 9.61556C20.8098 9.35941 20.6796 8.95869 20.3492 8.88216L15.9468 7.86263C15.4326 7.74341 14.9876 7.42037 14.7154 6.9681L12.3853 3.09505Z" fill="black"/>
</svg>
