<svg width="24" height="24" viewBox="0 0 24 24" fill="none" xmlns="http://www.w3.org/2000/svg">
<path fill-rule="evenodd" clip-rule="evenodd" d="M12 1.25C17.9371 1.25 22.75 6.06294 22.75 12C22.75 17.9371 17.9371 22.75 12 22.75C6.06294 22.75 1.25 17.9371 1.25 12C1.25 6.06294 6.06294 1.25 12 1.25ZM6.01172 19.0479C7.62553 20.4204 9.71545 21.25 12 21.25C17.1086 21.25 21.25 17.1086 21.25 12C21.25 9.71545 20.4204 7.62553 19.0479 6.01172L6.01172 19.0479ZM12 2.75C6.89137 2.75 2.75 6.89137 2.75 12C2.75 14.2841 3.57917 16.3736 4.95117 17.9873L17.9873 4.95117C16.3736 3.57917 14.2841 2.75 12 2.75Z" fill="black"/>
</svg>
