<svg width="24" height="24" viewBox="0 0 24 24" fill="none" xmlns="http://www.w3.org/2000/svg">
<path d="M6.25024 7.00037C6.25024 7.41459 6.58602 7.75037 7.00024 7.75037L18.1897 7.75037L16.47 9.4701C16.1771 9.76299 16.1771 10.2378 16.47 10.5306C16.7629 10.8234 17.2377 10.8235 17.5305 10.5306L19.8235 8.23768C20.5066 7.55431 20.5066 6.44644 19.8235 5.76307L17.5305 3.4701C17.2377 3.17725 16.7629 3.17732 16.47 3.4701C16.1771 3.76299 16.1771 4.23775 16.47 4.53065L18.1897 6.25037L7.00024 6.25037C6.58602 6.25037 6.25024 6.58616 6.25024 7.00037Z" fill="black"/>
<path d="M5.17699 14.7631C4.49357 15.4465 4.49358 16.5543 5.17699 17.2377L7.46996 19.5306C7.76286 19.8234 8.23765 19.8235 8.53051 19.5306C8.82325 19.2378 8.82325 18.763 8.53051 18.4701L6.81078 16.7504H18.0002C18.4143 16.7502 18.7502 16.4145 18.7502 16.0004C18.7502 15.5862 18.4143 15.2505 18.0002 15.2504H6.81078L8.53051 13.5306C8.82325 13.2378 8.82325 12.763 8.53051 12.4701C8.23765 12.1772 7.76286 12.1773 7.46996 12.4701L5.17699 14.7631Z" fill="black"/>
</svg>
