<svg width="24" height="24" viewBox="0 0 24 24" fill="none" xmlns="http://www.w3.org/2000/svg">
<path d="M20.7693 15.156C20.5517 14.2146 19.6113 13.6271 18.6697 13.8445L15.5105 14.574C15.1073 14.6673 14.8562 15.0701 14.949 15.4734C15.0422 15.8769 15.4449 16.1289 15.8484 16.0359L18.4344 15.4382C18.3746 15.4908 18.3202 15.552 18.2781 15.6248C17.6096 16.7826 16.6338 17.7329 15.4588 18.3708C14.2838 19.0088 12.9551 19.31 11.6199 19.24C10.2849 19.1699 8.99509 18.7315 7.89335 17.9744C6.79173 17.2171 5.91953 16.1702 5.37577 14.949C5.20719 14.5711 4.76463 14.4001 4.38651 14.5681C4.00848 14.7365 3.83781 15.1802 4.00565 15.5583C4.66192 17.0324 5.71407 18.2967 7.04374 19.2107C8.37347 20.1245 9.93052 20.6535 11.5418 20.738C13.1531 20.8224 14.7566 20.4591 16.1746 19.6892C17.5656 18.934 18.7238 17.8151 19.5291 16.4539L20.0369 18.6531C20.1301 19.0565 20.5328 19.3076 20.9363 19.2146C21.3399 19.1214 21.592 18.7188 21.4988 18.3152L20.7693 15.156Z" fill="black"/>
<path d="M12.4578 3.26147C10.8464 3.1771 9.24203 3.54038 7.82401 4.3103C6.43328 5.06549 5.27374 6.18363 4.46854 7.54468L3.9617 5.34643C3.86829 4.94316 3.4657 4.6908 3.06229 4.78394C2.65922 4.87721 2.4082 5.28018 2.50077 5.68335L3.23026 8.84351C3.44774 9.78502 4.38732 10.3723 5.32889 10.155L8.48807 9.42554C8.8916 9.33238 9.14361 8.92965 9.05057 8.52612C8.9572 8.12296 8.55445 7.87075 8.15116 7.96362L5.56424 8.5603C5.62395 8.50777 5.67852 8.44743 5.72049 8.37475C6.38895 7.21703 7.36503 6.26662 8.53983 5.62866C9.7147 4.99076 11.0437 4.68966 12.3787 4.75952C13.7137 4.82949 15.0044 5.26802 16.1062 6.02514C17.2077 6.78229 18.079 7.82954 18.6228 9.05054C18.7913 9.42889 19.2347 9.59976 19.6131 9.43139C19.9913 9.26294 20.1612 8.81948 19.993 8.44116C19.3366 6.96732 18.2854 5.7027 16.9558 4.78882C15.6262 3.87509 14.0689 3.34599 12.4578 3.26147Z" fill="black"/>
</svg>
