<svg width="24" height="24" viewBox="0 0 24 24" fill="none" xmlns="http://www.w3.org/2000/svg">
<path d="M16.9998 6.24987C16.5857 6.24992 16.2498 6.58569 16.2498 6.99987L16.2499 18.1893L14.5301 16.4696C14.2372 16.1767 13.7625 16.1767 13.4696 16.4696C13.1769 16.7625 13.1767 17.2373 13.4696 17.5301L15.7625 19.8231C16.4459 20.5063 17.5538 20.5062 18.2372 19.8231L20.5301 17.5301C20.823 17.2373 20.8229 16.7625 20.5301 16.4696C20.2372 16.1767 19.7625 16.1767 19.4696 16.4696L17.7499 18.1893L17.7498 6.99987C17.7498 6.58565 17.4141 6.24987 16.9998 6.24987Z" fill="black"/>
<path d="M9.23715 5.17663C8.55374 4.49321 7.44596 4.49321 6.76254 5.17663L4.46958 7.46959C4.17687 7.7625 4.17675 8.23731 4.46958 8.53014C4.76241 8.82288 5.23725 8.82281 5.53012 8.53014L7.24985 6.81041L7.24985 17.9999C7.25 18.4139 7.58577 18.7498 7.99985 18.7499C8.41397 18.7499 8.7497 18.414 8.74985 17.9999L8.74985 6.81041L10.4696 8.53014C10.7624 8.82288 11.2372 8.82281 11.5301 8.53014C11.823 8.23728 11.8229 7.76249 11.5301 7.46959L9.23715 5.17663Z" fill="black"/>
</svg>
