<svg width="24" height="24" viewBox="0 0 24 24" fill="none" xmlns="http://www.w3.org/2000/svg">
<path d="M14.4697 10.4697C14.7626 10.1768 15.2374 10.1768 15.5303 10.4697C15.8232 10.7626 15.8232 11.2374 15.5303 11.5303L12.5303 14.5303C12.2374 14.8232 11.7626 14.8232 11.4697 14.5303C11.1768 14.2374 11.1768 13.7626 11.4697 13.4697L14.4697 10.4697Z" fill="black"/>
<path fill-rule="evenodd" clip-rule="evenodd" d="M14 1.25C14.4142 1.25 14.75 1.58579 14.75 2C14.75 2.41421 14.4142 2.75 14 2.75H12.75V4.28125C14.753 4.43366 16.5852 5.19073 18.0674 6.37109L18.4697 5.96973C18.7626 5.67683 19.2374 5.67683 19.5303 5.96973C19.8232 6.26262 19.8232 6.73738 19.5303 7.03027L19.167 7.39258C20.7696 9.12999 21.75 11.45 21.75 14C21.75 19.3848 17.3848 23.75 12 23.75C6.61522 23.75 2.25 19.3848 2.25 14C2.25 8.86765 6.21577 4.66432 11.25 4.28125V2.75H10C9.58579 2.75 9.25 2.41421 9.25 2C9.25 1.58579 9.58579 1.25 10 1.25H14ZM12 5.75C7.44365 5.75 3.75 9.44365 3.75 14C3.75 18.5563 7.44365 22.25 12 22.25C16.5563 22.25 20.25 18.5563 20.25 14C20.25 9.44365 16.5563 5.75 12 5.75Z" fill="black"/>
</svg>
