<svg width="24" height="24" viewBox="0 0 24 24" fill="none" xmlns="http://www.w3.org/2000/svg">
<path d="M12 7.25C12.4142 7.25 12.75 7.58579 12.75 8V11.5986L15.416 13.376C15.7607 13.6057 15.8538 14.0714 15.624 14.416C15.3943 14.7607 14.9286 14.8538 14.584 14.624L11.8066 12.7725C11.4589 12.5406 11.25 12.1504 11.25 11.7324V8C11.25 7.58579 11.5858 7.25 12 7.25Z" fill="black"/>
<path fill-rule="evenodd" clip-rule="evenodd" d="M12 1.25C17.9371 1.25 22.75 6.06294 22.75 12C22.75 17.9371 17.9371 22.75 12 22.75C6.06294 22.75 1.25 17.9371 1.25 12C1.25 6.06294 6.06294 1.25 12 1.25ZM12 2.75C6.89137 2.75 2.75 6.89137 2.75 12C2.75 17.1086 6.89137 21.25 12 21.25C17.1086 21.25 21.25 17.1086 21.25 12C21.25 6.89137 17.1086 2.75 12 2.75Z" fill="black"/>
</svg>
