<svg width="24" height="24" viewBox="0 0 24 24" fill="none" xmlns="http://www.w3.org/2000/svg">
<path d="M15.8105 13.8496C16.1139 13.5678 16.1312 13.0935 15.8496 12.79L13.332 10.0791C12.6397 9.33351 11.4599 9.3335 10.7676 10.0791L8.25 12.79C7.96855 13.0936 7.98664 13.5679 8.29004 13.8496C8.59354 14.1312 9.06781 14.1139 9.34961 13.8105L11.8672 11.0996C11.9661 10.9932 12.1345 10.9931 12.2334 11.0996L14.75 13.8105C15.0319 14.1141 15.507 14.1315 15.8105 13.8496Z" fill="black"/>
<path fill-rule="evenodd" clip-rule="evenodd" d="M22.75 12C22.75 6.06294 17.9371 1.25 12 1.25C6.06294 1.25 1.25 6.06294 1.25 12C1.25 17.9371 6.06294 22.75 12 22.75C17.9371 22.75 22.75 17.9371 22.75 12ZM21.25 12C21.25 17.1086 17.1086 21.25 12 21.25C6.89137 21.25 2.75 17.1086 2.75 12C2.75 6.89137 6.89137 2.75 12 2.75C17.1086 2.75 21.25 6.89137 21.25 12Z" fill="black"/>
</svg>
