<svg width="24" height="24" viewBox="0 0 24 24" fill="none" xmlns="http://www.w3.org/2000/svg">
<path d="M8.42188 10.1719C8.42188 9.20538 9.20538 8.42188 10.1719 8.42188H13.4141C13.8283 8.42188 14.1641 8.75766 14.1641 9.17188C14.1639 9.58595 13.8282 9.92187 13.4141 9.92188H10.9824L15.3584 14.2979C15.6513 14.5907 15.6513 15.0655 15.3584 15.3584C15.0655 15.6513 14.5907 15.6513 14.2979 15.3584L9.92188 10.9824V13.4141C9.92187 13.8282 9.58595 14.1639 9.17188 14.1641C8.75766 14.1641 8.42188 13.8283 8.42188 13.4141V10.1719Z" fill="black"/>
<path fill-rule="evenodd" clip-rule="evenodd" d="M1.25 12C1.25 6.06294 6.06294 1.25 12 1.25C17.9371 1.25 22.75 6.06294 22.75 12C22.75 17.9371 17.9371 22.75 12 22.75C6.06294 22.75 1.25 17.9371 1.25 12ZM2.75 12C2.75 17.1086 6.89137 21.25 12 21.25C17.1086 21.25 21.25 17.1086 21.25 12C21.25 6.89137 17.1086 2.75 12 2.75C6.89137 2.75 2.75 6.89137 2.75 12Z" fill="black"/>
</svg>
