<svg width="24" height="24" viewBox="0 0 24 24" fill="none" xmlns="http://www.w3.org/2000/svg">
<path d="M15.5781 10.1719C15.5781 9.20538 14.7946 8.42188 13.8281 8.42188H10.5859C10.1717 8.42188 9.83594 8.75766 9.83594 9.17188C9.8361 9.58595 10.1718 9.92187 10.5859 9.92188H13.0176L8.6416 14.2979C8.34872 14.5907 8.34871 15.0655 8.6416 15.3584C8.93449 15.6513 9.40925 15.6513 9.70215 15.3584L14.0781 10.9824V13.4141C14.0781 13.8282 14.4141 14.1639 14.8281 14.1641C15.2423 14.1641 15.5781 13.8283 15.5781 13.4141V10.1719Z" fill="black"/>
<path fill-rule="evenodd" clip-rule="evenodd" d="M22.75 12C22.75 6.06294 17.9371 1.25 12 1.25C6.06294 1.25 1.25 6.06294 1.25 12C1.25 17.9371 6.06294 22.75 12 22.75C17.9371 22.75 22.75 17.9371 22.75 12ZM21.25 12C21.25 17.1086 17.1086 21.25 12 21.25C6.89137 21.25 2.75 17.1086 2.75 12C2.75 6.89137 6.89137 2.75 12 2.75C17.1086 2.75 21.25 6.89137 21.25 12Z" fill="black"/>
</svg>
