<svg width="24" height="24" viewBox="0 0 24 24" fill="none" xmlns="http://www.w3.org/2000/svg">
<path d="M13.2373 8.17676C12.5539 7.49344 11.4461 7.49344 10.7627 8.17676L8.46973 10.4697C8.17683 10.7626 8.17683 11.2374 8.46973 11.5303C8.76262 11.8232 9.23738 11.8232 9.53027 11.5303L11.25 9.81055V16C11.25 16.4142 11.5858 16.75 12 16.75C12.4142 16.75 12.75 16.4142 12.75 16V9.81055L14.4697 11.5303C14.7626 11.8232 15.2374 11.8232 15.5303 11.5303C15.8232 11.2374 15.8232 10.7626 15.5303 10.4697L13.2373 8.17676Z" fill="black"/>
<path fill-rule="evenodd" clip-rule="evenodd" d="M7 1.25C3.82436 1.25 1.25 3.82436 1.25 7V17C1.25 20.1756 3.82436 22.75 7 22.75H17L17.2959 22.7422C20.334 22.5882 22.75 20.0764 22.75 17V7C22.75 3.82436 20.1756 1.25 17 1.25H7ZM17 2.75C19.3472 2.75 21.25 4.65279 21.25 7V17C21.25 19.3472 19.3472 21.25 17 21.25H7C4.65279 21.25 2.75 19.3472 2.75 17V7C2.75 4.65279 4.65279 2.75 7 2.75H17Z" fill="black"/>
</svg>
