<svg width="24" height="24" viewBox="0 0 24 24" fill="none" xmlns="http://www.w3.org/2000/svg">
<path fill-rule="evenodd" clip-rule="evenodd" d="M6.09863 14.3115C9.9147 12.9486 14.0853 12.9486 17.9014 14.3115C19.0099 14.7076 19.75 15.7574 19.75 16.9346V18.25C19.75 19.8938 18.2942 21.1562 16.667 20.9238L15.7119 20.7881C13.2498 20.4364 10.7502 20.4364 8.28809 20.7881L7.33301 20.9238C5.70576 21.1562 4.25 19.8938 4.25 18.25V16.9346C4.25004 15.7574 4.9901 14.7076 6.09863 14.3115ZM17.3965 15.7236C13.9068 14.4774 10.0932 14.4774 6.60352 15.7236C6.09181 15.9064 5.75004 16.3912 5.75 16.9346V18.25C5.75 18.981 6.39744 19.5428 7.12109 19.4395L8.0752 19.3027C10.6783 18.9309 13.3217 18.9309 15.9248 19.3027L16.8789 19.4395C17.6026 19.5428 18.25 18.981 18.25 18.25V16.9346C18.25 16.3912 17.9082 15.9064 17.3965 15.7236Z" fill="black"/>
<path fill-rule="evenodd" clip-rule="evenodd" d="M12 2.25C14.6234 2.25 16.75 4.37665 16.75 7C16.75 9.62335 14.6234 11.75 12 11.75C9.37665 11.75 7.25 9.62335 7.25 7C7.25 4.37665 9.37665 2.25 12 2.25ZM12 3.75C10.2051 3.75 8.75 5.20507 8.75 7C8.75 8.79493 10.2051 10.25 12 10.25C13.7949 10.25 15.25 8.79493 15.25 7C15.25 5.20507 13.7949 3.75 12 3.75Z" fill="black"/>
</svg>
