<svg width="24" height="24" viewBox="0 0 24 24" fill="none" xmlns="http://www.w3.org/2000/svg">
<path fill-rule="evenodd" clip-rule="evenodd" d="M7.15234 14.5215C10.4242 13.353 14.0006 13.353 17.2725 14.5215C18.2604 14.8744 18.9199 15.8103 18.9199 16.8594V17.9785C18.9199 19.4455 17.6202 20.5727 16.168 20.3652L15.835 20.3174C13.4324 19.9742 10.9924 19.9742 8.58984 20.3174L8.25684 20.3652C6.80476 20.5724 5.50488 19.4454 5.50488 17.9785V16.8594C5.50489 15.8104 6.1646 14.8745 7.15234 14.5215ZM16.7676 15.9336C13.8221 14.8818 10.6027 14.8817 7.65723 15.9336C7.26639 16.0734 7.00489 16.4443 7.00488 16.8594V17.9785C7.00488 18.5324 7.49569 18.9587 8.04395 18.8809L8.37793 18.833C10.9212 18.4697 13.5036 18.4697 16.0469 18.833L16.3799 18.8809C16.9285 18.9592 17.4199 18.5327 17.4199 17.9785V16.8594C17.4199 16.4441 17.1586 16.0733 16.7676 15.9336Z" fill="black"/>
<path d="M4.41113 13.4014C4.81751 13.3232 5.21039 13.5898 5.28906 13.9961C5.36725 14.4026 5.1009 14.7956 4.69434 14.874C4.17415 14.9744 3.65938 15.1149 3.15527 15.2949C2.91226 15.3818 2.75019 15.613 2.75 15.8711V16.75C2.75 17.0875 3.04876 17.3473 3.38281 17.2998L3.64453 17.2617C4.05438 17.2032 4.4343 17.4887 4.49316 17.8984C4.55172 18.3084 4.26726 18.6883 3.85742 18.7471L3.59473 18.7842C2.35708 18.9607 1.25 18.0003 1.25 16.75V15.8711C1.25019 14.9793 1.81065 14.1831 2.65039 13.8828C3.22679 13.677 3.81627 13.5162 4.41113 13.4014Z" fill="black"/>
<path d="M18.7109 13.9961C18.7896 13.5898 19.1825 13.3232 19.5889 13.4014C20.1837 13.5162 20.7732 13.677 21.3496 13.8828C22.1894 14.1831 22.7498 14.9793 22.75 15.8711V16.75C22.75 18.0003 21.6429 18.9607 20.4053 18.7842L20.1426 18.7471C19.7327 18.6883 19.4483 18.3084 19.5068 17.8984C19.5657 17.4887 19.9456 17.2032 20.3555 17.2617L20.6172 17.2998C20.9513 17.3473 21.25 17.0875 21.25 16.75V15.8711C21.2498 15.613 21.0878 15.3818 20.8447 15.2949C20.3406 15.1149 19.8259 14.9744 19.3057 14.874C18.8991 14.7956 18.6327 14.4026 18.7109 13.9961Z" fill="black"/>
<path d="M6.68066 5.80273C7.09472 5.80275 7.43043 6.13873 7.43066 6.55273C7.43066 6.96694 7.09486 7.30272 6.68066 7.30273C5.61789 7.30286 4.75609 8.16479 4.75586 9.22754C4.75588 10.2905 5.61776 11.1522 6.68066 11.1523C7.09472 11.1524 7.43043 11.4883 7.43066 11.9023C7.43063 12.3165 7.09484 12.6523 6.68066 12.6523C4.78933 12.6522 3.25588 11.1189 3.25586 9.22754C3.25609 7.33636 4.78946 5.80286 6.68066 5.80273Z" fill="black"/>
<path d="M17.3193 5.80273C19.2105 5.80285 20.7439 7.33635 20.7441 9.22754C20.7441 11.1189 19.2107 12.6522 17.3193 12.6523C16.9052 12.6523 16.5694 12.3165 16.5693 11.9023C16.5696 11.4883 16.9053 11.1524 17.3193 11.1523C18.3823 11.1522 19.2441 10.2905 19.2441 9.22754C19.2439 8.16478 18.3821 7.30285 17.3193 7.30273C16.9051 7.30272 16.5693 6.96694 16.5693 6.55273C16.5696 6.13873 16.9053 5.80275 17.3193 5.80273Z" fill="black"/>
<path fill-rule="evenodd" clip-rule="evenodd" d="M12.2129 4.25C14.5071 4.25009 16.3672 6.11002 16.3672 8.4043C16.3671 10.6985 14.5071 12.5585 12.2129 12.5586C9.9186 12.5586 8.05863 10.6986 8.05859 8.4043C8.05859 6.10998 9.91858 4.25002 12.2129 4.25ZM12.2129 5.75C10.747 5.75002 9.55859 6.93841 9.55859 8.4043C9.55863 9.87015 10.747 11.0586 12.2129 11.0586C13.6787 11.0585 14.8671 9.87011 14.8672 8.4043C14.8672 6.93845 13.6787 5.75009 12.2129 5.75Z" fill="black"/>
</svg>
