<svg width="24" height="24" viewBox="0 0 24 24" fill="none" xmlns="http://www.w3.org/2000/svg">
<path fill-rule="evenodd" clip-rule="evenodd" d="M12.5 5.25C14.8472 5.25 16.75 7.15279 16.75 9.5V9.72754L19.6885 7.69043C20.9815 6.79377 22.7497 7.71858 22.75 9.29199V15.7256C22.7499 17.2935 20.9934 18.2201 19.6992 17.335L16.75 15.3174V15.5C16.75 17.8472 14.8472 19.75 12.5 19.75H5.5C3.15279 19.75 1.25 17.8472 1.25 15.5V9.5C1.25 7.15279 3.15279 5.25 5.5 5.25H12.5ZM5.5 6.75C3.98122 6.75 2.75 7.98122 2.75 9.5V15.5C2.75 17.0188 3.98122 18.25 5.5 18.25H12.5C14.0188 18.25 15.25 17.0188 15.25 15.5V9.5C15.25 7.98122 14.0188 6.75 12.5 6.75H5.5ZM21.25 9.29199C21.2497 8.92915 20.8422 8.71616 20.5439 8.92285L16.75 11.5537V13.5L20.5459 16.0967C20.8445 16.3009 21.2499 16.0873 21.25 15.7256V9.29199Z" fill="black"/>
</svg>
