<svg width="24" height="24" viewBox="0 0 24 24" fill="none" xmlns="http://www.w3.org/2000/svg">
<path d="M12.415 18.0313C12.6741 17.7082 13.1456 17.6562 13.4688 17.9151L14.8691 19.0372L14.8906 19.0548L15.1826 19.3077C15.9925 20.0073 17.25 19.4316 17.25 18.3614V13.0001C17.25 12.5859 17.5858 12.2501 18 12.2501C18.4142 12.2501 18.75 12.5859 18.75 13.0001V18.3614C18.75 20.7159 15.9839 21.9816 14.2021 20.4425L13.9307 20.2081L12.5312 19.085C12.2081 18.826 12.1561 18.3545 12.415 18.0313ZM17.25 6.37019C17.2496 5.30029 15.9924 4.72538 15.1826 5.42488L11.8535 8.30085C11.354 8.73237 10.7158 8.96979 10.0557 8.9698H8.5C7.53351 8.96981 6.75001 9.75331 6.75 10.7198V14.0128C6.75 14.9793 7.5335 15.7628 8.5 15.7628H10.7998V17.2628H8.5C6.70507 17.2628 5.25 15.8077 5.25 14.0128V10.7198C5.25001 8.92489 6.70509 7.46981 8.5 7.4698H10.0557C10.3557 7.4698 10.646 7.36218 10.873 7.16609L14.2021 4.29011C15.9837 2.75108 18.7496 4.01605 18.75 6.37019V9.00007H17.25V6.37019Z" fill="black"/>
<path d="M22.5301 5.53062L22.5819 5.47331C22.8221 5.17873 22.8047 4.74451 22.5301 4.46996C22.2556 4.19541 21.8213 4.17801 21.5268 4.41817L21.4694 4.46996L6.46967 19.4697C6.17678 19.7626 6.17678 20.2375 6.46967 20.5304C6.76256 20.8233 7.23744 20.8233 7.53033 20.5304L22.5301 5.53062Z" fill="black"/>
</svg>
