<svg width="24" height="24" viewBox="0 0 24 24" fill="none" xmlns="http://www.w3.org/2000/svg">
<path d="M13.25 6.37019C13.2496 5.30029 11.9924 4.72538 11.1826 5.42488L7.85352 8.30085C7.35399 8.73237 6.71576 8.96979 6.05566 8.9698H4.5C3.53351 8.96981 2.75001 9.75331 2.75 10.7198V14.0128C2.75 14.9793 3.5335 15.7628 4.5 15.7628H6.05566C6.71576 15.7628 7.35399 16.0002 7.85352 16.4317L11.1826 19.3077C11.9925 20.0073 13.25 19.4316 13.25 18.3614V6.37019ZM14.75 18.3614C14.75 20.7159 11.9839 21.9816 10.2021 20.4425L6.87305 17.5665C6.64601 17.3704 6.35566 17.2628 6.05566 17.2628H4.5C2.70507 17.2628 1.25 15.8077 1.25 14.0128V10.7198C1.25001 8.92489 2.70509 7.46981 4.5 7.4698H6.05566C6.35567 7.4698 6.646 7.36218 6.87305 7.16609L10.2021 4.29011C11.9837 2.75108 14.7496 4.01605 14.75 6.37019V18.3614Z" fill="black"/>
<path d="M18.5303 14.6519C18.2374 14.9448 17.7626 14.9448 17.4697 14.6519C17.1768 14.3591 17.1768 13.8842 17.4697 13.5913L21.7123 9.34865C22.0052 9.05576 22.4801 9.05576 22.773 9.34865C23.0659 9.64154 23.0659 10.1164 22.773 10.4093L18.5303 14.6519Z" fill="black"/>
<path d="M17.4697 10.4093C17.1768 10.1165 17.1768 9.64158 17.4697 9.34868C17.7626 9.05579 18.2374 9.05579 18.5303 9.34868L22.773 13.5913C23.0659 13.8842 23.0659 14.3591 22.773 14.652C22.4801 14.9449 22.0052 14.9449 21.7123 14.652L17.4697 10.4093Z" fill="black"/>
</svg>
