<svg width="24" height="24" viewBox="0 0 24 24" fill="none" xmlns="http://www.w3.org/2000/svg">
<path fill-rule="evenodd" clip-rule="evenodd" d="M10.2021 4.2906C11.9837 2.75157 14.7496 4.01654 14.75 6.37068V18.3619C14.7497 20.716 11.9838 21.9817 10.2021 20.4429L6.87305 17.567C6.64601 17.3709 6.35566 17.2633 6.05566 17.2633H4.5C2.70521 17.2633 1.25022 15.808 1.25 14.0133V10.7203C1.25001 8.92538 2.70509 7.4703 4.5 7.47029H6.05566C6.35558 7.47029 6.64603 7.36256 6.87305 7.16658L10.2021 4.2906ZM13.25 6.37068C13.2496 5.30078 11.9924 4.72586 11.1826 5.42537L7.85352 8.30134C7.35402 8.73274 6.71567 8.97028 6.05566 8.97029H4.5C3.53351 8.9703 2.75001 9.7538 2.75 10.7203V14.0133C2.75022 14.9796 3.53364 15.7633 4.5 15.7633H6.05566C6.71576 15.7633 7.35399 16.0007 7.85352 16.4322L11.1826 19.3082C11.9924 20.0074 13.2497 19.4317 13.25 18.3619V6.37068Z" fill="black"/>
<path d="M21.7119 9.34919C22.0048 9.0563 22.4805 9.0563 22.7734 9.34919C23.0658 9.64211 23.0661 10.117 22.7734 10.4097L21.1816 12.0006L22.7734 13.5914C23.066 13.8842 23.066 14.3591 22.7734 14.6519C22.4805 14.9448 22.0048 14.9448 21.7119 14.6519L20.1211 13.0611L18.5303 14.6519C18.2374 14.9448 17.7626 14.9448 17.4697 14.6519C17.1769 14.359 17.1768 13.8843 17.4697 13.5914L19.0605 12.0006L17.4697 10.4097C17.1769 10.1169 17.177 9.6421 17.4697 9.34919C17.7626 9.0563 18.2374 9.0563 18.5303 9.34919L20.1211 10.939L21.7119 9.34919Z" fill="black"/>
</svg>
