<svg width="24" height="24" viewBox="0 0 24 24" fill="none" xmlns="http://www.w3.org/2000/svg">
<path d="M18 12.2506C18.4142 12.2506 18.75 12.5864 18.75 13.0006V18.3619C18.7497 20.716 15.9838 21.9817 14.2021 20.4429L13.9307 20.2086L12.5312 19.0855C12.2082 18.8265 12.1563 18.355 12.415 18.0318C12.6741 17.7087 13.1456 17.6566 13.4688 17.9156L14.8691 19.0377L14.8906 19.0552L15.1826 19.3082C15.9924 20.0074 17.2497 19.4317 17.25 18.3619V13.0006C17.25 12.5863 17.5858 12.2506 18 12.2506Z" fill="black"/>
<path fill-rule="evenodd" clip-rule="evenodd" d="M14.2021 4.2906C15.9837 2.75157 18.7496 4.01654 18.75 6.37068V7.19001L21.4697 4.47029L21.5264 4.41853C21.8209 4.17837 22.2557 4.19574 22.5303 4.47029C22.8046 4.7448 22.822 5.17872 22.582 5.47322L22.5303 5.53083L10.7998 17.2613V17.2633H10.7979L7.53027 20.5308C7.23743 20.8234 6.76257 20.8234 6.46973 20.5308C6.1769 20.238 6.17704 19.7632 6.46973 19.4703L8.67676 17.2633H8.5C6.70521 17.2633 5.25022 15.808 5.25 14.0133V10.7203C5.25001 8.92538 6.70509 7.4703 8.5 7.47029H10.0557C10.3556 7.47029 10.646 7.36256 10.873 7.16658L14.2021 4.2906ZM17.25 6.37068C17.2496 5.30078 15.9924 4.72586 15.1826 5.42537L11.8535 8.30134C11.354 8.73274 10.7157 8.97028 10.0557 8.97029H8.5C7.53351 8.97029 6.75001 9.7538 6.75 10.7203V14.0133C6.75022 14.9796 7.53364 15.7633 8.5 15.7633H10.1768L17.25 8.69001V6.37068Z" fill="black"/>
</svg>
