<svg width="24" height="24" viewBox="0 0 24 24" fill="none" xmlns="http://www.w3.org/2000/svg">
<path fill-rule="evenodd" clip-rule="evenodd" d="M11.2021 4.2906C12.9837 2.75157 15.7496 4.01654 15.75 6.37068V18.3619C15.7497 20.716 12.9838 21.9817 11.2021 20.4429L7.87305 17.567C7.64601 17.3709 7.35566 17.2633 7.05566 17.2633H5.5C3.70521 17.2633 2.25022 15.808 2.25 14.0133V10.7203C2.25001 8.92538 3.70509 7.4703 5.5 7.47029H7.05566C7.35558 7.47029 7.64603 7.36256 7.87305 7.16658L11.2021 4.2906ZM14.25 6.37068C14.2496 5.30078 12.9924 4.72586 12.1826 5.42537L8.85352 8.30134C8.35402 8.73274 7.71567 8.97028 7.05566 8.97029H5.5C4.53351 8.9703 3.75001 9.7538 3.75 10.7203V14.0133C3.75022 14.9796 4.53364 15.7633 5.5 15.7633H7.05566C7.71576 15.7633 8.35399 16.0007 8.85352 16.4322L12.1826 19.3082C12.9924 20.0074 14.2497 19.4317 14.25 18.3619V6.37068Z" fill="black"/>
<path d="M19.5498 5.76716C19.8809 5.51858 20.3508 5.58556 20.5996 5.91658C21.9496 7.71326 22.75 9.94764 22.75 12.3668C22.75 14.7859 21.9496 17.0203 20.5996 18.817C20.3508 19.148 19.8809 19.215 19.5498 18.9664C19.2188 18.7176 19.1518 18.2477 19.4004 17.9166C20.562 16.3707 21.25 14.4499 21.25 12.3668C21.25 10.2836 20.562 8.36285 19.4004 6.81697C19.1518 6.48583 19.2187 6.01592 19.5498 5.76716Z" fill="black"/>
<path d="M17.5498 8.76716C17.8809 8.51858 18.3508 8.58556 18.5996 8.91658C19.3217 9.8776 19.75 11.0732 19.75 12.3668C19.75 13.6603 19.3216 14.8559 18.5996 15.817C18.3508 16.148 17.8809 16.215 17.5498 15.9664C17.2188 15.7176 17.1518 15.2477 17.4004 14.9166C17.934 14.2063 18.25 13.3243 18.25 12.3668C18.25 11.4092 17.9341 10.5272 17.4004 9.81697C17.1518 9.48583 17.2187 9.01592 17.5498 8.76716Z" fill="black"/>
</svg>
