<svg width="24" height="24" viewBox="0 0 24 24" fill="none" xmlns="http://www.w3.org/2000/svg">
<path d="M12 16.7505C12.4142 16.7505 12.75 17.0863 12.75 17.5005C12.7497 17.9145 12.4141 18.2505 12 18.2505H6C5.58595 18.2505 5.25026 17.9145 5.25 17.5005C5.25 17.0863 5.58579 16.7505 6 16.7505H12Z" fill="black"/>
<path d="M17.7002 13.2505C18.1143 13.2506 18.4502 13.5864 18.4502 14.0005C18.4499 14.4144 18.1142 14.7504 17.7002 14.7505H17.5C17.0859 14.7505 16.7503 14.4145 16.75 14.0005C16.75 13.5863 17.0858 13.2505 17.5 13.2505H17.7002Z" fill="black"/>
<path fill-rule="evenodd" clip-rule="evenodd" d="M14.4414 2.17336C16.992 1.64835 19.3913 3.42481 19.7119 5.92922C21.4511 6.86128 22.6539 8.66127 22.7432 10.7505H22.75V17.2505H22.7432C22.612 20.3099 20.0917 22.7505 17 22.7505H7C3.82453 22.7505 1.25026 20.1759 1.25 17.0005V9.5757C1.25012 6.84714 3.1683 4.49414 5.84082 3.94387L14.4414 2.17336ZM7 6.75051C4.65279 6.75051 2.75 8.6533 2.75 11.0005V17.0005C2.75026 19.3475 4.65295 21.2505 7 21.2505H17C19.2631 21.2505 21.1125 19.4811 21.2422 17.2505H17.5C15.7052 17.2505 14.2503 15.7952 14.25 14.0005C14.25 12.2056 15.7051 10.7505 17.5 10.7505H21.2422C21.113 8.51945 19.2634 6.75051 17 6.75051H7ZM17.5 12.2505C16.5335 12.2505 15.75 13.034 15.75 14.0005C15.7503 14.9668 16.5337 15.7505 17.5 15.7505H21.25V12.2505H17.5ZM18.0107 5.33938C17.4817 4.11935 16.1473 3.35348 14.7441 3.64211L6.92578 5.25149C6.95049 5.25117 6.97522 5.25051 7 5.25051H17C17.3449 5.25051 17.6826 5.28117 18.0107 5.33938Z" fill="black"/>
</svg>
